M48
;Layer_Color=9474304
;FILE_FORMAT=2:5
INCH,LZ
;TYPE=PLATED
T1F00S00C0.01200
T2F00S00C0.02400
T3F00S00C0.02800
T4F00S00C0.03000
T5F00S00C0.03150
T6F00S00C0.03543
T7F00S00C0.04000
T8F00S00C0.05118
T9F00S00C0.05906
T10F00S00C0.12598
;TYPE=NON_PLATED
T11F00S00C0.03937
%
T01
X1434941Y1187579
X1445472Y1185532
X1425394Y1213976
X1411122Y124252
X1401378Y1242126
X1385532Y1240748
X1375Y1245374
X1361614
X1352165Y1244783
X1342388Y1246813
X1338487Y1246952
X1334744Y1232776
X1355878Y1229949
X1353445Y1210335
X1348394Y1208449
X1349016Y1202165
X1348032Y119626
X134813Y1188386
X135315Y1190748
X1352096Y1184746
X1354724Y1198327
X1374213Y1214567
X1380905Y1220472
X1323394Y1213449
X1318394Y1208449
X1313394Y1203449
X1307283Y1203839
X1306299Y1210827
X1300886Y121122
X130374Y1198917
X1306299Y119311
X1306201Y1185728
X1311831Y1187949
X1312697Y119498
X1286614Y1222047
Y1231988
X1296555Y1234252
X1294094Y1237697
X1280799Y1239997
X1276575Y1235433
Y1224016
X1268996Y1230413
X1258071
X1250984Y1237697
X1269488Y124685
X1288295Y1248908
X1300098Y1248425
X1304035Y1248473
X1304331Y1244783
X1322025Y1248806
X1264468Y1208169
X1259153Y1202658
X1243602Y1204823
X1223622Y120187
X1203937Y1211122
X1248917Y125561
X1227264Y1292618
X1221161Y130502
X1217323Y1304331
X1210138Y1306201
Y1299016
X1215847Y1314173
Y1319685
X1221358
Y1314173
X1225787Y1326476
X1228347Y1323917
X1227059Y1339983
X1224508Y1343898
X1231791
X1234348Y1339983
X124065Y1343406
X1248228Y1354134
Y1357972
X1226673Y1357382
X1239075Y1371161
X1247736Y1393307
X1230512Y1395669
X1216535Y1395374
X1217323Y1389665
X1221358Y1389468
X1217618Y1385335
X121752Y1381496
X1219193Y1404134
X1191142Y1352953
X1190059Y1319291
X1202362Y1316634
X1207283Y132874
X124311Y1319193
X1255709Y1329626
Y1333366
Y1337008
X1278909Y1336486
X1284663Y1338369
X1290256Y1339173
X1297146Y1338484
X1300197
X1303248
X1306299
X130935
X1312402
X1315453
X131811Y1333858
X1318209Y1327362
X1320965Y1341831
X1321029Y1346818
X1328543Y1346063
X1334941Y1346161
X1338287Y1349803
X1331988Y1357677
X1329528Y1375197
X1329134Y1380906
X1331299Y1386024
X1324835Y1397079
X1326601Y1400124
X1328642Y1402461
X1367488Y1402234
X1369609Y1400113
X1371731Y1397991
X1373032Y1382283
X1372736Y1370276
X1371555Y136122
X1358858Y1357185
X1358268Y1347539
X1352264Y1337402
X1352461Y1321457
X1347441Y1316142
X1350984Y1310532
X1369488Y1305807
X1366535Y1301181
X1367094Y1318076
X1370191Y1318012
X1374477Y13166
X1377854Y1319783
X1381717Y1309425
X1390748Y1299016
X1387992Y129626
X1389075Y1269488
X1400984Y1272539
X1393504Y1254035
X1388583Y1252067
X1363583Y1251968
X1365748Y1267815
X1363091Y1272047
X136378Y1277461
X1360335Y1279528
X1354921Y1282087
Y1275
X1348917Y1269094
X1348228Y1264075
X133878Y1272933
X1341535Y1275787
X1332677Y127628
X132628Y1277559
X1323524Y1274705
X1328543Y1286811
X1339075Y1292224
X1341535Y1295177
X1360335Y1289468
X1376575Y127815
X139124Y1323425
X1394336Y1330807
X1387894Y1353937
X1305315Y134872
X1290453Y1330906
X1284547Y1322638
X1288287Y1316142
X1280512
X127874Y1327559
X127313Y1345866
X1273032Y1374606
X1284252Y1373524
X1289173Y1382874
X127628Y1384055
X1265354Y1381201
X125561Y1382087
X1267815Y1311417
X1278642Y1299016
X1278839Y1292421
X1282185Y1289567
X1280315Y1279823
X1286319Y1277362
X1288287Y1271161
X1294783Y1264862
X1298587Y1262168
X1302559Y1261614
X1305217Y1258465
X1303095Y1256343
X1295142Y1252915
X1322441Y1257185
X1339042Y1250356
X1312894Y1285236
X1317224Y1291929
X1318209Y1297835
X1287697Y1305315
X1270965Y1266732
X1273032Y1262598
X1417815Y1255512
X1430118Y1255315
X1445276Y1259449
X1454331Y1263189
X1457558Y1303916
X1428445Y1300591
X1406988Y1295374
X1441535Y1321161
X1454134Y1360335
X1467815Y1362697
X1467618Y1351181
X1459193Y1380965
X1454193Y1381555
X1449193Y1381614
X1459193Y140311
X1464193Y1403327
X1413189Y1391634
X1409547Y1393898
X1423298Y1370539
X144498Y1411417
X1449193Y1414095
X1454193Y1414016
X1468209Y1417913
Y1406594
X1464193Y1452736
X1459055Y1452854
X144685Y1461614
X1446653Y146998
X1455807Y1491437
X1369488Y1513091
X1308661Y1482972
X1308858Y143563
X1313316Y1435897
X1322604
X1328083Y1440091
X1318854Y1416732
X1299803Y143435
X1274311Y145315
X1255118Y1447835
X1258366Y1463681
X125374Y1407382
X1241339Y1406988
X123189Y1410925
X1235433Y1428248
X1244685Y1420669
X123937Y1477756
X1232972Y1542028
X11875Y1449311
T02
X1219094Y1341043
X1445571Y1327165
X1444685Y1252264
X1255315Y1480118
X1212598Y1423228
T03
X1335039Y1340256
X1389272Y1347244
T04
X1207402Y1228543
X1217402
T05
X1276575Y1187008
X1286417
X129626
T06
X1420276Y1191772
Y1201772
X1399803Y122561
X1389803
X1379803
X1369803
X1261732Y1187638
X1251732
X1241732
X1231732
X1221732
X1211732
X1201732
X1259882Y1358268
X1269882
X1279882
X1289882
X1299882
X1309882
X1319882
X1464567Y1331693
Y1321693
Y1311693
Y1301693
Y1461614
Y1471614
Y1481614
Y1491614
Y1501614
Y1511614
X1251968Y1561024
X1241969
T07
X1436082Y1222395
X1453882
Y1247995
X1436082
T08
X1198661Y1554134
X1218661
T09
X1348819Y1389567
X1435236Y1436614
Y1475984
Y1515354
X1348819Y1562402
X1262402Y1515354
Y1475984
Y1436614
T10
X1416732Y1226339
X1235512Y1226634
X1202598Y1345079
X1449646Y1345
Y1525669
X1202598
T11
X1375394Y120002
X1392717
M30
