%FSLAX25Y25*%
%MOIN*%
G70*
G01*
G75*
G04 Layer_Physical_Order=2*
G04 Layer_Color=16711680*
%ADD10R,0.02362X0.02362*%
%ADD11R,0.05512X0.02362*%
%ADD12R,0.05315X0.02362*%
%ADD13R,0.03740X0.03150*%
%ADD14R,0.02953X0.03543*%
%ADD15R,0.07087X0.04134*%
%ADD16R,0.03150X0.01969*%
%ADD17R,0.08465X0.09843*%
%ADD18R,0.01969X0.02362*%
%ADD19R,0.18898X0.20315*%
%ADD20O,0.02362X0.13583*%
%ADD21O,0.01772X0.08268*%
%ADD22R,0.05906X0.16142*%
%ADD23R,0.05906X0.17716*%
%ADD24R,0.04134X0.08661*%
%ADD25R,0.05906X0.11024*%
%ADD26R,0.06102X0.02362*%
%ADD27R,0.07087X0.04724*%
%ADD28R,0.03937X0.01181*%
%ADD29R,0.02756X0.01181*%
%ADD30R,0.03150X0.03740*%
%ADD31R,0.03543X0.02953*%
%ADD32O,0.01181X0.03150*%
%ADD33O,0.03150X0.01181*%
%ADD34R,0.04331X0.07480*%
%ADD35R,0.04134X0.07087*%
%ADD36R,0.05709X0.04331*%
%ADD37R,0.04331X0.07480*%
%ADD38O,0.02165X0.06890*%
%ADD39O,0.06890X0.02165*%
%ADD40R,0.00984X0.07087*%
%ADD41R,0.04331X0.05709*%
%ADD42R,0.02362X0.05512*%
%ADD43R,0.07874X0.12992*%
%ADD44R,0.07874X0.09843*%
%ADD45R,0.01969X0.12205*%
%ADD46R,0.09843X0.09843*%
%ADD47O,0.03150X0.01378*%
%ADD48O,0.01378X0.03150*%
%ADD49R,0.07087X0.29528*%
%ADD50R,0.02362X0.04134*%
%ADD51R,0.04134X0.05906*%
%ADD52R,0.13189X0.09646*%
%ADD53R,0.35827X0.42323*%
%ADD54R,0.16339X0.03937*%
%ADD55C,0.01000*%
%ADD56C,0.01200*%
%ADD57C,0.03000*%
%ADD58C,0.04000*%
%ADD59C,0.02000*%
%ADD60C,0.01500*%
%ADD61C,0.00800*%
%ADD62R,0.00653X0.00435*%
%ADD63R,0.02142X0.00344*%
%ADD64R,0.04702X0.00344*%
%ADD65R,0.00286X0.00429*%
%ADD66R,0.00262X0.00395*%
%ADD67R,0.00248X0.00441*%
%ADD68R,0.00441X0.00236*%
%ADD69R,0.00280X0.00186*%
%ADD70R,0.00239X0.00358*%
%ADD71R,0.00239X0.00358*%
%ADD72R,0.00342X0.00386*%
%ADD73R,0.00342X0.00386*%
%ADD74R,0.01705X0.01280*%
%ADD75R,0.01705X0.00581*%
%ADD76R,0.04134X0.11614*%
%ADD77R,0.06299X0.06988*%
%ADD78R,0.07776X0.02559*%
%ADD79R,0.03937X0.04715*%
%ADD80R,0.07569X0.07569*%
G04:AMPARAMS|DCode=81|XSize=120mil|YSize=60mil|CornerRadius=0mil|HoleSize=0mil|Usage=FLASHONLY|Rotation=90.000|XOffset=0mil|YOffset=0mil|HoleType=Round|Shape=Octagon|*
%AMOCTAGOND81*
4,1,8,0.01500,0.06000,-0.01500,0.06000,-0.03000,0.04500,-0.03000,-0.04500,-0.01500,-0.06000,0.01500,-0.06000,0.03000,-0.04500,0.03000,0.04500,0.01500,0.06000,0.0*
%
%ADD81OCTAGOND81*%

%ADD82C,0.04724*%
%ADD83R,0.05906X0.05906*%
%ADD84C,0.05906*%
%ADD85R,0.05906X0.05906*%
%ADD86R,0.09055X0.09055*%
%ADD87C,0.09055*%
%ADD88C,0.22638*%
%ADD89C,0.07874*%
%ADD90C,0.06000*%
%ADD91C,0.05315*%
%ADD92C,0.02400*%
%ADD93C,0.05000*%
%ADD94C,0.04800*%
%ADD95R,0.00613X0.00499*%
G36*
X1470020Y1419303D02*
X1469542Y1419158D01*
X1469506Y1419211D01*
X1468911Y1419609D01*
X1468709Y1419649D01*
Y1417912D01*
Y1416178D01*
X1468911Y1416218D01*
X1469506Y1416616D01*
X1469542Y1416669D01*
X1470020Y1416523D01*
Y1407985D01*
X1469542Y1407839D01*
X1469506Y1407892D01*
X1468911Y1408290D01*
X1468709Y1408330D01*
Y1406594D01*
Y1404859D01*
X1468911Y1404899D01*
X1469506Y1405297D01*
X1469542Y1405350D01*
X1470020Y1405204D01*
Y1363387D01*
X1469523Y1363338D01*
X1469510Y1363399D01*
X1469113Y1363995D01*
X1468517Y1364392D01*
X1468315Y1364433D01*
Y1362696D01*
Y1360961D01*
X1468517Y1361001D01*
X1469113Y1361399D01*
X1469510Y1361994D01*
X1469523Y1362055D01*
X1470020Y1362006D01*
Y1346733D01*
X1469558Y1346542D01*
X1467149Y1348951D01*
X1467385Y1349392D01*
X1467118Y1349445D01*
Y1350681D01*
X1465882D01*
X1465829Y1350948D01*
X1465388Y1350712D01*
X1455935Y1360165D01*
X1455969Y1360335D01*
X1455829Y1361037D01*
X1455432Y1361632D01*
X1454836Y1362030D01*
X1454134Y1362170D01*
X1453432Y1362030D01*
X1452836Y1361632D01*
X1452438Y1361037D01*
X1452299Y1360335D01*
X1452438Y1359632D01*
X1452836Y1359037D01*
X1453432Y1358639D01*
X1454134Y1358499D01*
X1454139Y1358500D01*
X1467969Y1344670D01*
Y1335246D01*
X1461014D01*
Y1329871D01*
X1448967Y1317823D01*
X1379022D01*
X1378877Y1318302D01*
X1379152Y1318486D01*
X1379202Y1318560D01*
X1393898D01*
X1394366Y1318653D01*
X1394763Y1318918D01*
X1394763Y1318918D01*
X1394763Y1318918D01*
X1399237Y1323392D01*
X1399396Y1323630D01*
X1399502Y1323789D01*
X1399595Y1324257D01*
Y1378821D01*
X1411184Y1390410D01*
X1411842D01*
X1411891Y1390336D01*
X1412487Y1389938D01*
X1413189Y1389799D01*
X1413891Y1389938D01*
X1414487Y1390336D01*
X1414884Y1390932D01*
X1415024Y1391634D01*
X1414884Y1392336D01*
X1414487Y1392932D01*
X1413891Y1393329D01*
X1413189Y1393469D01*
X1412487Y1393329D01*
X1411891Y1392932D01*
D01*
X1411570Y1392857D01*
X1411252Y1393244D01*
X1411382Y1393898D01*
X1411243Y1394600D01*
X1410845Y1395195D01*
X1410250Y1395593D01*
X1409547Y1395733D01*
X1408845Y1395593D01*
X1408249Y1395195D01*
X1407852Y1394600D01*
X1407712Y1393898D01*
X1407729Y1393810D01*
X1395706Y1381787D01*
X1395441Y1381390D01*
X1395348Y1380922D01*
Y1354806D01*
X1394886Y1354615D01*
X1388498Y1361002D01*
Y1388387D01*
X1388405Y1388855D01*
X1388140Y1389252D01*
X1357090Y1420302D01*
X1356693Y1420567D01*
X1356225Y1420660D01*
X1317093D01*
X1302538Y1435215D01*
X1302141Y1435481D01*
X1301673Y1435574D01*
X1301151D01*
X1301101Y1435648D01*
X1300506Y1436046D01*
X1299803Y1436186D01*
X1299101Y1436046D01*
X1298505Y1435648D01*
X1298108Y1435053D01*
X1297968Y1434350D01*
X1298108Y1433648D01*
X1298505Y1433053D01*
X1299101Y1432655D01*
X1299803Y1432515D01*
X1300506Y1432655D01*
X1301101Y1433053D01*
X1301522Y1432771D01*
X1315722Y1418572D01*
X1316118Y1418307D01*
X1316587Y1418213D01*
X1317148D01*
X1317384Y1417772D01*
X1317158Y1417435D01*
X1317019Y1416732D01*
X1317158Y1416030D01*
X1317556Y1415435D01*
X1318151Y1415037D01*
X1318854Y1414897D01*
X1319556Y1415037D01*
X1319821Y1415213D01*
X1356172D01*
X1366970Y1404416D01*
X1366825Y1403937D01*
X1366786Y1403929D01*
X1366190Y1403531D01*
X1365961Y1403189D01*
X1330320D01*
X1329939Y1403758D01*
X1329344Y1404156D01*
X1328642Y1404296D01*
X1327939Y1404156D01*
X1327344Y1403758D01*
X1326946Y1403163D01*
X1326807Y1402461D01*
X1326826Y1402365D01*
X1326548Y1401949D01*
X1325898Y1401820D01*
X1325303Y1401422D01*
X1324905Y1400827D01*
X1324765Y1400124D01*
X1324905Y1399422D01*
X1324929Y1399386D01*
X1324903Y1399257D01*
X1324755Y1398899D01*
X1324133Y1398775D01*
X1323538Y1398377D01*
X1323140Y1397782D01*
X1323000Y1397079D01*
X1323140Y1396377D01*
X1323538Y1395782D01*
X1324133Y1395384D01*
X1324835Y1395244D01*
X1325537Y1395384D01*
X1326133Y1395782D01*
X1326531Y1396377D01*
X1326560Y1396524D01*
X1370686D01*
X1371028Y1396296D01*
X1371731Y1396156D01*
X1372433Y1396296D01*
X1373028Y1396693D01*
X1373426Y1397289D01*
X1373434Y1397328D01*
X1373913Y1397473D01*
X1384251Y1387134D01*
Y1359750D01*
X1384344Y1359282D01*
X1384610Y1358885D01*
X1387376Y1356119D01*
X1387230Y1355640D01*
X1387191Y1355633D01*
X1386596Y1355235D01*
X1386198Y1354639D01*
X1386058Y1353937D01*
X1386076Y1353850D01*
X1380989Y1348763D01*
X1359615D01*
X1359565Y1348837D01*
X1358970Y1349235D01*
X1358268Y1349375D01*
X1357565Y1349235D01*
X1356970Y1348837D01*
X1356572Y1348242D01*
X1356433Y1347539D01*
X1356572Y1346837D01*
X1356970Y1346242D01*
X1357565Y1345844D01*
X1358268Y1345704D01*
X1358970Y1345844D01*
X1359565Y1346242D01*
X1359615Y1346316D01*
X1381496D01*
X1381964Y1346409D01*
X1382361Y1346674D01*
X1382361Y1346674D01*
X1382361Y1346674D01*
X1387806Y1352119D01*
X1387894Y1352102D01*
X1388596Y1352242D01*
X1389191Y1352639D01*
X1389589Y1353235D01*
X1389597Y1353274D01*
X1390075Y1353419D01*
X1391748Y1351746D01*
Y1349817D01*
X1391300Y1349595D01*
X1390835Y1349952D01*
X1390081Y1350264D01*
X1389272Y1350371D01*
X1388462Y1350264D01*
X1387708Y1349952D01*
X1387061Y1349455D01*
X1386564Y1348808D01*
X1386251Y1348053D01*
X1386145Y1347244D01*
X1386156Y1347157D01*
X1383267Y1344267D01*
X1336909D01*
X1336090Y1344104D01*
X1335395Y1343640D01*
X1335209Y1343360D01*
X1335039Y1343383D01*
X1334230Y1343276D01*
X1333476Y1342964D01*
X1332828Y1342467D01*
X1332331Y1341819D01*
X1332019Y1341065D01*
X1331913Y1340256D01*
X1332019Y1339447D01*
X1332331Y1338692D01*
X1332828Y1338045D01*
X1333476Y1337548D01*
X1334230Y1337236D01*
X1335039Y1337129D01*
X1335849Y1337236D01*
X1336603Y1337548D01*
X1337250Y1338045D01*
X1337747Y1338692D01*
X1338060Y1339447D01*
X1338130Y1339985D01*
X1384153D01*
X1384973Y1340148D01*
X1384976Y1340150D01*
X1385293Y1339763D01*
X1366229Y1320699D01*
X1365964Y1320302D01*
X1365871Y1319834D01*
Y1319423D01*
X1365797Y1319374D01*
X1365399Y1318778D01*
X1365259Y1318076D01*
X1365399Y1317374D01*
X1365797Y1316778D01*
X1366392Y1316381D01*
X1367094Y1316241D01*
X1367797Y1316381D01*
X1368392Y1316778D01*
X1368850D01*
X1368893Y1316714D01*
X1369488Y1316316D01*
X1370191Y1316177D01*
X1370893Y1316316D01*
X1371488Y1316714D01*
X1371886Y1317309D01*
X1372026Y1318012D01*
X1371886Y1318714D01*
X1371488Y1319310D01*
X1371414Y1319359D01*
Y1319878D01*
X1389555Y1338019D01*
X1390017Y1337827D01*
Y1324772D01*
X1389942Y1324723D01*
X1389545Y1324127D01*
X1389405Y1323425D01*
X1389545Y1322723D01*
X1389942Y1322128D01*
X1390538Y1321730D01*
X1391240Y1321590D01*
X1391943Y1321730D01*
X1392538Y1322128D01*
X1392936Y1322723D01*
X1393075Y1323425D01*
X1392936Y1324127D01*
X1392538Y1324723D01*
X1392464Y1324772D01*
Y1329508D01*
X1392942Y1329654D01*
X1393038Y1329509D01*
X1393634Y1329111D01*
X1393836Y1329071D01*
Y1330806D01*
Y1332543D01*
X1393634Y1332503D01*
X1393038Y1332105D01*
X1392942Y1331961D01*
X1392464Y1332106D01*
Y1337808D01*
X1396686Y1342030D01*
X1397148Y1341839D01*
Y1324764D01*
X1393391Y1321007D01*
X1379202D01*
X1379152Y1321081D01*
X1378557Y1321479D01*
X1377854Y1321619D01*
X1377152Y1321479D01*
X1376557Y1321081D01*
X1376159Y1320486D01*
X1376019Y1319783D01*
X1376159Y1319081D01*
X1376557Y1318486D01*
X1376832Y1318302D01*
X1376687Y1317823D01*
X1375824D01*
X1375774Y1317897D01*
X1375179Y1318295D01*
X1374477Y1318435D01*
X1373774Y1318295D01*
X1373179Y1317897D01*
X1372781Y1317302D01*
X1372641Y1316600D01*
X1372781Y1315897D01*
X1372840Y1315809D01*
X1372604Y1315368D01*
X1355260D01*
X1353621Y1317007D01*
X1353224Y1317272D01*
X1352756Y1317365D01*
X1348788D01*
X1348739Y1317439D01*
X1348143Y1317837D01*
X1347441Y1317977D01*
X1346739Y1317837D01*
X1346143Y1317439D01*
X1345745Y1316844D01*
X1345606Y1316142D01*
X1345745Y1315439D01*
X1346143Y1314844D01*
X1346739Y1314446D01*
X1347441Y1314307D01*
X1348143Y1314446D01*
X1348739Y1314844D01*
X1348788Y1314918D01*
X1352249D01*
X1353277Y1313890D01*
X1353086Y1313428D01*
X1352658D01*
X1352189Y1313335D01*
X1351792Y1313070D01*
X1351072Y1312349D01*
X1350984Y1312367D01*
X1350282Y1312227D01*
X1349687Y1311829D01*
X1349289Y1311234D01*
X1349149Y1310532D01*
X1349289Y1309829D01*
X1349687Y1309234D01*
X1350282Y1308836D01*
X1350984Y1308696D01*
X1351687Y1308836D01*
X1352282Y1309234D01*
X1352680Y1309829D01*
X1352820Y1310532D01*
X1352802Y1310619D01*
X1353164Y1310981D01*
X1380061D01*
X1380297Y1310540D01*
X1380021Y1310127D01*
X1379881Y1309425D01*
X1380021Y1308723D01*
X1380419Y1308127D01*
X1381014Y1307729D01*
X1381717Y1307590D01*
X1382419Y1307729D01*
X1383014Y1308127D01*
X1383064Y1308202D01*
X1459753D01*
X1461832Y1306123D01*
X1462070Y1305964D01*
X1462229Y1305858D01*
X1462697Y1305765D01*
X1464454D01*
X1464487Y1305266D01*
X1464567Y1305276D01*
X1464647Y1305266D01*
X1464678Y1305729D01*
X1464680Y1305765D01*
X1466339D01*
X1466807Y1305858D01*
X1467204Y1306123D01*
X1469558Y1308477D01*
X1470020Y1308286D01*
Y1295885D01*
X1444134D01*
Y1295909D01*
X1441848Y1295729D01*
X1439619Y1295194D01*
X1437501Y1294316D01*
X1435546Y1293119D01*
X1433803Y1291630D01*
X1432314Y1289886D01*
X1431117Y1287932D01*
X1430239Y1285814D01*
X1429704Y1283585D01*
X1429524Y1281299D01*
X1429704Y1279014D01*
X1430239Y1276785D01*
X1431117Y1274667D01*
X1432314Y1272712D01*
X1433803Y1270969D01*
X1435546Y1269480D01*
X1437501Y1268282D01*
X1439619Y1267405D01*
X1441848Y1266870D01*
X1444134Y1266690D01*
Y1266713D01*
X1444134Y1266713D01*
X1457520D01*
Y1253410D01*
X1457058Y1253219D01*
X1455682Y1254595D01*
X1452082D01*
X1450282Y1252795D01*
Y1243195D01*
X1452082Y1241395D01*
X1455682D01*
X1457058Y1242771D01*
X1457520Y1242580D01*
Y1227810D01*
X1457058Y1227619D01*
X1455682Y1228995D01*
X1452082D01*
X1450282Y1227195D01*
Y1217595D01*
X1452082Y1215795D01*
X1455682D01*
X1457058Y1217171D01*
X1457520Y1216980D01*
Y1182224D01*
X1444801D01*
X1444656Y1182702D01*
X1444749Y1182765D01*
X1445733Y1183748D01*
X1446175Y1183836D01*
X1446770Y1184234D01*
X1447168Y1184829D01*
X1447308Y1185532D01*
X1447168Y1186234D01*
X1446925Y1186598D01*
Y1250254D01*
X1447305Y1250751D01*
X1447608Y1251481D01*
X1447711Y1252264D01*
X1447608Y1253047D01*
X1447305Y1253777D01*
X1446825Y1254403D01*
X1446198Y1254884D01*
X1445468Y1255187D01*
X1444685Y1255290D01*
X1443902Y1255187D01*
X1443172Y1254884D01*
X1442545Y1254403D01*
X1442064Y1253777D01*
X1441762Y1253047D01*
X1441659Y1252264D01*
X1441762Y1251481D01*
X1442064Y1250751D01*
X1442545Y1250124D01*
X1442642Y1250050D01*
Y1186714D01*
X1442348Y1186420D01*
X1436862D01*
X1436626Y1186861D01*
X1436637Y1186876D01*
X1436776Y1187579D01*
X1436637Y1188281D01*
X1436239Y1188876D01*
X1436164Y1188926D01*
Y1198819D01*
X1436071Y1199287D01*
X1435806Y1199684D01*
X1421042Y1214448D01*
X1420645Y1214713D01*
X1420177Y1214806D01*
X1420165Y1214905D01*
X1420427Y1214968D01*
X1422160Y1215686D01*
X1423760Y1216666D01*
X1425186Y1217885D01*
X1426405Y1219311D01*
X1427385Y1220911D01*
X1428103Y1222644D01*
X1428541Y1224468D01*
X1428649Y1225839D01*
X1416731D01*
Y1226338D01*
X1416232D01*
Y1238255D01*
X1414862Y1238147D01*
X1413038Y1237709D01*
X1411304Y1236991D01*
X1409705Y1236011D01*
X1408278Y1234793D01*
X1407060Y1233366D01*
X1406080Y1231766D01*
X1405848Y1231207D01*
X1405357Y1231304D01*
Y1239370D01*
X1405264Y1239838D01*
X1405158Y1239997D01*
X1404999Y1240235D01*
X1403196Y1242038D01*
X1403213Y1242126D01*
X1403074Y1242828D01*
X1402676Y1243424D01*
X1402080Y1243822D01*
X1401378Y1243961D01*
X1401567Y1244151D01*
X1409517D01*
X1409752Y1243709D01*
X1409426Y1243222D01*
X1409386Y1243020D01*
X1412858D01*
X1412818Y1243222D01*
X1412420Y1243817D01*
X1412521Y1244151D01*
X1426476D01*
X1426945Y1244244D01*
X1427341Y1244509D01*
X1427341Y1244509D01*
X1427341Y1244509D01*
X1430983Y1248151D01*
X1431248Y1248547D01*
X1431248Y1248547D01*
X1431248Y1248547D01*
X1431342Y1249016D01*
Y1253968D01*
X1431416Y1254017D01*
X1431814Y1254613D01*
X1431953Y1255315D01*
X1431814Y1256017D01*
X1431416Y1256613D01*
X1430820Y1257010D01*
X1430118Y1257150D01*
X1429416Y1257010D01*
X1428820Y1256613D01*
X1428423Y1256017D01*
X1428283Y1255315D01*
X1428423Y1254613D01*
X1428820Y1254017D01*
X1428895Y1253968D01*
Y1249523D01*
X1425970Y1246597D01*
X1376347D01*
X1376298Y1246672D01*
X1375702Y1247070D01*
X1375000Y1247209D01*
X1374298Y1247070D01*
X1373702Y1246672D01*
X1373304Y1246076D01*
X1373165Y1245374D01*
X1373304Y1244672D01*
X1373702Y1244076D01*
X1374298Y1243678D01*
X1375000Y1243539D01*
X1375702Y1243678D01*
X1376298Y1244076D01*
X1376347Y1244151D01*
X1400307D01*
X1400452Y1243672D01*
X1400080Y1243424D01*
X1399682Y1242828D01*
X1399543Y1242126D01*
X1399682Y1241424D01*
X1400080Y1240828D01*
X1400676Y1240430D01*
X1401378Y1240291D01*
X1401466Y1240308D01*
X1402910Y1238863D01*
Y1229163D01*
X1396250D01*
Y1222058D01*
X1397662D01*
Y1216708D01*
X1374213D01*
X1373393Y1216545D01*
X1372699Y1216081D01*
X1372234Y1215386D01*
X1372071Y1214567D01*
X1372234Y1213748D01*
X1372699Y1213053D01*
X1373393Y1212589D01*
X1374213Y1212426D01*
X1398916D01*
X1411084Y1200258D01*
X1411779Y1199794D01*
X1411779Y1199794D01*
X1411779Y1199794D01*
D01*
X1411779Y1199794D01*
X1411779Y1199794D01*
X1412598Y1199631D01*
X1416723D01*
Y1198219D01*
X1420800D01*
X1428935Y1190085D01*
Y1184279D01*
X1429098Y1183459D01*
X1429562Y1182765D01*
X1429655Y1182702D01*
X1429510Y1182224D01*
X1343305D01*
Y1190768D01*
X1336199D01*
Y1182224D01*
X1323305D01*
Y1190768D01*
X1316199D01*
Y1182224D01*
X1264575D01*
X1264384Y1182686D01*
X1297420Y1215723D01*
X1297579Y1215961D01*
X1297686Y1216119D01*
X1297779Y1216588D01*
Y1232905D01*
X1297853Y1232954D01*
X1298251Y1233550D01*
X1298390Y1234252D01*
X1298251Y1234954D01*
X1297853Y1235550D01*
X1297257Y1235948D01*
X1296555Y1236087D01*
X1295853Y1235948D01*
X1295759Y1235885D01*
X1295318Y1236121D01*
Y1236349D01*
X1295392Y1236399D01*
X1295790Y1236994D01*
X1295930Y1237697D01*
X1295790Y1238399D01*
X1295392Y1238995D01*
X1294797Y1239392D01*
X1294094Y1239532D01*
X1293392Y1239392D01*
X1292797Y1238995D01*
X1292399Y1238399D01*
X1292259Y1237697D01*
X1292399Y1236994D01*
X1292797Y1236399D01*
X1292871Y1236349D01*
Y1220507D01*
X1263228Y1190864D01*
X1262660Y1191099D01*
X1261732Y1191221D01*
X1260805Y1191099D01*
X1259941Y1190741D01*
X1259198Y1190172D01*
X1258629Y1189429D01*
X1258271Y1188565D01*
X1258149Y1187638D01*
X1258271Y1186710D01*
X1258629Y1185846D01*
X1259198Y1185104D01*
X1259941Y1184534D01*
X1259984Y1184516D01*
X1259887Y1184026D01*
X1253578D01*
X1253480Y1184516D01*
X1253524Y1184534D01*
X1254266Y1185104D01*
X1254836Y1185846D01*
X1255194Y1186710D01*
X1255250Y1187138D01*
X1248215D01*
X1248271Y1186710D01*
X1248629Y1185846D01*
X1249198Y1185104D01*
X1249941Y1184534D01*
X1249984Y1184516D01*
X1249887Y1184026D01*
X1243577D01*
X1243480Y1184516D01*
X1243524Y1184534D01*
X1244266Y1185104D01*
X1244836Y1185846D01*
X1245194Y1186710D01*
X1245316Y1187638D01*
X1245194Y1188565D01*
X1244836Y1189429D01*
X1244266Y1190172D01*
X1243524Y1190741D01*
X1242660Y1191099D01*
X1241732Y1191221D01*
X1240805Y1191099D01*
X1239941Y1190741D01*
X1239198Y1190172D01*
X1238629Y1189429D01*
X1238271Y1188565D01*
X1238149Y1187638D01*
X1238271Y1186710D01*
X1238629Y1185846D01*
X1239198Y1185104D01*
X1239941Y1184534D01*
X1239985Y1184516D01*
X1239887Y1184026D01*
X1233578D01*
X1233480Y1184516D01*
X1233524Y1184534D01*
X1234266Y1185104D01*
X1234836Y1185846D01*
X1235194Y1186710D01*
X1235316Y1187638D01*
X1235194Y1188565D01*
X1234836Y1189429D01*
X1234266Y1190172D01*
X1233524Y1190741D01*
X1232660Y1191099D01*
X1231732Y1191221D01*
X1230805Y1191099D01*
X1229941Y1190741D01*
X1229198Y1190172D01*
X1228629Y1189429D01*
X1228271Y1188565D01*
X1228149Y1187638D01*
X1228271Y1186710D01*
X1228629Y1185846D01*
X1229198Y1185104D01*
X1229941Y1184534D01*
X1229984Y1184516D01*
X1229887Y1184026D01*
X1223577D01*
X1223480Y1184516D01*
X1223524Y1184534D01*
X1224266Y1185104D01*
X1224836Y1185846D01*
X1225194Y1186710D01*
X1225250Y1187138D01*
X1218215D01*
X1218271Y1186710D01*
X1218629Y1185846D01*
X1219198Y1185104D01*
X1219941Y1184534D01*
X1219985Y1184516D01*
X1219887Y1184026D01*
X1217074D01*
X1214958Y1186142D01*
X1215194Y1186710D01*
X1215316Y1187638D01*
X1215194Y1188565D01*
X1214836Y1189429D01*
X1214266Y1190172D01*
X1213524Y1190741D01*
X1212660Y1191099D01*
X1211732Y1191221D01*
X1210805Y1191099D01*
X1209941Y1190741D01*
X1209198Y1190172D01*
X1208629Y1189429D01*
X1208271Y1188565D01*
X1208149Y1187638D01*
X1208271Y1186710D01*
X1208629Y1185846D01*
X1209198Y1185104D01*
X1209941Y1184534D01*
X1210805Y1184177D01*
X1211732Y1184054D01*
X1212660Y1184177D01*
X1213228Y1184412D01*
X1214954Y1182686D01*
X1214763Y1182224D01*
X1194724D01*
Y1266713D01*
X1208110D01*
X1208110Y1266713D01*
Y1266690D01*
X1210396Y1266870D01*
X1212625Y1267405D01*
X1214743Y1268282D01*
X1216698Y1269480D01*
X1218441Y1270969D01*
X1219930Y1272712D01*
X1221128Y1274667D01*
X1222005Y1276785D01*
X1222540Y1279014D01*
X1222720Y1281299D01*
X1222540Y1283585D01*
X1222005Y1285814D01*
X1221128Y1287932D01*
X1219930Y1289886D01*
X1218441Y1291630D01*
X1216698Y1293119D01*
X1214743Y1294316D01*
X1212625Y1295194D01*
X1210396Y1295729D01*
X1208110Y1295909D01*
Y1295885D01*
X1182224D01*
Y1571516D01*
X1470020D01*
Y1419303D01*
D02*
G37*
%LPC*%
G36*
X1347728Y1263575D02*
X1346492D01*
X1346533Y1263373D01*
X1346931Y1262777D01*
X1347526Y1262379D01*
X1347728Y1262339D01*
Y1263575D01*
D02*
G37*
G36*
X1456067Y1262689D02*
X1454831D01*
Y1261453D01*
X1455033Y1261493D01*
X1455628Y1261891D01*
X1456026Y1262487D01*
X1456067Y1262689D01*
D02*
G37*
G36*
X1453831D02*
X1452595D01*
X1452635Y1262487D01*
X1453033Y1261891D01*
X1453628Y1261493D01*
X1453831Y1261453D01*
Y1262689D01*
D02*
G37*
G36*
X1349964Y1263575D02*
X1348728D01*
Y1262339D01*
X1348931Y1262379D01*
X1349526Y1262777D01*
X1349924Y1263373D01*
X1349964Y1263575D01*
D02*
G37*
G36*
X1454831Y1264925D02*
Y1263689D01*
X1456067D01*
X1456026Y1263891D01*
X1455628Y1264487D01*
X1455033Y1264884D01*
X1454831Y1264925D01*
D02*
G37*
G36*
X1453831D02*
X1453628Y1264884D01*
X1453033Y1264487D01*
X1452635Y1263891D01*
X1452595Y1263689D01*
X1453831D01*
Y1264925D01*
D02*
G37*
G36*
X1347728Y1265811D02*
X1347526Y1265770D01*
X1346931Y1265372D01*
X1346533Y1264777D01*
X1346492Y1264575D01*
X1347728D01*
Y1265811D01*
D02*
G37*
G36*
X1322941Y1258921D02*
Y1257685D01*
X1324177D01*
X1324137Y1257887D01*
X1323739Y1258483D01*
X1323143Y1258881D01*
X1322941Y1258921D01*
D02*
G37*
G36*
X1444776Y1258949D02*
X1443540D01*
X1443580Y1258747D01*
X1443978Y1258151D01*
X1444573Y1257753D01*
X1444776Y1257713D01*
Y1258949D01*
D02*
G37*
G36*
X1249417Y1257346D02*
Y1256110D01*
X1250653D01*
X1250613Y1256313D01*
X1250215Y1256908D01*
X1249620Y1257306D01*
X1249417Y1257346D01*
D02*
G37*
G36*
X1321941Y1258921D02*
X1321739Y1258881D01*
X1321143Y1258483D01*
X1320745Y1257887D01*
X1320705Y1257685D01*
X1321941D01*
Y1258921D01*
D02*
G37*
G36*
X1445776Y1261185D02*
Y1259949D01*
X1447011D01*
X1446971Y1260151D01*
X1446573Y1260746D01*
X1445978Y1261144D01*
X1445776Y1261185D01*
D02*
G37*
G36*
X1273032Y1264434D02*
X1272329Y1264294D01*
X1271734Y1263896D01*
X1271684Y1263822D01*
X1208760D01*
X1208292Y1263729D01*
X1207895Y1263464D01*
X1200672Y1256241D01*
X1200407Y1255844D01*
X1200313Y1255376D01*
Y1191191D01*
X1198180D01*
Y1184085D01*
X1205285D01*
Y1191191D01*
X1202761D01*
Y1209213D01*
X1203201Y1209449D01*
X1203235Y1209426D01*
X1203437Y1209386D01*
Y1211121D01*
Y1212858D01*
X1203235Y1212818D01*
X1203201Y1212795D01*
X1202761Y1213031D01*
Y1254869D01*
X1209267Y1261375D01*
X1271684D01*
X1271734Y1261301D01*
X1272329Y1260903D01*
X1273032Y1260763D01*
X1273734Y1260903D01*
X1274329Y1261301D01*
X1274727Y1261896D01*
X1274867Y1262598D01*
X1274727Y1263301D01*
X1274329Y1263896D01*
X1273734Y1264294D01*
X1273032Y1264434D01*
D02*
G37*
G36*
X1447011Y1258949D02*
X1445776D01*
Y1257713D01*
X1445978Y1257753D01*
X1446573Y1258151D01*
X1446971Y1258747D01*
X1447011Y1258949D01*
D02*
G37*
G36*
X1444776Y1261185D02*
X1444573Y1261144D01*
X1443978Y1260746D01*
X1443580Y1260151D01*
X1443540Y1259949D01*
X1444776D01*
Y1261185D01*
D02*
G37*
G36*
X1348630Y1190122D02*
Y1188886D01*
X1349866D01*
X1349825Y1189088D01*
X1349428Y1189684D01*
X1348832Y1190081D01*
X1348630Y1190122D01*
D02*
G37*
G36*
X1347630D02*
X1347428Y1190081D01*
X1346832Y1189684D01*
X1346434Y1189088D01*
X1346394Y1188886D01*
X1347630D01*
Y1190122D01*
D02*
G37*
G36*
X1354885Y1190248D02*
X1353650D01*
Y1189012D01*
X1353852Y1189052D01*
X1354447Y1189450D01*
X1354845Y1190046D01*
X1354885Y1190248D01*
D02*
G37*
G36*
X1352650D02*
X1351414D01*
X1351454Y1190046D01*
X1351852Y1189450D01*
X1352447Y1189052D01*
X1352650Y1189012D01*
Y1190248D01*
D02*
G37*
G36*
X1314629Y1284736D02*
X1313394D01*
Y1283500D01*
X1313596Y1283541D01*
X1314191Y1283939D01*
X1314589Y1284534D01*
X1314629Y1284736D01*
D02*
G37*
G36*
X1328543Y1347898D02*
X1327841Y1347759D01*
X1327246Y1347361D01*
X1326848Y1346765D01*
X1326708Y1346063D01*
X1326848Y1345361D01*
X1327246Y1344765D01*
X1327320Y1344716D01*
Y1288158D01*
X1327246Y1288109D01*
X1326848Y1287513D01*
X1326708Y1286811D01*
X1326848Y1286109D01*
X1327246Y1285513D01*
X1327841Y1285116D01*
X1328543Y1284976D01*
X1329246Y1285116D01*
X1329841Y1285513D01*
X1330239Y1286109D01*
X1330379Y1286811D01*
X1330239Y1287513D01*
X1329841Y1288109D01*
X1329767Y1288158D01*
Y1344716D01*
X1329841Y1344765D01*
X1330239Y1345361D01*
X1330379Y1346063D01*
X1330239Y1346765D01*
X1329841Y1347361D01*
X1329246Y1347759D01*
X1328543Y1347898D01*
D02*
G37*
G36*
X1360335Y1291304D02*
X1359632Y1291164D01*
X1359037Y1290766D01*
X1358639Y1290171D01*
X1358499Y1289468D01*
X1358639Y1288766D01*
X1359037Y1288171D01*
X1359111Y1288121D01*
Y1281198D01*
X1358710Y1280900D01*
X1358545Y1280950D01*
Y1284313D01*
X1358452Y1284781D01*
X1358186Y1285178D01*
X1357066Y1286298D01*
X1356669Y1286563D01*
X1356201Y1286657D01*
X1353445D01*
X1352977Y1286563D01*
X1352580Y1286298D01*
X1345692Y1279411D01*
X1340491D01*
X1340022Y1279318D01*
X1339625Y1279053D01*
X1337521Y1276948D01*
X1337255Y1276551D01*
X1337162Y1276083D01*
Y1273753D01*
X1337084Y1273635D01*
X1336944Y1272933D01*
X1337084Y1272231D01*
X1337482Y1271635D01*
X1338077Y1271237D01*
X1338780Y1271098D01*
X1339482Y1271237D01*
X1340077Y1271635D01*
X1340475Y1272231D01*
X1340615Y1272933D01*
X1340475Y1273635D01*
X1340347Y1273827D01*
X1340701Y1274180D01*
X1340833Y1274092D01*
X1341535Y1273952D01*
X1341623Y1273970D01*
X1344410Y1271182D01*
X1344410Y1271182D01*
X1344410D01*
X1344410Y1271182D01*
X1344410D01*
X1344411Y1271182D01*
Y1271182D01*
Y1271182D01*
D01*
D01*
X1344411D01*
Y1271182D01*
X1344807Y1270917D01*
X1345276Y1270824D01*
X1347331D01*
X1347563Y1270477D01*
X1347613Y1270383D01*
X1347222Y1269797D01*
X1347082Y1269094D01*
X1347222Y1268392D01*
X1347620Y1267797D01*
X1348215Y1267399D01*
X1348917Y1267259D01*
X1349332Y1266950D01*
D01*
X1349332Y1266950D01*
Y1266950D01*
X1349729Y1266685D01*
X1350197Y1266591D01*
X1364401D01*
X1364450Y1266517D01*
X1365046Y1266119D01*
X1365748Y1265980D01*
X1366450Y1266119D01*
X1367046Y1266517D01*
X1367444Y1267113D01*
X1367583Y1267815D01*
X1367444Y1268517D01*
X1367046Y1269113D01*
X1366450Y1269510D01*
X1365748Y1269650D01*
X1365046Y1269510D01*
X1364450Y1269113D01*
X1364401Y1269038D01*
X1350799D01*
X1350753Y1269094D01*
X1350613Y1269797D01*
X1350215Y1270392D01*
X1349620Y1270790D01*
X1349620Y1270790D01*
X1349620D01*
Y1270790D01*
X1349623Y1270824D01*
X1361743D01*
X1361793Y1270749D01*
X1362388Y1270352D01*
X1363091Y1270212D01*
X1363793Y1270352D01*
X1364388Y1270749D01*
X1364786Y1271345D01*
X1364926Y1272047D01*
X1364786Y1272750D01*
X1364388Y1273345D01*
X1363793Y1273743D01*
X1363091Y1273882D01*
X1362388Y1273743D01*
X1361793Y1273345D01*
X1361743Y1273271D01*
X1356507D01*
X1356276Y1273617D01*
X1356225Y1273712D01*
X1356617Y1274298D01*
X1356756Y1275000D01*
X1356637Y1275602D01*
X1357078Y1275838D01*
X1357599Y1275316D01*
X1357996Y1275051D01*
X1358465Y1274958D01*
X1361811D01*
X1362279Y1275051D01*
X1362676Y1275316D01*
X1362676Y1275316D01*
X1362676Y1275316D01*
X1363117Y1275757D01*
X1363780Y1275625D01*
X1364482Y1275765D01*
X1365077Y1276163D01*
X1365475Y1276758D01*
X1365615Y1277461D01*
X1365475Y1278163D01*
X1365077Y1278758D01*
X1364482Y1279156D01*
X1363780Y1279296D01*
X1363077Y1279156D01*
X1362489Y1278763D01*
X1362073Y1279041D01*
X1362170Y1279528D01*
X1362030Y1280230D01*
X1361632Y1280825D01*
X1361558Y1280875D01*
Y1288121D01*
X1361632Y1288171D01*
X1362030Y1288766D01*
X1362170Y1289468D01*
X1362030Y1290171D01*
X1361632Y1290766D01*
X1361037Y1291164D01*
X1360335Y1291304D01*
D02*
G37*
G36*
X1312394Y1284736D02*
X1311158D01*
X1311198Y1284534D01*
X1311596Y1283939D01*
X1312191Y1283541D01*
X1312394Y1283500D01*
Y1284736D01*
D02*
G37*
G36*
X1400484Y1272039D02*
X1399249D01*
X1399289Y1271837D01*
X1399687Y1271242D01*
X1400282Y1270844D01*
X1400484Y1270804D01*
Y1272039D01*
D02*
G37*
G36*
X1402720D02*
X1401484D01*
Y1270804D01*
X1401687Y1270844D01*
X1402282Y1271242D01*
X1402680Y1271837D01*
X1402720Y1272039D01*
D02*
G37*
G36*
X1348728Y1265811D02*
Y1264575D01*
X1349964D01*
X1349924Y1264777D01*
X1349526Y1265372D01*
X1348931Y1265770D01*
X1348728Y1265811D01*
D02*
G37*
G36*
X1305799Y1192610D02*
X1304563D01*
X1304604Y1192408D01*
X1305002Y1191813D01*
X1305597Y1191415D01*
X1305799Y1191374D01*
Y1192610D01*
D02*
G37*
G36*
X1400484Y1274275D02*
X1400282Y1274235D01*
X1399687Y1273837D01*
X1399289Y1273242D01*
X1399249Y1273039D01*
X1400484D01*
Y1274275D01*
D02*
G37*
G36*
X1401484D02*
Y1273039D01*
X1402720D01*
X1402680Y1273242D01*
X1402282Y1273837D01*
X1401687Y1274235D01*
X1401484Y1274275D01*
D02*
G37*
G36*
X1353650Y1192484D02*
Y1191248D01*
X1354885D01*
X1354845Y1191450D01*
X1354447Y1192046D01*
X1353852Y1192444D01*
X1353650Y1192484D01*
D02*
G37*
G36*
X1352650D02*
X1352447Y1192444D01*
X1351852Y1192046D01*
X1351454Y1191450D01*
X1351414Y1191248D01*
X1352650D01*
Y1192484D01*
D02*
G37*
G36*
X1437882Y1254595D02*
X1436582D01*
Y1248495D01*
X1439682D01*
Y1252795D01*
X1437882Y1254595D01*
D02*
G37*
G36*
X1321525Y1250541D02*
X1321323Y1250501D01*
X1320727Y1250103D01*
X1320329Y1249508D01*
X1320289Y1249306D01*
X1321525D01*
Y1250541D01*
D02*
G37*
G36*
X1269988Y1248586D02*
Y1247350D01*
X1271224D01*
X1271184Y1247553D01*
X1270786Y1248148D01*
X1270191Y1248546D01*
X1269988Y1248586D01*
D02*
G37*
G36*
X1435582Y1254595D02*
X1434282D01*
X1432482Y1252795D01*
Y1248495D01*
X1435582D01*
Y1254595D01*
D02*
G37*
G36*
X1363083Y1251468D02*
X1361847D01*
X1361887Y1251266D01*
X1362285Y1250671D01*
X1362880Y1250273D01*
X1363083Y1250233D01*
Y1251468D01*
D02*
G37*
G36*
X1365318D02*
X1364083D01*
Y1250233D01*
X1364285Y1250273D01*
X1364880Y1250671D01*
X1365278Y1251266D01*
X1365318Y1251468D01*
D02*
G37*
G36*
X1322525Y1250541D02*
Y1249306D01*
X1323761D01*
X1323720Y1249508D01*
X1323323Y1250103D01*
X1322727Y1250501D01*
X1322525Y1250541D01*
D02*
G37*
G36*
X1287795Y1250644D02*
X1287593Y1250603D01*
X1286998Y1250206D01*
X1286600Y1249610D01*
X1286559Y1249408D01*
X1287795D01*
Y1250644D01*
D02*
G37*
G36*
X1271224Y1246350D02*
X1269988D01*
Y1245115D01*
X1270191Y1245155D01*
X1270786Y1245553D01*
X1271184Y1246148D01*
X1271224Y1246350D01*
D02*
G37*
G36*
X1351665Y1246519D02*
X1351463Y1246479D01*
X1350868Y1246081D01*
X1350470Y1245486D01*
X1350430Y1245284D01*
X1351665D01*
Y1246519D01*
D02*
G37*
G36*
X1332677Y1278115D02*
X1331975Y1277975D01*
X1331379Y1277577D01*
X1330982Y1276982D01*
X1330842Y1276280D01*
X1330982Y1275577D01*
X1331158Y1275313D01*
Y1273327D01*
X1331158Y1273327D01*
X1331158D01*
X1331252Y1272859D01*
X1331517Y1272462D01*
X1359470Y1244509D01*
X1359470Y1244509D01*
X1359470D01*
X1359470Y1244509D01*
X1359470D01*
X1359470Y1244509D01*
Y1244509D01*
Y1244509D01*
D01*
D01*
X1359470D01*
Y1244509D01*
X1359866Y1244244D01*
X1360256Y1244166D01*
X1360316Y1244076D01*
X1360912Y1243678D01*
X1361614Y1243539D01*
X1362317Y1243678D01*
X1362912Y1244076D01*
X1363310Y1244672D01*
X1363449Y1245374D01*
X1363310Y1246076D01*
X1362912Y1246672D01*
X1362317Y1247070D01*
X1361614Y1247209D01*
X1360912Y1247070D01*
X1360587Y1246852D01*
X1333605Y1273834D01*
Y1274735D01*
X1333975Y1274982D01*
X1334373Y1275577D01*
X1334512Y1276280D01*
X1334373Y1276982D01*
X1333975Y1277577D01*
X1333379Y1277975D01*
X1332677Y1278115D01*
D02*
G37*
G36*
X1268988Y1246350D02*
X1267752D01*
X1267793Y1246148D01*
X1268190Y1245553D01*
X1268786Y1245155D01*
X1268988Y1245115D01*
Y1246350D01*
D02*
G37*
G36*
X1290031Y1248408D02*
X1288795D01*
Y1247172D01*
X1288998Y1247212D01*
X1289593Y1247610D01*
X1289991Y1248205D01*
X1290031Y1248408D01*
D02*
G37*
G36*
X1268988Y1248586D02*
X1268786Y1248546D01*
X1268190Y1248148D01*
X1267793Y1247553D01*
X1267752Y1247350D01*
X1268988D01*
Y1248586D01*
D02*
G37*
G36*
X1352665Y1246519D02*
Y1245284D01*
X1353901D01*
X1353861Y1245486D01*
X1353463Y1246081D01*
X1352868Y1246479D01*
X1352665Y1246519D01*
D02*
G37*
G36*
X1287795Y1248408D02*
X1286559D01*
X1286600Y1248205D01*
X1286998Y1247610D01*
X1287593Y1247212D01*
X1287795Y1247172D01*
Y1248408D01*
D02*
G37*
G36*
X1250653Y1255110D02*
X1249417D01*
Y1253874D01*
X1249620Y1253915D01*
X1250215Y1254313D01*
X1250613Y1254908D01*
X1250653Y1255110D01*
D02*
G37*
G36*
X1321941Y1256685D02*
X1320705D01*
X1320745Y1256483D01*
X1321143Y1255887D01*
X1321739Y1255490D01*
X1321941Y1255449D01*
Y1256685D01*
D02*
G37*
G36*
X1419551Y1255012D02*
X1418315D01*
Y1253776D01*
X1418517Y1253816D01*
X1419113Y1254214D01*
X1419510Y1254809D01*
X1419551Y1255012D01*
D02*
G37*
G36*
X1248417Y1255110D02*
X1247182D01*
X1247222Y1254908D01*
X1247620Y1254313D01*
X1248215Y1253915D01*
X1248417Y1253874D01*
Y1255110D01*
D02*
G37*
G36*
X1418315Y1257248D02*
Y1256012D01*
X1419551D01*
X1419510Y1256214D01*
X1419113Y1256810D01*
X1418517Y1257207D01*
X1418315Y1257248D01*
D02*
G37*
G36*
X1248417Y1257346D02*
X1248215Y1257306D01*
X1247620Y1256908D01*
X1247222Y1256313D01*
X1247182Y1256110D01*
X1248417D01*
Y1257346D01*
D02*
G37*
G36*
X1324177Y1256685D02*
X1322941D01*
Y1255449D01*
X1323143Y1255490D01*
X1323739Y1255887D01*
X1324137Y1256483D01*
X1324177Y1256685D01*
D02*
G37*
G36*
X1417315Y1257248D02*
X1417113Y1257207D01*
X1416517Y1256810D01*
X1416119Y1256214D01*
X1416079Y1256012D01*
X1417315D01*
Y1257248D01*
D02*
G37*
G36*
X1389075Y1271323D02*
X1388373Y1271184D01*
X1387777Y1270786D01*
X1387379Y1270191D01*
X1387239Y1269488D01*
X1387379Y1268786D01*
X1387777Y1268190D01*
X1388373Y1267793D01*
X1389075Y1267653D01*
X1389162Y1267670D01*
X1392280Y1264552D01*
Y1255383D01*
X1392206Y1255333D01*
X1391808Y1254738D01*
X1391669Y1254035D01*
X1391808Y1253333D01*
X1392206Y1252738D01*
X1392802Y1252340D01*
X1393504Y1252200D01*
X1394206Y1252340D01*
X1394802Y1252738D01*
X1395199Y1253333D01*
X1395339Y1254035D01*
X1395199Y1254738D01*
X1394802Y1255333D01*
X1394727Y1255383D01*
Y1265059D01*
X1394634Y1265527D01*
X1394369Y1265924D01*
X1390893Y1269401D01*
X1390910Y1269488D01*
X1390770Y1270191D01*
X1390372Y1270786D01*
X1389777Y1271184D01*
X1389075Y1271323D01*
D02*
G37*
G36*
X1363083Y1253704D02*
X1362880Y1253664D01*
X1362285Y1253266D01*
X1361887Y1252671D01*
X1361847Y1252468D01*
X1363083D01*
Y1253704D01*
D02*
G37*
G36*
X1388083Y1251567D02*
X1386847D01*
X1386887Y1251365D01*
X1387285Y1250769D01*
X1387880Y1250371D01*
X1388083Y1250331D01*
Y1251567D01*
D02*
G37*
G36*
X1390318D02*
X1389083D01*
Y1250331D01*
X1389285Y1250371D01*
X1389880Y1250769D01*
X1390278Y1251365D01*
X1390318Y1251567D01*
D02*
G37*
G36*
X1389083Y1253803D02*
Y1252567D01*
X1390318D01*
X1390278Y1252769D01*
X1389880Y1253365D01*
X1389285Y1253763D01*
X1389083Y1253803D01*
D02*
G37*
G36*
X1417315Y1255012D02*
X1416079D01*
X1416119Y1254809D01*
X1416517Y1254214D01*
X1417113Y1253816D01*
X1417315Y1253776D01*
Y1255012D01*
D02*
G37*
G36*
X1364083Y1253704D02*
Y1252468D01*
X1365318D01*
X1365278Y1252671D01*
X1364880Y1253266D01*
X1364285Y1253664D01*
X1364083Y1253704D01*
D02*
G37*
G36*
X1388083Y1253803D02*
X1387880Y1253763D01*
X1387285Y1253365D01*
X1386887Y1252769D01*
X1386847Y1252567D01*
X1388083D01*
Y1253803D01*
D02*
G37*
G36*
X1305701Y1187464D02*
X1305499Y1187424D01*
X1304903Y1187026D01*
X1304505Y1186431D01*
X1304465Y1186228D01*
X1305701D01*
Y1187464D01*
D02*
G37*
G36*
X1215347Y1315909D02*
X1215144Y1315869D01*
X1214549Y1315471D01*
X1214151Y1314876D01*
X1214111Y1314673D01*
X1215347D01*
Y1315909D01*
D02*
G37*
G36*
X1347630Y1187886D02*
X1346394D01*
X1346434Y1187683D01*
X1346832Y1187088D01*
X1347428Y1186690D01*
X1347630Y1186650D01*
Y1187886D01*
D02*
G37*
G36*
X1306701Y1187464D02*
Y1186228D01*
X1307937D01*
X1307896Y1186431D01*
X1307498Y1187026D01*
X1306903Y1187424D01*
X1306701Y1187464D01*
D02*
G37*
G36*
X1221858Y1315909D02*
Y1314673D01*
X1223094D01*
X1223054Y1314876D01*
X1222656Y1315471D01*
X1222061Y1315869D01*
X1221858Y1315909D01*
D02*
G37*
G36*
X1190059Y1321127D02*
X1189357Y1320987D01*
X1188761Y1320589D01*
X1188363Y1319994D01*
X1188224Y1319291D01*
X1188363Y1318589D01*
X1188761Y1317994D01*
X1189357Y1317596D01*
X1190059Y1317456D01*
X1190147Y1317474D01*
X1191851Y1315769D01*
X1192248Y1315504D01*
X1192248Y1315504D01*
X1192248Y1315504D01*
D01*
X1192248Y1315503D01*
X1192248Y1315504D01*
X1192717Y1315410D01*
X1201015D01*
X1201064Y1315336D01*
X1201660Y1314938D01*
X1202362Y1314799D01*
X1203065Y1314938D01*
X1203660Y1315336D01*
X1204058Y1315932D01*
X1204198Y1316634D01*
X1204058Y1317336D01*
X1203660Y1317932D01*
X1203065Y1318329D01*
X1202362Y1318469D01*
X1201660Y1318329D01*
X1201064Y1317932D01*
X1201015Y1317857D01*
X1193223D01*
X1191877Y1319204D01*
X1191894Y1319291D01*
X1191755Y1319994D01*
X1191357Y1320589D01*
X1190761Y1320987D01*
X1190059Y1321127D01*
D02*
G37*
G36*
X1216346Y1315909D02*
Y1314673D01*
X1217582D01*
X1217542Y1314876D01*
X1217144Y1315471D01*
X1216549Y1315869D01*
X1216346Y1315909D01*
D02*
G37*
G36*
X1220858D02*
X1220656Y1315869D01*
X1220061Y1315471D01*
X1219663Y1314876D01*
X1219623Y1314673D01*
X1220858D01*
Y1315909D01*
D02*
G37*
G36*
X1369988Y1307543D02*
Y1306307D01*
X1371224D01*
X1371184Y1306509D01*
X1370786Y1307105D01*
X1370191Y1307503D01*
X1369988Y1307543D01*
D02*
G37*
G36*
X1215347Y1313673D02*
X1214111D01*
X1214151Y1313471D01*
X1214549Y1312875D01*
X1215144Y1312478D01*
X1215347Y1312437D01*
Y1313673D01*
D02*
G37*
G36*
X1221661Y1306756D02*
Y1305520D01*
X1222897D01*
X1222857Y1305722D01*
X1222459Y1306317D01*
X1221864Y1306715D01*
X1221661Y1306756D01*
D02*
G37*
G36*
X1368988Y1307543D02*
X1368786Y1307503D01*
X1368190Y1307105D01*
X1367793Y1306509D01*
X1367752Y1306307D01*
X1368988D01*
Y1307543D01*
D02*
G37*
G36*
X1223094Y1313673D02*
X1221858D01*
Y1312437D01*
X1222061Y1312478D01*
X1222656Y1312875D01*
X1223054Y1313471D01*
X1223094Y1313673D01*
D02*
G37*
G36*
X1349866Y1187886D02*
X1348630D01*
Y1186650D01*
X1348832Y1186690D01*
X1349428Y1187088D01*
X1349825Y1187683D01*
X1349866Y1187886D01*
D02*
G37*
G36*
X1217582Y1313673D02*
X1216346D01*
Y1312437D01*
X1216549Y1312478D01*
X1217144Y1312875D01*
X1217542Y1313471D01*
X1217582Y1313673D01*
D02*
G37*
G36*
X1220858D02*
X1219623D01*
X1219663Y1313471D01*
X1220061Y1312875D01*
X1220656Y1312478D01*
X1220858Y1312437D01*
Y1313673D01*
D02*
G37*
G36*
X1351961Y1320957D02*
X1350725D01*
X1350765Y1320754D01*
X1351163Y1320159D01*
X1351758Y1319761D01*
X1351961Y1319721D01*
Y1320957D01*
D02*
G37*
G36*
X1354196D02*
X1352961D01*
Y1319721D01*
X1353163Y1319761D01*
X1353758Y1320159D01*
X1354156Y1320754D01*
X1354196Y1320957D01*
D02*
G37*
G36*
X1441035Y1320661D02*
X1439800D01*
X1439840Y1320459D01*
X1440238Y1319864D01*
X1440833Y1319466D01*
X1441035Y1319426D01*
Y1320661D01*
D02*
G37*
G36*
X1443271D02*
X1442035D01*
Y1319426D01*
X1442238Y1319466D01*
X1442833Y1319864D01*
X1443231Y1320459D01*
X1443271Y1320661D01*
D02*
G37*
G36*
X1220858Y1321421D02*
X1220656Y1321381D01*
X1220061Y1320983D01*
X1219663Y1320387D01*
X1219623Y1320185D01*
X1220858D01*
Y1321421D01*
D02*
G37*
G36*
X1221858D02*
Y1320185D01*
X1223094D01*
X1223054Y1320387D01*
X1222656Y1320983D01*
X1222061Y1321381D01*
X1221858Y1321421D01*
D02*
G37*
G36*
X1215347D02*
X1215144Y1321381D01*
X1214549Y1320983D01*
X1214151Y1320387D01*
X1214111Y1320185D01*
X1215347D01*
Y1321421D01*
D02*
G37*
G36*
X1216346D02*
Y1320185D01*
X1217582D01*
X1217542Y1320387D01*
X1217144Y1320983D01*
X1216549Y1321381D01*
X1216346Y1321421D01*
D02*
G37*
G36*
X1352596Y1186482D02*
Y1185246D01*
X1353832D01*
X1353792Y1185449D01*
X1353394Y1186044D01*
X1352798Y1186442D01*
X1352596Y1186482D01*
D02*
G37*
G36*
X1351596D02*
X1351394Y1186442D01*
X1350798Y1186044D01*
X1350400Y1185449D01*
X1350360Y1185246D01*
X1351596D01*
Y1186482D01*
D02*
G37*
G36*
X1313566Y1187449D02*
X1312331D01*
Y1186213D01*
X1312533Y1186253D01*
X1313128Y1186651D01*
X1313526Y1187247D01*
X1313566Y1187449D01*
D02*
G37*
G36*
X1311331D02*
X1310095D01*
X1310135Y1187247D01*
X1310533Y1186651D01*
X1311128Y1186253D01*
X1311331Y1186213D01*
Y1187449D01*
D02*
G37*
G36*
X1220858Y1319185D02*
X1219623D01*
X1219663Y1318983D01*
X1220061Y1318387D01*
X1220656Y1317990D01*
X1220858Y1317949D01*
Y1319185D01*
D02*
G37*
G36*
X1223094D02*
X1221858D01*
Y1317949D01*
X1222061Y1317990D01*
X1222656Y1318387D01*
X1223054Y1318983D01*
X1223094Y1319185D01*
D02*
G37*
G36*
X1215347D02*
X1214111D01*
X1214151Y1318983D01*
X1214549Y1318387D01*
X1215144Y1317990D01*
X1215347Y1317949D01*
Y1319185D01*
D02*
G37*
G36*
X1217582D02*
X1216346D01*
Y1317949D01*
X1216549Y1317990D01*
X1217144Y1318387D01*
X1217542Y1318983D01*
X1217582Y1319185D01*
D02*
G37*
G36*
X1222232Y1191155D02*
Y1188138D01*
X1225250D01*
X1225194Y1188565D01*
X1224836Y1189429D01*
X1224266Y1190172D01*
X1223524Y1190741D01*
X1222660Y1191099D01*
X1222232Y1191155D01*
D02*
G37*
G36*
X1221232D02*
X1220805Y1191099D01*
X1219941Y1190741D01*
X1219198Y1190172D01*
X1218629Y1189429D01*
X1218271Y1188565D01*
X1218215Y1188138D01*
X1221232D01*
Y1191155D01*
D02*
G37*
G36*
X1251232D02*
X1250805Y1191099D01*
X1249941Y1190741D01*
X1249198Y1190172D01*
X1248629Y1189429D01*
X1248271Y1188565D01*
X1248215Y1188138D01*
X1251232D01*
Y1191155D01*
D02*
G37*
G36*
X1316724Y1293665D02*
X1316522Y1293625D01*
X1315927Y1293227D01*
X1315529Y1292632D01*
X1315489Y1292429D01*
X1316724D01*
Y1293665D01*
D02*
G37*
G36*
X1210138Y1308036D02*
X1209435Y1307896D01*
X1208840Y1307498D01*
X1208442Y1306903D01*
X1208302Y1306201D01*
X1208442Y1305499D01*
X1208840Y1304903D01*
X1208914Y1304854D01*
Y1300363D01*
X1208840Y1300313D01*
X1208442Y1299718D01*
X1208302Y1299016D01*
X1208442Y1298313D01*
X1208840Y1297718D01*
X1209435Y1297320D01*
X1210138Y1297180D01*
X1210840Y1297320D01*
X1211436Y1297718D01*
X1211833Y1298313D01*
X1211973Y1299016D01*
X1211833Y1299718D01*
X1211436Y1300313D01*
X1211361Y1300363D01*
Y1304854D01*
X1211436Y1304903D01*
X1211833Y1305499D01*
X1211973Y1306201D01*
X1211833Y1306903D01*
X1211436Y1307498D01*
X1210840Y1307896D01*
X1210138Y1308036D01*
D02*
G37*
G36*
X1390748Y1300851D02*
X1390046Y1300711D01*
X1389450Y1300313D01*
X1389401Y1300239D01*
X1382087D01*
X1381618Y1300146D01*
X1381221Y1299881D01*
X1377741Y1296401D01*
X1342883D01*
X1342833Y1296475D01*
X1342238Y1296873D01*
X1341535Y1297012D01*
X1340833Y1296873D01*
X1340238Y1296475D01*
X1339840Y1295879D01*
X1339700Y1295177D01*
X1339840Y1294475D01*
X1339914Y1294364D01*
X1339636Y1293948D01*
X1339075Y1294060D01*
X1338373Y1293920D01*
X1337777Y1293522D01*
X1337379Y1292927D01*
X1337239Y1292224D01*
X1337379Y1291522D01*
X1337777Y1290927D01*
X1338373Y1290529D01*
X1339075Y1290389D01*
X1339777Y1290529D01*
X1340372Y1290927D01*
X1340422Y1291001D01*
X1343996D01*
X1344464Y1291094D01*
X1344861Y1291359D01*
X1344861Y1291359D01*
X1344861Y1291359D01*
X1345642Y1292140D01*
X1378979D01*
X1379448Y1292233D01*
X1379845Y1292498D01*
X1379845Y1292498D01*
X1379845Y1292498D01*
X1382383Y1295036D01*
X1386645D01*
X1386694Y1294962D01*
X1387290Y1294564D01*
X1387992Y1294425D01*
X1388694Y1294564D01*
X1389290Y1294962D01*
X1389688Y1295557D01*
X1389827Y1296260D01*
X1389688Y1296962D01*
X1389679Y1296976D01*
X1390032Y1297329D01*
X1390046Y1297320D01*
X1390748Y1297180D01*
X1391450Y1297320D01*
X1392046Y1297718D01*
X1392444Y1298313D01*
X1392583Y1299016D01*
X1392444Y1299718D01*
X1392046Y1300313D01*
X1391450Y1300711D01*
X1390748Y1300851D01*
D02*
G37*
G36*
X1406488Y1294874D02*
X1405252D01*
X1405293Y1294672D01*
X1405690Y1294076D01*
X1406286Y1293678D01*
X1406488Y1293638D01*
Y1294874D01*
D02*
G37*
G36*
X1408724D02*
X1407488D01*
Y1293638D01*
X1407691Y1293678D01*
X1408286Y1294076D01*
X1408684Y1294672D01*
X1408724Y1294874D01*
D02*
G37*
G36*
X1312331Y1189685D02*
Y1188449D01*
X1313566D01*
X1313526Y1188651D01*
X1313128Y1189246D01*
X1312533Y1189644D01*
X1312331Y1189685D01*
D02*
G37*
G36*
X1311331D02*
X1311128Y1189644D01*
X1310533Y1189246D01*
X1310135Y1188651D01*
X1310095Y1188449D01*
X1311331D01*
Y1189685D01*
D02*
G37*
G36*
X1312394Y1286972D02*
X1312191Y1286932D01*
X1311596Y1286534D01*
X1311198Y1285938D01*
X1311158Y1285736D01*
X1312394D01*
Y1286972D01*
D02*
G37*
G36*
X1313394D02*
Y1285736D01*
X1314629D01*
X1314589Y1285938D01*
X1314191Y1286534D01*
X1313596Y1286932D01*
X1313394Y1286972D01*
D02*
G37*
G36*
X1316724Y1291429D02*
X1315489D01*
X1315529Y1291227D01*
X1315927Y1290631D01*
X1316522Y1290234D01*
X1316724Y1290193D01*
Y1291429D01*
D02*
G37*
G36*
X1252232Y1191155D02*
Y1188138D01*
X1255250D01*
X1255194Y1188565D01*
X1254836Y1189429D01*
X1254266Y1190172D01*
X1253524Y1190741D01*
X1252660Y1191099D01*
X1252232Y1191155D01*
D02*
G37*
G36*
X1423793Y1191272D02*
X1420776D01*
Y1188254D01*
X1421203Y1188310D01*
X1422067Y1188668D01*
X1422809Y1189238D01*
X1423379Y1189980D01*
X1423737Y1190844D01*
X1423793Y1191272D01*
D02*
G37*
G36*
X1419776D02*
X1416758D01*
X1416814Y1190844D01*
X1417172Y1189980D01*
X1417742Y1189238D01*
X1418484Y1188668D01*
X1419348Y1188310D01*
X1419776Y1188254D01*
Y1191272D01*
D02*
G37*
G36*
X1464067Y1305210D02*
X1463640Y1305154D01*
X1462775Y1304796D01*
X1462033Y1304227D01*
X1461464Y1303485D01*
X1461106Y1302620D01*
X1461049Y1302193D01*
X1464067D01*
Y1305210D01*
D02*
G37*
G36*
X1465067D02*
Y1302193D01*
X1468085D01*
X1468028Y1302620D01*
X1467670Y1303485D01*
X1467101Y1304227D01*
X1466359Y1304796D01*
X1465494Y1305154D01*
X1465067Y1305210D01*
D02*
G37*
G36*
X1366035Y1302917D02*
X1365833Y1302877D01*
X1365238Y1302479D01*
X1364840Y1301883D01*
X1364800Y1301681D01*
X1366035D01*
Y1302917D01*
D02*
G37*
G36*
X1367035D02*
Y1301681D01*
X1368271D01*
X1368231Y1301883D01*
X1367833Y1302479D01*
X1367238Y1302877D01*
X1367035Y1302917D01*
D02*
G37*
G36*
X1371224Y1305307D02*
X1369988D01*
Y1304071D01*
X1370191Y1304111D01*
X1370786Y1304509D01*
X1371184Y1305105D01*
X1371224Y1305307D01*
D02*
G37*
G36*
X1220661Y1306756D02*
X1220459Y1306715D01*
X1219864Y1306317D01*
X1219466Y1305722D01*
X1219426Y1305520D01*
X1220661D01*
Y1306756D01*
D02*
G37*
G36*
X1243110Y1321028D02*
X1242408Y1320889D01*
X1241813Y1320491D01*
X1241415Y1319895D01*
X1241275Y1319193D01*
X1241415Y1318491D01*
X1241813Y1317895D01*
X1241887Y1317846D01*
Y1305920D01*
X1239810Y1303843D01*
X1223071D01*
X1222835Y1304284D01*
X1222857Y1304317D01*
X1222897Y1304520D01*
X1219425D01*
X1219326Y1305020D01*
X1219385Y1305316D01*
X1218895Y1305218D01*
X1218621Y1305628D01*
X1218025Y1306026D01*
X1217323Y1306166D01*
X1216621Y1306026D01*
X1216025Y1305628D01*
X1215627Y1305033D01*
X1215488Y1304331D01*
X1215627Y1303628D01*
X1216025Y1303033D01*
X1216621Y1302635D01*
X1217323Y1302495D01*
X1217410Y1302513D01*
X1218169Y1301754D01*
X1218566Y1301489D01*
X1219034Y1301396D01*
X1240316D01*
X1240785Y1301489D01*
X1241182Y1301754D01*
X1241182Y1301754D01*
X1241182Y1301754D01*
X1243975Y1304548D01*
X1244241Y1304945D01*
X1244334Y1305413D01*
X1244334Y1305413D01*
X1244334Y1305413D01*
Y1305413D01*
Y1317846D01*
X1244408Y1317895D01*
X1244806Y1318491D01*
X1244946Y1319193D01*
X1244806Y1319895D01*
X1244408Y1320491D01*
X1243813Y1320889D01*
X1243110Y1321028D01*
D02*
G37*
G36*
X1368988Y1305307D02*
X1367752D01*
X1367793Y1305105D01*
X1368190Y1304509D01*
X1368786Y1304111D01*
X1368988Y1304071D01*
Y1305307D01*
D02*
G37*
G36*
X1468085Y1301193D02*
X1465067D01*
Y1298175D01*
X1465494Y1298232D01*
X1466359Y1298590D01*
X1467101Y1299159D01*
X1467670Y1299901D01*
X1468028Y1300766D01*
X1468085Y1301193D01*
D02*
G37*
G36*
X1366035Y1300681D02*
X1364800D01*
X1364840Y1300479D01*
X1365238Y1299883D01*
X1365833Y1299485D01*
X1366035Y1299445D01*
Y1300681D01*
D02*
G37*
G36*
X1296760Y1189930D02*
Y1187508D01*
X1299182D01*
X1299146Y1187781D01*
X1298847Y1188502D01*
X1298372Y1189120D01*
X1297754Y1189595D01*
X1297033Y1189894D01*
X1296760Y1189930D01*
D02*
G37*
G36*
X1464067Y1301193D02*
X1461049D01*
X1461106Y1300766D01*
X1461464Y1299901D01*
X1462033Y1299159D01*
X1462775Y1298590D01*
X1463640Y1298232D01*
X1464067Y1298175D01*
Y1301193D01*
D02*
G37*
G36*
X1427945Y1302326D02*
X1427743Y1302286D01*
X1427147Y1301888D01*
X1426749Y1301293D01*
X1426709Y1301091D01*
X1427945D01*
Y1302326D01*
D02*
G37*
G36*
X1428945D02*
Y1301091D01*
X1430181D01*
X1430140Y1301293D01*
X1429743Y1301888D01*
X1429147Y1302286D01*
X1428945Y1302326D01*
D02*
G37*
G36*
X1368271Y1300681D02*
X1367035D01*
Y1299445D01*
X1367238Y1299485D01*
X1367833Y1299883D01*
X1368231Y1300479D01*
X1368271Y1300681D01*
D02*
G37*
G36*
X1295760Y1189930D02*
X1295487Y1189894D01*
X1294766Y1189595D01*
X1294147Y1189120D01*
X1293672Y1188502D01*
X1293374Y1187781D01*
X1293338Y1187508D01*
X1295760D01*
Y1189930D01*
D02*
G37*
G36*
X1245338Y1204323D02*
X1244102D01*
Y1203087D01*
X1244305Y1203127D01*
X1244900Y1203525D01*
X1245298Y1204121D01*
X1245338Y1204323D01*
D02*
G37*
G36*
X1243102D02*
X1241867D01*
X1241907Y1204121D01*
X1242305Y1203525D01*
X1242900Y1203127D01*
X1243102Y1203087D01*
Y1204323D01*
D02*
G37*
G36*
X1349516Y1203901D02*
Y1202665D01*
X1350752D01*
X1350711Y1202868D01*
X1350313Y1203463D01*
X1349718Y1203861D01*
X1349516Y1203901D01*
D02*
G37*
G36*
X1258654Y1204393D02*
X1258451Y1204353D01*
X1257856Y1203955D01*
X1257458Y1203360D01*
X1257418Y1203158D01*
X1258654D01*
Y1204393D01*
D02*
G37*
G36*
X1313894Y1205185D02*
Y1203949D01*
X1315129D01*
X1315089Y1204151D01*
X1314691Y1204747D01*
X1314096Y1205144D01*
X1313894Y1205185D01*
D02*
G37*
G36*
X1312894D02*
X1312691Y1205144D01*
X1312096Y1204747D01*
X1311698Y1204151D01*
X1311658Y1203949D01*
X1312894D01*
Y1205185D01*
D02*
G37*
G36*
X1259653Y1204393D02*
Y1203158D01*
X1260889D01*
X1260849Y1203360D01*
X1260451Y1203955D01*
X1259856Y1204353D01*
X1259653Y1204393D01*
D02*
G37*
G36*
X1348516Y1203901D02*
X1348313Y1203861D01*
X1347718Y1203463D01*
X1347320Y1202868D01*
X1347280Y1202665D01*
X1348516D01*
Y1203901D01*
D02*
G37*
G36*
X1315129Y1202949D02*
X1313894D01*
Y1201713D01*
X1314096Y1201753D01*
X1314691Y1202151D01*
X1315089Y1202746D01*
X1315129Y1202949D01*
D02*
G37*
G36*
X1312894D02*
X1311658D01*
X1311698Y1202746D01*
X1312096Y1202151D01*
X1312691Y1201753D01*
X1312894Y1201713D01*
Y1202949D01*
D02*
G37*
G36*
X1260889Y1202157D02*
X1259653D01*
Y1200922D01*
X1259856Y1200962D01*
X1260451Y1201360D01*
X1260849Y1201955D01*
X1260889Y1202157D01*
D02*
G37*
G36*
X1306783Y1203339D02*
X1305548D01*
X1305588Y1203136D01*
X1305986Y1202541D01*
X1306581Y1202143D01*
X1306783Y1202103D01*
Y1203339D01*
D02*
G37*
G36*
X1224122Y1203606D02*
Y1202370D01*
X1225358D01*
X1225318Y1202572D01*
X1224920Y1203168D01*
X1224324Y1203566D01*
X1224122Y1203606D01*
D02*
G37*
G36*
X1223122D02*
X1222920Y1203566D01*
X1222324Y1203168D01*
X1221926Y1202572D01*
X1221886Y1202370D01*
X1223122D01*
Y1203606D01*
D02*
G37*
G36*
X1309019Y1203339D02*
X1307784D01*
Y1202103D01*
X1307986Y1202143D01*
X1308581Y1202541D01*
X1308979Y1203136D01*
X1309019Y1203339D01*
D02*
G37*
G36*
X1306783Y1205574D02*
X1306581Y1205534D01*
X1305986Y1205136D01*
X1305588Y1204541D01*
X1305548Y1204339D01*
X1306783D01*
Y1205574D01*
D02*
G37*
G36*
X1355181Y1209835D02*
X1353945D01*
Y1208599D01*
X1354147Y1208639D01*
X1354743Y1209037D01*
X1355140Y1209632D01*
X1355181Y1209835D01*
D02*
G37*
G36*
X1352945D02*
X1351709D01*
X1351749Y1209632D01*
X1352147Y1209037D01*
X1352743Y1208639D01*
X1352945Y1208599D01*
Y1209835D01*
D02*
G37*
G36*
X1350130Y1207949D02*
X1348894D01*
Y1206713D01*
X1349096Y1206753D01*
X1349691Y1207151D01*
X1350089Y1207747D01*
X1350130Y1207949D01*
D02*
G37*
G36*
X1263968Y1209905D02*
X1263766Y1209865D01*
X1263171Y1209467D01*
X1262773Y1208872D01*
X1262733Y1208669D01*
X1263968D01*
Y1209905D01*
D02*
G37*
G36*
X1318894Y1210185D02*
Y1208949D01*
X1320129D01*
X1320089Y1209151D01*
X1319691Y1209746D01*
X1319096Y1210144D01*
X1318894Y1210185D01*
D02*
G37*
G36*
X1317894D02*
X1317691Y1210144D01*
X1317096Y1209746D01*
X1316698Y1209151D01*
X1316658Y1208949D01*
X1317894D01*
Y1210185D01*
D02*
G37*
G36*
X1264968Y1209905D02*
Y1208669D01*
X1266204D01*
X1266164Y1208872D01*
X1265766Y1209467D01*
X1265171Y1209865D01*
X1264968Y1209905D01*
D02*
G37*
G36*
X1347894Y1207949D02*
X1346658D01*
X1346698Y1207747D01*
X1347096Y1207151D01*
X1347691Y1206753D01*
X1347894Y1206713D01*
Y1207949D01*
D02*
G37*
G36*
X1244102Y1206559D02*
Y1205323D01*
X1245338D01*
X1245298Y1205525D01*
X1244900Y1206121D01*
X1244305Y1206518D01*
X1244102Y1206559D01*
D02*
G37*
G36*
X1243102D02*
X1242900Y1206518D01*
X1242305Y1206121D01*
X1241907Y1205525D01*
X1241867Y1205323D01*
X1243102D01*
Y1206559D01*
D02*
G37*
G36*
X1307784Y1205574D02*
Y1204339D01*
X1309019D01*
X1308979Y1204541D01*
X1308581Y1205136D01*
X1307986Y1205534D01*
X1307784Y1205574D01*
D02*
G37*
G36*
X1263968Y1207669D02*
X1262733D01*
X1262773Y1207467D01*
X1263171Y1206872D01*
X1263766Y1206474D01*
X1263968Y1206433D01*
Y1207669D01*
D02*
G37*
G36*
X1320129Y1207949D02*
X1318894D01*
Y1206713D01*
X1319096Y1206753D01*
X1319691Y1207151D01*
X1320089Y1207747D01*
X1320129Y1207949D01*
D02*
G37*
G36*
X1317894D02*
X1316658D01*
X1316698Y1207747D01*
X1317096Y1207151D01*
X1317691Y1206753D01*
X1317894Y1206713D01*
Y1207949D01*
D02*
G37*
G36*
X1266204Y1207669D02*
X1264968D01*
Y1206433D01*
X1265171Y1206474D01*
X1265766Y1206872D01*
X1266164Y1207467D01*
X1266204Y1207669D01*
D02*
G37*
G36*
X1258654Y1202157D02*
X1257418D01*
X1257458Y1201955D01*
X1257856Y1201360D01*
X1258451Y1200962D01*
X1258654Y1200922D01*
Y1202157D01*
D02*
G37*
G36*
X1306799Y1194846D02*
Y1193610D01*
X1308035D01*
X1307995Y1193813D01*
X1307597Y1194408D01*
X1307001Y1194806D01*
X1306799Y1194846D01*
D02*
G37*
G36*
X1305799D02*
X1305597Y1194806D01*
X1305002Y1194408D01*
X1304604Y1193813D01*
X1304563Y1193610D01*
X1305799D01*
Y1194846D01*
D02*
G37*
G36*
X1314433Y1194480D02*
X1313197D01*
Y1193244D01*
X1313399Y1193285D01*
X1313995Y1193683D01*
X1314392Y1194278D01*
X1314433Y1194480D01*
D02*
G37*
G36*
X1347532Y1195760D02*
X1346296D01*
X1346336Y1195557D01*
X1346734Y1194962D01*
X1347329Y1194564D01*
X1347532Y1194524D01*
Y1195760D01*
D02*
G37*
G36*
X1313197Y1196716D02*
Y1195480D01*
X1314433D01*
X1314392Y1195683D01*
X1313995Y1196278D01*
X1313399Y1196676D01*
X1313197Y1196716D01*
D02*
G37*
G36*
X1312197D02*
X1311994Y1196676D01*
X1311399Y1196278D01*
X1311001Y1195683D01*
X1310961Y1195480D01*
X1312197D01*
Y1196716D01*
D02*
G37*
G36*
X1349767Y1195760D02*
X1348532D01*
Y1194524D01*
X1348734Y1194564D01*
X1349329Y1194962D01*
X1349727Y1195557D01*
X1349767Y1195760D01*
D02*
G37*
G36*
X1312197Y1194480D02*
X1310961D01*
X1311001Y1194278D01*
X1311399Y1193683D01*
X1311994Y1193285D01*
X1312197Y1193244D01*
Y1194480D01*
D02*
G37*
G36*
X1323305Y1200726D02*
X1320252D01*
Y1191768D01*
X1323305D01*
Y1200726D01*
D02*
G37*
G36*
X1319252D02*
X1316199D01*
Y1191768D01*
X1319252D01*
Y1200726D01*
D02*
G37*
G36*
X1308035Y1192610D02*
X1306799D01*
Y1191374D01*
X1307001Y1191415D01*
X1307597Y1191813D01*
X1307995Y1192408D01*
X1308035Y1192610D01*
D02*
G37*
G36*
X1339252Y1200726D02*
X1336199D01*
Y1191768D01*
X1339252D01*
Y1200726D01*
D02*
G37*
G36*
X1420776Y1195289D02*
Y1192272D01*
X1423793D01*
X1423737Y1192699D01*
X1423379Y1193563D01*
X1422809Y1194306D01*
X1422067Y1194875D01*
X1421203Y1195233D01*
X1420776Y1195289D01*
D02*
G37*
G36*
X1419776D02*
X1419348Y1195233D01*
X1418484Y1194875D01*
X1417742Y1194306D01*
X1417172Y1193563D01*
X1416814Y1192699D01*
X1416758Y1192272D01*
X1419776D01*
Y1195289D01*
D02*
G37*
G36*
X1343305Y1200726D02*
X1340252D01*
Y1191768D01*
X1343305D01*
Y1200726D01*
D02*
G37*
G36*
X1354224Y1197827D02*
X1352989D01*
X1353029Y1197624D01*
X1353427Y1197029D01*
X1354022Y1196631D01*
X1354224Y1196591D01*
Y1197827D01*
D02*
G37*
G36*
X1304240Y1200653D02*
Y1199417D01*
X1305476D01*
X1305436Y1199620D01*
X1305038Y1200215D01*
X1304443Y1200613D01*
X1304240Y1200653D01*
D02*
G37*
G36*
X1303240D02*
X1303038Y1200613D01*
X1302442Y1200215D01*
X1302045Y1199620D01*
X1302004Y1199417D01*
X1303240D01*
Y1200653D01*
D02*
G37*
G36*
X1355224Y1200063D02*
Y1198827D01*
X1356460D01*
X1356420Y1199029D01*
X1356022Y1199625D01*
X1355427Y1200022D01*
X1355224Y1200063D01*
D02*
G37*
G36*
X1223122Y1201370D02*
X1221886D01*
X1221926Y1201168D01*
X1222324Y1200572D01*
X1222920Y1200175D01*
X1223122Y1200134D01*
Y1201370D01*
D02*
G37*
G36*
X1350752Y1201665D02*
X1349516D01*
Y1200430D01*
X1349718Y1200470D01*
X1350313Y1200868D01*
X1350711Y1201463D01*
X1350752Y1201665D01*
D02*
G37*
G36*
X1348516D02*
X1347280D01*
X1347320Y1201463D01*
X1347718Y1200868D01*
X1348313Y1200470D01*
X1348516Y1200430D01*
Y1201665D01*
D02*
G37*
G36*
X1225358Y1201370D02*
X1224122D01*
Y1200134D01*
X1224324Y1200175D01*
X1224920Y1200572D01*
X1225318Y1201168D01*
X1225358Y1201370D01*
D02*
G37*
G36*
X1354224Y1200063D02*
X1354022Y1200022D01*
X1353427Y1199625D01*
X1353029Y1199029D01*
X1352989Y1198827D01*
X1354224D01*
Y1200063D01*
D02*
G37*
G36*
X1392717Y1203306D02*
X1391866Y1203193D01*
X1391074Y1202865D01*
X1390393Y1202343D01*
X1389871Y1201663D01*
X1389543Y1200870D01*
X1389431Y1200020D01*
X1389543Y1199170D01*
X1389871Y1198377D01*
X1390393Y1197697D01*
X1391074Y1197174D01*
X1391866Y1196846D01*
X1392717Y1196734D01*
X1393567Y1196846D01*
X1394359Y1197174D01*
X1395040Y1197697D01*
X1395562Y1198377D01*
X1395890Y1199170D01*
X1396002Y1200020D01*
X1395890Y1200870D01*
X1395562Y1201663D01*
X1395040Y1202343D01*
X1394359Y1202865D01*
X1393567Y1203193D01*
X1392717Y1203306D01*
D02*
G37*
G36*
X1375394D02*
X1374543Y1203193D01*
X1373751Y1202865D01*
X1373070Y1202343D01*
X1372548Y1201663D01*
X1372220Y1200870D01*
X1372108Y1200020D01*
X1372220Y1199170D01*
X1372548Y1198377D01*
X1373070Y1197697D01*
X1373751Y1197174D01*
X1374543Y1196846D01*
X1375394Y1196734D01*
X1376244Y1196846D01*
X1377036Y1197174D01*
X1377717Y1197697D01*
X1378239Y1198377D01*
X1378567Y1199170D01*
X1378679Y1200020D01*
X1378567Y1200870D01*
X1378239Y1201663D01*
X1377717Y1202343D01*
X1377036Y1202865D01*
X1376244Y1203193D01*
X1375394Y1203306D01*
D02*
G37*
G36*
X1356460Y1197827D02*
X1355224D01*
Y1196591D01*
X1355427Y1196631D01*
X1356022Y1197029D01*
X1356420Y1197624D01*
X1356460Y1197827D01*
D02*
G37*
G36*
X1347532Y1197996D02*
X1347329Y1197955D01*
X1346734Y1197558D01*
X1346336Y1196962D01*
X1346296Y1196760D01*
X1347532D01*
Y1197996D01*
D02*
G37*
G36*
X1305476Y1198417D02*
X1304240D01*
Y1197182D01*
X1304443Y1197222D01*
X1305038Y1197620D01*
X1305436Y1198215D01*
X1305476Y1198417D01*
D02*
G37*
G36*
X1303240D02*
X1302004D01*
X1302045Y1198215D01*
X1302442Y1197620D01*
X1303038Y1197222D01*
X1303240Y1197182D01*
Y1198417D01*
D02*
G37*
G36*
X1348532Y1197996D02*
Y1196760D01*
X1349767D01*
X1349727Y1196962D01*
X1349329Y1197558D01*
X1348734Y1197955D01*
X1348532Y1197996D01*
D02*
G37*
G36*
X1347894Y1210185D02*
X1347691Y1210144D01*
X1347096Y1209746D01*
X1346698Y1209151D01*
X1346658Y1208949D01*
X1347894D01*
Y1210185D01*
D02*
G37*
G36*
X1268996Y1232249D02*
X1268294Y1232109D01*
X1267698Y1231711D01*
X1267581Y1231535D01*
X1259486D01*
X1259369Y1231711D01*
X1258773Y1232109D01*
X1258071Y1232249D01*
X1257368Y1232109D01*
X1256773Y1231711D01*
X1256375Y1231116D01*
X1256236Y1230413D01*
X1256375Y1229711D01*
X1256773Y1229116D01*
X1257368Y1228718D01*
X1258071Y1228578D01*
X1258773Y1228718D01*
X1259369Y1229116D01*
X1259486Y1229292D01*
X1267581D01*
X1267698Y1229116D01*
X1268294Y1228718D01*
X1268996Y1228578D01*
X1269698Y1228718D01*
X1270294Y1229116D01*
X1270692Y1229711D01*
X1270831Y1230413D01*
X1270692Y1231116D01*
X1270294Y1231711D01*
X1269698Y1232109D01*
X1268996Y1232249D01*
D02*
G37*
G36*
X1217902Y1232108D02*
Y1229043D01*
X1220967D01*
X1220909Y1229483D01*
X1220546Y1230359D01*
X1219969Y1231111D01*
X1219217Y1231688D01*
X1218341Y1232051D01*
X1217902Y1232108D01*
D02*
G37*
G36*
X1216902D02*
X1216462Y1232051D01*
X1215586Y1231688D01*
X1214834Y1231111D01*
X1214257Y1230359D01*
X1213894Y1229483D01*
X1213836Y1229043D01*
X1216902D01*
Y1232108D01*
D02*
G37*
G36*
X1334244Y1234511D02*
X1334042Y1234471D01*
X1333446Y1234073D01*
X1333049Y1233478D01*
X1333008Y1233276D01*
X1334244D01*
Y1234511D01*
D02*
G37*
G36*
X1252720Y1237197D02*
X1251484D01*
Y1235961D01*
X1251687Y1236001D01*
X1252282Y1236399D01*
X1252680Y1236994D01*
X1252720Y1237197D01*
D02*
G37*
G36*
X1250484D02*
X1249249D01*
X1249289Y1236994D01*
X1249687Y1236399D01*
X1250282Y1236001D01*
X1250484Y1235961D01*
Y1237197D01*
D02*
G37*
G36*
X1335244Y1234511D02*
Y1233276D01*
X1336480D01*
X1336440Y1233478D01*
X1336042Y1234073D01*
X1335446Y1234471D01*
X1335244Y1234511D01*
D02*
G37*
G36*
X1236012Y1238550D02*
Y1227134D01*
X1247428D01*
X1247320Y1228504D01*
X1246882Y1230328D01*
X1246165Y1232062D01*
X1245184Y1233661D01*
X1243966Y1235088D01*
X1242539Y1236306D01*
X1240940Y1237286D01*
X1239206Y1238004D01*
X1237382Y1238442D01*
X1236012Y1238550D01*
D02*
G37*
G36*
X1220967Y1228043D02*
X1217902D01*
Y1224978D01*
X1218341Y1225036D01*
X1219217Y1225399D01*
X1219969Y1225976D01*
X1220546Y1226728D01*
X1220909Y1227604D01*
X1220967Y1228043D01*
D02*
G37*
G36*
X1216902D02*
X1213836D01*
X1213894Y1227604D01*
X1214257Y1226728D01*
X1214834Y1225976D01*
X1215586Y1225399D01*
X1216462Y1225036D01*
X1216902Y1224978D01*
Y1228043D01*
D02*
G37*
G36*
X1207402Y1232174D02*
X1206462Y1232051D01*
X1205586Y1231688D01*
X1204834Y1231111D01*
X1204257Y1230359D01*
X1203894Y1229483D01*
X1203771Y1228543D01*
X1203894Y1227604D01*
X1204257Y1226728D01*
X1204834Y1225976D01*
X1205586Y1225399D01*
X1206462Y1225036D01*
X1207402Y1224912D01*
X1208341Y1225036D01*
X1209217Y1225399D01*
X1209969Y1225976D01*
X1210546Y1226728D01*
X1210909Y1227604D01*
X1211033Y1228543D01*
X1210909Y1229483D01*
X1210546Y1230359D01*
X1209969Y1231111D01*
X1209217Y1231688D01*
X1208341Y1232051D01*
X1207402Y1232174D01*
D02*
G37*
G36*
X1369303Y1229128D02*
X1368876Y1229072D01*
X1368011Y1228714D01*
X1367269Y1228144D01*
X1366700Y1227402D01*
X1366342Y1226538D01*
X1366286Y1226110D01*
X1369303D01*
Y1229128D01*
D02*
G37*
G36*
X1235012Y1238550D02*
X1233642Y1238442D01*
X1231817Y1238004D01*
X1230084Y1237286D01*
X1228484Y1236306D01*
X1227058Y1235088D01*
X1225839Y1233661D01*
X1224859Y1232062D01*
X1224141Y1230328D01*
X1223703Y1228504D01*
X1223595Y1227134D01*
X1235012D01*
Y1238550D01*
D02*
G37*
G36*
X1417232Y1238255D02*
Y1226839D01*
X1428649D01*
X1428541Y1228209D01*
X1428103Y1230033D01*
X1427385Y1231766D01*
X1426405Y1233366D01*
X1425186Y1234793D01*
X1423760Y1236011D01*
X1422160Y1236991D01*
X1420427Y1237709D01*
X1418603Y1238147D01*
X1417232Y1238255D01*
D02*
G37*
G36*
X1370303Y1229128D02*
Y1226110D01*
X1373321D01*
X1373264Y1226538D01*
X1372906Y1227402D01*
X1372337Y1228144D01*
X1371595Y1228714D01*
X1370731Y1229072D01*
X1370303Y1229128D01*
D02*
G37*
G36*
X1250484Y1239433D02*
X1250282Y1239392D01*
X1249687Y1238995D01*
X1249289Y1238399D01*
X1249249Y1238197D01*
X1250484D01*
Y1239433D01*
D02*
G37*
G36*
X1386032Y1242484D02*
Y1241248D01*
X1387267D01*
X1387227Y1241450D01*
X1386829Y1242046D01*
X1386234Y1242444D01*
X1386032Y1242484D01*
D02*
G37*
G36*
X1385032D02*
X1384829Y1242444D01*
X1384234Y1242046D01*
X1383836Y1241450D01*
X1383796Y1241248D01*
X1385032D01*
Y1242484D01*
D02*
G37*
G36*
X1412858Y1242020D02*
X1411622D01*
Y1240784D01*
X1411824Y1240824D01*
X1412420Y1241222D01*
X1412818Y1241817D01*
X1412858Y1242020D01*
D02*
G37*
G36*
X1435582Y1247495D02*
X1432482D01*
Y1243195D01*
X1434282Y1241395D01*
X1435582D01*
Y1247495D01*
D02*
G37*
G36*
X1353901Y1244283D02*
X1352665D01*
Y1243048D01*
X1352868Y1243088D01*
X1353463Y1243486D01*
X1353861Y1244081D01*
X1353901Y1244283D01*
D02*
G37*
G36*
X1351665D02*
X1350430D01*
X1350470Y1244081D01*
X1350868Y1243486D01*
X1351463Y1243088D01*
X1351665Y1243048D01*
Y1244283D01*
D02*
G37*
G36*
X1439682Y1247495D02*
X1436582D01*
Y1241395D01*
X1437882D01*
X1439682Y1243195D01*
Y1247495D01*
D02*
G37*
G36*
X1410622Y1242020D02*
X1409386D01*
X1409426Y1241817D01*
X1409824Y1241222D01*
X1410420Y1240824D01*
X1410622Y1240784D01*
Y1242020D01*
D02*
G37*
G36*
X1282535Y1239497D02*
X1281299D01*
Y1238261D01*
X1281501Y1238301D01*
X1282097Y1238699D01*
X1282495Y1239294D01*
X1282535Y1239497D01*
D02*
G37*
G36*
X1280299D02*
X1279063D01*
X1279104Y1239294D01*
X1279502Y1238699D01*
X1280097Y1238301D01*
X1280299Y1238261D01*
Y1239497D01*
D02*
G37*
G36*
X1251484Y1239433D02*
Y1238197D01*
X1252720D01*
X1252680Y1238399D01*
X1252282Y1238995D01*
X1251687Y1239392D01*
X1251484Y1239433D01*
D02*
G37*
G36*
X1385032Y1240248D02*
X1383796D01*
X1383836Y1240046D01*
X1384234Y1239450D01*
X1384829Y1239052D01*
X1385032Y1239012D01*
Y1240248D01*
D02*
G37*
G36*
X1281299Y1241732D02*
Y1240497D01*
X1282535D01*
X1282495Y1240699D01*
X1282097Y1241294D01*
X1281501Y1241692D01*
X1281299Y1241732D01*
D02*
G37*
G36*
X1280299D02*
X1280097Y1241692D01*
X1279502Y1241294D01*
X1279104Y1240699D01*
X1279063Y1240497D01*
X1280299D01*
Y1241732D01*
D02*
G37*
G36*
X1387267Y1240248D02*
X1386032D01*
Y1239012D01*
X1386234Y1239052D01*
X1386829Y1239450D01*
X1387227Y1240046D01*
X1387267Y1240248D01*
D02*
G37*
G36*
X1437882Y1228995D02*
X1436582D01*
Y1222895D01*
X1439682D01*
Y1227195D01*
X1437882Y1228995D01*
D02*
G37*
G36*
X1204437Y1212858D02*
Y1211622D01*
X1205673D01*
X1205633Y1211824D01*
X1205235Y1212420D01*
X1204639Y1212818D01*
X1204437Y1212858D01*
D02*
G37*
G36*
X1306799Y1212563D02*
Y1211327D01*
X1308035D01*
X1307995Y1211529D01*
X1307597Y1212125D01*
X1307001Y1212522D01*
X1306799Y1212563D01*
D02*
G37*
G36*
X1305799D02*
X1305597Y1212522D01*
X1305002Y1212125D01*
X1304604Y1211529D01*
X1304563Y1211327D01*
X1305799D01*
Y1212563D01*
D02*
G37*
G36*
X1322894Y1212949D02*
X1321658D01*
X1321698Y1212747D01*
X1322096Y1212151D01*
X1322691Y1211753D01*
X1322894Y1211713D01*
Y1212949D01*
D02*
G37*
G36*
X1301386Y1212956D02*
Y1211720D01*
X1302622D01*
X1302581Y1211923D01*
X1302184Y1212518D01*
X1301588Y1212916D01*
X1301386Y1212956D01*
D02*
G37*
G36*
X1300386D02*
X1300183Y1212916D01*
X1299588Y1212518D01*
X1299190Y1211923D01*
X1299150Y1211720D01*
X1300386D01*
Y1212956D01*
D02*
G37*
G36*
X1325130Y1212949D02*
X1323894D01*
Y1211713D01*
X1324096Y1211753D01*
X1324691Y1212151D01*
X1325089Y1212747D01*
X1325130Y1212949D01*
D02*
G37*
G36*
X1353945Y1212070D02*
Y1210835D01*
X1355181D01*
X1355140Y1211037D01*
X1354743Y1211632D01*
X1354147Y1212030D01*
X1353945Y1212070D01*
D02*
G37*
G36*
X1308035Y1210327D02*
X1306799D01*
Y1209091D01*
X1307001Y1209131D01*
X1307597Y1209529D01*
X1307995Y1210124D01*
X1308035Y1210327D01*
D02*
G37*
G36*
X1305799D02*
X1304563D01*
X1304604Y1210124D01*
X1305002Y1209529D01*
X1305597Y1209131D01*
X1305799Y1209091D01*
Y1210327D01*
D02*
G37*
G36*
X1348894Y1210185D02*
Y1208949D01*
X1350130D01*
X1350089Y1209151D01*
X1349691Y1209746D01*
X1349096Y1210144D01*
X1348894Y1210185D01*
D02*
G37*
G36*
X1205673Y1210622D02*
X1204437D01*
Y1209386D01*
X1204639Y1209426D01*
X1205235Y1209824D01*
X1205633Y1210420D01*
X1205673Y1210622D01*
D02*
G37*
G36*
X1352945Y1212070D02*
X1352743Y1212030D01*
X1352147Y1211632D01*
X1351749Y1211037D01*
X1351709Y1210835D01*
X1352945D01*
Y1212070D01*
D02*
G37*
G36*
X1302622Y1210721D02*
X1301386D01*
Y1209485D01*
X1301588Y1209525D01*
X1302184Y1209923D01*
X1302581Y1210518D01*
X1302622Y1210721D01*
D02*
G37*
G36*
X1300386D02*
X1299150D01*
X1299190Y1210518D01*
X1299588Y1209923D01*
X1300183Y1209525D01*
X1300386Y1209485D01*
Y1210721D01*
D02*
G37*
G36*
X1424894Y1213476D02*
X1423658D01*
X1423698Y1213274D01*
X1424096Y1212679D01*
X1424691Y1212281D01*
X1424894Y1212241D01*
Y1213476D01*
D02*
G37*
G36*
X1389803Y1229194D02*
X1388876Y1229072D01*
X1388011Y1228714D01*
X1387269Y1228144D01*
X1386700Y1227402D01*
X1386342Y1226538D01*
X1386220Y1225610D01*
X1386342Y1224683D01*
X1386577Y1224115D01*
X1384158Y1221696D01*
X1382252D01*
X1382203Y1221770D01*
X1381607Y1222168D01*
X1381575Y1222499D01*
X1381595Y1222507D01*
X1382337Y1223077D01*
X1382906Y1223819D01*
X1383264Y1224683D01*
X1383387Y1225610D01*
X1383264Y1226538D01*
X1382906Y1227402D01*
X1382337Y1228144D01*
X1381595Y1228714D01*
X1380731Y1229072D01*
X1379803Y1229194D01*
X1378876Y1229072D01*
X1378011Y1228714D01*
X1377269Y1228144D01*
X1376700Y1227402D01*
X1376342Y1226538D01*
X1376220Y1225610D01*
X1376342Y1224683D01*
X1376700Y1223819D01*
X1377269Y1223077D01*
X1378011Y1222507D01*
X1378876Y1222149D01*
X1379312Y1222092D01*
X1379518Y1221636D01*
X1379210Y1221175D01*
X1379070Y1220472D01*
X1379210Y1219770D01*
X1379607Y1219175D01*
X1380203Y1218777D01*
X1380905Y1218637D01*
X1381607Y1218777D01*
X1382203Y1219175D01*
X1382252Y1219249D01*
X1384665D01*
X1385133Y1219342D01*
X1385530Y1219607D01*
X1385530Y1219607D01*
X1385530Y1219607D01*
X1388307Y1222384D01*
X1388876Y1222149D01*
X1389803Y1222027D01*
X1390731Y1222149D01*
X1391595Y1222507D01*
X1392337Y1223077D01*
X1392906Y1223819D01*
X1393264Y1224683D01*
X1393386Y1225610D01*
X1393264Y1226538D01*
X1392906Y1227402D01*
X1392337Y1228144D01*
X1391595Y1228714D01*
X1390731Y1229072D01*
X1389803Y1229194D01*
D02*
G37*
G36*
X1286614Y1233823D02*
X1285912Y1233684D01*
X1285316Y1233286D01*
X1284919Y1232691D01*
X1284779Y1231988D01*
X1284919Y1231286D01*
X1285316Y1230690D01*
X1285391Y1230641D01*
Y1223394D01*
X1285316Y1223345D01*
X1284919Y1222750D01*
X1284779Y1222047D01*
X1284919Y1221345D01*
X1285316Y1220749D01*
X1285912Y1220352D01*
X1286614Y1220212D01*
X1287317Y1220352D01*
X1287912Y1220749D01*
X1288310Y1221345D01*
X1288449Y1222047D01*
X1288310Y1222750D01*
X1287912Y1223345D01*
X1287838Y1223394D01*
Y1230641D01*
X1287912Y1230690D01*
X1288310Y1231286D01*
X1288449Y1231988D01*
X1288310Y1232691D01*
X1287912Y1233286D01*
X1287317Y1233684D01*
X1286614Y1233823D01*
D02*
G37*
G36*
X1439682Y1221895D02*
X1436582D01*
Y1215795D01*
X1437882D01*
X1439682Y1217595D01*
Y1221895D01*
D02*
G37*
G36*
X1369303Y1225110D02*
X1366286D01*
X1366342Y1224683D01*
X1366700Y1223819D01*
X1367269Y1223077D01*
X1368011Y1222507D01*
X1368876Y1222149D01*
X1369303Y1222093D01*
Y1225110D01*
D02*
G37*
G36*
X1435582Y1228995D02*
X1434282D01*
X1432482Y1227195D01*
Y1222895D01*
X1435582D01*
Y1228995D01*
D02*
G37*
G36*
X1276575Y1237268D02*
X1275873Y1237129D01*
X1275277Y1236731D01*
X1274879Y1236135D01*
X1274739Y1235433D01*
X1274879Y1234731D01*
X1275198Y1234253D01*
Y1225196D01*
X1274879Y1224718D01*
X1274739Y1224016D01*
X1274879Y1223313D01*
X1275277Y1222718D01*
X1275873Y1222320D01*
X1276575Y1222180D01*
X1277277Y1222320D01*
X1277872Y1222718D01*
X1278270Y1223313D01*
X1278410Y1224016D01*
X1278270Y1224718D01*
X1277951Y1225196D01*
Y1234253D01*
X1278270Y1234731D01*
X1278410Y1235433D01*
X1278270Y1236135D01*
X1277872Y1236731D01*
X1277277Y1237129D01*
X1276575Y1237268D01*
D02*
G37*
G36*
X1373321Y1225110D02*
X1370303D01*
Y1222093D01*
X1370731Y1222149D01*
X1371595Y1222507D01*
X1372337Y1223077D01*
X1372906Y1223819D01*
X1373264Y1224683D01*
X1373321Y1225110D01*
D02*
G37*
G36*
X1435582Y1221895D02*
X1432482D01*
Y1217595D01*
X1434282Y1215795D01*
X1435582D01*
Y1221895D01*
D02*
G37*
G36*
X1323894Y1215185D02*
Y1213949D01*
X1325130D01*
X1325089Y1214151D01*
X1324691Y1214746D01*
X1324096Y1215144D01*
X1323894Y1215185D01*
D02*
G37*
G36*
X1322894D02*
X1322691Y1215144D01*
X1322096Y1214746D01*
X1321698Y1214151D01*
X1321658Y1213949D01*
X1322894D01*
Y1215185D01*
D02*
G37*
G36*
X1427129Y1213476D02*
X1425894D01*
Y1212241D01*
X1426096Y1212281D01*
X1426691Y1212679D01*
X1427089Y1213274D01*
X1427129Y1213476D01*
D02*
G37*
G36*
X1424894Y1215712D02*
X1424691Y1215672D01*
X1424096Y1215274D01*
X1423698Y1214679D01*
X1423658Y1214476D01*
X1424894D01*
Y1215712D01*
D02*
G37*
G36*
X1247428Y1226134D02*
X1236012D01*
Y1214717D01*
X1237382Y1214825D01*
X1239206Y1215263D01*
X1240940Y1215981D01*
X1242539Y1216961D01*
X1243966Y1218180D01*
X1245184Y1219606D01*
X1246165Y1221206D01*
X1246882Y1222939D01*
X1247320Y1224764D01*
X1247428Y1226134D01*
D02*
G37*
G36*
X1235012D02*
X1223595D01*
X1223703Y1224764D01*
X1224141Y1222939D01*
X1224859Y1221206D01*
X1225839Y1219606D01*
X1227058Y1218180D01*
X1228484Y1216961D01*
X1230084Y1215981D01*
X1231817Y1215263D01*
X1233642Y1214825D01*
X1235012Y1214717D01*
Y1226134D01*
D02*
G37*
G36*
X1425894Y1215712D02*
Y1214476D01*
X1427129D01*
X1427089Y1214679D01*
X1426691Y1215274D01*
X1426096Y1215672D01*
X1425894Y1215712D01*
D02*
G37*
G36*
X1246421Y1420169D02*
X1245185D01*
Y1418933D01*
X1245387Y1418974D01*
X1245983Y1419372D01*
X1246381Y1419967D01*
X1246421Y1420169D01*
D02*
G37*
G36*
X1244185D02*
X1242949D01*
X1242990Y1419967D01*
X1243387Y1419372D01*
X1243983Y1418974D01*
X1244185Y1418933D01*
Y1420169D01*
D02*
G37*
G36*
X1467709Y1419649D02*
X1467506Y1419609D01*
X1466911Y1419211D01*
X1466513Y1418616D01*
X1466473Y1418413D01*
X1467709D01*
Y1419649D01*
D02*
G37*
G36*
X1244185Y1422405D02*
X1243983Y1422365D01*
X1243387Y1421967D01*
X1242990Y1421372D01*
X1242949Y1421169D01*
X1244185D01*
Y1422405D01*
D02*
G37*
G36*
X1237169Y1427748D02*
X1235933D01*
Y1426512D01*
X1236135Y1426552D01*
X1236731Y1426950D01*
X1237129Y1427546D01*
X1237169Y1427748D01*
D02*
G37*
G36*
X1234933D02*
X1233697D01*
X1233737Y1427546D01*
X1234135Y1426950D01*
X1234731Y1426552D01*
X1234933Y1426512D01*
Y1427748D01*
D02*
G37*
G36*
X1245185Y1422405D02*
Y1421169D01*
X1246421D01*
X1246381Y1421372D01*
X1245983Y1421967D01*
X1245387Y1422365D01*
X1245185Y1422405D01*
D02*
G37*
G36*
X1467709Y1417413D02*
X1466473D01*
X1466513Y1417211D01*
X1466911Y1416616D01*
X1467506Y1416218D01*
X1467709Y1416178D01*
Y1417413D01*
D02*
G37*
G36*
X1254240Y1409118D02*
Y1407882D01*
X1255476D01*
X1255436Y1408084D01*
X1255038Y1408680D01*
X1254443Y1409077D01*
X1254240Y1409118D01*
D02*
G37*
G36*
X1253240D02*
X1253038Y1409077D01*
X1252442Y1408680D01*
X1252045Y1408084D01*
X1252004Y1407882D01*
X1253240D01*
Y1409118D01*
D02*
G37*
G36*
X1241839Y1408724D02*
Y1407488D01*
X1243074D01*
X1243034Y1407691D01*
X1242636Y1408286D01*
X1242041Y1408684D01*
X1241839Y1408724D01*
D02*
G37*
G36*
X1231390Y1410425D02*
X1230154D01*
X1230194Y1410223D01*
X1230592Y1409628D01*
X1231187Y1409230D01*
X1231390Y1409189D01*
Y1410425D01*
D02*
G37*
G36*
X1232390Y1412661D02*
Y1411425D01*
X1233626D01*
X1233585Y1411627D01*
X1233187Y1412223D01*
X1232592Y1412621D01*
X1232390Y1412661D01*
D02*
G37*
G36*
X1231390D02*
X1231187Y1412621D01*
X1230592Y1412223D01*
X1230194Y1411627D01*
X1230154Y1411425D01*
X1231390D01*
Y1412661D01*
D02*
G37*
G36*
X1233626Y1410425D02*
X1232390D01*
Y1409189D01*
X1232592Y1409230D01*
X1233187Y1409628D01*
X1233585Y1410223D01*
X1233626Y1410425D01*
D02*
G37*
G36*
X1234933Y1429984D02*
X1234731Y1429944D01*
X1234135Y1429546D01*
X1233737Y1428950D01*
X1233697Y1428748D01*
X1234933D01*
Y1429984D01*
D02*
G37*
G36*
X1273811Y1452650D02*
X1272575D01*
X1272616Y1452447D01*
X1273013Y1451852D01*
X1273609Y1451454D01*
X1273811Y1451414D01*
Y1452650D01*
D02*
G37*
G36*
X1328083Y1441926D02*
X1327381Y1441787D01*
X1326785Y1441389D01*
X1326668Y1441213D01*
X1313319D01*
X1313319Y1441213D01*
X1312890Y1441127D01*
X1312526Y1440884D01*
X1309066Y1437424D01*
X1308858Y1437465D01*
X1308156Y1437325D01*
X1307561Y1436928D01*
X1307163Y1436332D01*
X1307023Y1435630D01*
X1307163Y1434928D01*
X1307561Y1434332D01*
X1308156Y1433934D01*
X1308858Y1433795D01*
X1309561Y1433934D01*
X1310156Y1434332D01*
X1310554Y1434928D01*
X1310693Y1435630D01*
X1310652Y1435838D01*
X1311063Y1436248D01*
X1311504Y1436012D01*
X1311481Y1435897D01*
X1311620Y1435194D01*
X1312018Y1434599D01*
X1312613Y1434201D01*
X1313316Y1434062D01*
X1314018Y1434201D01*
X1314614Y1434599D01*
X1314731Y1434775D01*
X1321189D01*
X1321306Y1434599D01*
X1321902Y1434201D01*
X1322604Y1434062D01*
X1323306Y1434201D01*
X1323902Y1434599D01*
X1324300Y1435194D01*
X1324439Y1435897D01*
X1324300Y1436599D01*
X1323902Y1437195D01*
X1323306Y1437592D01*
X1322604Y1437732D01*
X1321902Y1437592D01*
X1321306Y1437195D01*
X1321189Y1437018D01*
X1314731D01*
X1314614Y1437195D01*
X1314018Y1437592D01*
X1313316Y1437732D01*
X1313200Y1437709D01*
X1312965Y1438150D01*
X1313784Y1438970D01*
X1326668D01*
X1326785Y1438793D01*
X1327381Y1438396D01*
X1328083Y1438256D01*
X1328786Y1438396D01*
X1329381Y1438793D01*
X1329779Y1439389D01*
X1329918Y1440091D01*
X1329779Y1440793D01*
X1329381Y1441389D01*
X1328786Y1441787D01*
X1328083Y1441926D01*
D02*
G37*
G36*
X1435736Y1441125D02*
Y1437114D01*
X1439746D01*
X1439656Y1437799D01*
X1439199Y1438902D01*
X1438472Y1439850D01*
X1437524Y1440577D01*
X1436421Y1441034D01*
X1435736Y1441125D01*
D02*
G37*
G36*
X1276047Y1452650D02*
X1274811D01*
Y1451414D01*
X1275013Y1451454D01*
X1275609Y1451852D01*
X1276007Y1452447D01*
X1276047Y1452650D01*
D02*
G37*
G36*
X1257866Y1463181D02*
X1256630D01*
X1256671Y1462979D01*
X1257068Y1462383D01*
X1257664Y1461985D01*
X1257866Y1461945D01*
Y1463181D01*
D02*
G37*
G36*
X1274811Y1454885D02*
Y1453650D01*
X1276047D01*
X1276007Y1453852D01*
X1275609Y1454447D01*
X1275013Y1454845D01*
X1274811Y1454885D01*
D02*
G37*
G36*
X1273811D02*
X1273609Y1454845D01*
X1273013Y1454447D01*
X1272616Y1453852D01*
X1272575Y1453650D01*
X1273811D01*
Y1454885D01*
D02*
G37*
G36*
X1434736Y1441125D02*
X1434052Y1441034D01*
X1432948Y1440577D01*
X1432000Y1439850D01*
X1431273Y1438902D01*
X1430816Y1437799D01*
X1430726Y1437114D01*
X1434736D01*
Y1441125D01*
D02*
G37*
G36*
X1266912Y1436114D02*
X1262902D01*
Y1432104D01*
X1263586Y1432194D01*
X1264690Y1432651D01*
X1265637Y1433378D01*
X1266365Y1434326D01*
X1266822Y1435430D01*
X1266912Y1436114D01*
D02*
G37*
G36*
X1261902D02*
X1257891D01*
X1257981Y1435430D01*
X1258438Y1434326D01*
X1259166Y1433378D01*
X1260114Y1432651D01*
X1261217Y1432194D01*
X1261902Y1432104D01*
Y1436114D01*
D02*
G37*
G36*
X1235933Y1429984D02*
Y1428748D01*
X1237169D01*
X1237129Y1428950D01*
X1236731Y1429546D01*
X1236135Y1429944D01*
X1235933Y1429984D01*
D02*
G37*
G36*
X1434736Y1436114D02*
X1430726D01*
X1430816Y1435430D01*
X1431273Y1434326D01*
X1432000Y1433378D01*
X1432948Y1432651D01*
X1434052Y1432194D01*
X1434736Y1432104D01*
Y1436114D01*
D02*
G37*
G36*
X1262902Y1441125D02*
Y1437114D01*
X1266912D01*
X1266822Y1437799D01*
X1266365Y1438902D01*
X1265637Y1439850D01*
X1264690Y1440577D01*
X1263586Y1441034D01*
X1262902Y1441125D01*
D02*
G37*
G36*
X1261902D02*
X1261217Y1441034D01*
X1260114Y1440577D01*
X1259166Y1439850D01*
X1258438Y1438902D01*
X1257981Y1437799D01*
X1257891Y1437114D01*
X1261902D01*
Y1441125D01*
D02*
G37*
G36*
X1439746Y1436114D02*
X1435736D01*
Y1432104D01*
X1436421Y1432194D01*
X1437524Y1432651D01*
X1438472Y1433378D01*
X1439199Y1434326D01*
X1439656Y1435430D01*
X1439746Y1436114D01*
D02*
G37*
G36*
X1240839Y1408724D02*
X1240636Y1408684D01*
X1240041Y1408286D01*
X1239643Y1407691D01*
X1239603Y1407488D01*
X1240839D01*
Y1408724D01*
D02*
G37*
G36*
X1349319Y1394077D02*
Y1390067D01*
X1353329D01*
X1353239Y1390751D01*
X1352782Y1391855D01*
X1352055Y1392803D01*
X1351107Y1393530D01*
X1350003Y1393987D01*
X1349319Y1394077D01*
D02*
G37*
G36*
X1348319D02*
X1347635Y1393987D01*
X1346531Y1393530D01*
X1345583Y1392803D01*
X1344856Y1391855D01*
X1344399Y1390751D01*
X1344309Y1390067D01*
X1348319D01*
Y1394077D01*
D02*
G37*
G36*
X1331799Y1387759D02*
Y1386524D01*
X1333035D01*
X1332995Y1386726D01*
X1332597Y1387321D01*
X1332001Y1387719D01*
X1331799Y1387759D01*
D02*
G37*
G36*
X1247236Y1392807D02*
X1246000D01*
X1246041Y1392605D01*
X1246439Y1392009D01*
X1247034Y1391611D01*
X1247236Y1391571D01*
Y1392807D01*
D02*
G37*
G36*
X1248236Y1395043D02*
Y1393807D01*
X1249472D01*
X1249432Y1394009D01*
X1249034Y1394605D01*
X1248438Y1395003D01*
X1248236Y1395043D01*
D02*
G37*
G36*
X1247236D02*
X1247034Y1395003D01*
X1246439Y1394605D01*
X1246041Y1394009D01*
X1246000Y1393807D01*
X1247236D01*
Y1395043D01*
D02*
G37*
G36*
X1249472Y1392807D02*
X1248236D01*
Y1391571D01*
X1248438Y1391611D01*
X1249034Y1392009D01*
X1249432Y1392605D01*
X1249472Y1392807D01*
D02*
G37*
G36*
X1330799Y1387759D02*
X1330597Y1387719D01*
X1330002Y1387321D01*
X1329604Y1386726D01*
X1329563Y1386524D01*
X1330799D01*
Y1387759D01*
D02*
G37*
G36*
X1333035Y1385524D02*
X1331799D01*
Y1384288D01*
X1332001Y1384328D01*
X1332597Y1384726D01*
X1332995Y1385321D01*
X1333035Y1385524D01*
D02*
G37*
G36*
X1330799D02*
X1329563D01*
X1329604Y1385321D01*
X1330002Y1384726D01*
X1330597Y1384328D01*
X1330799Y1384288D01*
Y1385524D01*
D02*
G37*
G36*
X1289673Y1384610D02*
Y1383374D01*
X1290909D01*
X1290869Y1383576D01*
X1290471Y1384172D01*
X1289876Y1384570D01*
X1289673Y1384610D01*
D02*
G37*
G36*
X1275780Y1385791D02*
X1275577Y1385751D01*
X1274982Y1385353D01*
X1274584Y1384757D01*
X1274544Y1384555D01*
X1275780D01*
Y1385791D01*
D02*
G37*
G36*
X1353329Y1389067D02*
X1349319D01*
Y1385057D01*
X1350003Y1385147D01*
X1351107Y1385604D01*
X1352055Y1386331D01*
X1352782Y1387279D01*
X1353239Y1388383D01*
X1353329Y1389067D01*
D02*
G37*
G36*
X1348319D02*
X1344309D01*
X1344399Y1388383D01*
X1344856Y1387279D01*
X1345583Y1386331D01*
X1346531Y1385604D01*
X1347635Y1385147D01*
X1348319Y1385057D01*
Y1389067D01*
D02*
G37*
G36*
X1276779Y1385791D02*
Y1384555D01*
X1278015D01*
X1277975Y1384757D01*
X1277577Y1385353D01*
X1276982Y1385751D01*
X1276779Y1385791D01*
D02*
G37*
G36*
X1230012Y1395169D02*
X1228776D01*
X1228816Y1394967D01*
X1229214Y1394372D01*
X1229809Y1393974D01*
X1230012Y1393933D01*
Y1395169D01*
D02*
G37*
G36*
X1240839Y1406488D02*
X1239603D01*
X1239643Y1406286D01*
X1240041Y1405690D01*
X1240636Y1405293D01*
X1240839Y1405252D01*
Y1406488D01*
D02*
G37*
G36*
X1467709Y1406094D02*
X1466473D01*
X1466513Y1405892D01*
X1466911Y1405297D01*
X1467506Y1404899D01*
X1467709Y1404859D01*
Y1406094D01*
D02*
G37*
G36*
X1351596Y1184247D02*
X1350360D01*
X1350400Y1184044D01*
X1350798Y1183449D01*
X1351394Y1183051D01*
X1351596Y1183011D01*
Y1184247D01*
D02*
G37*
G36*
X1243074Y1406488D02*
X1241839D01*
Y1405252D01*
X1242041Y1405293D01*
X1242636Y1405690D01*
X1243034Y1406286D01*
X1243074Y1406488D01*
D02*
G37*
G36*
X1467709Y1408330D02*
X1467506Y1408290D01*
X1466911Y1407892D01*
X1466513Y1407297D01*
X1466473Y1407094D01*
X1467709D01*
Y1408330D01*
D02*
G37*
G36*
X1255476Y1406882D02*
X1254240D01*
Y1405646D01*
X1254443Y1405686D01*
X1255038Y1406084D01*
X1255436Y1406680D01*
X1255476Y1406882D01*
D02*
G37*
G36*
X1253240D02*
X1252004D01*
X1252045Y1406680D01*
X1252442Y1406084D01*
X1253038Y1405686D01*
X1253240Y1405646D01*
Y1406882D01*
D02*
G37*
G36*
X1353832Y1184247D02*
X1352596D01*
Y1183011D01*
X1352798Y1183051D01*
X1353394Y1183449D01*
X1353792Y1184044D01*
X1353832Y1184247D01*
D02*
G37*
G36*
X1231012Y1397405D02*
Y1396169D01*
X1232248D01*
X1232207Y1396372D01*
X1231810Y1396967D01*
X1231214Y1397365D01*
X1231012Y1397405D01*
D02*
G37*
G36*
X1230012D02*
X1229809Y1397365D01*
X1229214Y1396967D01*
X1228816Y1396372D01*
X1228776Y1396169D01*
X1230012D01*
Y1397405D01*
D02*
G37*
G36*
X1232248Y1395169D02*
X1231012D01*
Y1393933D01*
X1231214Y1393974D01*
X1231810Y1394372D01*
X1232207Y1394967D01*
X1232248Y1395169D01*
D02*
G37*
G36*
X1459055Y1454690D02*
X1458353Y1454550D01*
X1457757Y1454152D01*
X1457360Y1453557D01*
X1457220Y1452854D01*
X1457360Y1452152D01*
X1457757Y1451557D01*
X1457969Y1451415D01*
Y1404458D01*
X1457895Y1404408D01*
X1457497Y1403813D01*
X1457358Y1403110D01*
X1457497Y1402408D01*
X1457895Y1401812D01*
X1458491Y1401415D01*
X1459193Y1401275D01*
X1459895Y1401415D01*
X1460491Y1401812D01*
X1460888Y1402408D01*
X1461028Y1403110D01*
X1460888Y1403813D01*
X1460491Y1404408D01*
X1460416Y1404458D01*
Y1451652D01*
X1460751Y1452152D01*
X1460890Y1452854D01*
X1460751Y1453557D01*
X1460353Y1454152D01*
X1459757Y1454550D01*
X1459055Y1454690D01*
D02*
G37*
G36*
X1305701Y1185228D02*
X1304465D01*
X1304505Y1185026D01*
X1304903Y1184431D01*
X1305499Y1184033D01*
X1305701Y1183992D01*
Y1185228D01*
D02*
G37*
G36*
X1307937D02*
X1306701D01*
Y1183992D01*
X1306903Y1184033D01*
X1307498Y1184431D01*
X1307896Y1185026D01*
X1307937Y1185228D01*
D02*
G37*
G36*
X1464193Y1454572D02*
X1463491Y1454432D01*
X1462895Y1454034D01*
X1462497Y1453439D01*
X1462358Y1452736D01*
X1462497Y1452034D01*
X1462895Y1451439D01*
X1462969Y1451389D01*
Y1404674D01*
X1462895Y1404624D01*
X1462497Y1404029D01*
X1462358Y1403327D01*
X1462497Y1402625D01*
X1462895Y1402029D01*
X1463491Y1401631D01*
X1464193Y1401492D01*
X1464895Y1401631D01*
X1465491Y1402029D01*
X1465889Y1402625D01*
X1466028Y1403327D01*
X1465889Y1404029D01*
X1465491Y1404624D01*
X1465416Y1404674D01*
Y1451389D01*
X1465491Y1451439D01*
X1465889Y1452034D01*
X1466028Y1452736D01*
X1465889Y1453439D01*
X1465491Y1454034D01*
X1464895Y1454432D01*
X1464193Y1454572D01*
D02*
G37*
G36*
X1434736Y1519865D02*
X1434052Y1519775D01*
X1432948Y1519317D01*
X1432000Y1518590D01*
X1431273Y1517642D01*
X1430816Y1516539D01*
X1430726Y1515854D01*
X1434736D01*
Y1519865D01*
D02*
G37*
G36*
X1262902D02*
Y1515854D01*
X1266912D01*
X1266822Y1516539D01*
X1266365Y1517642D01*
X1265637Y1518590D01*
X1264690Y1519317D01*
X1263586Y1519775D01*
X1262902Y1519865D01*
D02*
G37*
G36*
X1261902D02*
X1261217Y1519775D01*
X1260114Y1519317D01*
X1259166Y1518590D01*
X1258438Y1517642D01*
X1257981Y1516539D01*
X1257891Y1515854D01*
X1261902D01*
Y1519865D01*
D02*
G37*
G36*
X1435736D02*
Y1515854D01*
X1439746D01*
X1439656Y1516539D01*
X1439199Y1517642D01*
X1438472Y1518590D01*
X1437524Y1519317D01*
X1436421Y1519775D01*
X1435736Y1519865D01*
D02*
G37*
G36*
X1449146Y1537586D02*
X1447775Y1537478D01*
X1445951Y1537040D01*
X1444218Y1536322D01*
X1442618Y1535342D01*
X1441192Y1534123D01*
X1439973Y1532697D01*
X1438993Y1531097D01*
X1438275Y1529364D01*
X1437837Y1527540D01*
X1437729Y1526169D01*
X1449146D01*
Y1537586D01*
D02*
G37*
G36*
X1203098D02*
Y1526169D01*
X1214515D01*
X1214407Y1527540D01*
X1213969Y1529364D01*
X1213251Y1531097D01*
X1212271Y1532697D01*
X1211052Y1534123D01*
X1209626Y1535342D01*
X1208026Y1536322D01*
X1206293Y1537040D01*
X1204469Y1537478D01*
X1203098Y1537586D01*
D02*
G37*
G36*
X1202098D02*
X1200728Y1537478D01*
X1198904Y1537040D01*
X1197171Y1536322D01*
X1195571Y1535342D01*
X1194144Y1534123D01*
X1192926Y1532697D01*
X1191946Y1531097D01*
X1191228Y1529364D01*
X1190790Y1527540D01*
X1190682Y1526169D01*
X1202098D01*
Y1537586D01*
D02*
G37*
G36*
X1461562Y1525169D02*
X1450146D01*
Y1513753D01*
X1451516Y1513861D01*
X1453340Y1514299D01*
X1455074Y1515017D01*
X1456673Y1515997D01*
X1458100Y1517215D01*
X1459318Y1518642D01*
X1460298Y1520242D01*
X1461016Y1521975D01*
X1461454Y1523799D01*
X1461562Y1525169D01*
D02*
G37*
G36*
X1368988Y1514826D02*
X1368786Y1514786D01*
X1368190Y1514388D01*
X1367793Y1513793D01*
X1367752Y1513591D01*
X1368988D01*
Y1514826D01*
D02*
G37*
G36*
X1465067Y1515132D02*
Y1512114D01*
X1468085D01*
X1468028Y1512542D01*
X1467670Y1513406D01*
X1467101Y1514148D01*
X1466359Y1514717D01*
X1465494Y1515075D01*
X1465067Y1515132D01*
D02*
G37*
G36*
X1464067D02*
X1463640Y1515075D01*
X1462775Y1514717D01*
X1462033Y1514148D01*
X1461464Y1513406D01*
X1461106Y1512542D01*
X1461049Y1512114D01*
X1464067D01*
Y1515132D01*
D02*
G37*
G36*
X1369988Y1514826D02*
Y1513591D01*
X1371224D01*
X1371184Y1513793D01*
X1370786Y1514388D01*
X1370191Y1514786D01*
X1369988Y1514826D01*
D02*
G37*
G36*
X1449146Y1525169D02*
X1437729D01*
X1437837Y1523799D01*
X1438275Y1521975D01*
X1438993Y1520242D01*
X1439973Y1518642D01*
X1441192Y1517215D01*
X1442618Y1515997D01*
X1444218Y1515017D01*
X1445951Y1514299D01*
X1447775Y1513861D01*
X1449146Y1513753D01*
Y1525169D01*
D02*
G37*
G36*
X1214515D02*
X1203098D01*
Y1513753D01*
X1204469Y1513861D01*
X1206293Y1514299D01*
X1208026Y1515017D01*
X1209626Y1515997D01*
X1211052Y1517215D01*
X1212271Y1518642D01*
X1213251Y1520242D01*
X1213969Y1521975D01*
X1214407Y1523799D01*
X1214515Y1525169D01*
D02*
G37*
G36*
X1202098D02*
X1190682D01*
X1190790Y1523799D01*
X1191228Y1521975D01*
X1191946Y1520242D01*
X1192926Y1518642D01*
X1194144Y1517215D01*
X1195571Y1515997D01*
X1197171Y1515017D01*
X1198904Y1514299D01*
X1200728Y1513861D01*
X1202098Y1513753D01*
Y1525169D01*
D02*
G37*
G36*
X1450146Y1537586D02*
Y1526169D01*
X1461562D01*
X1461454Y1527540D01*
X1461016Y1529364D01*
X1460298Y1531097D01*
X1459318Y1532697D01*
X1458100Y1534123D01*
X1456673Y1535342D01*
X1455074Y1536322D01*
X1453340Y1537040D01*
X1451516Y1537478D01*
X1450146Y1537586D01*
D02*
G37*
G36*
X1353329Y1561902D02*
X1349319D01*
Y1557891D01*
X1350003Y1557981D01*
X1351107Y1558438D01*
X1352055Y1559166D01*
X1352782Y1560114D01*
X1353239Y1561217D01*
X1353329Y1561902D01*
D02*
G37*
G36*
X1348319D02*
X1344309D01*
X1344399Y1561217D01*
X1344856Y1560114D01*
X1345583Y1559166D01*
X1346531Y1558438D01*
X1347635Y1557981D01*
X1348319Y1557891D01*
Y1561902D01*
D02*
G37*
G36*
X1245486Y1560524D02*
X1242468D01*
Y1557506D01*
X1242896Y1557562D01*
X1243760Y1557920D01*
X1244502Y1558490D01*
X1245072Y1559232D01*
X1245430Y1560096D01*
X1245486Y1560524D01*
D02*
G37*
G36*
X1241469Y1564541D02*
X1241041Y1564485D01*
X1240177Y1564127D01*
X1239435Y1563558D01*
X1238865Y1562815D01*
X1238507Y1561951D01*
X1238451Y1561524D01*
X1241469D01*
Y1564541D01*
D02*
G37*
G36*
X1349319Y1566912D02*
Y1562902D01*
X1353329D01*
X1353239Y1563586D01*
X1352782Y1564690D01*
X1352055Y1565637D01*
X1351107Y1566365D01*
X1350003Y1566822D01*
X1349319Y1566912D01*
D02*
G37*
G36*
X1348319D02*
X1347635Y1566822D01*
X1346531Y1566365D01*
X1345583Y1565637D01*
X1344856Y1564690D01*
X1344399Y1563586D01*
X1344309Y1562902D01*
X1348319D01*
Y1566912D01*
D02*
G37*
G36*
X1242468Y1564541D02*
Y1561524D01*
X1245486D01*
X1245430Y1561951D01*
X1245072Y1562815D01*
X1244502Y1563558D01*
X1243760Y1564127D01*
X1242896Y1564485D01*
X1242468Y1564541D01*
D02*
G37*
G36*
X1241469Y1560524D02*
X1238451D01*
X1238507Y1560096D01*
X1238865Y1559232D01*
X1239435Y1558490D01*
X1240177Y1557920D01*
X1241041Y1557562D01*
X1241469Y1557506D01*
Y1560524D01*
D02*
G37*
G36*
X1198161Y1553634D02*
X1193555D01*
X1193666Y1552795D01*
X1194182Y1551548D01*
X1195004Y1550477D01*
X1196076Y1549655D01*
X1197323Y1549138D01*
X1198161Y1549028D01*
Y1553634D01*
D02*
G37*
G36*
X1223789Y1559261D02*
X1213534D01*
Y1549006D01*
X1223789D01*
Y1559261D01*
D02*
G37*
G36*
X1232972Y1543863D02*
X1232270Y1543723D01*
X1231793Y1543404D01*
X1195177D01*
X1195177Y1543404D01*
X1194650Y1543299D01*
X1194204Y1543001D01*
X1186527Y1535324D01*
X1186228Y1534877D01*
X1186124Y1534350D01*
Y1450491D01*
X1185804Y1450013D01*
X1185665Y1449311D01*
X1185804Y1448609D01*
X1186202Y1448013D01*
X1186798Y1447616D01*
X1187361Y1447503D01*
X1208859Y1426005D01*
X1209306Y1425707D01*
X1209833Y1425602D01*
X1210073D01*
X1210294Y1425153D01*
X1209978Y1424741D01*
X1209676Y1424012D01*
X1209573Y1423228D01*
X1209574Y1423215D01*
X1209521Y1423179D01*
X1209057Y1422485D01*
X1208894Y1421665D01*
Y1363079D01*
X1209057Y1362259D01*
X1209057Y1362259D01*
X1209057Y1362259D01*
X1209521Y1361565D01*
X1216855Y1354231D01*
Y1343053D01*
X1216474Y1342556D01*
X1216172Y1341827D01*
X1216069Y1341043D01*
X1216172Y1340260D01*
X1216474Y1339530D01*
X1216955Y1338904D01*
X1217581Y1338423D01*
X1218311Y1338120D01*
X1219094Y1338017D01*
X1219878Y1338120D01*
X1220607Y1338423D01*
X1221234Y1338904D01*
X1221715Y1339530D01*
X1222017Y1340260D01*
X1222120Y1341043D01*
X1222017Y1341827D01*
X1221715Y1342556D01*
X1221234Y1343183D01*
X1221137Y1343257D01*
Y1355118D01*
X1220974Y1355937D01*
X1220717Y1356323D01*
X1221103Y1356640D01*
X1231599Y1346144D01*
X1231454Y1345666D01*
X1231791Y1345733D01*
X1232064Y1345679D01*
X1232291Y1345452D01*
Y1344398D01*
X1233345D01*
X1233573Y1344170D01*
X1233627Y1343898D01*
X1233560Y1343560D01*
X1234038Y1343705D01*
X1241601Y1336143D01*
X1241997Y1335878D01*
X1242466Y1335784D01*
X1252992D01*
Y1327461D01*
X1253183Y1327001D01*
X1253642Y1326811D01*
X1257776D01*
X1258235Y1327001D01*
X1258425Y1327461D01*
Y1328403D01*
X1261501D01*
X1262359Y1327544D01*
Y1277756D01*
X1262362Y1277742D01*
X1261921Y1277506D01*
X1245944Y1293483D01*
X1245547Y1293748D01*
X1245079Y1293842D01*
X1228611D01*
X1228561Y1293916D01*
X1227966Y1294314D01*
X1227264Y1294453D01*
X1226562Y1294314D01*
X1225966Y1293916D01*
X1225568Y1293320D01*
X1225428Y1292618D01*
X1225568Y1291916D01*
X1225966Y1291320D01*
X1226562Y1290923D01*
X1227264Y1290783D01*
X1227966Y1290923D01*
X1228561Y1291320D01*
X1228611Y1291395D01*
X1244572D01*
X1269147Y1266820D01*
X1269129Y1266732D01*
X1269269Y1266030D01*
X1269667Y1265435D01*
X1270262Y1265037D01*
X1270965Y1264897D01*
X1271667Y1265037D01*
X1272262Y1265435D01*
X1272660Y1266030D01*
X1272709Y1266276D01*
X1273188Y1266421D01*
X1288390Y1251218D01*
X1288375Y1251146D01*
X1288251Y1250734D01*
X1288295Y1250743D01*
X1288795Y1250644D01*
Y1249408D01*
X1290031D01*
X1290131Y1248908D01*
X1290122Y1248863D01*
X1290534Y1248988D01*
X1290606Y1249002D01*
X1310525Y1229084D01*
X1310525Y1229084D01*
X1310525D01*
X1310525Y1229084D01*
X1310525D01*
X1310525Y1229084D01*
Y1229084D01*
Y1229084D01*
D01*
D01*
X1310525D01*
Y1229084D01*
X1310922Y1228818D01*
X1311390Y1228725D01*
X1354531D01*
X1354580Y1228651D01*
X1355176Y1228253D01*
X1355878Y1228113D01*
X1356580Y1228253D01*
X1357176Y1228651D01*
X1357574Y1229247D01*
X1357713Y1229949D01*
X1357574Y1230651D01*
X1357176Y1231246D01*
X1356580Y1231644D01*
X1355878Y1231784D01*
X1355176Y1231644D01*
X1354580Y1231246D01*
X1354531Y1231172D01*
X1336368D01*
X1336132Y1231613D01*
X1336440Y1232073D01*
X1336480Y1232276D01*
X1333008D01*
X1333049Y1232073D01*
X1333356Y1231613D01*
X1333120Y1231172D01*
X1311897D01*
X1304695Y1238374D01*
X1304887Y1238836D01*
X1363583D01*
X1364051Y1238929D01*
X1364448Y1239194D01*
X1377440Y1252186D01*
X1377705Y1252583D01*
X1377798Y1253051D01*
Y1276802D01*
X1377872Y1276852D01*
X1378270Y1277447D01*
X1378410Y1278150D01*
X1378393Y1278237D01*
X1397122Y1296967D01*
X1405357D01*
X1405593Y1296526D01*
X1405293Y1296076D01*
X1405252Y1295874D01*
X1408724D01*
X1408684Y1296076D01*
X1408286Y1296672D01*
X1408375Y1296967D01*
X1451832D01*
X1452300Y1297060D01*
X1452697Y1297325D01*
X1452697Y1297325D01*
X1452697Y1297325D01*
X1457470Y1302098D01*
X1457558Y1302081D01*
X1458260Y1302221D01*
X1458856Y1302618D01*
X1459253Y1303214D01*
X1459393Y1303916D01*
X1459253Y1304618D01*
X1458856Y1305214D01*
X1458260Y1305612D01*
X1457558Y1305751D01*
X1456855Y1305612D01*
X1456260Y1305214D01*
X1455862Y1304618D01*
X1455723Y1303916D01*
X1455740Y1303829D01*
X1451326Y1299414D01*
X1430354D01*
X1430118Y1299855D01*
X1430140Y1299888D01*
X1430181Y1300091D01*
X1426709D01*
X1426749Y1299888D01*
X1426772Y1299855D01*
X1426536Y1299414D01*
X1396616D01*
X1396148Y1299321D01*
X1395751Y1299056D01*
X1376662Y1279967D01*
X1376575Y1279985D01*
X1375873Y1279845D01*
X1375277Y1279447D01*
X1374879Y1278852D01*
X1374739Y1278150D01*
X1374879Y1277447D01*
X1375277Y1276852D01*
X1375351Y1276802D01*
Y1253558D01*
X1363076Y1241283D01*
X1338843D01*
X1338652Y1241745D01*
X1341969Y1245061D01*
X1342388Y1244977D01*
X1343091Y1245117D01*
X1343686Y1245515D01*
X1344084Y1246111D01*
X1344224Y1246813D01*
X1344084Y1247515D01*
X1343686Y1248110D01*
X1343091Y1248508D01*
X1342388Y1248648D01*
X1341686Y1248508D01*
X1341091Y1248110D01*
X1340693Y1247515D01*
X1340191Y1247615D01*
X1340183Y1247654D01*
X1339785Y1248250D01*
X1339677Y1248322D01*
X1339744Y1248661D01*
X1340339Y1249059D01*
X1340737Y1249654D01*
X1340877Y1250356D01*
X1340737Y1251059D01*
X1340339Y1251654D01*
X1339744Y1252052D01*
X1339042Y1252192D01*
X1338339Y1252052D01*
X1337744Y1251654D01*
X1337512Y1251306D01*
X1337385Y1251221D01*
X1332846Y1246683D01*
X1322949D01*
X1322804Y1247161D01*
X1323323Y1247508D01*
X1323720Y1248103D01*
X1323761Y1248306D01*
X1320289D01*
X1320329Y1248103D01*
X1320727Y1247508D01*
X1321246Y1247161D01*
X1321101Y1246683D01*
X1311741D01*
X1306180Y1252243D01*
X1305783Y1252508D01*
X1305315Y1252602D01*
X1303051D01*
X1302583Y1252508D01*
X1302186Y1252243D01*
X1300186Y1250243D01*
X1300098Y1250261D01*
X1299396Y1250121D01*
X1298801Y1249723D01*
X1298403Y1249127D01*
X1298263Y1248425D01*
X1298383Y1247823D01*
X1297942Y1247588D01*
X1294886Y1250643D01*
X1295122Y1251084D01*
X1295142Y1251080D01*
X1295844Y1251220D01*
X1296440Y1251618D01*
X1296838Y1252213D01*
X1296977Y1252915D01*
X1296948Y1253063D01*
X1299107Y1255222D01*
X1301680D01*
X1301797Y1255046D01*
X1302393Y1254648D01*
X1303095Y1254508D01*
X1303798Y1254648D01*
X1304393Y1255046D01*
X1304791Y1255641D01*
X1304930Y1256343D01*
X1305217Y1256629D01*
X1305919Y1256769D01*
X1306514Y1257167D01*
X1306912Y1257762D01*
X1307052Y1258465D01*
X1306912Y1259167D01*
X1306514Y1259762D01*
X1305919Y1260160D01*
X1305217Y1260300D01*
X1304514Y1260160D01*
X1304132Y1259905D01*
X1303857Y1260316D01*
Y1260316D01*
Y1260316D01*
X1303857Y1260316D01*
X1304255Y1260912D01*
X1304394Y1261614D01*
X1304255Y1262317D01*
X1303857Y1262912D01*
X1303261Y1263310D01*
X1302559Y1263449D01*
X1301857Y1263310D01*
X1301261Y1262912D01*
X1300863Y1262317D01*
X1300860Y1262317D01*
X1300373Y1262414D01*
X1300283Y1262870D01*
X1299885Y1263466D01*
X1299428Y1263771D01*
X1299389Y1263997D01*
D01*
Y1263997D01*
X1304802Y1269410D01*
X1305067Y1269807D01*
X1305067Y1269807D01*
X1305067Y1269807D01*
X1305161Y1270276D01*
Y1295458D01*
X1306314Y1296611D01*
X1316861D01*
X1316911Y1296537D01*
X1317506Y1296139D01*
X1318209Y1295999D01*
X1318911Y1296139D01*
X1318944Y1296161D01*
X1319385Y1295926D01*
Y1292797D01*
X1318907Y1292651D01*
X1318522Y1293227D01*
X1317927Y1293625D01*
X1317724Y1293665D01*
Y1291928D01*
Y1290193D01*
X1317927Y1290234D01*
X1318522Y1290631D01*
X1318907Y1291207D01*
X1319385Y1291062D01*
Y1280684D01*
X1319478Y1280216D01*
X1319744Y1279819D01*
X1322300Y1277263D01*
Y1276052D01*
X1322226Y1276002D01*
X1321828Y1275407D01*
X1321688Y1274705D01*
X1321828Y1274002D01*
X1322226Y1273407D01*
X1322821Y1273009D01*
X1323524Y1272869D01*
X1324226Y1273009D01*
X1324821Y1273407D01*
X1325219Y1274002D01*
X1325359Y1274705D01*
X1325219Y1275407D01*
X1325091Y1275598D01*
X1325445Y1275952D01*
X1325577Y1275863D01*
X1326280Y1275724D01*
X1326982Y1275863D01*
X1327577Y1276261D01*
X1327975Y1276857D01*
X1328115Y1277559D01*
X1327975Y1278261D01*
X1327577Y1278857D01*
X1326982Y1279255D01*
X1326280Y1279394D01*
X1326192Y1279377D01*
X1323632Y1281937D01*
Y1336992D01*
X1323539Y1337461D01*
X1323274Y1337858D01*
X1321483Y1339649D01*
X1321628Y1340127D01*
X1321667Y1340135D01*
X1322262Y1340533D01*
X1322660Y1341128D01*
X1322700Y1341331D01*
X1320964D01*
Y1341830D01*
X1320465D01*
Y1343567D01*
X1320262Y1343526D01*
X1320229Y1343504D01*
X1319788Y1343740D01*
Y1344952D01*
X1320229Y1345187D01*
X1320327Y1345122D01*
X1321029Y1344982D01*
X1321731Y1345122D01*
X1322327Y1345520D01*
X1322725Y1346115D01*
X1322864Y1346818D01*
X1322847Y1346905D01*
X1324521Y1348580D01*
X1336940D01*
X1336990Y1348505D01*
X1337585Y1348108D01*
X1338287Y1347968D01*
X1338990Y1348108D01*
X1339585Y1348505D01*
X1339983Y1349101D01*
X1340123Y1349803D01*
X1339983Y1350506D01*
X1339585Y1351101D01*
X1338990Y1351499D01*
X1338287Y1351638D01*
X1337585Y1351499D01*
X1336990Y1351101D01*
X1336940Y1351027D01*
X1324014D01*
X1323546Y1350933D01*
X1323149Y1350668D01*
X1321117Y1348635D01*
X1321029Y1348653D01*
X1320327Y1348513D01*
X1320229Y1348448D01*
X1319788Y1348684D01*
Y1348841D01*
X1324900Y1353953D01*
X1325165Y1354350D01*
X1325258Y1354818D01*
Y1387481D01*
X1325165Y1387949D01*
X1324900Y1388346D01*
X1264546Y1448700D01*
X1264149Y1448965D01*
X1263681Y1449058D01*
X1256465D01*
X1256416Y1449132D01*
X1255820Y1449530D01*
X1255118Y1449670D01*
X1254416Y1449530D01*
X1253820Y1449132D01*
X1253423Y1448537D01*
X1253283Y1447835D01*
X1253423Y1447132D01*
X1253820Y1446537D01*
X1254416Y1446139D01*
X1255118Y1445999D01*
X1255820Y1446139D01*
X1256416Y1446537D01*
X1256465Y1446611D01*
X1263174D01*
X1322811Y1386974D01*
Y1361821D01*
X1316329D01*
Y1356445D01*
X1314588Y1354704D01*
X1314322Y1354307D01*
X1314229Y1353839D01*
Y1339850D01*
X1314005Y1339782D01*
X1313699D01*
X1313104Y1340180D01*
X1312699Y1340260D01*
X1311105Y1341854D01*
Y1354929D01*
X1311674Y1355164D01*
X1312416Y1355734D01*
X1312985Y1356476D01*
X1313343Y1357340D01*
X1313465Y1358268D01*
X1313343Y1359195D01*
X1312985Y1360059D01*
X1312416Y1360802D01*
X1311674Y1361371D01*
X1310809Y1361729D01*
X1309882Y1361851D01*
X1308954Y1361729D01*
X1308090Y1361371D01*
X1307348Y1360802D01*
X1306779Y1360059D01*
X1306421Y1359195D01*
X1306299Y1358268D01*
X1306421Y1357340D01*
X1306779Y1356476D01*
X1307348Y1355734D01*
X1308090Y1355164D01*
X1308658Y1354929D01*
Y1341903D01*
X1308196Y1341711D01*
X1301105Y1348802D01*
Y1354929D01*
X1301674Y1355164D01*
X1302416Y1355734D01*
X1302985Y1356476D01*
X1303343Y1357340D01*
X1303465Y1358268D01*
X1303343Y1359195D01*
X1302985Y1360059D01*
X1302416Y1360802D01*
X1301674Y1361371D01*
X1300809Y1361729D01*
X1299882Y1361851D01*
X1298954Y1361729D01*
X1298090Y1361371D01*
X1297348Y1360802D01*
X1296779Y1360059D01*
X1296421Y1359195D01*
X1296299Y1358268D01*
X1296421Y1357340D01*
X1296779Y1356476D01*
X1297348Y1355734D01*
X1298090Y1355164D01*
X1298658Y1354929D01*
Y1348852D01*
X1298196Y1348660D01*
X1294358Y1352499D01*
Y1355016D01*
X1294264Y1355484D01*
X1293999Y1355881D01*
X1293108Y1356772D01*
X1293343Y1357340D01*
X1293465Y1358268D01*
X1293343Y1359195D01*
X1292985Y1360059D01*
X1292416Y1360802D01*
X1291674Y1361371D01*
X1290809Y1361729D01*
X1289882Y1361851D01*
X1288954Y1361729D01*
X1288090Y1361371D01*
X1287348Y1360802D01*
X1286779Y1360059D01*
X1286421Y1359195D01*
X1286298Y1358268D01*
X1286421Y1357340D01*
X1286779Y1356476D01*
X1287348Y1355734D01*
X1288090Y1355164D01*
X1288954Y1354806D01*
X1289882Y1354684D01*
X1290809Y1354806D01*
X1291378Y1355042D01*
X1291910Y1354509D01*
Y1352548D01*
X1291449Y1352357D01*
X1290029Y1353776D01*
X1289632Y1354041D01*
X1289164Y1354134D01*
X1285745D01*
X1283108Y1356772D01*
X1283343Y1357340D01*
X1283465Y1358268D01*
X1283343Y1359195D01*
X1282985Y1360059D01*
X1282416Y1360802D01*
X1281674Y1361371D01*
X1280809Y1361729D01*
X1279882Y1361851D01*
X1278954Y1361729D01*
X1278090Y1361371D01*
X1277348Y1360802D01*
X1276779Y1360059D01*
X1276421Y1359195D01*
X1276299Y1358268D01*
X1276421Y1357340D01*
X1276779Y1356476D01*
X1277348Y1355734D01*
X1278090Y1355164D01*
X1278954Y1354806D01*
X1279882Y1354684D01*
X1280809Y1354806D01*
X1281378Y1355042D01*
X1283623Y1352796D01*
X1283432Y1352334D01*
X1278431D01*
X1273353Y1357413D01*
X1273465Y1358268D01*
X1273343Y1359195D01*
X1272985Y1360059D01*
X1272416Y1360802D01*
X1271674Y1361371D01*
X1270809Y1361729D01*
X1269882Y1361851D01*
X1268954Y1361729D01*
X1268090Y1361371D01*
X1267348Y1360802D01*
X1266779Y1360059D01*
X1266421Y1359195D01*
X1266298Y1358268D01*
X1266421Y1357340D01*
X1266779Y1356476D01*
X1267348Y1355734D01*
X1268090Y1355164D01*
X1268954Y1354806D01*
X1269882Y1354684D01*
X1270809Y1354806D01*
X1271674Y1355164D01*
X1271938Y1355367D01*
X1276309Y1350996D01*
X1276117Y1350535D01*
X1269345D01*
X1263108Y1356772D01*
X1263343Y1357340D01*
X1263465Y1358268D01*
X1263343Y1359195D01*
X1262985Y1360059D01*
X1262416Y1360802D01*
X1261674Y1361371D01*
X1260809Y1361729D01*
X1259882Y1361851D01*
X1258954Y1361729D01*
X1258090Y1361371D01*
X1257348Y1360802D01*
X1256779Y1360059D01*
X1256421Y1359195D01*
X1256299Y1358268D01*
X1256421Y1357340D01*
X1256779Y1356476D01*
X1257348Y1355734D01*
X1258090Y1355164D01*
X1258954Y1354806D01*
X1259882Y1354684D01*
X1260809Y1354806D01*
X1261378Y1355042D01*
X1267973Y1348446D01*
X1268370Y1348181D01*
X1268839Y1348088D01*
X1272520D01*
X1272569Y1347590D01*
X1272428Y1347562D01*
X1271832Y1347164D01*
X1271434Y1346568D01*
X1271295Y1345866D01*
X1271434Y1345164D01*
X1271832Y1344568D01*
X1272428Y1344171D01*
X1273130Y1344031D01*
X1273832Y1344171D01*
X1274428Y1344568D01*
X1274477Y1344643D01*
X1276659D01*
X1282845Y1338457D01*
X1282827Y1338369D01*
X1282967Y1337667D01*
X1283365Y1337071D01*
X1283960Y1336673D01*
X1284663Y1336534D01*
X1285365Y1336673D01*
X1285960Y1337071D01*
X1286358Y1337667D01*
X1286498Y1338369D01*
X1286358Y1339071D01*
X1285960Y1339667D01*
X1285365Y1340065D01*
X1284663Y1340204D01*
X1284575Y1340187D01*
X1278030Y1346731D01*
X1277634Y1346996D01*
X1277165Y1347090D01*
X1274477D01*
X1274428Y1347164D01*
X1273832Y1347562D01*
X1273690Y1347590D01*
X1273739Y1348088D01*
X1285812D01*
X1295328Y1338572D01*
X1295310Y1338484D01*
X1295450Y1337782D01*
X1295848Y1337187D01*
X1296443Y1336789D01*
X1297146Y1336649D01*
X1297848Y1336789D01*
X1298443Y1337187D01*
X1298899D01*
X1299494Y1336789D01*
X1300197Y1336649D01*
X1300899Y1336789D01*
X1301495Y1337187D01*
X1301950D01*
X1302546Y1336789D01*
X1303248Y1336649D01*
X1303950Y1336789D01*
X1304546Y1337187D01*
X1305002D01*
X1305597Y1336789D01*
X1306299Y1336649D01*
X1307001Y1336789D01*
X1307597Y1337187D01*
X1308053D01*
X1308648Y1336789D01*
X1309350Y1336649D01*
X1310053Y1336789D01*
X1310648Y1337187D01*
X1311104D01*
X1311699Y1336789D01*
X1312402Y1336649D01*
X1313104Y1336789D01*
X1313699Y1337187D01*
X1314155D01*
X1314750Y1336789D01*
X1315453Y1336649D01*
X1316155Y1336789D01*
X1316751Y1337187D01*
X1317148Y1337782D01*
X1317288Y1338484D01*
X1317148Y1339187D01*
X1316751Y1339782D01*
X1316676Y1339832D01*
Y1353332D01*
X1318059Y1354715D01*
X1321548D01*
X1321739Y1354253D01*
X1317699Y1350213D01*
X1317434Y1349816D01*
X1317341Y1349348D01*
Y1340837D01*
X1317341Y1340837D01*
X1317341D01*
X1317434Y1340368D01*
X1317699Y1339972D01*
X1321185Y1336486D01*
Y1305951D01*
X1320723Y1305760D01*
X1291562Y1334920D01*
X1291166Y1335186D01*
X1290697Y1335279D01*
X1280798D01*
X1280562Y1335720D01*
X1280604Y1335783D01*
X1280744Y1336486D01*
X1280604Y1337188D01*
X1280207Y1337783D01*
X1279611Y1338181D01*
X1278909Y1338321D01*
X1278207Y1338181D01*
X1277729Y1337862D01*
X1276986D01*
X1262793Y1352055D01*
X1262347Y1352353D01*
X1261820Y1352458D01*
X1254311D01*
Y1356873D01*
X1254206Y1357399D01*
X1253908Y1357846D01*
X1248280Y1363473D01*
X1247834Y1363772D01*
X1247307Y1363876D01*
X1236495D01*
X1227262Y1373110D01*
Y1415244D01*
X1227157Y1415771D01*
X1227038Y1415950D01*
X1226859Y1416218D01*
X1226859Y1416218D01*
X1215125Y1427952D01*
X1214678Y1428250D01*
X1214152Y1428355D01*
X1210403D01*
X1189308Y1449450D01*
X1189196Y1450013D01*
X1188876Y1450491D01*
Y1533780D01*
X1195747Y1540651D01*
X1231793D01*
X1232270Y1540332D01*
X1232972Y1540192D01*
X1233675Y1540332D01*
X1234270Y1540730D01*
X1234668Y1541325D01*
X1234808Y1542028D01*
X1234668Y1542730D01*
X1234270Y1543325D01*
X1233675Y1543723D01*
X1232972Y1543863D01*
D02*
G37*
G36*
X1203767Y1553634D02*
X1199161D01*
Y1549028D01*
X1200000Y1549138D01*
X1201247Y1549655D01*
X1202318Y1550477D01*
X1203140Y1551548D01*
X1203657Y1552795D01*
X1203767Y1553634D01*
D02*
G37*
G36*
X1255521Y1564576D02*
X1248416D01*
Y1557471D01*
X1255521D01*
Y1564576D01*
D02*
G37*
G36*
X1199161Y1559240D02*
Y1554634D01*
X1203767D01*
X1203657Y1555472D01*
X1203140Y1556720D01*
X1202318Y1557791D01*
X1201247Y1558613D01*
X1200000Y1559129D01*
X1199161Y1559240D01*
D02*
G37*
G36*
X1198161D02*
X1197323Y1559129D01*
X1196076Y1558613D01*
X1195004Y1557791D01*
X1194182Y1556720D01*
X1193666Y1555472D01*
X1193555Y1554634D01*
X1198161D01*
Y1559240D01*
D02*
G37*
G36*
X1371224Y1512591D02*
X1369988D01*
Y1511355D01*
X1370191Y1511395D01*
X1370786Y1511793D01*
X1371184Y1512388D01*
X1371224Y1512591D01*
D02*
G37*
G36*
X1241106Y1477256D02*
X1239870D01*
Y1476020D01*
X1240072Y1476060D01*
X1240668Y1476458D01*
X1241066Y1477054D01*
X1241106Y1477256D01*
D02*
G37*
G36*
X1238870D02*
X1237634D01*
X1237675Y1477054D01*
X1238072Y1476458D01*
X1238668Y1476060D01*
X1238870Y1476020D01*
Y1477256D01*
D02*
G37*
G36*
X1439746Y1475484D02*
X1435736D01*
Y1471474D01*
X1436421Y1471564D01*
X1437524Y1472021D01*
X1438472Y1472748D01*
X1439199Y1473696D01*
X1439656Y1474800D01*
X1439746Y1475484D01*
D02*
G37*
G36*
X1261902Y1480495D02*
X1261217Y1480404D01*
X1260114Y1479947D01*
X1259166Y1479220D01*
X1258438Y1478272D01*
X1257981Y1477169D01*
X1257891Y1476484D01*
X1261902D01*
Y1480495D01*
D02*
G37*
G36*
X1435736D02*
Y1476484D01*
X1439746D01*
X1439656Y1477169D01*
X1439199Y1478272D01*
X1438472Y1479220D01*
X1437524Y1479947D01*
X1436421Y1480404D01*
X1435736Y1480495D01*
D02*
G37*
G36*
X1434736D02*
X1434052Y1480404D01*
X1432948Y1479947D01*
X1432000Y1479220D01*
X1431273Y1478272D01*
X1430816Y1477169D01*
X1430726Y1476484D01*
X1434736D01*
Y1480495D01*
D02*
G37*
G36*
X1262902D02*
Y1476484D01*
X1266912D01*
X1266822Y1477169D01*
X1266365Y1478272D01*
X1265637Y1479220D01*
X1264690Y1479947D01*
X1263586Y1480404D01*
X1262902Y1480495D01*
D02*
G37*
G36*
X1434736Y1475484D02*
X1430726D01*
X1430816Y1474800D01*
X1431273Y1473696D01*
X1432000Y1472748D01*
X1432948Y1472021D01*
X1434052Y1471564D01*
X1434736Y1471474D01*
Y1475484D01*
D02*
G37*
G36*
X1257866Y1465417D02*
X1257664Y1465377D01*
X1257068Y1464979D01*
X1256671Y1464383D01*
X1256630Y1464181D01*
X1257866D01*
Y1465417D01*
D02*
G37*
G36*
X1468120Y1465167D02*
X1461014D01*
Y1462736D01*
X1448266D01*
X1448148Y1462912D01*
X1447553Y1463310D01*
X1446850Y1463449D01*
X1446148Y1463310D01*
X1445553Y1462912D01*
X1445155Y1462317D01*
X1445015Y1461614D01*
X1445155Y1460912D01*
X1445553Y1460316D01*
X1446148Y1459919D01*
X1446850Y1459779D01*
X1447553Y1459919D01*
X1448148Y1460316D01*
X1448266Y1460493D01*
X1461014D01*
Y1458061D01*
X1468120D01*
Y1465167D01*
D02*
G37*
G36*
X1260102Y1463181D02*
X1258866D01*
Y1461945D01*
X1259068Y1461985D01*
X1259664Y1462383D01*
X1260062Y1462979D01*
X1260102Y1463181D01*
D02*
G37*
G36*
X1258866Y1465417D02*
Y1464181D01*
X1260102D01*
X1260062Y1464383D01*
X1259664Y1464979D01*
X1259068Y1465377D01*
X1258866Y1465417D01*
D02*
G37*
G36*
X1266912Y1475484D02*
X1262902D01*
Y1471474D01*
X1263586Y1471564D01*
X1264690Y1472021D01*
X1265637Y1472748D01*
X1266365Y1473696D01*
X1266822Y1474800D01*
X1266912Y1475484D01*
D02*
G37*
G36*
X1261902D02*
X1257891D01*
X1257981Y1474800D01*
X1258438Y1473696D01*
X1259166Y1472748D01*
X1260114Y1472021D01*
X1261217Y1471564D01*
X1261902Y1471474D01*
Y1475484D01*
D02*
G37*
G36*
X1464567Y1475198D02*
X1463640Y1475076D01*
X1462775Y1474718D01*
X1462033Y1474148D01*
X1461464Y1473406D01*
X1461106Y1472542D01*
X1460983Y1471614D01*
X1461001Y1471478D01*
X1460672Y1471102D01*
X1448069D01*
X1447951Y1471278D01*
X1447356Y1471676D01*
X1446653Y1471816D01*
X1445951Y1471676D01*
X1445356Y1471278D01*
X1444958Y1470683D01*
X1444818Y1469980D01*
X1444958Y1469278D01*
X1445356Y1468683D01*
X1445951Y1468285D01*
X1446653Y1468145D01*
X1447356Y1468285D01*
X1447951Y1468683D01*
X1448069Y1468859D01*
X1462322D01*
X1462775Y1468511D01*
X1463640Y1468153D01*
X1464567Y1468031D01*
X1465494Y1468153D01*
X1466359Y1468511D01*
X1467101Y1469080D01*
X1467670Y1469823D01*
X1468028Y1470687D01*
X1468150Y1471614D01*
X1468028Y1472542D01*
X1467670Y1473406D01*
X1467101Y1474148D01*
X1466359Y1474718D01*
X1465494Y1475076D01*
X1464567Y1475198D01*
D02*
G37*
G36*
Y1485198D02*
X1463640Y1485075D01*
X1462775Y1484717D01*
X1462033Y1484148D01*
X1461464Y1483406D01*
X1461106Y1482542D01*
X1460983Y1481614D01*
X1461106Y1480687D01*
X1461464Y1479823D01*
X1462033Y1479080D01*
X1462775Y1478511D01*
X1463640Y1478153D01*
X1464567Y1478031D01*
X1465494Y1478153D01*
X1466359Y1478511D01*
X1467101Y1479080D01*
X1467670Y1479823D01*
X1468028Y1480687D01*
X1468150Y1481614D01*
X1468028Y1482542D01*
X1467670Y1483406D01*
X1467101Y1484148D01*
X1466359Y1484717D01*
X1465494Y1485075D01*
X1464567Y1485198D01*
D02*
G37*
G36*
X1261902Y1514854D02*
X1257891D01*
X1257981Y1514170D01*
X1258438Y1513066D01*
X1259166Y1512119D01*
X1260114Y1511391D01*
X1261217Y1510934D01*
X1261902Y1510844D01*
Y1514854D01*
D02*
G37*
G36*
X1468085Y1511114D02*
X1465067D01*
Y1508097D01*
X1465494Y1508153D01*
X1466359Y1508511D01*
X1467101Y1509080D01*
X1467670Y1509822D01*
X1468028Y1510687D01*
X1468085Y1511114D01*
D02*
G37*
G36*
X1464067D02*
X1461049D01*
X1461106Y1510687D01*
X1461464Y1509822D01*
X1462033Y1509080D01*
X1462775Y1508511D01*
X1463640Y1508153D01*
X1464067Y1508097D01*
Y1511114D01*
D02*
G37*
G36*
X1266912Y1514854D02*
X1262902D01*
Y1510844D01*
X1263586Y1510934D01*
X1264690Y1511391D01*
X1265637Y1512119D01*
X1266365Y1513066D01*
X1266822Y1514170D01*
X1266912Y1514854D01*
D02*
G37*
G36*
X1368988Y1512591D02*
X1367752D01*
X1367793Y1512388D01*
X1368190Y1511793D01*
X1368786Y1511395D01*
X1368988Y1511355D01*
Y1512591D01*
D02*
G37*
G36*
X1439746Y1514854D02*
X1435736D01*
Y1510844D01*
X1436421Y1510934D01*
X1437524Y1511391D01*
X1438472Y1512119D01*
X1439199Y1513066D01*
X1439656Y1514170D01*
X1439746Y1514854D01*
D02*
G37*
G36*
X1434736D02*
X1430726D01*
X1430816Y1514170D01*
X1431273Y1513066D01*
X1432000Y1512119D01*
X1432948Y1511391D01*
X1434052Y1510934D01*
X1434736Y1510844D01*
Y1514854D01*
D02*
G37*
G36*
X1464567Y1505198D02*
X1463640Y1505075D01*
X1462775Y1504718D01*
X1462033Y1504148D01*
X1461464Y1503406D01*
X1461106Y1502542D01*
X1460983Y1501614D01*
X1461106Y1500687D01*
X1461464Y1499823D01*
X1462033Y1499080D01*
X1462775Y1498511D01*
X1463640Y1498153D01*
X1464567Y1498031D01*
X1465494Y1498153D01*
X1466359Y1498511D01*
X1467101Y1499080D01*
X1467670Y1499823D01*
X1468028Y1500687D01*
X1468150Y1501614D01*
X1468028Y1502542D01*
X1467670Y1503406D01*
X1467101Y1504148D01*
X1466359Y1504718D01*
X1465494Y1505075D01*
X1464567Y1505198D01*
D02*
G37*
G36*
X1308161Y1482472D02*
X1306926D01*
X1306966Y1482270D01*
X1307364Y1481675D01*
X1307959Y1481277D01*
X1308161Y1481237D01*
Y1482472D01*
D02*
G37*
G36*
X1239870Y1479492D02*
Y1478256D01*
X1241106D01*
X1241066Y1478458D01*
X1240668Y1479054D01*
X1240072Y1479451D01*
X1239870Y1479492D01*
D02*
G37*
G36*
X1238870D02*
X1238668Y1479451D01*
X1238072Y1479054D01*
X1237675Y1478458D01*
X1237634Y1478256D01*
X1238870D01*
Y1479492D01*
D02*
G37*
G36*
X1310397Y1482472D02*
X1309161D01*
Y1481237D01*
X1309364Y1481277D01*
X1309959Y1481675D01*
X1310357Y1482270D01*
X1310397Y1482472D01*
D02*
G37*
G36*
X1464567Y1495198D02*
X1463640Y1495076D01*
X1462775Y1494718D01*
X1462033Y1494148D01*
X1461464Y1493406D01*
X1461186Y1492736D01*
X1457103D01*
X1456509Y1493133D01*
X1455807Y1493272D01*
X1455105Y1493133D01*
X1454509Y1492735D01*
X1454111Y1492139D01*
X1453972Y1491437D01*
X1454111Y1490735D01*
X1454509Y1490139D01*
X1455105Y1489742D01*
X1455807Y1489602D01*
X1456509Y1489742D01*
X1457105Y1490139D01*
X1457341Y1490493D01*
X1461186D01*
X1461464Y1489822D01*
X1462033Y1489080D01*
X1462775Y1488511D01*
X1463640Y1488153D01*
X1464567Y1488031D01*
X1465494Y1488153D01*
X1466359Y1488511D01*
X1467101Y1489080D01*
X1467670Y1489822D01*
X1468028Y1490687D01*
X1468150Y1491614D01*
X1468028Y1492542D01*
X1467670Y1493406D01*
X1467101Y1494148D01*
X1466359Y1494718D01*
X1465494Y1495076D01*
X1464567Y1495198D01*
D02*
G37*
G36*
X1309161Y1484708D02*
Y1483472D01*
X1310397D01*
X1310357Y1483675D01*
X1309959Y1484270D01*
X1309364Y1484668D01*
X1309161Y1484708D01*
D02*
G37*
G36*
X1308161D02*
X1307959Y1484668D01*
X1307364Y1484270D01*
X1306966Y1483675D01*
X1306926Y1483472D01*
X1308161D01*
Y1484708D01*
D02*
G37*
G36*
X1288673Y1384610D02*
X1288471Y1384570D01*
X1287875Y1384172D01*
X1287478Y1383576D01*
X1287437Y1383374D01*
X1288673D01*
Y1384610D01*
D02*
G37*
G36*
X1233848Y1341718D02*
X1233646Y1341678D01*
X1233050Y1341280D01*
X1232652Y1340685D01*
X1232612Y1340483D01*
X1233848D01*
Y1341718D01*
D02*
G37*
G36*
X1227559D02*
Y1340483D01*
X1228795D01*
X1228755Y1340685D01*
X1228357Y1341280D01*
X1227761Y1341678D01*
X1227559Y1341718D01*
D02*
G37*
G36*
X1226559D02*
X1226357Y1341678D01*
X1225761Y1341280D01*
X1225364Y1340685D01*
X1225323Y1340483D01*
X1226559D01*
Y1341718D01*
D02*
G37*
G36*
X1234848D02*
Y1340483D01*
X1236084D01*
X1236043Y1340685D01*
X1235646Y1341280D01*
X1235050Y1341678D01*
X1234848Y1341718D01*
D02*
G37*
G36*
X1231291Y1343398D02*
X1230056D01*
X1230096Y1343195D01*
X1230494Y1342600D01*
X1231089Y1342202D01*
X1231291Y1342162D01*
Y1343398D01*
D02*
G37*
G36*
X1226244D02*
X1225008D01*
Y1342162D01*
X1225210Y1342202D01*
X1225806Y1342600D01*
X1226203Y1343195D01*
X1226244Y1343398D01*
D02*
G37*
G36*
X1224008D02*
X1222772D01*
X1222812Y1343195D01*
X1223210Y1342600D01*
X1223806Y1342202D01*
X1224008Y1342162D01*
Y1343398D01*
D02*
G37*
G36*
X1290756Y1340909D02*
Y1339673D01*
X1291992D01*
X1291951Y1339876D01*
X1291554Y1340471D01*
X1290958Y1340869D01*
X1290756Y1340909D01*
D02*
G37*
G36*
X1226559Y1339483D02*
X1225323D01*
X1225364Y1339280D01*
X1225761Y1338685D01*
X1226357Y1338287D01*
X1226559Y1338247D01*
Y1339483D01*
D02*
G37*
G36*
X1352764Y1339137D02*
Y1337902D01*
X1354000D01*
X1353959Y1338104D01*
X1353561Y1338699D01*
X1352966Y1339097D01*
X1352764Y1339137D01*
D02*
G37*
G36*
X1351764D02*
X1351562Y1339097D01*
X1350966Y1338699D01*
X1350568Y1338104D01*
X1350528Y1337902D01*
X1351764D01*
Y1339137D01*
D02*
G37*
G36*
X1228795Y1339483D02*
X1227559D01*
Y1338247D01*
X1227761Y1338287D01*
X1228357Y1338685D01*
X1228755Y1339280D01*
X1228795Y1339483D01*
D02*
G37*
G36*
X1289756Y1340909D02*
X1289554Y1340869D01*
X1288958Y1340471D01*
X1288560Y1339876D01*
X1288520Y1339673D01*
X1289756D01*
Y1340909D01*
D02*
G37*
G36*
X1236084Y1339483D02*
X1234848D01*
Y1338247D01*
X1235050Y1338287D01*
X1235646Y1338685D01*
X1236043Y1339280D01*
X1236084Y1339483D01*
D02*
G37*
G36*
X1233848D02*
X1232612D01*
X1232652Y1339280D01*
X1233050Y1338685D01*
X1233646Y1338287D01*
X1233848Y1338247D01*
Y1339483D01*
D02*
G37*
G36*
X1233527Y1343398D02*
X1232291D01*
Y1342162D01*
X1232494Y1342202D01*
X1233089Y1342600D01*
X1233487Y1343195D01*
X1233527Y1343398D01*
D02*
G37*
G36*
X1304815Y1348221D02*
X1303579D01*
X1303619Y1348018D01*
X1304017Y1347423D01*
X1304613Y1347025D01*
X1304815Y1346985D01*
Y1348221D01*
D02*
G37*
G36*
X1335441Y1347897D02*
Y1346661D01*
X1336677D01*
X1336637Y1346864D01*
X1336239Y1347459D01*
X1335643Y1347857D01*
X1335441Y1347897D01*
D02*
G37*
G36*
X1334441D02*
X1334239Y1347857D01*
X1333643Y1347459D01*
X1333245Y1346864D01*
X1333205Y1346661D01*
X1334441D01*
Y1347897D01*
D02*
G37*
G36*
X1307051Y1348221D02*
X1305815D01*
Y1346985D01*
X1306017Y1347025D01*
X1306613Y1347423D01*
X1307010Y1348018D01*
X1307051Y1348221D01*
D02*
G37*
G36*
X1469354Y1350681D02*
X1468118D01*
Y1349445D01*
X1468320Y1349485D01*
X1468916Y1349883D01*
X1469314Y1350479D01*
X1469354Y1350681D01*
D02*
G37*
G36*
X1305815Y1350456D02*
Y1349220D01*
X1307051D01*
X1307010Y1349423D01*
X1306613Y1350018D01*
X1306017Y1350416D01*
X1305815Y1350456D01*
D02*
G37*
G36*
X1304815D02*
X1304613Y1350416D01*
X1304017Y1350018D01*
X1303619Y1349423D01*
X1303579Y1349220D01*
X1304815D01*
Y1350456D01*
D02*
G37*
G36*
X1203098Y1356995D02*
Y1345579D01*
X1214515D01*
X1214407Y1346949D01*
X1213969Y1348773D01*
X1213251Y1350506D01*
X1212271Y1352106D01*
X1211052Y1353533D01*
X1209626Y1354751D01*
X1208026Y1355731D01*
X1206293Y1356449D01*
X1204469Y1356887D01*
X1203098Y1356995D01*
D02*
G37*
G36*
X1225008Y1345633D02*
Y1344398D01*
X1226244D01*
X1226203Y1344600D01*
X1225806Y1345195D01*
X1225210Y1345593D01*
X1225008Y1345633D01*
D02*
G37*
G36*
X1224008D02*
X1223806Y1345593D01*
X1223210Y1345195D01*
X1222812Y1344600D01*
X1222772Y1344398D01*
X1224008D01*
Y1345633D01*
D02*
G37*
G36*
X1321465Y1343567D02*
Y1342331D01*
X1322700D01*
X1322660Y1342533D01*
X1322262Y1343128D01*
X1321667Y1343526D01*
X1321465Y1343567D01*
D02*
G37*
G36*
X1231291Y1345633D02*
X1231089Y1345593D01*
X1230494Y1345195D01*
X1230096Y1344600D01*
X1230056Y1344398D01*
X1231291D01*
Y1345633D01*
D02*
G37*
G36*
X1450146Y1356916D02*
Y1345500D01*
X1461562D01*
X1461454Y1346870D01*
X1461016Y1348695D01*
X1460298Y1350428D01*
X1459318Y1352027D01*
X1458100Y1353454D01*
X1456673Y1354672D01*
X1455074Y1355653D01*
X1453340Y1356371D01*
X1451516Y1356809D01*
X1450146Y1356916D01*
D02*
G37*
G36*
X1336677Y1345661D02*
X1335441D01*
Y1344426D01*
X1335643Y1344466D01*
X1336239Y1344864D01*
X1336637Y1345459D01*
X1336677Y1345661D01*
D02*
G37*
G36*
X1334441D02*
X1333205D01*
X1333245Y1345459D01*
X1333643Y1344864D01*
X1334239Y1344466D01*
X1334441Y1344426D01*
Y1345661D01*
D02*
G37*
G36*
X1291992Y1338673D02*
X1290756D01*
Y1337437D01*
X1290958Y1337478D01*
X1291554Y1337875D01*
X1291951Y1338471D01*
X1291992Y1338673D01*
D02*
G37*
G36*
X1227531Y1326014D02*
X1227523Y1325976D01*
X1226287D01*
Y1324740D01*
X1226250Y1324733D01*
X1226603Y1324380D01*
X1226610Y1324417D01*
X1227847D01*
Y1325653D01*
X1227884Y1325661D01*
X1227531Y1326014D01*
D02*
G37*
G36*
X1276575Y1189996D02*
X1275801Y1189894D01*
X1275081Y1189595D01*
X1274462Y1189120D01*
X1273987Y1188502D01*
X1273689Y1187781D01*
X1273587Y1187008D01*
X1273689Y1186235D01*
X1273987Y1185514D01*
X1274462Y1184895D01*
X1275081Y1184420D01*
X1275801Y1184122D01*
X1276575Y1184020D01*
X1277348Y1184122D01*
X1278069Y1184420D01*
X1278687Y1184895D01*
X1279162Y1185514D01*
X1279461Y1186235D01*
X1279563Y1187008D01*
X1279461Y1187781D01*
X1279162Y1188502D01*
X1278687Y1189120D01*
X1278069Y1189595D01*
X1277348Y1189894D01*
X1276575Y1189996D01*
D02*
G37*
G36*
X1286417D02*
X1285644Y1189894D01*
X1284923Y1189595D01*
X1284305Y1189120D01*
X1283830Y1188502D01*
X1283531Y1187781D01*
X1283430Y1187008D01*
X1283531Y1186235D01*
X1283830Y1185514D01*
X1284305Y1184895D01*
X1284923Y1184420D01*
X1285644Y1184122D01*
X1286417Y1184020D01*
X1287191Y1184122D01*
X1287911Y1184420D01*
X1288530Y1184895D01*
X1289005Y1185514D01*
X1289303Y1186235D01*
X1289405Y1187008D01*
X1289303Y1187781D01*
X1289005Y1188502D01*
X1288530Y1189120D01*
X1287911Y1189595D01*
X1287191Y1189894D01*
X1286417Y1189996D01*
D02*
G37*
G36*
X1228846Y1325653D02*
Y1324417D01*
X1230082D01*
X1230042Y1324620D01*
X1229644Y1325215D01*
X1229049Y1325613D01*
X1228846Y1325653D01*
D02*
G37*
G36*
X1319944Y1326862D02*
X1318709D01*
Y1325626D01*
X1318911Y1325667D01*
X1319506Y1326064D01*
X1319904Y1326660D01*
X1319944Y1326862D01*
D02*
G37*
G36*
X1317709D02*
X1316473D01*
X1316513Y1326660D01*
X1316911Y1326064D01*
X1317506Y1325667D01*
X1317709Y1325626D01*
Y1326862D01*
D02*
G37*
G36*
X1225287Y1325976D02*
X1224052D01*
X1224092Y1325774D01*
X1224490Y1325179D01*
X1225085Y1324781D01*
X1225287Y1324741D01*
Y1325976D01*
D02*
G37*
G36*
X1230082Y1323417D02*
X1228846D01*
Y1322182D01*
X1229049Y1322222D01*
X1229644Y1322620D01*
X1230042Y1323215D01*
X1230082Y1323417D01*
D02*
G37*
G36*
X1441035Y1322897D02*
X1440833Y1322857D01*
X1440238Y1322459D01*
X1439840Y1321864D01*
X1439800Y1321661D01*
X1441035D01*
Y1322897D01*
D02*
G37*
G36*
X1295760Y1186508D02*
X1293338D01*
X1293374Y1186235D01*
X1293672Y1185514D01*
X1294147Y1184895D01*
X1294766Y1184420D01*
X1295487Y1184122D01*
X1295760Y1184086D01*
Y1186508D01*
D02*
G37*
G36*
X1299182D02*
X1296760D01*
Y1184086D01*
X1297033Y1184122D01*
X1297754Y1184420D01*
X1298372Y1184895D01*
X1298847Y1185514D01*
X1299146Y1186235D01*
X1299182Y1186508D01*
D02*
G37*
G36*
X1442035Y1322897D02*
Y1321661D01*
X1443271D01*
X1443231Y1321864D01*
X1442833Y1322459D01*
X1442238Y1322857D01*
X1442035Y1322897D01*
D02*
G37*
G36*
X1227847Y1323417D02*
X1226611D01*
X1226651Y1323215D01*
X1227049Y1322620D01*
X1227644Y1322222D01*
X1227847Y1322182D01*
Y1323417D01*
D02*
G37*
G36*
X1352961Y1323193D02*
Y1321957D01*
X1354196D01*
X1354156Y1322159D01*
X1353758Y1322754D01*
X1353163Y1323152D01*
X1352961Y1323193D01*
D02*
G37*
G36*
X1351961D02*
X1351758Y1323152D01*
X1351163Y1322754D01*
X1350765Y1322159D01*
X1350725Y1321957D01*
X1351961D01*
Y1323193D01*
D02*
G37*
G36*
X1225287Y1328212D02*
X1225085Y1328172D01*
X1224490Y1327774D01*
X1224092Y1327179D01*
X1224052Y1326976D01*
X1225287D01*
Y1328212D01*
D02*
G37*
G36*
X1317610Y1335594D02*
X1317408Y1335554D01*
X1316813Y1335156D01*
X1316415Y1334561D01*
X1316374Y1334358D01*
X1317610D01*
Y1335594D01*
D02*
G37*
G36*
X1214515Y1344579D02*
X1203098D01*
Y1333162D01*
X1204469Y1333270D01*
X1206293Y1333708D01*
X1208026Y1334426D01*
X1209626Y1335406D01*
X1211052Y1336625D01*
X1212271Y1338051D01*
X1213251Y1339651D01*
X1213969Y1341384D01*
X1214407Y1343209D01*
X1214515Y1344579D01*
D02*
G37*
G36*
X1461562Y1344500D02*
X1450146D01*
Y1333084D01*
X1451516Y1333191D01*
X1453340Y1333629D01*
X1455074Y1334347D01*
X1456673Y1335328D01*
X1458100Y1336546D01*
X1459318Y1337973D01*
X1460298Y1339572D01*
X1461016Y1341306D01*
X1461454Y1343130D01*
X1461562Y1344500D01*
D02*
G37*
G36*
X1318610Y1335594D02*
Y1334358D01*
X1319846D01*
X1319806Y1334561D01*
X1319408Y1335156D01*
X1318813Y1335554D01*
X1318610Y1335594D01*
D02*
G37*
G36*
X1289756Y1338673D02*
X1288520D01*
X1288560Y1338471D01*
X1288958Y1337875D01*
X1289554Y1337478D01*
X1289756Y1337437D01*
Y1338673D01*
D02*
G37*
G36*
X1354000Y1336902D02*
X1352764D01*
Y1335666D01*
X1352966Y1335706D01*
X1353561Y1336104D01*
X1353959Y1336699D01*
X1354000Y1336902D01*
D02*
G37*
G36*
X1351764D02*
X1350528D01*
X1350568Y1336699D01*
X1350966Y1336104D01*
X1351562Y1335706D01*
X1351764Y1335666D01*
Y1336902D01*
D02*
G37*
G36*
X1361909Y1495940D02*
X1268996D01*
X1268177Y1495777D01*
X1267482Y1495313D01*
X1255313Y1483144D01*
X1254532Y1483041D01*
X1253802Y1482739D01*
X1253175Y1482258D01*
X1252695Y1481631D01*
X1252392Y1480901D01*
X1252289Y1480118D01*
X1252392Y1479335D01*
X1252695Y1478605D01*
X1253175Y1477979D01*
X1253802Y1477498D01*
X1254532Y1477195D01*
X1255315Y1477092D01*
X1256098Y1477195D01*
X1256828Y1477498D01*
X1257455Y1477979D01*
X1257936Y1478605D01*
X1258238Y1479335D01*
X1258340Y1480116D01*
X1269883Y1491658D01*
X1361023D01*
X1434086Y1418595D01*
Y1336510D01*
X1434249Y1335690D01*
X1434249Y1335690D01*
X1434249Y1335690D01*
X1434713Y1334995D01*
X1442545Y1327163D01*
X1442648Y1326382D01*
X1442950Y1325652D01*
X1443431Y1325026D01*
X1444058Y1324545D01*
X1444788Y1324243D01*
X1445571Y1324139D01*
X1446354Y1324243D01*
X1447084Y1324545D01*
X1447711Y1325026D01*
X1448191Y1325652D01*
X1448494Y1326382D01*
X1448597Y1327165D01*
X1448494Y1327948D01*
X1448191Y1328678D01*
X1447711Y1329305D01*
X1447084Y1329786D01*
X1446354Y1330088D01*
X1445573Y1330191D01*
X1438368Y1337396D01*
Y1339800D01*
X1438858Y1339897D01*
X1438993Y1339572D01*
X1439973Y1337973D01*
X1441192Y1336546D01*
X1442618Y1335328D01*
X1444218Y1334347D01*
X1445951Y1333629D01*
X1447775Y1333191D01*
X1449146Y1333084D01*
Y1344999D01*
Y1356916D01*
X1447775Y1356809D01*
X1445951Y1356371D01*
X1444218Y1355653D01*
X1442618Y1354672D01*
X1441192Y1353454D01*
X1439973Y1352027D01*
X1438993Y1350428D01*
X1438858Y1350103D01*
X1438368Y1350200D01*
Y1419482D01*
X1438205Y1420301D01*
X1437741Y1420996D01*
X1363424Y1495313D01*
X1362729Y1495777D01*
X1361909Y1495940D01*
D02*
G37*
G36*
X1318709Y1329098D02*
Y1327862D01*
X1319944D01*
X1319904Y1328065D01*
X1319506Y1328660D01*
X1318911Y1329058D01*
X1318709Y1329098D01*
D02*
G37*
G36*
X1317709D02*
X1317506Y1329058D01*
X1316911Y1328660D01*
X1316513Y1328065D01*
X1316473Y1327862D01*
X1317709D01*
Y1329098D01*
D02*
G37*
G36*
X1226287Y1328212D02*
Y1326976D01*
X1227523D01*
X1227483Y1327179D01*
X1227085Y1327774D01*
X1226490Y1328172D01*
X1226287Y1328212D01*
D02*
G37*
G36*
X1396072Y1330307D02*
X1394836D01*
Y1329071D01*
X1395039Y1329111D01*
X1395634Y1329509D01*
X1396032Y1330105D01*
X1396072Y1330307D01*
D02*
G37*
G36*
X1319846Y1333358D02*
X1318610D01*
Y1332123D01*
X1318813Y1332163D01*
X1319408Y1332561D01*
X1319806Y1333156D01*
X1319846Y1333358D01*
D02*
G37*
G36*
X1317610D02*
X1316374D01*
X1316415Y1333156D01*
X1316813Y1332561D01*
X1317408Y1332163D01*
X1317610Y1332123D01*
Y1333358D01*
D02*
G37*
G36*
X1394836Y1332543D02*
Y1331307D01*
X1396072D01*
X1396032Y1331509D01*
X1395634Y1332105D01*
X1395039Y1332503D01*
X1394836Y1332543D01*
D02*
G37*
G36*
X1328634Y1380406D02*
X1327398D01*
X1327438Y1380203D01*
X1327836Y1379608D01*
X1328432Y1379210D01*
X1328634Y1379170D01*
Y1380406D01*
D02*
G37*
G36*
X1330028Y1376933D02*
Y1375697D01*
X1331263D01*
X1331223Y1375899D01*
X1330825Y1376495D01*
X1330230Y1376892D01*
X1330028Y1376933D01*
D02*
G37*
G36*
X1329028D02*
X1328825Y1376892D01*
X1328230Y1376495D01*
X1327832Y1375899D01*
X1327792Y1375697D01*
X1329028D01*
Y1376933D01*
D02*
G37*
G36*
X1330870Y1380406D02*
X1329634D01*
Y1379170D01*
X1329836Y1379210D01*
X1330432Y1379608D01*
X1330829Y1380203D01*
X1330870Y1380406D01*
D02*
G37*
G36*
X1255110Y1381587D02*
X1253874D01*
X1253915Y1381384D01*
X1254313Y1380789D01*
X1254908Y1380391D01*
X1255110Y1380351D01*
Y1381587D01*
D02*
G37*
G36*
X1267090Y1380701D02*
X1265854D01*
Y1379465D01*
X1266057Y1379505D01*
X1266652Y1379903D01*
X1267050Y1380499D01*
X1267090Y1380701D01*
D02*
G37*
G36*
X1264854D02*
X1263618D01*
X1263659Y1380499D01*
X1264057Y1379903D01*
X1264652Y1379505D01*
X1264854Y1379465D01*
Y1380701D01*
D02*
G37*
G36*
X1273532Y1376342D02*
Y1375106D01*
X1274767D01*
X1274727Y1375309D01*
X1274329Y1375904D01*
X1273734Y1376302D01*
X1273532Y1376342D01*
D02*
G37*
G36*
X1329028Y1374697D02*
X1327792D01*
X1327832Y1374494D01*
X1328230Y1373899D01*
X1328825Y1373501D01*
X1329028Y1373461D01*
Y1374697D01*
D02*
G37*
G36*
X1274767Y1374106D02*
X1273532D01*
Y1372871D01*
X1273734Y1372911D01*
X1274329Y1373309D01*
X1274727Y1373904D01*
X1274767Y1374106D01*
D02*
G37*
G36*
X1272532D02*
X1271296D01*
X1271336Y1373904D01*
X1271734Y1373309D01*
X1272329Y1372911D01*
X1272532Y1372871D01*
Y1374106D01*
D02*
G37*
G36*
X1331263Y1374697D02*
X1330028D01*
Y1373461D01*
X1330230Y1373501D01*
X1330825Y1373899D01*
X1331223Y1374494D01*
X1331263Y1374697D01*
D02*
G37*
G36*
X1272532Y1376342D02*
X1272329Y1376302D01*
X1271734Y1375904D01*
X1271336Y1375309D01*
X1271296Y1375106D01*
X1272532D01*
Y1376342D01*
D02*
G37*
G36*
X1284752Y1375259D02*
Y1374024D01*
X1285988D01*
X1285948Y1374226D01*
X1285550Y1374821D01*
X1284954Y1375219D01*
X1284752Y1375259D01*
D02*
G37*
G36*
X1283752D02*
X1283550Y1375219D01*
X1282954Y1374821D01*
X1282556Y1374226D01*
X1282516Y1374024D01*
X1283752D01*
Y1375259D01*
D02*
G37*
G36*
X1257346Y1381587D02*
X1256110D01*
Y1380351D01*
X1256313Y1380391D01*
X1256908Y1380789D01*
X1257306Y1381384D01*
X1257346Y1381587D01*
D02*
G37*
G36*
X1278015Y1383555D02*
X1276779D01*
Y1382319D01*
X1276982Y1382360D01*
X1277577Y1382757D01*
X1277975Y1383353D01*
X1278015Y1383555D01*
D02*
G37*
G36*
X1275780D02*
X1274544D01*
X1274584Y1383353D01*
X1274982Y1382757D01*
X1275577Y1382360D01*
X1275780Y1382319D01*
Y1383555D01*
D02*
G37*
G36*
X1449193Y1415930D02*
X1448491Y1415790D01*
X1447895Y1415392D01*
X1447497Y1414797D01*
X1447358Y1414095D01*
X1447497Y1413392D01*
X1447895Y1412797D01*
X1447969Y1412747D01*
Y1382961D01*
X1447895Y1382912D01*
X1447497Y1382316D01*
X1447490Y1382277D01*
X1447011Y1382132D01*
X1446204Y1382940D01*
Y1410070D01*
X1446278Y1410120D01*
X1446676Y1410715D01*
X1446816Y1411417D01*
X1446676Y1412120D01*
X1446278Y1412715D01*
X1445683Y1413113D01*
X1444980Y1413253D01*
X1444278Y1413113D01*
X1443683Y1412715D01*
X1443285Y1412120D01*
X1443145Y1411417D01*
X1443285Y1410715D01*
X1443683Y1410120D01*
X1443757Y1410070D01*
Y1382433D01*
X1443757Y1382433D01*
X1443757D01*
X1443850Y1381964D01*
X1444115Y1381567D01*
X1447393Y1378290D01*
X1447631Y1378131D01*
X1447790Y1378025D01*
X1448258Y1377932D01*
X1457384D01*
X1457852Y1378025D01*
X1458249Y1378290D01*
X1458249Y1378290D01*
X1458249Y1378290D01*
X1459105Y1379147D01*
X1459193Y1379129D01*
X1459895Y1379269D01*
X1460491Y1379667D01*
X1460888Y1380262D01*
X1461028Y1380965D01*
X1460888Y1381667D01*
X1460491Y1382262D01*
X1459895Y1382660D01*
X1459193Y1382800D01*
X1458491Y1382660D01*
X1457895Y1382262D01*
X1457497Y1381667D01*
X1457358Y1380965D01*
X1457375Y1380877D01*
X1456877Y1380379D01*
X1456102D01*
X1455866Y1380820D01*
X1455888Y1380853D01*
X1456028Y1381555D01*
X1455888Y1382257D01*
X1455491Y1382853D01*
X1455416Y1382902D01*
Y1412668D01*
X1455491Y1412718D01*
X1455888Y1413313D01*
X1456028Y1414016D01*
X1455888Y1414718D01*
X1455491Y1415314D01*
X1454895Y1415711D01*
X1454193Y1415851D01*
X1453491Y1415711D01*
X1452895Y1415314D01*
X1452497Y1414718D01*
X1452358Y1414016D01*
X1452497Y1413313D01*
X1452895Y1412718D01*
X1452969Y1412668D01*
Y1382902D01*
X1452895Y1382853D01*
X1452497Y1382257D01*
X1452358Y1381555D01*
X1452497Y1380853D01*
X1452520Y1380820D01*
X1452284Y1380379D01*
X1451062D01*
X1450827Y1380820D01*
X1450889Y1380912D01*
X1451028Y1381614D01*
X1450889Y1382316D01*
X1450491Y1382912D01*
X1450416Y1382961D01*
Y1412747D01*
X1450491Y1412797D01*
X1450889Y1413392D01*
X1451028Y1414095D01*
X1450889Y1414797D01*
X1450491Y1415392D01*
X1449895Y1415790D01*
X1449193Y1415930D01*
D02*
G37*
G36*
X1255110Y1383822D02*
X1254908Y1383782D01*
X1254313Y1383384D01*
X1253915Y1382789D01*
X1253874Y1382587D01*
X1255110D01*
Y1383822D01*
D02*
G37*
G36*
X1373532Y1384019D02*
Y1382784D01*
X1374767D01*
X1374727Y1382986D01*
X1374329Y1383581D01*
X1373734Y1383979D01*
X1373532Y1384019D01*
D02*
G37*
G36*
X1372532D02*
X1372329Y1383979D01*
X1371734Y1383581D01*
X1371336Y1382986D01*
X1371296Y1382784D01*
X1372532D01*
Y1384019D01*
D02*
G37*
G36*
X1256110Y1383822D02*
Y1382587D01*
X1257346D01*
X1257306Y1382789D01*
X1256908Y1383384D01*
X1256313Y1383782D01*
X1256110Y1383822D01*
D02*
G37*
G36*
X1265854Y1382937D02*
Y1381701D01*
X1267090D01*
X1267050Y1381903D01*
X1266652Y1382498D01*
X1266057Y1382896D01*
X1265854Y1382937D01*
D02*
G37*
G36*
X1288673Y1382374D02*
X1287437D01*
X1287478Y1382172D01*
X1287875Y1381576D01*
X1288471Y1381178D01*
X1288673Y1381138D01*
Y1382374D01*
D02*
G37*
G36*
X1374767Y1381783D02*
X1373532D01*
Y1380548D01*
X1373734Y1380588D01*
X1374329Y1380986D01*
X1374727Y1381581D01*
X1374767Y1381783D01*
D02*
G37*
G36*
X1372532D02*
X1371296D01*
X1371336Y1381581D01*
X1371734Y1380986D01*
X1372329Y1380588D01*
X1372532Y1380548D01*
Y1381783D01*
D02*
G37*
G36*
X1290909Y1382374D02*
X1289673D01*
Y1381138D01*
X1289876Y1381178D01*
X1290471Y1381576D01*
X1290869Y1382172D01*
X1290909Y1382374D01*
D02*
G37*
G36*
X1264854Y1382937D02*
X1264652Y1382896D01*
X1264057Y1382498D01*
X1263659Y1381903D01*
X1263618Y1381701D01*
X1264854D01*
Y1382937D01*
D02*
G37*
G36*
X1329634Y1382641D02*
Y1381406D01*
X1330870D01*
X1330829Y1381608D01*
X1330432Y1382203D01*
X1329836Y1382601D01*
X1329634Y1382641D01*
D02*
G37*
G36*
X1328634D02*
X1328432Y1382601D01*
X1327836Y1382203D01*
X1327438Y1381608D01*
X1327398Y1381406D01*
X1328634D01*
Y1382641D01*
D02*
G37*
G36*
X1332488Y1359413D02*
Y1358177D01*
X1333724D01*
X1333684Y1358379D01*
X1333286Y1358975D01*
X1332691Y1359373D01*
X1332488Y1359413D01*
D02*
G37*
G36*
X1371055Y1360721D02*
X1369819D01*
X1369860Y1360518D01*
X1370257Y1359923D01*
X1370853Y1359525D01*
X1371055Y1359485D01*
Y1360721D01*
D02*
G37*
G36*
X1359358Y1358921D02*
Y1357685D01*
X1360594D01*
X1360554Y1357887D01*
X1360156Y1358483D01*
X1359561Y1358881D01*
X1359358Y1358921D01*
D02*
G37*
G36*
X1331488Y1359413D02*
X1331286Y1359373D01*
X1330690Y1358975D01*
X1330293Y1358379D01*
X1330252Y1358177D01*
X1331488D01*
Y1359413D01*
D02*
G37*
G36*
X1371055Y1362956D02*
X1370853Y1362916D01*
X1370257Y1362518D01*
X1369860Y1361923D01*
X1369819Y1361720D01*
X1371055D01*
Y1362956D01*
D02*
G37*
G36*
X1372055D02*
Y1361720D01*
X1373291D01*
X1373251Y1361923D01*
X1372853Y1362518D01*
X1372257Y1362916D01*
X1372055Y1362956D01*
D02*
G37*
G36*
X1373291Y1360721D02*
X1372055D01*
Y1359485D01*
X1372257Y1359525D01*
X1372853Y1359923D01*
X1373251Y1360518D01*
X1373291Y1360721D01*
D02*
G37*
G36*
X1467315Y1362197D02*
X1466079D01*
X1466119Y1361994D01*
X1466517Y1361399D01*
X1467113Y1361001D01*
X1467315Y1360961D01*
Y1362197D01*
D02*
G37*
G36*
X1202098Y1356995D02*
X1200728Y1356887D01*
X1198904Y1356449D01*
X1197171Y1355731D01*
X1195571Y1354751D01*
X1194144Y1353533D01*
X1193416Y1352680D01*
X1192966Y1352898D01*
X1192977Y1352953D01*
X1192837Y1353655D01*
X1192439Y1354251D01*
X1191844Y1354648D01*
X1191142Y1354788D01*
X1190439Y1354648D01*
X1189844Y1354251D01*
X1189446Y1353655D01*
X1189307Y1352953D01*
X1189324Y1352865D01*
X1188308Y1351849D01*
X1188043Y1351453D01*
X1187950Y1350984D01*
Y1338189D01*
X1187950Y1338189D01*
X1187950D01*
X1188043Y1337721D01*
X1188308Y1337324D01*
X1197757Y1327875D01*
X1197995Y1327716D01*
X1198154Y1327610D01*
X1198622Y1327517D01*
X1205936D01*
X1205986Y1327442D01*
X1206581Y1327045D01*
X1207283Y1326905D01*
X1207986Y1327045D01*
X1208581Y1327442D01*
X1208979Y1328038D01*
X1209119Y1328740D01*
X1208979Y1329443D01*
X1208581Y1330038D01*
X1207986Y1330436D01*
X1207283Y1330575D01*
X1206581Y1330436D01*
X1205986Y1330038D01*
X1205936Y1329964D01*
X1199129D01*
X1190397Y1338696D01*
Y1342719D01*
X1190893Y1342778D01*
X1191228Y1341384D01*
X1191946Y1339651D01*
X1192926Y1338051D01*
X1194144Y1336625D01*
X1195571Y1335406D01*
X1197171Y1334426D01*
X1198904Y1333708D01*
X1200728Y1333270D01*
X1202098Y1333162D01*
Y1345078D01*
Y1356995D01*
D02*
G37*
G36*
X1358358Y1356685D02*
X1357123D01*
X1357163Y1356483D01*
X1357561Y1355887D01*
X1358156Y1355490D01*
X1358358Y1355449D01*
Y1356685D01*
D02*
G37*
G36*
X1467118Y1352917D02*
X1466916Y1352877D01*
X1466320Y1352479D01*
X1465923Y1351883D01*
X1465882Y1351681D01*
X1467118D01*
Y1352917D01*
D02*
G37*
G36*
X1468118D02*
Y1351681D01*
X1469354D01*
X1469314Y1351883D01*
X1468916Y1352479D01*
X1468320Y1352877D01*
X1468118Y1352917D01*
D02*
G37*
G36*
X1333724Y1357177D02*
X1332488D01*
Y1355941D01*
X1332691Y1355982D01*
X1333286Y1356379D01*
X1333684Y1356975D01*
X1333724Y1357177D01*
D02*
G37*
G36*
X1358358Y1358921D02*
X1358156Y1358881D01*
X1357561Y1358483D01*
X1357163Y1357887D01*
X1357123Y1357685D01*
X1358358D01*
Y1358921D01*
D02*
G37*
G36*
X1360594Y1356685D02*
X1359358D01*
Y1355449D01*
X1359561Y1355490D01*
X1360156Y1355887D01*
X1360554Y1356483D01*
X1360594Y1356685D01*
D02*
G37*
G36*
X1331488Y1357177D02*
X1330252D01*
X1330293Y1356975D01*
X1330690Y1356379D01*
X1331286Y1355982D01*
X1331488Y1355941D01*
Y1357177D01*
D02*
G37*
G36*
X1422798Y1372275D02*
X1422596Y1372235D01*
X1422000Y1371837D01*
X1421602Y1371242D01*
X1421562Y1371039D01*
X1422798D01*
Y1372275D01*
D02*
G37*
G36*
X1423798D02*
Y1371039D01*
X1425034D01*
X1424993Y1371242D01*
X1424596Y1371837D01*
X1424000Y1372235D01*
X1423798Y1372275D01*
D02*
G37*
G36*
X1372236Y1372011D02*
X1372034Y1371971D01*
X1371439Y1371573D01*
X1371041Y1370978D01*
X1371000Y1370776D01*
X1372236D01*
Y1372011D01*
D02*
G37*
G36*
X1373236D02*
Y1370776D01*
X1374472D01*
X1374432Y1370978D01*
X1374034Y1371573D01*
X1373438Y1371971D01*
X1373236Y1372011D01*
D02*
G37*
G36*
X1283752Y1373024D02*
X1282516D01*
X1282556Y1372821D01*
X1282954Y1372226D01*
X1283550Y1371828D01*
X1283752Y1371788D01*
Y1373024D01*
D02*
G37*
G36*
X1285988D02*
X1284752D01*
Y1371788D01*
X1284954Y1371828D01*
X1285550Y1372226D01*
X1285948Y1372821D01*
X1285988Y1373024D01*
D02*
G37*
G36*
X1238575Y1372897D02*
X1238373Y1372857D01*
X1237777Y1372459D01*
X1237379Y1371864D01*
X1237339Y1371661D01*
X1238575D01*
Y1372897D01*
D02*
G37*
G36*
X1239575D02*
Y1371661D01*
X1240811D01*
X1240770Y1371864D01*
X1240372Y1372459D01*
X1239777Y1372857D01*
X1239575Y1372897D01*
D02*
G37*
G36*
X1240811Y1370661D02*
X1239575D01*
Y1369426D01*
X1239777Y1369466D01*
X1240372Y1369864D01*
X1240770Y1370459D01*
X1240811Y1370661D01*
D02*
G37*
G36*
X1374472Y1369776D02*
X1373236D01*
Y1368540D01*
X1373438Y1368580D01*
X1374034Y1368978D01*
X1374432Y1369573D01*
X1374472Y1369776D01*
D02*
G37*
G36*
X1372236D02*
X1371000D01*
X1371041Y1369573D01*
X1371439Y1368978D01*
X1372034Y1368580D01*
X1372236Y1368540D01*
Y1369776D01*
D02*
G37*
G36*
X1467315Y1364433D02*
X1467113Y1364392D01*
X1466517Y1363995D01*
X1466119Y1363399D01*
X1466079Y1363197D01*
X1467315D01*
Y1364433D01*
D02*
G37*
G36*
X1425034Y1370039D02*
X1423798D01*
Y1368804D01*
X1424000Y1368844D01*
X1424596Y1369242D01*
X1424993Y1369837D01*
X1425034Y1370039D01*
D02*
G37*
G36*
X1238575Y1370661D02*
X1237339D01*
X1237379Y1370459D01*
X1237777Y1369864D01*
X1238373Y1369466D01*
X1238575Y1369426D01*
Y1370661D01*
D02*
G37*
G36*
X1422798Y1370039D02*
X1421562D01*
X1421602Y1369837D01*
X1422000Y1369242D01*
X1422596Y1368844D01*
X1422798Y1368804D01*
Y1370039D01*
D02*
G37*
%LPD*%
G36*
X1224509Y1414674D02*
Y1388557D01*
X1224047Y1388365D01*
X1223152Y1389261D01*
X1223193Y1389468D01*
X1223054Y1390171D01*
X1222656Y1390766D01*
X1222061Y1391164D01*
X1221358Y1391304D01*
X1220656Y1391164D01*
X1220061Y1390766D01*
X1219663Y1390171D01*
X1219610Y1389907D01*
X1219110D01*
X1219018Y1390368D01*
X1218621Y1390963D01*
X1218025Y1391361D01*
X1217323Y1391501D01*
X1216621Y1391361D01*
X1216428Y1391232D01*
X1215987Y1391468D01*
Y1393096D01*
X1216448Y1393556D01*
X1216535Y1393539D01*
X1217238Y1393678D01*
X1217833Y1394076D01*
X1218231Y1394672D01*
X1218371Y1395374D01*
X1218231Y1396076D01*
X1217833Y1396672D01*
X1217238Y1397069D01*
X1216535Y1397209D01*
X1215833Y1397069D01*
X1215238Y1396672D01*
X1214840Y1396076D01*
X1214700Y1395374D01*
X1214718Y1395286D01*
X1213899Y1394468D01*
X1213655Y1394103D01*
X1213177Y1394248D01*
Y1420278D01*
X1213382Y1420306D01*
X1214111Y1420608D01*
X1214738Y1421089D01*
X1215219Y1421715D01*
X1215521Y1422445D01*
X1215589Y1422960D01*
X1216063Y1423121D01*
X1224509Y1414674D01*
D02*
G37*
G36*
X1319385Y1303637D02*
Y1299744D01*
X1318944Y1299508D01*
X1318911Y1299530D01*
X1318209Y1299670D01*
X1317506Y1299530D01*
X1316911Y1299132D01*
X1316861Y1299058D01*
X1305807D01*
X1305339Y1298965D01*
X1304942Y1298700D01*
X1303072Y1296830D01*
X1302807Y1296433D01*
X1302713Y1295965D01*
Y1270782D01*
X1298017Y1266086D01*
X1296131D01*
X1296081Y1266160D01*
X1296007Y1266210D01*
Y1293799D01*
X1295914Y1294267D01*
X1295649Y1294664D01*
X1288920Y1301393D01*
Y1303968D01*
X1288995Y1304017D01*
X1289392Y1304613D01*
X1289532Y1305315D01*
X1289392Y1306017D01*
X1288995Y1306613D01*
X1288399Y1307010D01*
X1287697Y1307150D01*
X1286994Y1307010D01*
X1286399Y1306613D01*
X1286001Y1306017D01*
X1285862Y1305315D01*
X1286001Y1304613D01*
X1286399Y1304017D01*
X1286473Y1303968D01*
Y1300886D01*
X1286473Y1300886D01*
X1286473D01*
X1286567Y1300418D01*
X1286832Y1300021D01*
X1293560Y1293292D01*
Y1266210D01*
X1293486Y1266160D01*
X1293088Y1265565D01*
X1292948Y1264862D01*
X1293088Y1264160D01*
X1293375Y1263730D01*
X1293262Y1263519D01*
X1292767Y1263445D01*
X1286861Y1269351D01*
X1286996Y1269517D01*
X1286996Y1269517D01*
X1287178Y1269738D01*
X1287585Y1269466D01*
X1287787Y1269426D01*
Y1270661D01*
X1286552D01*
X1286592Y1270459D01*
X1286864Y1270052D01*
X1286642Y1269870D01*
X1286643Y1269870D01*
X1286477Y1269735D01*
X1274436Y1281776D01*
Y1283101D01*
X1274899Y1283293D01*
X1278507Y1279684D01*
X1278619Y1279121D01*
X1279017Y1278525D01*
X1279613Y1278127D01*
X1280315Y1277988D01*
X1281017Y1278127D01*
X1281613Y1278525D01*
X1282010Y1279121D01*
X1282150Y1279823D01*
X1282010Y1280525D01*
X1281613Y1281121D01*
X1281017Y1281518D01*
X1280454Y1281630D01*
X1276541Y1285543D01*
Y1292193D01*
X1277039Y1292242D01*
X1277003Y1292421D01*
X1277039Y1292601D01*
X1276541Y1292650D01*
Y1298058D01*
X1277020Y1298203D01*
X1277344Y1297718D01*
X1277939Y1297320D01*
X1278142Y1297280D01*
Y1299015D01*
Y1300751D01*
X1277939Y1300711D01*
X1277344Y1300313D01*
X1277020Y1299828D01*
X1276541Y1299973D01*
Y1323414D01*
X1278879Y1325751D01*
X1279443Y1325863D01*
X1280038Y1326261D01*
X1280436Y1326857D01*
X1280575Y1327559D01*
X1280436Y1328261D01*
X1280038Y1328857D01*
X1279519Y1329204D01*
X1279664Y1329682D01*
X1289106D01*
X1289155Y1329608D01*
X1289750Y1329210D01*
X1290453Y1329070D01*
X1291155Y1329210D01*
X1291751Y1329608D01*
X1292148Y1330203D01*
X1292156Y1330242D01*
X1292635Y1330387D01*
X1319385Y1303637D01*
D02*
G37*
%LPC*%
G36*
X1281012Y1317877D02*
Y1316642D01*
X1282248D01*
X1282207Y1316844D01*
X1281810Y1317439D01*
X1281214Y1317837D01*
X1281012Y1317877D01*
D02*
G37*
G36*
X1280012D02*
X1279809Y1317837D01*
X1279214Y1317439D01*
X1278816Y1316844D01*
X1278776Y1316642D01*
X1280012D01*
Y1317877D01*
D02*
G37*
G36*
X1288787D02*
Y1316642D01*
X1290023D01*
X1289983Y1316844D01*
X1289585Y1317439D01*
X1288990Y1317837D01*
X1288787Y1317877D01*
D02*
G37*
G36*
X1287787D02*
X1287585Y1317837D01*
X1286990Y1317439D01*
X1286592Y1316844D01*
X1286552Y1316642D01*
X1287787D01*
Y1317877D01*
D02*
G37*
G36*
X1282248Y1315642D02*
X1281012D01*
Y1314406D01*
X1281214Y1314446D01*
X1281810Y1314844D01*
X1282207Y1315439D01*
X1282248Y1315642D01*
D02*
G37*
G36*
X1280012D02*
X1278776D01*
X1278816Y1315439D01*
X1279214Y1314844D01*
X1279809Y1314446D01*
X1280012Y1314406D01*
Y1315642D01*
D02*
G37*
G36*
X1290023D02*
X1288787D01*
Y1314406D01*
X1288990Y1314446D01*
X1289585Y1314844D01*
X1289983Y1315439D01*
X1290023Y1315642D01*
D02*
G37*
G36*
X1287787D02*
X1286552D01*
X1286592Y1315439D01*
X1286990Y1314844D01*
X1287585Y1314446D01*
X1287787Y1314406D01*
Y1315642D01*
D02*
G37*
G36*
X1220929Y1403634D02*
X1219693D01*
Y1402398D01*
X1219895Y1402438D01*
X1220491Y1402836D01*
X1220889Y1403432D01*
X1220929Y1403634D01*
D02*
G37*
G36*
X1218693D02*
X1217457D01*
X1217497Y1403432D01*
X1217895Y1402836D01*
X1218491Y1402438D01*
X1218693Y1402398D01*
Y1403634D01*
D02*
G37*
G36*
X1219693Y1405870D02*
Y1404634D01*
X1220929D01*
X1220889Y1404836D01*
X1220491Y1405432D01*
X1219895Y1405829D01*
X1219693Y1405870D01*
D02*
G37*
G36*
X1218693D02*
X1218491Y1405829D01*
X1217895Y1405432D01*
X1217497Y1404836D01*
X1217457Y1404634D01*
X1218693D01*
Y1405870D01*
D02*
G37*
G36*
X1286283Y1322138D02*
X1285047D01*
Y1320902D01*
X1285250Y1320942D01*
X1285845Y1321340D01*
X1286243Y1321935D01*
X1286283Y1322138D01*
D02*
G37*
G36*
X1284047D02*
X1282811D01*
X1282852Y1321935D01*
X1283249Y1321340D01*
X1283845Y1320942D01*
X1284047Y1320902D01*
Y1322138D01*
D02*
G37*
G36*
X1285047Y1324374D02*
Y1323138D01*
X1286283D01*
X1286243Y1323340D01*
X1285845Y1323936D01*
X1285250Y1324333D01*
X1285047Y1324374D01*
D02*
G37*
G36*
X1284047D02*
X1283845Y1324333D01*
X1283249Y1323936D01*
X1282852Y1323340D01*
X1282811Y1323138D01*
X1284047D01*
Y1324374D01*
D02*
G37*
G36*
X1279142Y1300751D02*
Y1299516D01*
X1280377D01*
X1280337Y1299718D01*
X1279939Y1300313D01*
X1279344Y1300711D01*
X1279142Y1300751D01*
D02*
G37*
G36*
X1285819Y1279098D02*
X1285617Y1279058D01*
X1285021Y1278660D01*
X1284623Y1278065D01*
X1284583Y1277862D01*
X1285819D01*
Y1279098D01*
D02*
G37*
G36*
X1288055Y1276862D02*
X1286819D01*
Y1275626D01*
X1287021Y1275667D01*
X1287617Y1276064D01*
X1288015Y1276660D01*
X1288055Y1276862D01*
D02*
G37*
G36*
X1281685Y1289067D02*
X1280449D01*
X1280490Y1288865D01*
X1280887Y1288269D01*
X1281483Y1287871D01*
X1281685Y1287831D01*
Y1289067D01*
D02*
G37*
G36*
X1286819Y1279098D02*
Y1277862D01*
X1288055D01*
X1288015Y1278065D01*
X1287617Y1278660D01*
X1287021Y1279058D01*
X1286819Y1279098D01*
D02*
G37*
G36*
X1287787Y1272897D02*
X1287585Y1272857D01*
X1286990Y1272459D01*
X1286592Y1271864D01*
X1286552Y1271661D01*
X1287787D01*
Y1272897D01*
D02*
G37*
G36*
X1290023Y1270661D02*
X1288787D01*
Y1269426D01*
X1288990Y1269466D01*
X1289585Y1269864D01*
X1289983Y1270459D01*
X1290023Y1270661D01*
D02*
G37*
G36*
X1285819Y1276862D02*
X1284583D01*
X1284623Y1276660D01*
X1285021Y1276064D01*
X1285617Y1275667D01*
X1285819Y1275626D01*
Y1276862D01*
D02*
G37*
G36*
X1288787Y1272897D02*
Y1271661D01*
X1290023D01*
X1289983Y1271864D01*
X1289585Y1272459D01*
X1288990Y1272857D01*
X1288787Y1272897D01*
D02*
G37*
G36*
X1278339Y1294157D02*
X1278136Y1294117D01*
X1277541Y1293719D01*
X1277143Y1293124D01*
X1277103Y1292921D01*
X1278339D01*
Y1294157D01*
D02*
G37*
G36*
X1280574Y1291921D02*
X1279339D01*
Y1290685D01*
X1279541Y1290726D01*
X1280136Y1291123D01*
X1280534Y1291719D01*
X1280574Y1291921D01*
D02*
G37*
G36*
X1280377Y1298516D02*
X1279142D01*
Y1297280D01*
X1279344Y1297320D01*
X1279939Y1297718D01*
X1280337Y1298313D01*
X1280377Y1298516D01*
D02*
G37*
G36*
X1279339Y1294157D02*
Y1292921D01*
X1280574D01*
X1280534Y1293124D01*
X1280136Y1293719D01*
X1279541Y1294117D01*
X1279339Y1294157D01*
D02*
G37*
G36*
X1281685Y1291303D02*
X1281483Y1291263D01*
X1280887Y1290865D01*
X1280490Y1290269D01*
X1280449Y1290067D01*
X1281685D01*
Y1291303D01*
D02*
G37*
G36*
X1283921Y1289067D02*
X1282685D01*
Y1287831D01*
X1282887Y1287871D01*
X1283483Y1288269D01*
X1283881Y1288865D01*
X1283921Y1289067D01*
D02*
G37*
G36*
X1278339Y1291921D02*
X1277103D01*
X1277143Y1291719D01*
X1277541Y1291123D01*
X1278136Y1290726D01*
X1278339Y1290685D01*
Y1291921D01*
D02*
G37*
G36*
X1282685Y1291303D02*
Y1290067D01*
X1283921D01*
X1283881Y1290269D01*
X1283483Y1290865D01*
X1282887Y1291263D01*
X1282685Y1291303D01*
D02*
G37*
%LPD*%
D23*
X1319752Y1191268D02*
D03*
X1339752D02*
D03*
D55*
X1267618Y1311417D02*
Y1330788D01*
X1257662Y1340744D02*
X1267618Y1330788D01*
X1270115Y1279975D02*
Y1330554D01*
X1258325Y1342344D02*
X1270115Y1330554D01*
X1271715Y1280637D02*
Y1331217D01*
X1258987Y1343944D02*
X1271715Y1331217D01*
X1273315Y1281311D02*
Y1331879D01*
X1259650Y1345544D02*
X1273315Y1331879D01*
X1258071Y1230413D02*
X1268996D01*
X1298642Y1256343D02*
X1303095D01*
X1295214Y1252915D02*
X1298642Y1256343D01*
X1295142Y1252915D02*
X1295214D01*
X1270115Y1279975D02*
X1291822Y1258268D01*
X1271715Y1280637D02*
X1292484Y1259868D01*
X1273315Y1281311D02*
X1292458Y1262168D01*
X1301626Y1258268D02*
X1302101Y1258743D01*
X1291822Y1258268D02*
X1301626D01*
X1292484Y1259868D02*
X1300813D01*
X1223404Y1371928D02*
Y1387422D01*
X1221358Y1389468D02*
X1223404Y1387422D01*
Y1371928D02*
X1249788Y1345544D01*
X1221727Y1371342D02*
Y1385065D01*
X1217224Y1389567D02*
X1221727Y1385065D01*
Y1371342D02*
X1249125Y1343944D01*
X1217224Y1389567D02*
X1217323Y1389665D01*
X1219820Y1370987D02*
Y1383133D01*
X1217618Y1385335D02*
X1219820Y1383133D01*
Y1370987D02*
X1248462Y1342344D01*
X1249788Y1345544D02*
X1259650D01*
X1249125Y1343944D02*
X1258987D01*
X1248462Y1342344D02*
X1258325D01*
X1247800Y1340744D02*
X1257662D01*
X1217520Y1371024D02*
X1247800Y1340744D01*
X1217520Y1371024D02*
Y1381496D01*
X1292458Y1262168D02*
X1298587D01*
X1221358Y1388737D02*
Y1389468D01*
X1328642Y1402461D02*
X1329035Y1402067D01*
X1367321D02*
X1367488Y1402234D01*
X1324835Y1397079D02*
X1325401Y1397646D01*
X1326601Y1400124D02*
X1326958Y1399767D01*
X1329035Y1402067D02*
X1367321D01*
X1371385Y1397646D02*
X1371731Y1397991D01*
X1369264Y1399767D02*
X1369609Y1400113D01*
X1322604Y1435897D02*
Y1436285D01*
X1304938Y1258743D02*
X1305217Y1258465D01*
X1302101Y1258743D02*
X1304938D01*
X1300813Y1259868D02*
X1302559Y1261614D01*
X1313319Y1440091D02*
X1328083D01*
X1308858Y1435630D02*
X1313319Y1440091D01*
X1313316Y1435897D02*
X1322604D01*
X1325401Y1397646D02*
X1371385D01*
X1326958Y1399767D02*
X1369264D01*
X1455807Y1491437D02*
X1455984Y1491614D01*
X1464567D01*
X1446653Y1469980D02*
X1462933D01*
X1464567Y1471614D01*
X1446850Y1461614D02*
X1464567D01*
D56*
X1311390Y1229949D02*
X1355878D01*
X1276693Y1330906D02*
X1290453D01*
X1260267Y1347332D02*
X1276693Y1330906D01*
X1276089Y1334055D02*
X1290697D01*
X1261012Y1349132D02*
X1276089Y1334055D01*
X1245079Y1292618D02*
X1270965Y1266732D01*
X1227264Y1292618D02*
X1245079D01*
X1396616Y1298191D02*
X1451832D01*
X1376575Y1278150D02*
X1396616Y1298191D01*
X1462697Y1306988D02*
X1466339D01*
X1460260Y1309425D02*
X1462697Y1306988D01*
X1381717Y1309425D02*
X1460260D01*
X1466339Y1306988D02*
X1469193Y1309842D01*
X1277165Y1345866D02*
X1284663Y1338369D01*
X1273130Y1345866D02*
X1277165D01*
X1324014Y1349803D02*
X1338287D01*
X1321029Y1346818D02*
X1324014Y1349803D01*
X1318565Y1340837D02*
Y1349348D01*
X1321029Y1346818D02*
X1321227D01*
X1318565Y1340837D02*
X1322409Y1336992D01*
X1318565Y1349348D02*
X1324035Y1354818D01*
X1358268Y1347539D02*
X1381496D01*
X1265218Y1278581D02*
Y1329073D01*
X1262894Y1331398D02*
X1265218Y1329073D01*
X1257677Y1331398D02*
X1262894D01*
X1265218Y1278581D02*
X1303740Y1240059D01*
X1363583D01*
X1430118Y1249016D02*
Y1255315D01*
X1426476Y1245374D02*
X1430118Y1249016D01*
X1396572Y1380922D02*
X1409547Y1393898D01*
X1396572Y1343646D02*
Y1380922D01*
X1398372Y1379328D02*
X1410678Y1391634D01*
X1398372Y1324257D02*
Y1379328D01*
X1393898Y1319783D02*
X1398372Y1324257D01*
X1410678Y1391634D02*
X1413189D01*
X1391240Y1338314D02*
X1396572Y1343646D01*
X1387275Y1360495D02*
X1394772Y1352999D01*
Y1344966D02*
Y1352999D01*
X1370191Y1320385D02*
X1394772Y1344966D01*
X1385475Y1359750D02*
X1392972Y1352253D01*
Y1345712D02*
Y1352253D01*
X1367094Y1319834D02*
X1392972Y1345712D01*
X1370191Y1317618D02*
Y1320385D01*
X1367094Y1318076D02*
Y1319834D01*
X1208760Y1262598D02*
X1273032D01*
X1201537Y1255376D02*
X1208760Y1262598D01*
X1201537Y1187833D02*
Y1255376D01*
Y1187833D02*
X1201732Y1187638D01*
X1261732D02*
X1294094Y1220000D01*
X1262770Y1182802D02*
X1296555Y1216588D01*
X1216568Y1182802D02*
X1262770D01*
X1296555Y1216588D02*
Y1234252D01*
X1294094Y1220000D02*
Y1237697D01*
X1286614Y1222047D02*
Y1231988D01*
X1338250Y1250356D02*
X1339042D01*
X1333353Y1245459D02*
X1338250Y1250356D01*
X1341990Y1246813D02*
X1342388D01*
X1337036Y1241859D02*
X1341990Y1246813D01*
X1305315Y1251378D02*
X1311234Y1245459D01*
X1303051Y1251378D02*
X1305315D01*
X1375000Y1245374D02*
X1426476D01*
X1360335D02*
X1361614D01*
X1332382Y1273327D02*
X1360335Y1245374D01*
X1332382Y1273327D02*
Y1275984D01*
X1332677Y1276280D01*
X1226673Y1357382D02*
X1240650Y1343406D01*
X1248130Y1349782D02*
Y1354035D01*
Y1349782D02*
X1250580Y1347332D01*
X1260267D01*
X1252443Y1349132D02*
X1261012D01*
X1250984Y1350591D02*
X1252443Y1349132D01*
X1250984Y1350591D02*
Y1354772D01*
X1248228Y1357528D02*
X1250984Y1354772D01*
X1248228Y1357528D02*
Y1357972D01*
X1248130Y1354035D02*
X1248228Y1354134D01*
X1268839Y1349311D02*
X1286319D01*
X1259882Y1358268D02*
X1268839Y1349311D01*
X1286319D02*
X1297146Y1338484D01*
X1287913Y1351111D02*
X1300197Y1338827D01*
X1277924Y1351111D02*
X1287913D01*
X1270768Y1358268D02*
X1277924Y1351111D01*
X1289164Y1352911D02*
X1303248Y1338827D01*
X1285239Y1352911D02*
X1289164D01*
X1279882Y1358268D02*
X1285239Y1352911D01*
X1299882Y1348296D02*
Y1358268D01*
Y1348296D02*
X1309350Y1338827D01*
X1242466Y1337008D02*
X1255709D01*
X1214764Y1364710D02*
X1242466Y1337008D01*
X1189173Y1350984D02*
X1191142Y1352953D01*
X1214764Y1364710D02*
Y1393602D01*
X1216535Y1395374D01*
X1192717Y1316634D02*
X1202362D01*
X1190059Y1319291D02*
X1192717Y1316634D01*
X1198622Y1328740D02*
X1207283D01*
X1341535Y1295177D02*
X1378248D01*
X1339075Y1292224D02*
X1343996D01*
X1269882Y1358268D02*
X1270768D01*
X1287697Y1300886D02*
Y1305315D01*
Y1300886D02*
X1294783Y1293799D01*
Y1264862D02*
Y1293799D01*
X1263583Y1277756D02*
Y1328051D01*
Y1277756D02*
X1311390Y1229949D01*
X1262008Y1329626D02*
X1263583Y1328051D01*
X1257283Y1329626D02*
X1262008D01*
X1384665Y1220472D02*
X1389803Y1225610D01*
X1380905Y1220472D02*
X1384665D01*
X1293134Y1351992D02*
X1306299Y1338827D01*
X1293134Y1351992D02*
Y1355016D01*
X1303248Y1338484D02*
Y1338827D01*
X1306299Y1338484D02*
Y1338827D01*
X1309350Y1338484D02*
Y1338827D01*
X1309882Y1341347D02*
X1312402Y1338827D01*
Y1338484D02*
Y1338827D01*
X1309882Y1341347D02*
Y1358268D01*
X1289882D02*
X1293134Y1355016D01*
X1300197Y1338484D02*
Y1338827D01*
X1348917Y1269094D02*
X1350197Y1267815D01*
X1365748D01*
X1354921Y1275000D02*
Y1282087D01*
X1409055Y1213583D02*
X1420177D01*
X1302362Y1261614D02*
X1302559D01*
X1294783Y1264862D02*
X1298524D01*
X1303937Y1270276D01*
X1376575Y1253051D02*
Y1278150D01*
X1360335Y1279528D02*
Y1289468D01*
X1342028Y1275295D02*
X1345276Y1272047D01*
X1363091D01*
X1381876Y1296260D02*
X1387992D01*
X1343996Y1292224D02*
X1345135Y1293363D01*
X1378979D02*
X1381876Y1296260D01*
X1382087Y1299016D02*
X1390748D01*
X1378248Y1295177D02*
X1382087Y1299016D01*
X1345135Y1293363D02*
X1378979D01*
X1363091Y1277461D02*
X1363780D01*
X1361811Y1276181D02*
X1363091Y1277461D01*
X1358465Y1276181D02*
X1361811D01*
X1357321Y1277324D02*
X1358465Y1276181D01*
X1357321Y1277324D02*
Y1284313D01*
X1356201Y1285433D02*
X1357321Y1284313D01*
X1338386Y1276083D02*
X1340491Y1278187D01*
X1338386Y1273327D02*
Y1276083D01*
Y1273327D02*
X1338780Y1272933D01*
X1340491Y1278187D02*
X1346199D01*
X1353445Y1285433D01*
X1356201D01*
X1463425Y1321693D02*
X1464567D01*
X1347441Y1316142D02*
X1352756D01*
X1354753Y1314145D01*
X1350984Y1310532D02*
X1352658Y1312205D01*
X1354753Y1314145D02*
X1455877D01*
X1303937Y1270276D02*
Y1295965D01*
X1305807Y1297835D02*
X1318209D01*
X1303937Y1295965D02*
X1305807Y1297835D01*
X1255118Y1447835D02*
X1263681D01*
X1393504Y1254035D02*
Y1265059D01*
X1389075Y1269488D02*
X1393504Y1265059D01*
X1307255Y1241859D02*
X1337036D01*
X1304331Y1244783D02*
X1307255Y1241859D01*
X1335194Y1243659D02*
X1338487Y1246952D01*
X1308849Y1243659D02*
X1335194D01*
X1304035Y1248473D02*
X1308849Y1243659D01*
X1311234Y1245459D02*
X1333353D01*
X1300394Y1248425D02*
X1300492Y1248524D01*
X1300098Y1248425D02*
X1300394D01*
X1300098D02*
X1303051Y1251378D01*
X1363583Y1240059D02*
X1376575Y1253051D01*
X1211732Y1187638D02*
X1216568Y1182802D01*
X1420177Y1213583D02*
X1434941Y1198819D01*
Y1187579D02*
Y1198819D01*
X1217323Y1304331D02*
X1219034Y1302620D01*
X1240316D01*
X1243110Y1305413D01*
Y1319193D01*
X1210138Y1299016D02*
Y1306201D01*
X1189173Y1338189D02*
X1198622Y1328740D01*
X1189173Y1338189D02*
Y1350984D01*
X1404134Y1218504D02*
X1409055Y1213583D01*
X1404134Y1218504D02*
Y1239370D01*
X1401378Y1242126D02*
X1404134Y1239370D01*
X1315453Y1353839D02*
X1319882Y1358268D01*
X1315453Y1338484D02*
Y1353839D01*
X1322409Y1281430D02*
X1326280Y1277559D01*
X1381496Y1347539D02*
X1387894Y1353937D01*
X1301673Y1434350D02*
X1316587Y1419437D01*
X1299803Y1434350D02*
X1301673D01*
X1318854Y1416437D02*
Y1416732D01*
X1323524Y1274705D02*
Y1277769D01*
X1324035Y1354818D02*
Y1387481D01*
X1263681Y1447835D02*
X1324035Y1387481D01*
X1322409Y1281430D02*
Y1336992D01*
X1290697Y1334055D02*
X1320609Y1304144D01*
Y1280684D02*
X1323524Y1277769D01*
X1320609Y1280684D02*
Y1304144D01*
X1367094Y1318076D02*
X1367363D01*
X1385475Y1359750D02*
Y1387641D01*
X1356679Y1416437D02*
X1385475Y1387641D01*
X1318854Y1416437D02*
X1356679D01*
X1387275Y1360495D02*
Y1388387D01*
X1316587Y1419437D02*
X1356225D01*
X1387275Y1388387D01*
X1374477Y1316600D02*
X1449474D01*
X1464567Y1331693D01*
X1455877Y1314145D02*
X1463425Y1321693D01*
X1352658Y1312205D02*
X1464055D01*
X1464567Y1311693D01*
X1449193Y1381614D02*
Y1414095D01*
X1454193Y1381555D02*
Y1414016D01*
X1459193Y1403110D02*
Y1452717D01*
X1459055Y1452854D02*
X1459193Y1452717D01*
X1464193Y1403327D02*
Y1452736D01*
X1451832Y1298191D02*
X1457558Y1303916D01*
X1454134Y1360236D02*
Y1360335D01*
X1469193Y1309842D02*
Y1345177D01*
X1454134Y1360236D02*
X1469193Y1345177D01*
X1444980Y1382433D02*
X1448258Y1379155D01*
X1444980Y1382433D02*
Y1411417D01*
X1448258Y1379155D02*
X1457384D01*
X1459193Y1380965D01*
X1377854Y1319783D02*
X1393898D01*
X1391240Y1323425D02*
Y1338314D01*
X1328543Y1286811D02*
Y1346063D01*
D57*
X1444783Y1185827D02*
Y1252264D01*
X1431076Y1184279D02*
Y1190971D01*
X1420276Y1201772D02*
X1431076Y1190971D01*
X1412598Y1201772D02*
X1420276D01*
X1399803Y1214567D02*
X1412598Y1201772D01*
X1399803Y1214567D02*
Y1225610D01*
X1374213Y1214567D02*
X1399803D01*
X1361909Y1493799D02*
X1436227Y1419482D01*
Y1336510D02*
Y1419482D01*
X1218996Y1341043D02*
Y1355118D01*
X1336909Y1342126D02*
X1384153D01*
X1436227Y1336510D02*
X1445571Y1327165D01*
X1211035Y1363079D02*
Y1421665D01*
Y1363079D02*
X1218996Y1355118D01*
X1255315Y1480118D02*
X1268996Y1493799D01*
X1361909D01*
X1431076Y1184279D02*
X1443235D01*
X1444783Y1185827D01*
X1384153Y1342126D02*
X1389272Y1347244D01*
D60*
X1276416Y1336486D02*
X1278909D01*
X1247307Y1362500D02*
X1252934Y1356873D01*
Y1351772D02*
Y1356873D01*
Y1351772D02*
X1253624Y1351082D01*
X1261820D01*
X1235925Y1362500D02*
X1247307D01*
X1276575Y1224016D02*
Y1235433D01*
X1275165Y1284973D02*
Y1323984D01*
Y1284973D02*
X1280315Y1279823D01*
X1275165Y1323984D02*
X1278740Y1327559D01*
X1225886Y1372539D02*
X1235925Y1362500D01*
X1187500Y1449311D02*
X1209833Y1426978D01*
X1261820Y1351082D02*
X1276416Y1336486D01*
X1225886Y1372539D02*
Y1415244D01*
X1214152Y1426978D02*
X1225886Y1415244D01*
X1209833Y1426978D02*
X1214152D01*
X1187500Y1449311D02*
Y1534350D01*
X1195177Y1542028D01*
X1232972D01*
D76*
X1255709Y1333268D02*
D03*
D81*
X1436082Y1222395D02*
D03*
Y1247995D02*
D03*
X1453882Y1222395D02*
D03*
Y1247995D02*
D03*
D82*
X1296260Y1187008D02*
D03*
X1276575D02*
D03*
X1286417D02*
D03*
D83*
X1251968Y1561024D02*
D03*
X1201732Y1187638D02*
D03*
X1319882Y1358268D02*
D03*
X1399803Y1225610D02*
D03*
D84*
X1241969Y1561024D02*
D03*
X1464567Y1471614D02*
D03*
Y1481614D02*
D03*
Y1491614D02*
D03*
Y1501614D02*
D03*
Y1511614D02*
D03*
X1261732Y1187638D02*
D03*
X1251732D02*
D03*
X1241732D02*
D03*
X1231732D02*
D03*
X1211732D02*
D03*
X1221732D02*
D03*
X1420276Y1191772D02*
D03*
X1259882Y1358268D02*
D03*
X1269882D02*
D03*
X1279882D02*
D03*
X1289882D02*
D03*
X1309882D02*
D03*
X1299882D02*
D03*
X1464567Y1301693D02*
D03*
Y1311693D02*
D03*
Y1321693D02*
D03*
X1389803Y1225610D02*
D03*
X1379803D02*
D03*
X1369803D02*
D03*
D85*
X1464567Y1461614D02*
D03*
X1420276Y1201772D02*
D03*
X1464567Y1331693D02*
D03*
D86*
X1218661Y1554134D02*
D03*
D87*
X1198661D02*
D03*
D88*
X1449646Y1525669D02*
D03*
X1202598Y1345079D02*
D03*
Y1525669D02*
D03*
X1235512Y1226634D02*
D03*
X1416732Y1226339D02*
D03*
X1449646Y1345000D02*
D03*
D89*
X1348819Y1389567D02*
D03*
Y1562402D02*
D03*
X1262402Y1475984D02*
D03*
X1435236D02*
D03*
Y1515354D02*
D03*
Y1436614D02*
D03*
X1262402D02*
D03*
Y1515354D02*
D03*
D90*
X1217402Y1228543D02*
D03*
X1207402D02*
D03*
D91*
X1392717Y1200020D02*
D03*
X1375394D02*
D03*
D92*
X1355878Y1229949D02*
D03*
X1334744Y1232776D02*
D03*
X1354724Y1198327D02*
D03*
X1353150Y1190748D02*
D03*
X1278909Y1336486D02*
D03*
X1406988Y1295374D02*
D03*
X1348228Y1264075D02*
D03*
X1219193Y1404134D02*
D03*
X1394336Y1330807D02*
D03*
X1334941Y1346161D02*
D03*
X1273032Y1374606D02*
D03*
X1290256Y1339173D02*
D03*
X1305315Y1348720D02*
D03*
X1331988Y1357677D02*
D03*
X1273130Y1345866D02*
D03*
X1425394Y1213976D02*
D03*
X1373032Y1382283D02*
D03*
X1372736Y1370276D02*
D03*
X1331299Y1386024D02*
D03*
X1329528Y1375197D02*
D03*
X1338287Y1349803D02*
D03*
X1328543Y1346063D02*
D03*
X1321029Y1346818D02*
D03*
X1358268Y1347539D02*
D03*
X1259153Y1202658D02*
D03*
X1264468Y1208169D02*
D03*
X1269488Y1246850D02*
D03*
X1280799Y1239997D02*
D03*
X1288295Y1248908D02*
D03*
X1243602Y1204823D02*
D03*
X1258071Y1230413D02*
D03*
X1268996D02*
D03*
X1276575Y1235433D02*
D03*
X1295142Y1252915D02*
D03*
X1287697Y1305315D02*
D03*
X1267815Y1311417D02*
D03*
X1445276Y1259449D02*
D03*
X1454331Y1263189D02*
D03*
X1430118Y1255315D02*
D03*
X1423298Y1370539D02*
D03*
X1288287Y1271161D02*
D03*
X1369488Y1305807D02*
D03*
X1366535Y1301181D02*
D03*
X1286319Y1277362D02*
D03*
X1317224Y1291929D02*
D03*
X1312894Y1285236D02*
D03*
X1273032Y1262598D02*
D03*
X1286614Y1222047D02*
D03*
X1276575Y1224016D02*
D03*
X1286614Y1231988D02*
D03*
X1342388Y1246813D02*
D03*
X1339042Y1250356D02*
D03*
X1304035Y1248473D02*
D03*
X1375000Y1245374D02*
D03*
X1361614D02*
D03*
X1332677Y1276280D02*
D03*
X1226673Y1357382D02*
D03*
X1240650Y1343406D02*
D03*
X1284663Y1338369D02*
D03*
X1232972Y1542028D02*
D03*
X1187500Y1449311D02*
D03*
X1280315Y1279823D02*
D03*
X1278740Y1327559D02*
D03*
X1255709Y1337008D02*
D03*
X1191142Y1352953D02*
D03*
X1318209Y1297835D02*
D03*
X1323524Y1274705D02*
D03*
X1326280Y1277559D02*
D03*
X1341535Y1295177D02*
D03*
X1339075Y1292224D02*
D03*
X1248228Y1357972D02*
D03*
X1270965Y1266732D02*
D03*
X1227264Y1292618D02*
D03*
X1207283Y1328740D02*
D03*
X1248228Y1354134D02*
D03*
X1217520Y1381496D02*
D03*
X1380905Y1220472D02*
D03*
X1309350Y1338484D02*
D03*
X1297146D02*
D03*
X1300197D02*
D03*
X1306299D02*
D03*
X1315453D02*
D03*
X1303248D02*
D03*
X1312402D02*
D03*
X1276280Y1384055D02*
D03*
X1239075Y1371161D02*
D03*
X1278642Y1299016D02*
D03*
X1282185Y1289567D02*
D03*
X1352461Y1321457D02*
D03*
X1216535Y1395374D02*
D03*
X1217618Y1385335D02*
D03*
X1221358Y1389468D02*
D03*
X1217323Y1389665D02*
D03*
X1324835Y1397079D02*
D03*
X1326601Y1400124D02*
D03*
X1328642Y1402461D02*
D03*
X1224508Y1343898D02*
D03*
X1231791D02*
D03*
X1230512Y1395669D02*
D03*
X1247736Y1393307D02*
D03*
X1253740Y1407382D02*
D03*
X1241339Y1406988D02*
D03*
X1231890Y1410925D02*
D03*
X1244685Y1420669D02*
D03*
X1374213Y1214567D02*
D03*
X1203937Y1211122D02*
D03*
X1223622Y1201870D02*
D03*
X1348130Y1188386D02*
D03*
X1353445Y1210335D02*
D03*
X1303740Y1198917D02*
D03*
X1363583Y1251968D02*
D03*
X1250984Y1237697D02*
D03*
X1248917Y1255610D02*
D03*
X1280512Y1316142D02*
D03*
X1255610Y1382087D02*
D03*
X1320965Y1341831D02*
D03*
X1371555Y1361220D02*
D03*
X1428445Y1300591D02*
D03*
X1441535Y1321161D02*
D03*
X1369488Y1513091D02*
D03*
X1308661Y1482972D02*
D03*
X1235433Y1428248D02*
D03*
X1274311Y1453150D02*
D03*
X1258366Y1463681D02*
D03*
X1348917Y1269094D02*
D03*
X1365748Y1267815D02*
D03*
X1341535Y1275787D02*
D03*
X1363091Y1272047D02*
D03*
X1354921Y1275000D02*
D03*
X1360335Y1289468D02*
D03*
X1369609Y1400113D02*
D03*
X1371731Y1397991D02*
D03*
X1322604Y1435897D02*
D03*
X1434941Y1187579D02*
D03*
X1401378Y1242126D02*
D03*
X1376575Y1278150D02*
D03*
X1400984Y1272539D02*
D03*
X1388583Y1252067D02*
D03*
X1385532Y1240748D02*
D03*
X1349016Y1202165D02*
D03*
X1348032Y1196260D02*
D03*
X1348394Y1208449D02*
D03*
X1300886Y1211220D02*
D03*
X1307283Y1203839D02*
D03*
X1306299Y1210827D02*
D03*
X1311831Y1187949D02*
D03*
X1318394Y1208449D02*
D03*
X1306299Y1193110D02*
D03*
X1312697Y1194980D02*
D03*
X1306201Y1185728D02*
D03*
X1323394Y1213449D02*
D03*
X1352165Y1244783D02*
D03*
X1352096Y1184746D02*
D03*
X1313394Y1203449D02*
D03*
X1202362Y1316634D02*
D03*
X1190059Y1319291D02*
D03*
X1225787Y1326476D02*
D03*
X1221161Y1305020D02*
D03*
X1228347Y1323917D02*
D03*
X1227059Y1339983D02*
D03*
X1234348D02*
D03*
X1243110Y1319193D02*
D03*
X1215847Y1319685D02*
D03*
Y1314173D02*
D03*
X1221358D02*
D03*
Y1319685D02*
D03*
X1390748Y1299016D02*
D03*
X1387992Y1296260D02*
D03*
X1328543Y1286811D02*
D03*
X1294783Y1264862D02*
D03*
X1255709Y1333366D02*
D03*
Y1329626D02*
D03*
X1305217Y1258465D02*
D03*
X1303095Y1256343D02*
D03*
X1302559Y1261614D02*
D03*
X1298587Y1262168D02*
D03*
X1360335Y1279528D02*
D03*
X1354921Y1282087D02*
D03*
X1363780Y1277461D02*
D03*
X1338780Y1272933D02*
D03*
X1347441Y1316142D02*
D03*
X1350984Y1310532D02*
D03*
X1255118Y1447835D02*
D03*
X1393504Y1254035D02*
D03*
X1389075Y1269488D02*
D03*
X1338487Y1246952D02*
D03*
X1304331Y1244783D02*
D03*
X1300098Y1248425D02*
D03*
X1294094Y1237697D02*
D03*
X1296555Y1234252D02*
D03*
X1290453Y1330906D02*
D03*
X1411122Y1242520D02*
D03*
X1417815Y1255512D02*
D03*
X1322441Y1257185D02*
D03*
X1322025Y1248806D02*
D03*
X1239370Y1477756D02*
D03*
X1445472Y1185532D02*
D03*
X1217323Y1304331D02*
D03*
X1210138Y1299016D02*
D03*
Y1306201D02*
D03*
X1329134Y1380906D02*
D03*
X1265354Y1381201D02*
D03*
X1284252Y1373524D02*
D03*
X1289173Y1382874D02*
D03*
X1387894Y1353937D02*
D03*
X1328083Y1440091D02*
D03*
X1308858Y1435630D02*
D03*
X1313316Y1435897D02*
D03*
X1299803Y1434350D02*
D03*
X1318854Y1416732D02*
D03*
X1352264Y1337402D02*
D03*
X1318110Y1333858D02*
D03*
X1318209Y1327362D02*
D03*
X1358858Y1357185D02*
D03*
X1370191Y1318012D02*
D03*
X1367094Y1318076D02*
D03*
X1374477Y1316600D02*
D03*
X1454193Y1414016D02*
D03*
X1449193Y1414095D02*
D03*
Y1381614D02*
D03*
X1454193Y1381555D02*
D03*
X1459055Y1452854D02*
D03*
X1464193Y1403327D02*
D03*
X1459193Y1403110D02*
D03*
X1464193Y1452736D02*
D03*
X1468209Y1406594D02*
D03*
X1467815Y1362697D02*
D03*
X1468209Y1417913D02*
D03*
X1457558Y1303916D02*
D03*
X1467618Y1351181D02*
D03*
X1377854Y1319783D02*
D03*
X1409547Y1393898D02*
D03*
X1413189Y1391634D02*
D03*
X1381717Y1309425D02*
D03*
X1454134Y1360335D02*
D03*
X1367488Y1402234D02*
D03*
X1455807Y1491437D02*
D03*
X1446653Y1469980D02*
D03*
X1446850Y1461614D02*
D03*
X1459193Y1380965D02*
D03*
X1444980Y1411417D02*
D03*
X1278839Y1292421D02*
D03*
X1284547Y1322638D02*
D03*
X1288287Y1316142D02*
D03*
X1391240Y1323425D02*
D03*
D93*
X1335039Y1340256D02*
D03*
X1389272Y1347244D02*
D03*
D94*
X1219094Y1341043D02*
D03*
X1212598Y1423228D02*
D03*
X1255315Y1480118D02*
D03*
X1445571Y1327165D02*
D03*
X1444685Y1252264D02*
D03*
D95*
X1464760Y1305515D02*
D03*
M02*
