%FSLAX25Y25*%
%MOIN*%
G70*
G01*
G75*
G04 Layer_Color=8388736*
%ADD10R,0.02362X0.02362*%
%ADD11R,0.05512X0.02362*%
%ADD12R,0.05315X0.02362*%
%ADD13R,0.03740X0.03150*%
%ADD14R,0.02953X0.03543*%
%ADD15R,0.07087X0.04134*%
%ADD16R,0.03150X0.01969*%
%ADD17R,0.08465X0.09843*%
%ADD18R,0.01969X0.02362*%
%ADD19R,0.18898X0.20315*%
%ADD20O,0.02362X0.13583*%
%ADD21O,0.01772X0.08268*%
%ADD22R,0.05906X0.16142*%
%ADD23R,0.05906X0.17716*%
%ADD24R,0.04134X0.08661*%
%ADD25R,0.05906X0.11024*%
%ADD26R,0.06102X0.02362*%
%ADD27R,0.07087X0.04724*%
%ADD28R,0.03937X0.01181*%
%ADD29R,0.02756X0.01181*%
%ADD30R,0.03150X0.03740*%
%ADD31R,0.03543X0.02953*%
%ADD32O,0.01181X0.03150*%
%ADD33O,0.03150X0.01181*%
%ADD34R,0.04331X0.07480*%
%ADD35R,0.04134X0.07087*%
%ADD36R,0.05709X0.04331*%
%ADD37R,0.04331X0.07480*%
%ADD38O,0.02165X0.06890*%
%ADD39O,0.06890X0.02165*%
%ADD40R,0.00984X0.07087*%
%ADD41R,0.04331X0.05709*%
%ADD42R,0.02362X0.05512*%
%ADD43R,0.07874X0.12992*%
%ADD44R,0.07874X0.09843*%
%ADD45R,0.01969X0.12205*%
%ADD46R,0.09843X0.09843*%
%ADD47O,0.03150X0.01378*%
%ADD48O,0.01378X0.03150*%
%ADD49R,0.07087X0.29528*%
%ADD50R,0.02362X0.04134*%
%ADD51R,0.04134X0.05906*%
%ADD52R,0.13189X0.09646*%
%ADD53R,0.35827X0.42323*%
%ADD54R,0.16339X0.03937*%
%ADD55C,0.01000*%
%ADD56C,0.01200*%
%ADD57C,0.03000*%
%ADD58C,0.04000*%
%ADD59C,0.02000*%
%ADD60C,0.01500*%
%ADD61C,0.00800*%
%ADD62R,0.00653X0.00435*%
%ADD63R,0.02142X0.00344*%
%ADD64R,0.04702X0.00344*%
%ADD65R,0.00286X0.00429*%
%ADD66R,0.00262X0.00395*%
%ADD67R,0.00248X0.00441*%
%ADD68R,0.00441X0.00236*%
%ADD69R,0.00280X0.00186*%
%ADD70R,0.00239X0.00358*%
%ADD71R,0.00239X0.00358*%
%ADD72R,0.00342X0.00386*%
%ADD73R,0.00342X0.00386*%
%ADD74R,0.01705X0.01280*%
%ADD75R,0.01705X0.00581*%
%ADD76R,0.04134X0.11614*%
%ADD77R,0.06299X0.06988*%
%ADD78R,0.07776X0.02559*%
%ADD79R,0.03937X0.04715*%
%ADD80R,0.07569X0.07569*%
G04:AMPARAMS|DCode=81|XSize=120mil|YSize=60mil|CornerRadius=0mil|HoleSize=0mil|Usage=FLASHONLY|Rotation=90.000|XOffset=0mil|YOffset=0mil|HoleType=Round|Shape=Octagon|*
%AMOCTAGOND81*
4,1,8,0.01500,0.06000,-0.01500,0.06000,-0.03000,0.04500,-0.03000,-0.04500,-0.01500,-0.06000,0.01500,-0.06000,0.03000,-0.04500,0.03000,0.04500,0.01500,0.06000,0.0*
%
%ADD81OCTAGOND81*%

%ADD82C,0.04724*%
%ADD83R,0.05906X0.05906*%
%ADD84C,0.05906*%
%ADD85R,0.05906X0.05906*%
%ADD86R,0.09055X0.09055*%
%ADD87C,0.09055*%
%ADD88C,0.22638*%
%ADD89C,0.07874*%
%ADD90C,0.06000*%
%ADD91C,0.05315*%
%ADD92C,0.02400*%
%ADD93C,0.05000*%
%ADD94C,0.04800*%
%ADD95R,0.00613X0.00499*%
%ADD96C,0.00984*%
%ADD97C,0.02362*%
%ADD98C,0.00400*%
%ADD99C,0.00787*%
%ADD100C,0.00591*%
%ADD101C,0.00492*%
%ADD102C,0.01969*%
%ADD103C,0.00700*%
%ADD104R,0.06299X0.02165*%
%ADD105R,0.02165X0.10236*%
%ADD106R,0.02165X0.06299*%
%ADD107R,0.01378X0.03150*%
%ADD108R,0.01280X0.03051*%
%ADD109R,0.03162X0.03162*%
%ADD110R,0.06312X0.03162*%
%ADD111R,0.06115X0.03162*%
%ADD112R,0.04540X0.03950*%
%ADD113R,0.03753X0.04343*%
%ADD114R,0.07887X0.04934*%
%ADD115R,0.03950X0.02769*%
%ADD116R,0.09265X0.10642*%
%ADD117R,0.02769X0.03162*%
%ADD118R,0.19698X0.21115*%
%ADD119O,0.03162X0.14383*%
%ADD120O,0.02572X0.09068*%
%ADD121R,0.06706X0.16942*%
%ADD122R,0.06706X0.18517*%
%ADD123R,0.04934X0.09461*%
%ADD124R,0.06706X0.11824*%
%ADD125R,0.06902X0.03162*%
%ADD126R,0.07887X0.05524*%
%ADD127R,0.04737X0.01981*%
%ADD128R,0.03136X0.01561*%
%ADD129R,0.03950X0.04540*%
%ADD130R,0.04343X0.03753*%
%ADD131O,0.01981X0.03950*%
%ADD132O,0.03950X0.01981*%
%ADD133R,0.05131X0.08280*%
%ADD134R,0.04934X0.07887*%
%ADD135R,0.06509X0.05131*%
%ADD136R,0.05131X0.08280*%
%ADD137O,0.02745X0.07470*%
%ADD138O,0.07470X0.02745*%
%ADD139R,0.01564X0.07667*%
%ADD140R,0.05131X0.06509*%
%ADD141R,0.03162X0.06312*%
%ADD142R,0.08674X0.13792*%
%ADD143R,0.08674X0.10642*%
%ADD144R,0.02749X0.12985*%
%ADD145R,0.10642X0.10642*%
%ADD146O,0.03930X0.02158*%
%ADD147O,0.02158X0.03930*%
%ADD148R,0.07887X0.30328*%
%ADD149R,0.03162X0.04934*%
%ADD150R,0.04934X0.06706*%
%ADD151R,0.13989X0.10446*%
%ADD152R,0.36627X0.43123*%
%ADD153R,0.17139X0.04737*%
G04:AMPARAMS|DCode=154|XSize=128mil|YSize=68mil|CornerRadius=0mil|HoleSize=0mil|Usage=FLASHONLY|Rotation=90.000|XOffset=0mil|YOffset=0mil|HoleType=Round|Shape=Octagon|*
%AMOCTAGOND154*
4,1,8,0.01700,0.06400,-0.01700,0.06400,-0.03400,0.04700,-0.03400,-0.04700,-0.01700,-0.06400,0.01700,-0.06400,0.03400,-0.04700,0.03400,0.04700,0.01700,0.06400,0.0*
%
%ADD154OCTAGOND154*%

%ADD155C,0.05524*%
%ADD156R,0.06706X0.06706*%
%ADD157C,0.06706*%
%ADD158R,0.06706X0.06706*%
%ADD159R,0.09855X0.09855*%
%ADD160C,0.09855*%
%ADD161C,0.23438*%
%ADD162C,0.08674*%
%ADD163C,0.06800*%
%ADD164C,0.06115*%
D109*
X1352362Y1220449D02*
D03*
X1348425D02*
D03*
Y1240449D02*
D03*
X1352362D02*
D03*
X1348425Y1224449D02*
D03*
X1352362D02*
D03*
X1339862Y1207949D02*
D03*
X1335925D02*
D03*
Y1203949D02*
D03*
X1339862D02*
D03*
X1327862D02*
D03*
X1323925D02*
D03*
X1327862Y1207949D02*
D03*
X1323925D02*
D03*
X1311862Y1245949D02*
D03*
X1307925D02*
D03*
X1311925Y1213949D02*
D03*
X1315862D02*
D03*
X1339862Y1211949D02*
D03*
X1335925D02*
D03*
X1335862Y1215949D02*
D03*
X1331925D02*
D03*
X1327925Y1211949D02*
D03*
X1331862D02*
D03*
X1352362Y1216449D02*
D03*
X1348425D02*
D03*
D110*
X1350591Y1357087D02*
D03*
Y1349606D02*
D03*
X1358071Y1353347D02*
D03*
X1194685Y1360433D02*
D03*
Y1367913D02*
D03*
X1187205Y1364173D02*
D03*
X1233465Y1357087D02*
D03*
Y1349606D02*
D03*
X1240945Y1353347D02*
D03*
X1224606Y1474409D02*
D03*
X1232087Y1478150D02*
D03*
Y1470669D02*
D03*
D111*
X1314075Y1378740D02*
D03*
Y1371260D02*
D03*
X1323720Y1375000D02*
D03*
D112*
X1197835Y1327362D02*
D03*
Y1320276D02*
D03*
X1203740Y1367717D02*
D03*
Y1360630D02*
D03*
X1186024Y1352953D02*
D03*
Y1345866D02*
D03*
X1424213Y1258268D02*
D03*
Y1265354D02*
D03*
Y1245472D02*
D03*
Y1252559D02*
D03*
X1449803Y1201181D02*
D03*
Y1208268D02*
D03*
X1205315Y1247736D02*
D03*
Y1240650D02*
D03*
X1370079Y1278150D02*
D03*
Y1271063D02*
D03*
X1391535Y1238701D02*
D03*
Y1245788D02*
D03*
X1430020Y1208268D02*
D03*
Y1201181D02*
D03*
X1439862Y1208268D02*
D03*
Y1201181D02*
D03*
X1199409Y1240650D02*
D03*
Y1247736D02*
D03*
X1254331Y1495571D02*
D03*
Y1502658D02*
D03*
X1360236Y1326378D02*
D03*
Y1319291D02*
D03*
Y1339173D02*
D03*
Y1332087D02*
D03*
X1343504Y1349803D02*
D03*
Y1356890D02*
D03*
D113*
X1200098Y1426673D02*
D03*
X1193209D02*
D03*
X1200098Y1418799D02*
D03*
X1193209D02*
D03*
X1200098Y1410925D02*
D03*
X1193209D02*
D03*
X1200098Y1403051D02*
D03*
X1193209D02*
D03*
X1238681Y1199803D02*
D03*
X1231791D02*
D03*
X1460138Y1412402D02*
D03*
X1467028D02*
D03*
X1201083Y1396161D02*
D03*
X1194193D02*
D03*
X1398032Y1238504D02*
D03*
X1404921D02*
D03*
X1459153Y1358268D02*
D03*
X1466043D02*
D03*
X1327756Y1256890D02*
D03*
X1334646D02*
D03*
X1329232Y1320866D02*
D03*
X1322342D02*
D03*
X1334154Y1332382D02*
D03*
X1327264D02*
D03*
X1343996D02*
D03*
X1350886D02*
D03*
D114*
X1281903Y1245155D02*
D03*
Y1257163D02*
D03*
X1303150Y1370965D02*
D03*
Y1382972D02*
D03*
D115*
X1251968Y1547244D02*
D03*
X1244094D02*
D03*
X1399606Y1233268D02*
D03*
X1391732D02*
D03*
X1271653Y1257874D02*
D03*
X1263780D02*
D03*
D116*
X1194882Y1475295D02*
D03*
Y1461713D02*
D03*
Y1505807D02*
D03*
Y1492224D02*
D03*
X1222441Y1505807D02*
D03*
Y1492224D02*
D03*
D117*
X1464193Y1419488D02*
D03*
X1459193Y1448622D02*
D03*
X1454193D02*
D03*
X1449193D02*
D03*
X1464193D02*
D03*
X1459193Y1419488D02*
D03*
X1454193D02*
D03*
X1449193D02*
D03*
D118*
X1456693Y1434055D02*
D03*
D119*
X1449193Y1370866D02*
D03*
X1454193D02*
D03*
X1459193D02*
D03*
X1464193D02*
D03*
X1449193Y1394882D02*
D03*
X1454193D02*
D03*
X1459193D02*
D03*
X1464193D02*
D03*
D120*
X1378839Y1261240D02*
D03*
X1381398D02*
D03*
X1383957D02*
D03*
X1386516D02*
D03*
X1389075D02*
D03*
X1391634D02*
D03*
X1394193D02*
D03*
X1396752D02*
D03*
X1399311D02*
D03*
X1401870D02*
D03*
X1404429D02*
D03*
X1406988D02*
D03*
X1409547D02*
D03*
X1412106D02*
D03*
X1378839Y1288406D02*
D03*
X1381398D02*
D03*
X1383957D02*
D03*
X1386516D02*
D03*
X1389075D02*
D03*
X1391634D02*
D03*
X1394193D02*
D03*
X1396752D02*
D03*
X1399311D02*
D03*
X1401870D02*
D03*
X1404429D02*
D03*
X1406988D02*
D03*
X1409547D02*
D03*
X1412106D02*
D03*
D121*
X1329752Y1192055D02*
D03*
D122*
X1339752Y1191268D02*
D03*
X1319752D02*
D03*
D123*
X1323945Y1188284D02*
D03*
X1335559D02*
D03*
D124*
X1244980Y1330709D02*
D03*
X1233563D02*
D03*
D125*
X1232185Y1272638D02*
D03*
Y1276575D02*
D03*
D126*
X1247441Y1281693D02*
D03*
Y1267520D02*
D03*
D127*
X1222638Y1414035D02*
D03*
Y1382224D02*
D03*
D128*
X1212205Y1385335D02*
D03*
Y1387303D02*
D03*
Y1389272D02*
D03*
Y1391240D02*
D03*
Y1393209D02*
D03*
Y1395177D02*
D03*
Y1397146D02*
D03*
Y1399114D02*
D03*
Y1401083D02*
D03*
Y1403051D02*
D03*
Y1405020D02*
D03*
Y1406988D02*
D03*
Y1408957D02*
D03*
Y1410925D02*
D03*
D129*
X1194094Y1388287D02*
D03*
X1201181D02*
D03*
X1194094Y1382382D02*
D03*
X1201181D02*
D03*
X1194094Y1376476D02*
D03*
X1201181D02*
D03*
X1228740Y1464567D02*
D03*
X1235827D02*
D03*
X1238780Y1455709D02*
D03*
X1231693D02*
D03*
X1238780Y1448819D02*
D03*
X1231693D02*
D03*
X1226083Y1297244D02*
D03*
X1218996D02*
D03*
X1397835Y1245689D02*
D03*
X1404921D02*
D03*
X1404921Y1251595D02*
D03*
X1397835D02*
D03*
X1225984Y1349409D02*
D03*
X1218898D02*
D03*
X1255512D02*
D03*
X1248425D02*
D03*
X1294390Y1286417D02*
D03*
X1287303D02*
D03*
X1343898Y1342520D02*
D03*
X1350984D02*
D03*
X1238780Y1441929D02*
D03*
X1231693D02*
D03*
D130*
X1350394Y1235894D02*
D03*
Y1229004D02*
D03*
X1204823Y1312500D02*
D03*
Y1305610D02*
D03*
X1383957Y1245689D02*
D03*
Y1252579D02*
D03*
X1439961Y1185532D02*
D03*
Y1192421D02*
D03*
X1430020Y1185532D02*
D03*
Y1192421D02*
D03*
X1294783Y1280020D02*
D03*
Y1273130D02*
D03*
X1287598Y1301181D02*
D03*
Y1294291D02*
D03*
X1357776Y1292815D02*
D03*
Y1299705D02*
D03*
X1224705Y1448819D02*
D03*
Y1455709D02*
D03*
X1449803Y1192421D02*
D03*
Y1185532D02*
D03*
D131*
X1337831Y1237823D02*
D03*
X1335862D02*
D03*
X1333894D02*
D03*
X1331925D02*
D03*
X1329957D02*
D03*
Y1222075D02*
D03*
X1331925D02*
D03*
X1333894D02*
D03*
X1335862D02*
D03*
X1337831D02*
D03*
D132*
X1326020Y1233886D02*
D03*
Y1231917D02*
D03*
Y1229949D02*
D03*
Y1227980D02*
D03*
Y1226012D02*
D03*
X1341768D02*
D03*
Y1227980D02*
D03*
Y1229949D02*
D03*
Y1231917D02*
D03*
Y1233886D02*
D03*
D133*
X1307366Y1222665D02*
D03*
Y1237232D02*
D03*
X1316421D02*
D03*
Y1222665D02*
D03*
D134*
X1214075Y1332677D02*
D03*
X1226083D02*
D03*
D135*
X1190059Y1313976D02*
D03*
Y1306102D02*
D03*
Y1332677D02*
D03*
Y1324803D02*
D03*
D136*
X1344488Y1323524D02*
D03*
X1334646D02*
D03*
D137*
X1310532Y1310532D02*
D03*
X1313681D02*
D03*
X1316831D02*
D03*
X1319980D02*
D03*
X1323130D02*
D03*
X1326280D02*
D03*
X1329429D02*
D03*
X1332579D02*
D03*
X1335728D02*
D03*
X1338878D02*
D03*
X1342028D02*
D03*
Y1266240D02*
D03*
X1338878D02*
D03*
X1335728D02*
D03*
X1332579D02*
D03*
X1329429D02*
D03*
X1326280D02*
D03*
X1323130D02*
D03*
X1319980D02*
D03*
X1316831D02*
D03*
X1313681D02*
D03*
X1310532D02*
D03*
D138*
X1348425Y1304134D02*
D03*
Y1300984D02*
D03*
Y1297835D02*
D03*
Y1294685D02*
D03*
Y1291535D02*
D03*
Y1288386D02*
D03*
Y1285236D02*
D03*
Y1282087D02*
D03*
Y1278937D02*
D03*
Y1275787D02*
D03*
Y1272638D02*
D03*
X1304134D02*
D03*
Y1275787D02*
D03*
Y1278937D02*
D03*
Y1282087D02*
D03*
Y1285236D02*
D03*
Y1288386D02*
D03*
Y1291535D02*
D03*
Y1294685D02*
D03*
Y1297835D02*
D03*
Y1300984D02*
D03*
Y1304134D02*
D03*
D139*
X1286811Y1410630D02*
D03*
X1288780D02*
D03*
X1290748D02*
D03*
X1292717D02*
D03*
X1294685D02*
D03*
X1296653D02*
D03*
X1298622D02*
D03*
X1300591D02*
D03*
X1302559D02*
D03*
X1304527D02*
D03*
X1306496D02*
D03*
X1308465D02*
D03*
X1310433D02*
D03*
X1312402D02*
D03*
X1314370D02*
D03*
X1316339D02*
D03*
X1318307D02*
D03*
X1320276D02*
D03*
X1322244D02*
D03*
X1324213D02*
D03*
X1326181D02*
D03*
X1328150D02*
D03*
X1330118D02*
D03*
X1332087D02*
D03*
X1334055D02*
D03*
X1286811Y1426378D02*
D03*
X1288780D02*
D03*
X1290748D02*
D03*
X1292717D02*
D03*
X1294685D02*
D03*
X1296653D02*
D03*
X1298622D02*
D03*
X1300591D02*
D03*
X1302559D02*
D03*
X1304527D02*
D03*
X1306496D02*
D03*
X1308465D02*
D03*
X1310433D02*
D03*
X1312402D02*
D03*
X1314370D02*
D03*
X1316339D02*
D03*
X1318307D02*
D03*
X1320276D02*
D03*
X1322244D02*
D03*
X1324213D02*
D03*
X1326181D02*
D03*
X1328150D02*
D03*
X1330118D02*
D03*
X1332087D02*
D03*
X1334055D02*
D03*
D140*
X1212402Y1261024D02*
D03*
X1220276D02*
D03*
D141*
X1216339Y1252953D02*
D03*
X1220079Y1245472D02*
D03*
X1212598D02*
D03*
D142*
X1401574Y1211437D02*
D03*
X1366535D02*
D03*
D143*
Y1188209D02*
D03*
X1401574D02*
D03*
D144*
X1390354Y1211831D02*
D03*
X1387204D02*
D03*
X1384055D02*
D03*
X1380905D02*
D03*
X1377755D02*
D03*
D145*
X1218602Y1316929D02*
D03*
D146*
X1226476Y1320768D02*
D03*
Y1318209D02*
D03*
Y1315650D02*
D03*
Y1313091D02*
D03*
X1210728D02*
D03*
Y1315650D02*
D03*
Y1318209D02*
D03*
Y1320768D02*
D03*
D147*
X1222441Y1309055D02*
D03*
X1219882D02*
D03*
X1217323D02*
D03*
X1214764D02*
D03*
Y1324803D02*
D03*
X1217323D02*
D03*
X1219882D02*
D03*
X1222441D02*
D03*
D148*
X1257185Y1307087D02*
D03*
X1235138D02*
D03*
D149*
X1245276Y1504921D02*
D03*
X1241535D02*
D03*
X1237795D02*
D03*
Y1495276D02*
D03*
X1245276D02*
D03*
D150*
X1237697Y1487303D02*
D03*
X1245374D02*
D03*
X1237697Y1516831D02*
D03*
X1245374D02*
D03*
D151*
X1359646Y1375098D02*
D03*
X1339173D02*
D03*
D152*
X1416535Y1340551D02*
D03*
D153*
X1376968Y1327165D02*
D03*
Y1333858D02*
D03*
Y1340551D02*
D03*
Y1347244D02*
D03*
Y1353937D02*
D03*
D154*
X1436082Y1222395D02*
D03*
Y1247995D02*
D03*
X1453882Y1222395D02*
D03*
Y1247995D02*
D03*
D155*
X1296260Y1187008D02*
D03*
X1276575D02*
D03*
X1286417D02*
D03*
D156*
X1251968Y1561024D02*
D03*
X1201732Y1187638D02*
D03*
X1319882Y1358268D02*
D03*
X1399803Y1225610D02*
D03*
D157*
X1241969Y1561024D02*
D03*
X1464567Y1471614D02*
D03*
Y1481614D02*
D03*
Y1491614D02*
D03*
Y1501614D02*
D03*
Y1511614D02*
D03*
X1261732Y1187638D02*
D03*
X1251732D02*
D03*
X1241732D02*
D03*
X1231732D02*
D03*
X1211732D02*
D03*
X1221732D02*
D03*
X1420276Y1191772D02*
D03*
X1259882Y1358268D02*
D03*
X1269882D02*
D03*
X1279882D02*
D03*
X1289882D02*
D03*
X1309882D02*
D03*
X1299882D02*
D03*
X1464567Y1301693D02*
D03*
Y1311693D02*
D03*
Y1321693D02*
D03*
X1389803Y1225610D02*
D03*
X1379803D02*
D03*
X1369803D02*
D03*
D158*
X1464567Y1461614D02*
D03*
X1420276Y1201772D02*
D03*
X1464567Y1331693D02*
D03*
D159*
X1218661Y1554134D02*
D03*
D160*
X1198661D02*
D03*
D161*
X1449646Y1525669D02*
D03*
X1202598Y1345079D02*
D03*
Y1525669D02*
D03*
X1235512Y1226634D02*
D03*
X1416732Y1226339D02*
D03*
X1449646Y1345000D02*
D03*
D162*
X1348819Y1389567D02*
D03*
Y1562402D02*
D03*
X1262402Y1475984D02*
D03*
X1435236D02*
D03*
Y1515354D02*
D03*
Y1436614D02*
D03*
X1262402D02*
D03*
Y1515354D02*
D03*
D163*
X1217402Y1228543D02*
D03*
X1207402D02*
D03*
D164*
X1392717Y1200020D02*
D03*
X1375394D02*
D03*
M02*
