%FSLAX25Y25*%
%MOIN*%
G70*
G01*
G75*
G04 Layer_Color=16711935*
%ADD10R,0.03504X0.00906*%
%ADD11R,0.03740X0.03150*%
%ADD12R,0.05512X0.02362*%
%ADD13R,0.02362X0.02362*%
%ADD14R,0.05906X0.04134*%
%ADD15R,0.05315X0.02362*%
%ADD16R,0.02953X0.03543*%
%ADD17R,0.07087X0.04134*%
%ADD18R,0.03150X0.01969*%
%ADD19R,0.08465X0.09843*%
%ADD20R,0.01969X0.02362*%
%ADD21R,0.18898X0.20315*%
%ADD22O,0.02362X0.13583*%
%ADD23O,0.01772X0.08268*%
%ADD24R,0.05906X0.16142*%
%ADD25R,0.05906X0.17716*%
%ADD26R,0.04134X0.08661*%
%ADD27R,0.01969X0.03150*%
%ADD28R,0.05906X0.11024*%
%ADD29R,0.06102X0.02362*%
%ADD30R,0.07087X0.04724*%
%ADD31R,0.03937X0.01181*%
%ADD32R,0.02756X0.01181*%
%ADD33R,0.03150X0.03740*%
%ADD34R,0.03543X0.02953*%
%ADD35R,0.04134X0.07087*%
%ADD36R,0.05709X0.04331*%
%ADD37R,0.04331X0.07480*%
%ADD38O,0.02165X0.06890*%
%ADD39O,0.06890X0.02165*%
%ADD40R,0.00984X0.07087*%
%ADD41R,0.04331X0.05709*%
%ADD42R,0.02362X0.05512*%
%ADD43R,0.07874X0.12992*%
%ADD44R,0.07874X0.09843*%
%ADD45R,0.01969X0.12205*%
%ADD46R,0.09843X0.09843*%
%ADD47O,0.03150X0.01378*%
%ADD48O,0.01378X0.03150*%
%ADD49R,0.07087X0.29528*%
%ADD50R,0.02362X0.04134*%
%ADD51R,0.04134X0.05906*%
%ADD52R,0.13189X0.09646*%
%ADD53R,0.35827X0.42323*%
%ADD54R,0.16339X0.03937*%
%ADD55R,0.01100X0.01100*%
%ADD56R,0.01400X0.01400*%
%ADD57R,0.02362X0.02362*%
%ADD58O,0.00984X0.03150*%
%ADD59O,0.03150X0.00984*%
%ADD60R,0.04724X0.07087*%
%ADD61R,0.17126X0.18504*%
%ADD62R,0.09252X0.10236*%
%ADD63O,0.08858X0.02362*%
%ADD64R,0.05906X0.05906*%
%ADD65R,0.05906X0.05906*%
%ADD66R,0.09646X0.13189*%
%ADD67R,0.02953X0.01181*%
%ADD68C,0.04000*%
%ADD69C,0.01500*%
%ADD70C,0.00800*%
%ADD71C,0.01000*%
%ADD72C,0.01200*%
%ADD73C,0.03000*%
%ADD74C,0.02000*%
%ADD75C,0.05800*%
%ADD76C,0.08000*%
%ADD77C,0.05000*%
%ADD78R,0.00653X0.00435*%
%ADD79R,0.02142X0.00344*%
%ADD80R,0.04702X0.00344*%
%ADD81R,0.00286X0.00429*%
%ADD82R,0.00262X0.00395*%
%ADD83R,0.00248X0.00441*%
%ADD84R,0.00441X0.00236*%
%ADD85R,0.00280X0.00186*%
%ADD86R,0.06299X0.06988*%
%ADD87R,0.07776X0.02559*%
%ADD88R,0.03937X0.04715*%
%ADD89R,0.07569X0.07569*%
%ADD90R,0.04134X0.11614*%
%ADD91R,0.39400X0.69575*%
%ADD92R,0.41550X0.14150*%
%ADD93R,0.00906X0.00533*%
%ADD94R,0.00872X0.01705*%
G04:AMPARAMS|DCode=95|XSize=120mil|YSize=60mil|CornerRadius=0mil|HoleSize=0mil|Usage=FLASHONLY|Rotation=90.000|XOffset=0mil|YOffset=0mil|HoleType=Round|Shape=Octagon|*
%AMOCTAGOND95*
4,1,8,0.01500,0.06000,-0.01500,0.06000,-0.03000,0.04500,-0.03000,-0.04500,-0.01500,-0.06000,0.01500,-0.06000,0.03000,-0.04500,0.03000,0.04500,0.01500,0.06000,0.0*
%
%ADD95OCTAGOND95*%

%ADD96C,0.04724*%
%ADD97C,0.05906*%
%ADD98R,0.09055X0.09055*%
%ADD99C,0.09055*%
%ADD100C,0.22638*%
%ADD101C,0.06000*%
%ADD102C,0.05315*%
%ADD103C,0.07874*%
%ADD104C,0.20669*%
%ADD105C,0.02400*%
%ADD106C,0.05000*%
%ADD107C,0.04800*%
%ADD108C,0.02598*%
%ADD109R,0.00613X0.00499*%
%ADD110C,0.00984*%
%ADD111C,0.02362*%
%ADD112C,0.00400*%
%ADD113C,0.00787*%
%ADD114C,0.00591*%
%ADD115C,0.00700*%
%ADD116C,0.00492*%
%ADD117R,0.06299X0.02165*%
%ADD118R,0.02165X0.10236*%
%ADD119R,0.02165X0.06299*%
%ADD120R,0.01378X0.03150*%
%ADD121R,0.01280X0.03051*%
%ADD122R,0.02362X0.01772*%
%ADD123R,0.01772X0.02362*%
%ADD124R,0.03248X0.03248*%
%ADD125R,0.03247X0.03347*%
%ADD126R,0.03346X0.03352*%
%ADD127R,0.04304X0.01706*%
%ADD128R,0.04540X0.03950*%
%ADD129R,0.06312X0.03162*%
%ADD130R,0.03162X0.03162*%
%ADD131R,0.06706X0.04934*%
%ADD132R,0.06115X0.03162*%
%ADD133R,0.03753X0.04343*%
%ADD134R,0.07887X0.04934*%
%ADD135R,0.03950X0.02769*%
%ADD136R,0.09265X0.10642*%
%ADD137R,0.02769X0.03162*%
%ADD138R,0.19698X0.21115*%
%ADD139O,0.03162X0.14383*%
%ADD140O,0.02572X0.09068*%
%ADD141R,0.06706X0.16942*%
%ADD142R,0.06706X0.18517*%
%ADD143R,0.04934X0.09461*%
%ADD144R,0.02769X0.03950*%
%ADD145R,0.06706X0.11824*%
%ADD146R,0.06902X0.03162*%
%ADD147R,0.07887X0.05524*%
%ADD148R,0.04737X0.01981*%
%ADD149R,0.03136X0.01561*%
%ADD150R,0.03950X0.04540*%
%ADD151R,0.04343X0.03753*%
%ADD152R,0.04934X0.07887*%
%ADD153R,0.06509X0.05131*%
%ADD154R,0.05131X0.08280*%
%ADD155O,0.02745X0.07470*%
%ADD156O,0.07470X0.02745*%
%ADD157R,0.01564X0.07667*%
%ADD158R,0.05131X0.06509*%
%ADD159R,0.03162X0.06312*%
%ADD160R,0.08674X0.13792*%
%ADD161R,0.08674X0.10642*%
%ADD162R,0.02749X0.12985*%
%ADD163R,0.10642X0.10642*%
%ADD164O,0.03930X0.02158*%
%ADD165O,0.02158X0.03930*%
%ADD166R,0.07887X0.30328*%
%ADD167R,0.03162X0.04934*%
%ADD168R,0.04934X0.06706*%
%ADD169R,0.13989X0.10446*%
%ADD170R,0.36627X0.43123*%
%ADD171R,0.17139X0.04737*%
%ADD172R,0.02762X0.02762*%
%ADD173R,0.01500X0.01500*%
%ADD174R,0.01800X0.01800*%
%ADD175R,0.03162X0.03162*%
%ADD176O,0.01384X0.03550*%
%ADD177O,0.03550X0.01384*%
%ADD178R,0.05524X0.07887*%
%ADD179R,0.17926X0.19304*%
%ADD180R,0.10052X0.11036*%
%ADD181O,0.09658X0.03162*%
%ADD182R,0.06706X0.06706*%
%ADD183R,0.06706X0.06706*%
%ADD184R,0.10446X0.13989*%
%ADD185R,0.03753X0.01981*%
G04:AMPARAMS|DCode=186|XSize=128mil|YSize=68mil|CornerRadius=0mil|HoleSize=0mil|Usage=FLASHONLY|Rotation=90.000|XOffset=0mil|YOffset=0mil|HoleType=Round|Shape=Octagon|*
%AMOCTAGOND186*
4,1,8,0.01700,0.06400,-0.01700,0.06400,-0.03400,0.04700,-0.03400,-0.04700,-0.01700,-0.06400,0.01700,-0.06400,0.03400,-0.04700,0.03400,0.04700,0.01700,0.06400,0.0*
%
%ADD186OCTAGOND186*%

%ADD187C,0.05524*%
%ADD188C,0.06706*%
%ADD189R,0.09855X0.09855*%
%ADD190C,0.09855*%
%ADD191C,0.23438*%
%ADD192C,0.06800*%
%ADD193C,0.06115*%
%ADD194C,0.08674*%
%ADD195C,0.21469*%
%ADD196C,0.03200*%
%ADD197C,0.02800*%
%ADD198C,0.03398*%
D142*
X1319752Y1191268D02*
D03*
X1339752D02*
D03*
D182*
X1420276Y1201772D02*
D03*
X1464567Y1331693D02*
D03*
D183*
X1251968Y1561024D02*
D03*
X1201732Y1187638D02*
D03*
X1319882Y1358268D02*
D03*
X1399803Y1225610D02*
D03*
D186*
X1436082Y1222395D02*
D03*
Y1247995D02*
D03*
X1453882Y1222395D02*
D03*
Y1247995D02*
D03*
D187*
X1296260Y1187008D02*
D03*
X1276575D02*
D03*
X1286417D02*
D03*
D188*
X1241969Y1561024D02*
D03*
X1261732Y1187638D02*
D03*
X1251732D02*
D03*
X1241732D02*
D03*
X1231732D02*
D03*
X1211732D02*
D03*
X1221732D02*
D03*
X1420276Y1191772D02*
D03*
X1259882Y1358268D02*
D03*
X1269882D02*
D03*
X1279882D02*
D03*
X1289882D02*
D03*
X1309882D02*
D03*
X1299882D02*
D03*
X1464567Y1301693D02*
D03*
Y1311693D02*
D03*
Y1321693D02*
D03*
X1389803Y1225610D02*
D03*
X1379803D02*
D03*
X1369803D02*
D03*
D189*
X1218661Y1554134D02*
D03*
D190*
X1198661D02*
D03*
D191*
X1449646Y1525669D02*
D03*
X1202598Y1345079D02*
D03*
Y1525669D02*
D03*
X1235512Y1226634D02*
D03*
X1416732Y1226339D02*
D03*
X1449646Y1345000D02*
D03*
D192*
X1217402Y1228543D02*
D03*
X1207402D02*
D03*
D193*
X1392717Y1200020D02*
D03*
X1375394D02*
D03*
D194*
X1217020Y1486980D02*
D03*
X1197335D02*
D03*
X1348819Y1562402D02*
D03*
X1435236Y1515354D02*
D03*
Y1475984D02*
D03*
Y1436614D02*
D03*
X1348819Y1389567D02*
D03*
X1262402Y1436614D02*
D03*
Y1475984D02*
D03*
Y1515354D02*
D03*
D195*
X1273819Y1557874D02*
D03*
Y1459449D02*
D03*
D196*
X1426032Y1392075D02*
D03*
X1391700Y1273225D02*
D03*
X1374850Y1252725D02*
D03*
D197*
X1326504Y1234200D02*
D03*
Y1240696D02*
D03*
X1333000D02*
D03*
Y1234200D02*
D03*
X1329653Y1237448D02*
D03*
D198*
X1398228Y1482677D02*
D03*
X1402953D02*
D03*
X1398228Y1477953D02*
D03*
X1402953D02*
D03*
M02*
