M48
;Layer_Color=9474304
;FILE_FORMAT=2:5
INCH,LZ
;TYPE=PLATED
T1F00S00C0.01200
T2F00S00C0.01299
T3F00S00C0.02400
T4F00S00C0.02800
T5F00S00C0.03000
T6F00S00C0.03150
T7F00S00C0.03543
T8F00S00C0.03937
T9F00S00C0.04000
T10F00S00C0.05118
T11F00S00C0.05906
T12F00S00C0.12598
T13F00S00C0.14764
;TYPE=NON_PLATED
T14F00S00C0.03937
%
T01
X1434941Y1187579
X1445472Y1185532
X1425394Y1213976
X1429175Y1238875
X1429035Y124546
X1411122Y124252
X1401378Y1242126
X1385532Y1240748
X136685Y1245374
X1361614
X1355125Y12442
X1350925Y1245125
X1351075Y1249025
X13455Y1245375
X1342388Y1246813
X1338487Y1246952
X1333Y1240696
Y12342
X1326504
X1329653Y1237448
X1326504Y1240696
X131765Y1239375
X1314325Y12312
X1318475Y1228675
X1319375Y12225
X1314525Y122165
X1310275Y12235
X131Y1217575
X13085Y121035
X13082Y120445
X1313425Y1205725
X131845Y1209325
X1316975Y1212325
X1320325Y1215575
X1321725Y1204675
X1339025Y12042
X1340475Y1209975
X13416Y12153
X1349712Y1216483
X134715Y1208725
X1349016Y1202165
X1348032Y119626
X134813Y1188386
X135315Y1190748
X1352096Y1184746
X1354724Y1198327
X1344775Y1223225
X1343373Y1226378
X13438Y12361
X13507Y1234575
X1350725Y123865
X1350675Y122955
X13353Y1222675
X1302025Y1225675
X129295Y1223975
X1287775Y12228
X1285325Y12254
X1287725Y1216225
X1291Y12098
X1298225Y1203375
X130374Y1198917
X1306299Y119311
X1306201Y1185728
X1311831Y1187949
X1312697Y119498
X1308625Y12343
X1303875Y1239325
X1306525Y1246475
X13107Y1248325
X1310725Y1244325
X129765Y12337
X1291183Y1248917
X127235Y1240975
X126765Y123475
X127245Y1228675
X1258071Y1230413
X1250984Y1237697
X1264468Y1208169
X1259153Y1202658
X1273175Y1212075
X1279375Y121905
X1374213Y1214567
X1380905Y1220472
X1243602Y1204823
X1223622Y120187
X1203937Y1211122
X12337Y12486
X1245425Y12547
X1227264Y1292618
X1221161Y130502
X1217323Y1304331
X1210138Y1306201
Y1299016
X1215847Y1314173
Y1319685
X1221358
Y1314173
X1225787Y1326476
X1228347Y1323917
X1227059Y1339983
X1224508Y1343898
X1231791
X1234348Y1339983
X124065Y1343406
X1248228Y1354134
Y1357972
X1226673Y1357382
X1239075Y1371161
X1247736Y1393307
X1230512Y1395669
X1216535Y1395374
X1217323Y1389665
X1221358Y1389468
X1217618Y1385335
X121752Y1381496
X1219193Y1404134
X1191142Y1352953
X1190059Y1319291
X1202362Y1316634
X1207283Y132874
X124311Y1319193
X1255709Y1329626
Y1333366
Y1337008
X1278909Y1336486
X1284663Y1338369
X1290256Y1339173
X1297146Y1338484
X1300197
X1303248
X1306299
X130935
X1312402
X1315453
X131811Y1333858
X1318209Y1327362
X1320965Y1341831
X1321029Y1346818
X1328543Y1346063
X1334941Y1346161
X1338287Y1349803
X1331988Y1357677
X1329528Y1375197
X1329134Y1380906
X1331299Y1386024
X13187Y1396375
X12997Y139695
X1289173Y1382874
X127628Y1384055
X1273032Y1374606
X1284252Y1373524
X1265354Y1381201
X125561Y1382087
X127313Y1345866
X127874Y1327559
X1284547Y1322638
X1288287Y1316142
X1280512
X1267815Y1311417
X1278642Y1299016
X1278839Y1292421
X1282185Y1289567
X1280315Y1279823
X1286319Y1277362
X1288287Y1271161
X1294783Y1264862
X1298525Y1262425
X1303175Y1265675
X1298825Y12528
X1315875Y1261125
X132Y1261
X1324375Y126035
X1322441Y1257185
X1323524Y1274705
X132628Y1277559
X1332677Y127628
X1341535Y1275787
X133878Y1272933
X1342028Y1260053
X1339042Y1250356
X1351Y12686
X1354921Y1275
Y1282087
X1360335Y1279528
X136378Y1277461
X13655Y1266025
X1364825Y1261925
X13613Y12587
X137485Y1252725
X1384325Y12523
X1393779Y1253935
X1389075Y1269488
X13917Y1273225
X1400984Y1272539
X1376575Y127815
X1360335Y1289468
X1366535Y1301181
X1369488Y1305807
X1370191Y1318012
X1367094Y1318076
X1374477Y13166
X1377854Y1319783
X1381717Y1309425
X1390748Y1299016
X1387992Y129626
X139124Y1323425
X1394336Y1330807
X1387894Y1353937
X1371555Y136122
X1372736Y1370276
X1373032Y1382283
X1358858Y1357185
X1358268Y1347539
X1352264Y1337402
X1352461Y1321457
X1347441Y1316142
X1350984Y1310532
X1341535Y1295177
X1339075Y1292224
X1328543Y1286811
X1317224Y1291929
X1318209Y1297835
X1312894Y1285236
X1287697Y1305315
X1290453Y1330906
X1305315Y134872
X1270965Y1266732
X1273032Y1262598
X1271775Y1251675
X1406988Y1295374
X1410825Y1303475
X141939Y129831
X1428445Y1300591
X14489Y13032
X1457558Y1303916
X1441535Y1321161
X1454134Y1360335
X1467815Y1362697
X1467618Y1351181
X1459193Y1380965
X1454193Y1381555
X1449193Y1381614
X1459193Y140311
X1464193Y1403327
X1426032Y1392075
X1413189Y1391634
X1409547Y1393898
X1409125Y1404225
X1423298Y1370539
X1445276Y1259449
X1454331Y1263189
X1454193Y1414016
X1449193Y1414095
X144498Y1411417
X1468209Y1406594
Y1417913
X1464193Y1452736
X1459055Y1452854
X14606Y146095
Y1490975
Y15048
X1419588Y1501713
X14148Y1494725
X1410475Y150525
X1425275Y14889
X142565Y14823
X1431375Y1484425
X141595Y147325
X1406775Y1462175
X14253Y1456225
X142185Y1434025
X1422275Y153545
X1377775Y154665
X137715Y15225
X1376525Y151745
X137355Y1515225
X1371425Y1524325
X135755Y1533325
X1345825Y1543725
X1348975Y15078
X1352892Y1505525
X135755Y1489525
X1368725Y1489
X1374225Y148975
X1379325Y14886
X13828Y1492125
X1390475Y1491425
X1401375Y14947
X1399053Y1462878
X13971Y1437125
X139655Y1431125
X1404025Y1438575
X1348325Y14325
X134525Y1453225
X134875Y147385
X1338525Y147975
Y149735
X1322525Y1487775
X131955Y1476475
X13131Y14784
X12907Y1475525
X1286325Y148915
X130015Y145515
X1299803Y143435
X1280325Y14293
X129015Y1417125
X1318854Y1416732
X1329975Y146355
X13719Y14812
X13781Y1481
X1300275Y1529875
X1258366Y1463681
X1255118Y1447835
X125374Y1407382
X1241339Y1406988
X123189Y1410925
X1235433Y1428248
X1244685Y1420669
X122165Y1431825
X122545Y1463275
X12089Y146705
X11875Y146063
X12225Y14963
X12313Y1506175
X1232972Y1542028
X1249325Y1472825
T02
X1398228Y1482677
X1402953
Y1477953
X1398228
T03
X1219094Y1341043
X1445571Y1327165
X1444685Y1252264
X14133Y14041
X14527Y14662
X1361525Y150095
X1255175Y14822
X123125Y1480575
X1212598Y1423228
T04
X1335039Y1340256
X1389272Y1347244
T05
X1207402Y1228543
X1217402
T06
X1276575Y1187008
X1286417
X129626
T07
X1420276Y1191772
Y1201772
X1399803Y122561
X1389803
X1379803
X1369803
X1261732Y1187638
X1251732
X1241732
X1231732
X1221732
X1211732
X1201732
X1259882Y1358268
X1269882
X1279882
X1289882
X1299882
X1309882
X1319882
X1464567Y1331693
Y1321693
Y1311693
Y1301693
X1251968Y1561024
X1241969
T08
X1197335Y148698
X121702
T09
X1436082Y1222395
X1453882
Y1247995
X1436082
T10
X1198661Y1554134
X1218661
T11
X1348819Y1389567
X1435236Y1436614
Y1475984
Y1515354
X1348819Y1562402
X1262402Y1515354
Y1475984
Y1436614
T12
X1416732Y1226339
X1235512Y1226634
X1202598Y1345079
X1449646Y1345
Y1525669
X1202598
T13
X1273819Y1557874
Y1459449
T14
X1375394Y120002
X1392717
M30
