%FSAX24Y24*%
%MOIN*%
G70*
G01*
G75*
G04 Layer_Physical_Order=2*
G04 Layer_Color=16711680*
%ADD10R,0.0236X0.0236*%
%ADD11R,0.0591X0.1614*%
%ADD12R,0.0591X0.1772*%
%ADD13R,0.0413X0.0866*%
%ADD14R,0.0236X0.0236*%
%ADD15R,0.0472X0.0709*%
%ADD16R,0.0984X0.0984*%
%ADD17O,0.0315X0.0098*%
%ADD18O,0.0098X0.0315*%
%ADD19R,0.0413X0.0591*%
%ADD20R,0.1614X0.0591*%
%ADD21R,0.1772X0.0591*%
%ADD22R,0.0866X0.0413*%
%ADD23O,0.0138X0.0315*%
%ADD24O,0.0315X0.0138*%
%ADD25R,0.0295X0.0118*%
%ADD26R,0.0413X0.0709*%
%ADD27R,0.0315X0.0374*%
%ADD28R,0.1319X0.0965*%
%ADD29R,0.0374X0.0315*%
%ADD30R,0.0591X0.0591*%
%ADD31R,0.0591X0.0591*%
%ADD32O,0.0236X0.0886*%
%ADD33R,0.1024X0.0925*%
%ADD34R,0.0965X0.1319*%
%ADD35R,0.0591X0.0413*%
%ADD36R,0.0110X0.0110*%
%ADD37R,0.0140X0.0140*%
%ADD38R,0.0236X0.0413*%
%ADD39R,0.0354X0.0295*%
%ADD40R,0.0709X0.2953*%
%ADD41R,0.0197X0.1220*%
%ADD42R,0.0787X0.0984*%
%ADD43R,0.0787X0.1299*%
%ADD44R,0.0236X0.0551*%
%ADD45R,0.0433X0.0571*%
%ADD46O,0.0689X0.0217*%
%ADD47O,0.0217X0.0689*%
%ADD48R,0.0295X0.0354*%
%ADD49R,0.0433X0.0748*%
%ADD50R,0.0571X0.0433*%
%ADD51R,0.0394X0.0118*%
%ADD52R,0.0276X0.0118*%
%ADD53R,0.0709X0.0472*%
%ADD54R,0.0610X0.0236*%
%ADD55R,0.0591X0.1102*%
%ADD56R,0.0197X0.0315*%
%ADD57O,0.0177X0.0827*%
%ADD58O,0.0236X0.1358*%
%ADD59R,0.2032X0.1890*%
%ADD60R,0.0236X0.0197*%
%ADD61R,0.0846X0.0984*%
%ADD62R,0.0551X0.0236*%
%ADD63R,0.0709X0.0413*%
%ADD64R,0.0394X0.0138*%
%ADD65R,0.1850X0.1713*%
%ADD66R,0.0579X0.0291*%
%ADD67C,0.0120*%
%ADD68C,0.0100*%
%ADD69C,0.0200*%
%ADD70C,0.0500*%
%ADD71C,0.0300*%
%ADD72C,0.0080*%
%ADD73C,0.0150*%
%ADD74C,0.0800*%
%ADD75C,0.0580*%
%ADD76C,0.0400*%
%ADD77R,0.0091X0.0053*%
%ADD78R,0.0087X0.0171*%
%ADD79R,0.0394X0.0472*%
%ADD80R,0.1415X0.4155*%
%ADD81R,0.6957X0.3940*%
%ADD82R,0.0413X0.1161*%
%ADD83R,0.0757X0.0757*%
%ADD84R,0.0778X0.0256*%
%ADD85R,0.0028X0.0019*%
%ADD86R,0.0044X0.0024*%
%ADD87R,0.0025X0.0044*%
%ADD88R,0.0026X0.0039*%
%ADD89R,0.0029X0.0043*%
%ADD90R,0.0214X0.0034*%
%ADD91R,0.0470X0.0034*%
%ADD92R,0.0065X0.0043*%
%ADD93C,0.1575*%
%ADD94C,0.0591*%
%ADD95C,0.2264*%
%ADD96C,0.0787*%
%ADD97C,0.0532*%
%ADD98C,0.0600*%
%ADD99C,0.0906*%
%ADD100R,0.0906X0.0906*%
%ADD101C,0.0472*%
G04:AMPARAMS|DCode=102|XSize=120mil|YSize=60mil|CornerRadius=0mil|HoleSize=0mil|Usage=FLASHONLY|Rotation=90.000|XOffset=0mil|YOffset=0mil|HoleType=Round|Shape=Octagon|*
%AMOCTAGOND102*
4,1,8,0.0150,0.0600,-0.0150,0.0600,-0.0300,0.0450,-0.0300,-0.0450,-0.0150,-0.0600,0.0150,-0.0600,0.0300,-0.0450,0.0300,0.0450,0.0150,0.0600,0.0*
%
%ADD102OCTAGOND102*%

%ADD103C,0.0512*%
%ADD104C,0.0240*%
%ADD105C,0.0480*%
%ADD106C,0.0260*%
%ADD107C,0.0380*%
%ADD108R,0.0061X0.0050*%
G36*
X-010162Y003781D02*
Y001169D01*
X-010208Y001150D01*
X-010298Y001240D01*
X-010293Y001261D01*
X-010307Y001331D01*
X-010347Y001390D01*
X-010407Y001430D01*
X-010477Y001444D01*
X-010547Y001430D01*
X-010607Y001390D01*
X-010646Y001331D01*
X-010652Y001304D01*
X-010702D01*
X-010711Y001350D01*
X-010751Y001410D01*
X-010810Y001450D01*
X-010880Y001464D01*
X-010951Y001450D01*
X-010970Y001437D01*
X-011014Y001461D01*
Y001623D01*
X-010968Y001669D01*
X-010959Y001668D01*
X-010889Y001682D01*
X-010829Y001721D01*
X-010790Y001781D01*
X-010776Y001851D01*
X-010790Y001921D01*
X-010829Y001981D01*
X-010889Y002021D01*
X-010959Y002035D01*
X-011029Y002021D01*
X-011089Y001981D01*
X-011129Y001921D01*
X-011143Y001851D01*
X-011141Y001842D01*
X-011223Y001760D01*
X-011247Y001724D01*
X-011295Y001739D01*
Y004342D01*
X-011275Y004344D01*
X-011202Y004374D01*
X-011139Y004423D01*
X-011091Y004485D01*
X-011061Y004558D01*
X-011054Y004610D01*
X-011006Y004626D01*
X-010162Y003781D01*
D02*
G37*
G36*
X011137Y022477D02*
X011349Y022389D01*
X011572Y022335D01*
X011801Y022317D01*
Y022320D01*
X014389D01*
Y019577D01*
X014389Y019577D01*
X014389D01*
Y006485D01*
X013520D01*
Y006130D01*
Y005775D01*
X014389D01*
Y004485D01*
X013520D01*
Y004130D01*
Y003775D01*
X014389D01*
Y-003013D01*
X014343Y-003032D01*
X013588Y-002277D01*
Y-002227D01*
X013727Y-002089D01*
X013753Y-002049D01*
X013753Y-002049D01*
X013753Y-002049D01*
X013762Y-002002D01*
Y001952D01*
X013753Y001999D01*
X013727Y002038D01*
X013358Y002407D01*
X013373Y002454D01*
X013377Y002455D01*
X013436Y002495D01*
X013476Y002555D01*
X013490Y002625D01*
X013476Y002695D01*
X013474Y002698D01*
X013492Y002731D01*
X013541Y002739D01*
X013625Y002655D01*
X013623Y002646D01*
X013637Y002576D01*
X013677Y002517D01*
X013736Y002477D01*
X013807Y002463D01*
X013877Y002477D01*
X013936Y002517D01*
X013976Y002576D01*
X013990Y002646D01*
X013976Y002717D01*
X013936Y002776D01*
X013877Y002816D01*
X013807Y002830D01*
X013798Y002828D01*
X013675Y002951D01*
X013635Y002978D01*
X013588Y002987D01*
X013435D01*
X012694Y003729D01*
X012713Y003775D01*
X013420D01*
Y004080D01*
X012524D01*
Y003963D01*
X012478Y003944D01*
X011482Y004940D01*
Y013996D01*
X011528Y014017D01*
X011649Y013913D01*
X011809Y013815D01*
X011982Y013744D01*
X012165Y013700D01*
X012302Y013689D01*
Y014881D01*
Y016072D01*
X012165Y016062D01*
X011982Y016018D01*
X011809Y015946D01*
X011649Y015848D01*
X011506Y015726D01*
X011385Y015583D01*
X011287Y015423D01*
X011271Y015387D01*
X011222Y015396D01*
Y022230D01*
X011213Y022277D01*
X011186Y022317D01*
X011001Y022502D01*
X011032Y022541D01*
X011137Y022477D01*
D02*
G37*
G36*
X003367Y-013140D02*
X003365Y-013149D01*
X003379Y-013219D01*
X003419Y-013279D01*
X003478Y-013318D01*
X003534Y-013329D01*
X003548Y-013377D01*
X003446Y-013479D01*
X002991D01*
X002977Y-013431D01*
X003030Y-013396D01*
X003069Y-013337D01*
X003083Y-013266D01*
X003069Y-013196D01*
X003030Y-013137D01*
X002970Y-013097D01*
X002900Y-013083D01*
X002830Y-013097D01*
X002770Y-013137D01*
X002730Y-013196D01*
X002716Y-013266D01*
X002719Y-013280D01*
X002687Y-013319D01*
X002094D01*
X002088Y-013310D01*
X002069Y-013275D01*
X002107Y-013219D01*
X002121Y-013149D01*
X002107Y-013079D01*
X002067Y-013019D01*
X002060Y-013014D01*
Y-012977D01*
X002050Y-012930D01*
X002024Y-012890D01*
X001812Y-012678D01*
X001772Y-012652D01*
X001726Y-012643D01*
X001527D01*
X001480Y-012652D01*
X001473Y-012642D01*
X001461Y-012580D01*
X001421Y-012521D01*
X001362Y-012481D01*
X001291Y-012467D01*
X001271Y-012471D01*
X001088Y-012288D01*
X001051Y-012264D01*
X001009Y-012256D01*
Y-012241D01*
X001044Y-012206D01*
X001177D01*
X001177Y-012206D01*
X001220Y-012197D01*
X001257Y-012173D01*
X001569Y-011860D01*
X001590Y-011865D01*
X001660Y-011851D01*
X001720Y-011811D01*
X001760Y-011751D01*
X001774Y-011681D01*
X001760Y-011611D01*
X001744Y-011588D01*
X001783Y-011556D01*
X003367Y-013140D01*
D02*
G37*
G36*
X-000674Y-007323D02*
Y-007712D01*
X-000718Y-007735D01*
X-000722Y-007733D01*
X-000792Y-007719D01*
X-000862Y-007733D01*
X-000922Y-007773D01*
X-000927Y-007780D01*
X-002032D01*
X-002079Y-007790D01*
X-002119Y-007816D01*
X-002306Y-008003D01*
X-002332Y-008043D01*
X-002341Y-008090D01*
Y-010608D01*
X-002811Y-011078D01*
X-003000D01*
X-003005Y-011070D01*
X-003012Y-011065D01*
Y-008306D01*
X-003021Y-008260D01*
X-003048Y-008220D01*
X-003721Y-007547D01*
Y-007290D01*
X-003713Y-007285D01*
X-003673Y-007225D01*
X-003660Y-007155D01*
X-003673Y-007085D01*
X-003713Y-007025D01*
X-003773Y-006985D01*
X-003843Y-006971D01*
X-003913Y-006985D01*
X-003973Y-007025D01*
X-004013Y-007085D01*
X-004027Y-007155D01*
X-004013Y-007225D01*
X-003973Y-007285D01*
X-003965Y-007290D01*
Y-007598D01*
X-003965Y-007598D01*
X-003965D01*
X-003956Y-007645D01*
X-003930Y-007684D01*
X-003257Y-008357D01*
Y-011065D01*
X-003264Y-011070D01*
X-003304Y-011130D01*
X-003318Y-011200D01*
X-003304Y-011270D01*
X-003275Y-011313D01*
X-003287Y-011334D01*
X-003336Y-011342D01*
X-005169Y-009509D01*
Y-009376D01*
X-005123Y-009357D01*
X-004762Y-009718D01*
X-004751Y-009774D01*
X-004711Y-009834D01*
X-004651Y-009874D01*
X-004581Y-009888D01*
X-004511Y-009874D01*
X-004451Y-009834D01*
X-004412Y-009774D01*
X-004398Y-009704D01*
X-004412Y-009634D01*
X-004451Y-009574D01*
X-004511Y-009534D01*
X-004567Y-009523D01*
X-004959Y-009132D01*
Y-005345D01*
X-004725Y-005111D01*
X-004668Y-005100D01*
X-004609Y-005060D01*
X-004569Y-005001D01*
X-004555Y-004930D01*
X-004569Y-004860D01*
X-004609Y-004801D01*
X-004661Y-004766D01*
X-004646Y-004718D01*
X-003702D01*
X-003697Y-004726D01*
X-003638Y-004765D01*
X-003567Y-004779D01*
X-003497Y-004765D01*
X-003438Y-004726D01*
X-003398Y-004666D01*
X-003397Y-004662D01*
X-003349Y-004648D01*
X-000674Y-007323D01*
D02*
G37*
G36*
X-011648Y035080D02*
X-006991D01*
X-006955Y035044D01*
Y034164D01*
X-006245D01*
Y035044D01*
X-006245Y035044D01*
D01*
D01*
X-006245Y035060D01*
D01*
X-006225Y035080D01*
X-004991D01*
X-004955Y035044D01*
Y034164D01*
X-004245D01*
Y035044D01*
X-004245Y035044D01*
D01*
D01*
X-004245Y035060D01*
D01*
X-004225Y035080D01*
X011647D01*
X011655Y035081D01*
X011897Y035062D01*
X012140Y035004D01*
X012371Y034908D01*
X012584Y034777D01*
X012775Y034615D01*
X012937Y034424D01*
X013068Y034211D01*
X013164Y033980D01*
X013222Y033736D01*
X013241Y033494D01*
X013240Y033487D01*
Y025237D01*
X011801D01*
Y025239D01*
X011572Y025221D01*
X011349Y025168D01*
X011227Y025117D01*
X011199Y025159D01*
X011227Y025186D01*
X011253Y025226D01*
X011262Y025273D01*
Y031620D01*
X011253Y031667D01*
X011227Y031707D01*
X010237Y032697D01*
X010197Y032723D01*
X010150Y032732D01*
X003371D01*
X003324Y032723D01*
X003284Y032697D01*
X-001750Y027662D01*
X-006050D01*
X-006060Y027710D01*
X-006000Y027750D01*
X-005988Y027768D01*
X-004035D01*
X-004035Y027768D01*
X-003992Y027776D01*
X-003956Y027801D01*
X-003611Y028146D01*
X-003611Y028146D01*
X-003586Y028182D01*
X-003586Y028182D01*
X-003586Y028182D01*
X-003578Y028225D01*
X-003578Y028225D01*
Y029408D01*
X-003560Y029420D01*
X-003520Y029480D01*
X-003506Y029550D01*
X-003520Y029620D01*
X-003560Y029680D01*
X-003620Y029720D01*
X-003690Y029734D01*
X-003760Y029720D01*
X-003820Y029680D01*
X-003860Y029620D01*
X-003874Y029550D01*
X-003860Y029480D01*
X-003820Y029420D01*
X-003802Y029408D01*
Y028308D01*
X-003844Y028280D01*
X-003855Y028285D01*
Y028365D01*
X-003855Y028365D01*
X-003863Y028408D01*
X-003888Y028445D01*
X-003888Y028445D01*
X-004037Y028595D01*
Y029526D01*
X-004020Y029538D01*
X-003980Y029597D01*
X-003966Y029667D01*
X-003980Y029738D01*
X-004020Y029797D01*
X-004079Y029837D01*
X-004150Y029851D01*
X-004220Y029837D01*
X-004234Y029828D01*
X-004278Y029851D01*
Y030303D01*
X-003887D01*
X-003887Y030303D01*
X-003856Y030309D01*
X-003817Y030301D01*
X-003747Y030315D01*
X-003687Y030355D01*
X-003648Y030415D01*
X-003634Y030485D01*
X-003648Y030555D01*
X-003687Y030615D01*
X-003705Y030626D01*
Y030850D01*
X-003705Y030850D01*
X-003714Y030893D01*
X-003738Y030929D01*
X-003738Y030929D01*
X-004143Y031334D01*
X-004139Y031355D01*
X-004153Y031425D01*
X-004192Y031485D01*
X-004252Y031524D01*
X-004322Y031538D01*
X-004392Y031524D01*
X-004452Y031485D01*
X-004492Y031425D01*
X-004506Y031355D01*
X-004492Y031285D01*
X-004452Y031225D01*
X-004392Y031185D01*
X-004322Y031171D01*
X-004301Y031175D01*
X-003929Y030803D01*
Y030626D01*
X-003947Y030615D01*
X-003987Y030555D01*
X-003992Y030527D01*
X-006428D01*
X-006867Y030966D01*
X-006866Y030968D01*
X-006880Y031038D01*
X-006920Y031097D01*
X-006980Y031137D01*
X-007050Y031151D01*
X-007120Y031137D01*
X-007180Y031097D01*
X-007220Y031038D01*
X-007234Y030968D01*
X-007220Y030897D01*
X-007180Y030838D01*
X-007120Y030798D01*
X-007050Y030784D01*
X-007010Y030792D01*
X-006658Y030440D01*
Y030390D01*
X-007006Y030042D01*
X-007070Y030030D01*
X-007130Y029990D01*
X-007170Y029930D01*
X-007184Y029860D01*
X-007170Y029790D01*
X-007130Y029730D01*
X-007070Y029690D01*
X-007000Y029676D01*
X-006930Y029690D01*
X-006870Y029730D01*
X-006830Y029790D01*
X-006816Y029860D01*
X-006825Y029905D01*
X-006428Y030303D01*
X-004502D01*
Y028463D01*
X-004502Y028463D01*
X-004494Y028420D01*
X-004469Y028384D01*
X-004376Y028291D01*
X-004380Y028270D01*
X-004366Y028200D01*
X-004364Y028196D01*
X-004388Y028152D01*
X-004481D01*
X-004490Y028200D01*
X-004530Y028260D01*
X-004590Y028300D01*
X-004660Y028314D01*
X-004730Y028300D01*
X-004790Y028260D01*
X-004830Y028200D01*
X-004844Y028130D01*
X-004830Y028060D01*
X-004814Y028036D01*
X-004837Y027992D01*
X-005988D01*
X-006000Y028010D01*
X-006060Y028050D01*
X-006130Y028064D01*
X-006200Y028050D01*
X-006260Y028010D01*
X-006300Y027950D01*
X-006314Y027880D01*
X-006300Y027810D01*
X-006260Y027750D01*
X-006200Y027710D01*
X-006210Y027662D01*
X-006739D01*
X-007718Y028641D01*
Y029325D01*
X-007710Y029330D01*
X-007670Y029390D01*
X-007656Y029460D01*
X-007670Y029530D01*
X-007710Y029590D01*
X-007770Y029630D01*
X-007840Y029644D01*
X-007910Y029630D01*
X-007970Y029590D01*
X-008010Y029530D01*
X-008024Y029460D01*
X-008010Y029390D01*
X-007970Y029330D01*
X-007962Y029325D01*
Y028590D01*
X-007962Y028590D01*
X-007962D01*
X-007953Y028543D01*
X-007927Y028503D01*
X-006877Y027453D01*
X-006837Y027427D01*
X-006790Y027418D01*
X-005960D01*
X-005936Y027374D01*
X-005948Y027356D01*
X-005962Y027286D01*
X-005948Y027216D01*
X-005908Y027156D01*
X-005849Y027116D01*
X-005778Y027102D01*
X-005755Y027107D01*
X-005713Y027079D01*
X-005700Y027010D01*
X-005660Y026950D01*
X-005600Y026910D01*
X-005530Y026896D01*
X-005460Y026910D01*
X-005400Y026950D01*
X-005382Y026978D01*
X-001719D01*
X-001700Y026931D01*
X-009221Y019411D01*
X-009267Y019341D01*
X-009284Y019259D01*
Y010878D01*
X-009488Y010674D01*
X-009566Y010663D01*
X-009639Y010633D01*
X-009702Y010585D01*
X-009750Y010523D01*
X-009780Y010450D01*
X-009790Y010371D01*
X-009780Y010293D01*
X-009750Y010220D01*
X-009702Y010157D01*
X-009639Y010109D01*
X-009566Y010079D01*
X-009488Y010069D01*
X-009409Y010079D01*
X-009336Y010109D01*
X-009274Y010157D01*
X-009226Y010220D01*
X-009195Y010293D01*
X-009185Y010371D01*
X-008918Y010638D01*
X-008872Y010708D01*
X-008872Y010708D01*
X-008872Y010708D01*
X-008855Y010790D01*
Y019171D01*
X001213Y029239D01*
X001748D01*
X001811Y029191D01*
X001884Y029161D01*
X001962Y029151D01*
X002040Y029161D01*
X002113Y029191D01*
X002176Y029239D01*
X002224Y029302D01*
X002254Y029375D01*
X002265Y029453D01*
X002254Y029532D01*
X002224Y029605D01*
X002176Y029667D01*
X002113Y029715D01*
X002040Y029746D01*
X001962Y029756D01*
X001884Y029746D01*
X001811Y029715D01*
X001748Y029667D01*
X001176D01*
X001157Y029714D01*
X003571Y032128D01*
X009950D01*
X010658Y031420D01*
Y025472D01*
X009830Y024645D01*
X009804Y024605D01*
X009794Y024559D01*
Y022904D01*
X009794Y022904D01*
X009794D01*
X009804Y022857D01*
X009830Y022818D01*
X010618Y022030D01*
Y014190D01*
X010618Y014190D01*
X010618D01*
X010627Y014143D01*
X010653Y014104D01*
X010878Y013879D01*
Y004592D01*
X010887Y004545D01*
X010913Y004505D01*
X013518Y001901D01*
Y000504D01*
X013470Y000490D01*
X013436Y000540D01*
X013377Y000580D01*
X013307Y000594D01*
X013236Y000580D01*
X013177Y000540D01*
X013137Y000480D01*
X013123Y000410D01*
X013125Y000401D01*
X013075Y000352D01*
X012069D01*
X012022Y000342D01*
X011983Y000316D01*
X010875Y-000792D01*
X010850Y-000786D01*
X010780Y-000800D01*
X010720Y-000840D01*
X010680Y-000900D01*
X010666Y-000970D01*
X010680Y-001040D01*
X010720Y-001100D01*
X010780Y-001140D01*
X010850Y-001154D01*
X010920Y-001140D01*
X010980Y-001100D01*
X011020Y-001040D01*
X011031Y-000982D01*
X012120Y000107D01*
X013126D01*
X013172Y000116D01*
X013212Y000143D01*
X013298Y000228D01*
X013307Y000227D01*
X013377Y000241D01*
X013436Y000280D01*
X013470Y000331D01*
X013518Y000316D01*
Y-001951D01*
X013390Y-002079D01*
X012981Y-001670D01*
X012984Y-001653D01*
X012970Y-001583D01*
X012930Y-001523D01*
X012871Y-001483D01*
X012801Y-001469D01*
X012763Y-001477D01*
X012492Y-001206D01*
X012453Y-001180D01*
X012406Y-001170D01*
X011323D01*
X011276Y-001180D01*
X011236Y-001206D01*
X010991Y-001451D01*
X010339D01*
X010334Y-001444D01*
X010275Y-001404D01*
X010205Y-001390D01*
X010134Y-001404D01*
X010075Y-001444D01*
X010035Y-001503D01*
X010021Y-001573D01*
X010035Y-001644D01*
X010075Y-001703D01*
X010134Y-001743D01*
X010205Y-001757D01*
X010275Y-001743D01*
X010334Y-001703D01*
X010339Y-001696D01*
X010936D01*
X010955Y-001742D01*
X010746Y-001951D01*
X010332D01*
X010327Y-001944D01*
X010267Y-001904D01*
X010197Y-001890D01*
X010127Y-001904D01*
X010067Y-001944D01*
X010027Y-002003D01*
X010013Y-002073D01*
X010027Y-002144D01*
X010067Y-002203D01*
X010127Y-002243D01*
X010197Y-002257D01*
X010267Y-002243D01*
X010327Y-002203D01*
X010332Y-002196D01*
X010797D01*
X010843Y-002186D01*
X010883Y-002160D01*
X011388Y-001655D01*
X012172D01*
X012177Y-001663D01*
X012236Y-001702D01*
X012307Y-001716D01*
X012377Y-001702D01*
X012436Y-001663D01*
X012476Y-001603D01*
X012477Y-001599D01*
X012525Y-001585D01*
X012623Y-001683D01*
X012631Y-001723D01*
X012671Y-001783D01*
X012730Y-001822D01*
X012801Y-001836D01*
X012801Y-001836D01*
X013303Y-002339D01*
X014184Y-003219D01*
Y-004162D01*
X013489D01*
Y-004699D01*
X012284Y-005904D01*
X007127D01*
X007112Y-005856D01*
X007140Y-005838D01*
X007180Y-005778D01*
X007194Y-005708D01*
X007180Y-005638D01*
X007140Y-005578D01*
X007080Y-005538D01*
X007010Y-005524D01*
X007010Y-005524D01*
X007010Y-005524D01*
D01*
X006984Y-005530D01*
X006948Y-005494D01*
X006954Y-005468D01*
D01*
X006954Y-005468D01*
X006954D01*
X006940Y-005398D01*
X006900Y-005338D01*
X006840Y-005298D01*
X006770Y-005284D01*
X006700Y-005298D01*
X006641Y-005338D01*
X006215D01*
X006210Y-005330D01*
X006150Y-005290D01*
X006080Y-005276D01*
X006010Y-005290D01*
X005950Y-005330D01*
X005910Y-005390D01*
X005896Y-005460D01*
X005910Y-005530D01*
X005950Y-005590D01*
X006010Y-005630D01*
X006080Y-005644D01*
X006107Y-005638D01*
X006143Y-005673D01*
X006137Y-005700D01*
X006151Y-005770D01*
X006191Y-005830D01*
X006230Y-005856D01*
X006216Y-005904D01*
X004970D01*
X004965Y-005897D01*
X004905Y-005857D01*
X004835Y-005843D01*
X004765Y-005857D01*
X004705Y-005897D01*
X004665Y-005956D01*
X004651Y-006026D01*
X004665Y-006097D01*
X004671Y-006105D01*
X004648Y-006149D01*
X002913D01*
X002749Y-005986D01*
X002710Y-005959D01*
X002663Y-005950D01*
X002266D01*
X002261Y-005942D01*
X002202Y-005903D01*
X002131Y-005889D01*
X002061Y-005903D01*
X002002Y-005942D01*
X001962Y-006002D01*
X001948Y-006072D01*
X001962Y-006142D01*
X002002Y-006202D01*
X002061Y-006242D01*
X002131Y-006256D01*
X002202Y-006242D01*
X002261Y-006202D01*
X002266Y-006194D01*
X002612D01*
X002715Y-006297D01*
X002696Y-006343D01*
X002653D01*
X002606Y-006353D01*
X002567Y-006379D01*
X002494Y-006451D01*
X002486Y-006450D01*
X002415Y-006464D01*
X002356Y-006503D01*
X002316Y-006563D01*
X002302Y-006633D01*
X002316Y-006703D01*
X002356Y-006763D01*
X002415Y-006803D01*
X002486Y-006817D01*
X002556Y-006803D01*
X002615Y-006763D01*
X002655Y-006703D01*
X002669Y-006633D01*
X002667Y-006624D01*
X002704Y-006588D01*
X005393D01*
X005417Y-006632D01*
X005389Y-006674D01*
X005375Y-006744D01*
X005389Y-006814D01*
X005429Y-006874D01*
X005489Y-006913D01*
X005559Y-006927D01*
X005629Y-006913D01*
X005689Y-006874D01*
X005694Y-006866D01*
X013363D01*
X013570Y-007074D01*
X013594Y-007090D01*
X013610Y-007100D01*
X013657Y-007110D01*
X013833D01*
X013836Y-007160D01*
X013844Y-007159D01*
X013852Y-007160D01*
X013855Y-007113D01*
X013855Y-007110D01*
X014021D01*
X014068Y-007100D01*
X014108Y-007074D01*
X014343Y-006839D01*
X014389Y-006858D01*
Y-008098D01*
X011801D01*
Y-008095D01*
X011572Y-008113D01*
X011349Y-008167D01*
X011137Y-008255D01*
X010942Y-008374D01*
X010768Y-008523D01*
X010619Y-008698D01*
X010499Y-008893D01*
X010411Y-009105D01*
X010358Y-009328D01*
X010340Y-009556D01*
X010358Y-009785D01*
X010411Y-010008D01*
X010499Y-010220D01*
X010619Y-010415D01*
X010768Y-010589D01*
X010942Y-010738D01*
X011137Y-010858D01*
X011349Y-010946D01*
X011572Y-010999D01*
X011801Y-011017D01*
Y-011015D01*
X011801Y-011015D01*
X013139D01*
Y-012345D01*
X013093Y-012364D01*
X012955Y-012227D01*
X012595D01*
X012415Y-012407D01*
Y-013367D01*
X012595Y-013547D01*
X012955D01*
X013093Y-013409D01*
X013139Y-013428D01*
Y-014905D01*
X013093Y-014924D01*
X012955Y-014787D01*
X012595D01*
X012415Y-014967D01*
Y-015927D01*
X012595Y-016107D01*
X012955D01*
X013093Y-015969D01*
X013139Y-015988D01*
Y-019464D01*
X011867D01*
X011853Y-019416D01*
X011862Y-019410D01*
X011961Y-019311D01*
X012005Y-019303D01*
X012064Y-019263D01*
X012104Y-019203D01*
X012118Y-019133D01*
X012104Y-019063D01*
X012080Y-019026D01*
Y-012661D01*
X012118Y-012611D01*
X012148Y-012538D01*
X012158Y-012460D01*
X012148Y-012382D01*
X012118Y-012309D01*
X012070Y-012246D01*
X012007Y-012198D01*
X011934Y-012168D01*
X011856Y-012157D01*
X011777Y-012168D01*
X011704Y-012198D01*
X011642Y-012246D01*
X011594Y-012309D01*
X011563Y-012382D01*
X011553Y-012460D01*
X011563Y-012538D01*
X011594Y-012611D01*
X011642Y-012674D01*
X011652Y-012681D01*
Y-019015D01*
X011622Y-019044D01*
X011073D01*
X011050Y-019000D01*
X011051Y-018999D01*
X011065Y-018928D01*
X011051Y-018858D01*
X011011Y-018799D01*
X011004Y-018794D01*
Y-017804D01*
X010994Y-017758D01*
X010968Y-017718D01*
X009491Y-016242D01*
X009452Y-016215D01*
X009405Y-016206D01*
X009404Y-016196D01*
X009430Y-016189D01*
X009603Y-016118D01*
X009763Y-016020D01*
X009906Y-015898D01*
X010028Y-015755D01*
X010126Y-015595D01*
X010198Y-015422D01*
X010241Y-015239D01*
X010252Y-015102D01*
X009060D01*
Y-015053D01*
X009010D01*
Y-013861D01*
X008873Y-013872D01*
X008691Y-013915D01*
X008518Y-013987D01*
X008358Y-014085D01*
X008215Y-014207D01*
X008093Y-014350D01*
X007995Y-014510D01*
X007972Y-014566D01*
X007923Y-014556D01*
Y-013749D01*
X007914Y-013702D01*
X007903Y-013687D01*
X007887Y-013663D01*
X007707Y-013482D01*
X007709Y-013474D01*
X007695Y-013403D01*
X007655Y-013344D01*
X007595Y-013304D01*
X007525Y-013290D01*
X007544Y-013271D01*
X010163D01*
X010221Y-013310D01*
X010291Y-013324D01*
X010361Y-013310D01*
X010421Y-013270D01*
X010460Y-013210D01*
X010474Y-013140D01*
X010460Y-013070D01*
X010421Y-013010D01*
X010361Y-012971D01*
X010291Y-012957D01*
X010221Y-012971D01*
X010161Y-013010D01*
X010150Y-013027D01*
X004207D01*
X004202Y-013019D01*
X004142Y-012979D01*
X004072Y-012965D01*
X004002Y-012979D01*
X003955Y-013011D01*
X003911Y-012987D01*
Y-012798D01*
X003902Y-012751D01*
X003875Y-012711D01*
X001712Y-010548D01*
Y-010168D01*
X001724Y-010108D01*
X001710Y-010037D01*
X001671Y-009978D01*
X001611Y-009938D01*
X001541Y-009924D01*
X001471Y-009938D01*
X001432Y-009964D01*
X001388Y-009940D01*
Y-009687D01*
X001809Y-009265D01*
X002717Y-009299D01*
X002750Y-009348D01*
X002710Y-009407D01*
X002696Y-009478D01*
X002710Y-009548D01*
X002750Y-009607D01*
X002757Y-009612D01*
Y-010052D01*
X002750Y-010057D01*
X002710Y-010116D01*
X002696Y-010186D01*
X002710Y-010257D01*
X002750Y-010316D01*
X002809Y-010356D01*
X002879Y-010370D01*
X002950Y-010356D01*
X003009Y-010316D01*
X003049Y-010257D01*
X003063Y-010186D01*
X003051Y-010126D01*
X003095Y-010103D01*
X003147Y-010155D01*
X003187Y-010181D01*
X003234Y-010191D01*
X003637D01*
X003684Y-010181D01*
X003724Y-010155D01*
X003724Y-010155D01*
X003724Y-010155D01*
X003756Y-010122D01*
X003765Y-010124D01*
X003835Y-010110D01*
X003895Y-010070D01*
X003935Y-010010D01*
X003949Y-009940D01*
X003935Y-009870D01*
X003895Y-009810D01*
X003835Y-009771D01*
X003765Y-009757D01*
X003695Y-009771D01*
X003636Y-009810D01*
X003595Y-009782D01*
X003604Y-009734D01*
X003590Y-009663D01*
X003550Y-009604D01*
X003543Y-009599D01*
Y-008874D01*
X003550Y-008869D01*
X003590Y-008810D01*
X003604Y-008739D01*
X003590Y-008669D01*
X003550Y-008610D01*
X003491Y-008570D01*
X003421Y-008556D01*
X003350Y-008570D01*
X003291Y-008610D01*
X003251Y-008669D01*
X003237Y-008739D01*
X003251Y-008810D01*
X003291Y-008869D01*
X003298Y-008874D01*
Y-009567D01*
X003258Y-009596D01*
X003242Y-009591D01*
Y-009255D01*
X003232Y-009208D01*
X003206Y-009169D01*
X003094Y-009056D01*
X003054Y-009030D01*
X003007Y-009021D01*
X001758D01*
X001711Y-009030D01*
X001672Y-009056D01*
X001179Y-009549D01*
X001152Y-009589D01*
X001143Y-009636D01*
Y-010258D01*
X001135Y-010263D01*
X001096Y-010323D01*
X001082Y-010393D01*
X001094Y-010453D01*
X001050Y-010477D01*
X000777Y-010204D01*
Y-010193D01*
X000785Y-010188D01*
X000825Y-010129D01*
X000839Y-010058D01*
X000825Y-009988D01*
X000785Y-009929D01*
X000725Y-009889D01*
X000655Y-009875D01*
X000585Y-009889D01*
X000525Y-009929D01*
X000485Y-009988D01*
X000471Y-010058D01*
X000485Y-010129D01*
X000525Y-010188D01*
X000533Y-010193D01*
Y-010255D01*
X000533Y-010255D01*
X000533D01*
X000542Y-010302D01*
X000568Y-010342D01*
X001715Y-011488D01*
X001683Y-011527D01*
X001660Y-011511D01*
X001590Y-011497D01*
X001520Y-011511D01*
X001460Y-011551D01*
X001420Y-011611D01*
X001407Y-011681D01*
X001411Y-011702D01*
X001131Y-011982D01*
X-000155D01*
X-000155Y-011982D01*
X-000198Y-011990D01*
X-000235Y-012014D01*
X-000235Y-012014D01*
X-000316Y-012096D01*
X-000422D01*
X-000615Y-011902D01*
X-000652Y-011878D01*
X-000695Y-011869D01*
X-000702Y-011834D01*
X-000634Y-011766D01*
X-000613Y-011770D01*
X-000542Y-011756D01*
X-000483Y-011716D01*
X-000443Y-011657D01*
X-000429Y-011586D01*
X-000443Y-011516D01*
X-000483Y-011457D01*
X-000542Y-011417D01*
X-000613Y-011403D01*
X-000683Y-011417D01*
X-000743Y-011457D01*
X-000782Y-011516D01*
X-000793Y-011569D01*
X-000843D01*
X-000856Y-011504D01*
X-000895Y-011444D01*
X-000955Y-011404D01*
X-001025Y-011390D01*
X-001095Y-011404D01*
X-001155Y-011444D01*
X-001195Y-011504D01*
X-001204Y-011549D01*
X-002316D01*
X-002336Y-011503D01*
X-002216Y-011383D01*
X-002216Y-011383D01*
X-002192Y-011347D01*
X-002192Y-011347D01*
X-002192Y-011347D01*
X-002183Y-011304D01*
X-002183Y-011304D01*
Y-011260D01*
X-002165Y-011249D01*
X-002126Y-011189D01*
X-002112Y-011119D01*
X-002126Y-011049D01*
X-002165Y-010989D01*
X-002225Y-010949D01*
X-002295Y-010935D01*
X-002305Y-010917D01*
X-002133Y-010745D01*
X-002106Y-010706D01*
X-002106Y-010706D01*
X-002106Y-010706D01*
X-002097Y-010659D01*
Y-008141D01*
X-001981Y-008025D01*
X-000927D01*
X-000922Y-008033D01*
X-000862Y-008072D01*
X-000792Y-008086D01*
X-000722Y-008072D01*
X-000718Y-008070D01*
X-000674Y-008094D01*
Y-009618D01*
X-000674Y-009618D01*
X-000674D01*
X-000665Y-009665D01*
X-000638Y-009704D01*
X-000383Y-009960D01*
Y-010081D01*
X-000390Y-010086D01*
X-000430Y-010146D01*
X-000444Y-010216D01*
X-000430Y-010286D01*
X-000390Y-010346D01*
X-000331Y-010385D01*
X-000260Y-010399D01*
X-000190Y-010385D01*
X-000131Y-010346D01*
X-000091Y-010286D01*
X-000077Y-010216D01*
X-000091Y-010146D01*
X-000104Y-010126D01*
X-000068Y-010091D01*
X-000055Y-010100D01*
X000015Y-010114D01*
X000085Y-010100D01*
X000145Y-010060D01*
X000185Y-010001D01*
X000199Y-009930D01*
X000185Y-009860D01*
X000145Y-009801D01*
X000085Y-009761D01*
X000015Y-009747D01*
X000006Y-009749D01*
X-000250Y-009493D01*
Y-003749D01*
X-000190Y-003689D01*
X-000163Y-003649D01*
X-000154Y-003603D01*
X-000154Y-003603D01*
X-000154Y-003603D01*
Y-003603D01*
Y-002681D01*
X000034Y-002492D01*
X003784D01*
X003840Y-002530D01*
X003910Y-002544D01*
X003980Y-002530D01*
X004040Y-002490D01*
X004080Y-002430D01*
X004094Y-002360D01*
X004080Y-002290D01*
X004040Y-002230D01*
X003980Y-002190D01*
X003910Y-002176D01*
X003840Y-002190D01*
X003780Y-002230D01*
X003769Y-002248D01*
X-000016D01*
X-000063Y-002257D01*
X-000079Y-002268D01*
X-000103Y-002283D01*
X-000363Y-002543D01*
X-000389Y-002583D01*
X-000399Y-002630D01*
Y-003552D01*
X-000458Y-003612D01*
X-000485Y-003651D01*
X-000494Y-003698D01*
Y-007091D01*
X-000540Y-007110D01*
X-003456Y-004194D01*
X-003496Y-004168D01*
X-003543Y-004158D01*
X-004533D01*
X-004557Y-004114D01*
X-004552Y-004108D01*
X-004538Y-004038D01*
X-004552Y-003967D01*
X-004592Y-003908D01*
X-004652Y-003868D01*
X-004722Y-003854D01*
X-004792Y-003868D01*
X-004840Y-003900D01*
X-004914D01*
X-006333Y-002481D01*
X-006378Y-002451D01*
X-006431Y-002440D01*
X-007182D01*
Y-001999D01*
X-007192Y-001946D01*
X-007222Y-001902D01*
X-007785Y-001339D01*
X-007829Y-001309D01*
X-007882Y-001299D01*
X-008963D01*
X-009887Y-000375D01*
Y003838D01*
X-009897Y003891D01*
X-009909Y003909D01*
X-009927Y003935D01*
X-009927Y003935D01*
X-011100Y005109D01*
X-011145Y005139D01*
X-011198Y005149D01*
X-011572D01*
X-013725Y007302D01*
Y008259D01*
X-013693Y008306D01*
X-013679Y008377D01*
X-013693Y008447D01*
X-013725Y008495D01*
Y017055D01*
X-013685Y017115D01*
X-013671Y017185D01*
X-013685Y017255D01*
X-013725Y017315D01*
X-013785Y017355D01*
X-013855Y017369D01*
X-013925Y017355D01*
X-013985Y017315D01*
X-014025Y017255D01*
X-014039Y017185D01*
X-014025Y017115D01*
X-014000Y017079D01*
Y008495D01*
X-014032Y008447D01*
X-014046Y008377D01*
X-014032Y008306D01*
X-014000Y008259D01*
Y007245D01*
X-014000Y007245D01*
X-014000D01*
X-013990Y007192D01*
X-013960Y007147D01*
X-011727Y004914D01*
X-011727D01*
X-011727Y004914D01*
X-011727Y004914D01*
Y004914D01*
X-011682Y004884D01*
X-011629Y004874D01*
X-011605D01*
X-011583Y004829D01*
X-011615Y004788D01*
X-011645Y004715D01*
X-011655Y004637D01*
X-011655Y004635D01*
X-011661Y004632D01*
X-011707Y004562D01*
X-011723Y004480D01*
Y-001378D01*
X-011707Y-001460D01*
X-011707Y-001460D01*
X-011707Y-001460D01*
X-011661Y-001530D01*
X-010927Y-002263D01*
Y-003381D01*
X-010965Y-003431D01*
X-010996Y-003504D01*
X-011006Y-003582D01*
X-010996Y-003660D01*
X-010965Y-003733D01*
X-010917Y-003796D01*
X-010855Y-003844D01*
X-010782Y-003874D01*
X-010703Y-003885D01*
X-010625Y-003874D01*
X-010552Y-003844D01*
X-010489Y-003796D01*
X-010441Y-003733D01*
X-010411Y-003660D01*
X-010401Y-003582D01*
X-010411Y-003504D01*
X-010441Y-003431D01*
X-010489Y-003368D01*
X-010499Y-003361D01*
Y-002174D01*
X-010515Y-002093D01*
X-010541Y-002054D01*
X-010502Y-002022D01*
X-008453Y-004072D01*
X-008453D01*
X-008453Y-004072D01*
X-008453D01*
X-008453Y-004072D01*
Y-004072D01*
X-008453Y-004072D01*
Y-004072D01*
X-008413Y-004099D01*
X-008366Y-004108D01*
X-007314D01*
Y-004940D01*
X-007294Y-004986D01*
X-007249Y-005005D01*
X-006835D01*
X-006789Y-004986D01*
X-006770Y-004940D01*
Y-004846D01*
X-006463D01*
X-006377Y-004932D01*
Y-009914D01*
X-006423Y-009933D01*
X-008018Y-008338D01*
X-008058Y-008311D01*
X-008105Y-008302D01*
X-009752D01*
X-009757Y-008295D01*
X-009816Y-008255D01*
X-009886Y-008241D01*
X-009957Y-008255D01*
X-010016Y-008295D01*
X-010056Y-008354D01*
X-010070Y-008424D01*
X-010056Y-008495D01*
X-010016Y-008554D01*
X-009957Y-008594D01*
X-009886Y-008608D01*
X-009816Y-008594D01*
X-009757Y-008554D01*
X-009752Y-008547D01*
X-008156D01*
X-005698Y-011004D01*
X-005700Y-011013D01*
X-005686Y-011083D01*
X-005646Y-011143D01*
X-005587Y-011183D01*
X-005516Y-011197D01*
X-005446Y-011183D01*
X-005387Y-011143D01*
X-005347Y-011083D01*
X-005346Y-011079D01*
X-005298Y-011065D01*
X-005192Y-011171D01*
Y-011236D01*
X-005236Y-011259D01*
X-005239Y-011257D01*
X-005310Y-011243D01*
X-005380Y-011257D01*
X-005439Y-011297D01*
X-005444Y-011304D01*
X-011737D01*
X-011784Y-011313D01*
X-011823Y-011340D01*
X-012546Y-012062D01*
X-012572Y-012102D01*
X-012581Y-012149D01*
Y-018567D01*
X-012795D01*
Y-019278D01*
X-012084D01*
Y-018567D01*
X-012337D01*
Y-012199D01*
X-011686Y-011549D01*
X-005444D01*
X-005439Y-011556D01*
X-005380Y-011596D01*
X-005310Y-011610D01*
X-005239Y-011596D01*
X-005236Y-011594D01*
X-005192Y-011617D01*
Y-014470D01*
X-005359Y-014637D01*
X-005368Y-014635D01*
X-005438Y-014649D01*
X-005498Y-014689D01*
X-005537Y-014749D01*
X-005551Y-014819D01*
X-005537Y-014889D01*
X-005535Y-014893D01*
X-005559Y-014937D01*
X-006355D01*
X-006626Y-014666D01*
X-006622Y-014645D01*
X-006636Y-014575D01*
X-006676Y-014515D01*
X-006735Y-014475D01*
X-006806Y-014461D01*
X-006876Y-014475D01*
X-006935Y-014515D01*
X-006975Y-014575D01*
X-006989Y-014645D01*
X-006975Y-014715D01*
X-006935Y-014775D01*
X-006876Y-014814D01*
X-006806Y-014828D01*
X-006785Y-014824D01*
X-006481Y-015128D01*
X-006481Y-015128D01*
X-006445Y-015152D01*
X-006402Y-015161D01*
X-006402Y-015161D01*
X-005529D01*
X-005510Y-015207D01*
X-005970Y-015667D01*
X-005994Y-015703D01*
X-006002Y-015746D01*
X-006002Y-015746D01*
Y-015751D01*
X-006003Y-015752D01*
X-006013Y-015799D01*
Y-018323D01*
X-006290Y-018600D01*
X-006347Y-018576D01*
X-006440Y-018564D01*
X-006532Y-018576D01*
X-006619Y-018612D01*
X-006693Y-018669D01*
X-006750Y-018743D01*
X-006786Y-018830D01*
X-006798Y-018922D01*
X-006786Y-019015D01*
X-006750Y-019102D01*
X-006693Y-019176D01*
X-006619Y-019233D01*
X-006614Y-019235D01*
X-006624Y-019284D01*
X-007255D01*
X-007265Y-019235D01*
X-007260Y-019233D01*
X-007186Y-019176D01*
X-007129Y-019102D01*
X-007093Y-019015D01*
X-007088Y-018973D01*
X-007791D01*
X-007786Y-019015D01*
X-007750Y-019102D01*
X-007693Y-019176D01*
X-007619Y-019233D01*
X-007614Y-019235D01*
X-007624Y-019284D01*
X-008255D01*
X-008265Y-019235D01*
X-008260Y-019233D01*
X-008186Y-019176D01*
X-008129Y-019102D01*
X-008093Y-019015D01*
X-008081Y-018922D01*
X-008093Y-018830D01*
X-008129Y-018743D01*
X-008186Y-018669D01*
X-008260Y-018612D01*
X-008347Y-018576D01*
X-008440Y-018564D01*
X-008532Y-018576D01*
X-008619Y-018612D01*
X-008693Y-018669D01*
X-008750Y-018743D01*
X-008786Y-018830D01*
X-008798Y-018922D01*
X-008786Y-019015D01*
X-008750Y-019102D01*
X-008693Y-019176D01*
X-008619Y-019233D01*
X-008614Y-019235D01*
X-008624Y-019284D01*
X-009255D01*
X-009265Y-019235D01*
X-009260Y-019233D01*
X-009186Y-019176D01*
X-009129Y-019102D01*
X-009093Y-019015D01*
X-009081Y-018922D01*
X-009093Y-018830D01*
X-009129Y-018743D01*
X-009186Y-018669D01*
X-009260Y-018612D01*
X-009347Y-018576D01*
X-009440Y-018564D01*
X-009532Y-018576D01*
X-009619Y-018612D01*
X-009693Y-018669D01*
X-009750Y-018743D01*
X-009786Y-018830D01*
X-009798Y-018922D01*
X-009786Y-019015D01*
X-009750Y-019102D01*
X-009693Y-019176D01*
X-009619Y-019233D01*
X-009614Y-019235D01*
X-009624Y-019284D01*
X-010255D01*
X-010265Y-019235D01*
X-010260Y-019233D01*
X-010186Y-019176D01*
X-010129Y-019102D01*
X-010093Y-019015D01*
X-010088Y-018973D01*
X-010791D01*
X-010786Y-019015D01*
X-010750Y-019102D01*
X-010693Y-019176D01*
X-010619Y-019233D01*
X-010614Y-019235D01*
X-010624Y-019284D01*
X-010905D01*
X-011117Y-019072D01*
X-011093Y-019015D01*
X-011081Y-018922D01*
X-011093Y-018830D01*
X-011129Y-018743D01*
X-011186Y-018669D01*
X-011260Y-018612D01*
X-011347Y-018576D01*
X-011440Y-018564D01*
X-011532Y-018576D01*
X-011619Y-018612D01*
X-011693Y-018669D01*
X-011750Y-018743D01*
X-011786Y-018830D01*
X-011798Y-018922D01*
X-011786Y-019015D01*
X-011750Y-019102D01*
X-011693Y-019176D01*
X-011619Y-019233D01*
X-011532Y-019269D01*
X-011440Y-019281D01*
X-011347Y-019269D01*
X-011290Y-019245D01*
X-011117Y-019418D01*
X-011136Y-019464D01*
X-013140D01*
Y-011015D01*
X-011802D01*
X-011802Y-011015D01*
Y-011017D01*
X-011573Y-010999D01*
X-011350Y-010946D01*
X-011138Y-010858D01*
X-010943Y-010738D01*
X-010769Y-010589D01*
X-010620Y-010415D01*
X-010500Y-010220D01*
X-010412Y-010008D01*
X-010359Y-009785D01*
X-010341Y-009556D01*
X-010359Y-009328D01*
X-010412Y-009105D01*
X-010500Y-008893D01*
X-010620Y-008698D01*
X-010769Y-008523D01*
X-010943Y-008374D01*
X-011138Y-008255D01*
X-011350Y-008167D01*
X-011573Y-008113D01*
X-011802Y-008095D01*
Y-008098D01*
X-014390D01*
Y019577D01*
X-014390Y019577D01*
X-014390Y019577D01*
Y019577D01*
Y022320D01*
X-011802D01*
Y022317D01*
X-011573Y022335D01*
X-011350Y022389D01*
X-011138Y022477D01*
X-010943Y022596D01*
X-010769Y022745D01*
X-010620Y022920D01*
X-010500Y023115D01*
X-010412Y023327D01*
X-010359Y023550D01*
X-010341Y023778D01*
X-010359Y024007D01*
X-010412Y024230D01*
X-010500Y024442D01*
X-010620Y024637D01*
X-010769Y024811D01*
X-010943Y024960D01*
X-011138Y025080D01*
X-011350Y025168D01*
X-011573Y025221D01*
X-011802Y025239D01*
Y025237D01*
X-013241D01*
Y033487D01*
X-013242Y033494D01*
X-013223Y033736D01*
X-013165Y033980D01*
X-013069Y034211D01*
X-012938Y034424D01*
X-012776Y034615D01*
X-012585Y034777D01*
X-012372Y034908D01*
X-012141Y035004D01*
X-011898Y035062D01*
X-011656Y035081D01*
X-011648Y035080D01*
D02*
G37*
G36*
X-000825Y-012946D02*
X-000825Y-012946D01*
X-000788Y-012970D01*
X-000788Y-012970D01*
X-000788Y-012970D01*
D01*
X-000788Y-012970D01*
X-000788Y-012970D01*
X-000745Y-012978D01*
X-000745Y-012978D01*
X000458D01*
X000615Y-013135D01*
X000596Y-013182D01*
X-000345D01*
X-000346Y-013181D01*
X-000393Y-013171D01*
X-000440Y-013181D01*
X-000479Y-013207D01*
X-000839Y-013567D01*
X-000848Y-013565D01*
X-000918Y-013579D01*
X-000978Y-013619D01*
X-001017Y-013679D01*
X-001031Y-013749D01*
X-001017Y-013819D01*
X-000978Y-013879D01*
X-000918Y-013918D01*
X-000848Y-013932D01*
X-000777Y-013918D01*
X-000718Y-013879D01*
X-000678Y-013819D01*
X-000664Y-013749D01*
X-000666Y-013740D01*
X-000332Y-013406D01*
X000646D01*
X000910Y-013671D01*
X000910Y-013671D01*
X000947Y-013695D01*
X000990Y-013703D01*
X000990Y-013703D01*
X003459D01*
X003460Y-013704D01*
X003507Y-013714D01*
X003554Y-013704D01*
X003594Y-013678D01*
X003875Y-013396D01*
X003902Y-013357D01*
X003911Y-013310D01*
X003989Y-013310D01*
X004002Y-013318D01*
X004072Y-013332D01*
X004142Y-013318D01*
X004202Y-013279D01*
X004207Y-013271D01*
X007418D01*
X007432Y-013319D01*
X007395Y-013344D01*
X007355Y-013403D01*
X007342Y-013474D01*
X007355Y-013544D01*
X007395Y-013603D01*
X007455Y-013643D01*
X007525Y-013657D01*
X007534Y-013655D01*
X007678Y-013800D01*
Y-014770D01*
X007012D01*
Y-015481D01*
X007153D01*
Y-016015D01*
X004809D01*
X004727Y-016032D01*
X004657Y-016078D01*
X004611Y-016148D01*
X004594Y-016230D01*
X004611Y-016312D01*
X004657Y-016381D01*
X004727Y-016427D01*
X004809Y-016444D01*
X007279D01*
X008496Y-017661D01*
X008565Y-017707D01*
X008565Y-017707D01*
X008565Y-017707D01*
D01*
X008565Y-017707D01*
X008565Y-017707D01*
X008647Y-017723D01*
X009060D01*
Y-017864D01*
X009467D01*
X010011Y-018408D01*
Y-019064D01*
X010027Y-019146D01*
X010027Y-019146D01*
X010027Y-019146D01*
X010073Y-019215D01*
X010268Y-019410D01*
X010277Y-019416D01*
X010263Y-019464D01*
X001718D01*
Y-018610D01*
X001007D01*
Y-019464D01*
X-000282D01*
Y-018610D01*
X-000993D01*
Y-019464D01*
X-006155D01*
X-006174Y-019418D01*
X-005531Y-018775D01*
X-005505Y-018735D01*
X-005495Y-018688D01*
Y-016589D01*
X-005448Y-016575D01*
X-005425Y-016609D01*
X-005365Y-016648D01*
X-005295Y-016662D01*
X-005225Y-016648D01*
X-005165Y-016609D01*
X-005126Y-016549D01*
X-005112Y-016479D01*
X-005126Y-016409D01*
X-005165Y-016349D01*
X-005173Y-016344D01*
Y-015658D01*
X-005156Y-015641D01*
X-005074D01*
X-005074Y-015641D01*
X-005031Y-015632D01*
X-004994Y-015608D01*
X-004834Y-015447D01*
X-004787Y-015466D01*
Y-015640D01*
X-004805Y-015652D01*
X-004845Y-015711D01*
X-004859Y-015781D01*
X-004845Y-015852D01*
X-004805Y-015911D01*
X-004745Y-015951D01*
X-004675Y-015965D01*
X-004605Y-015951D01*
X-004545Y-015911D01*
X-004506Y-015852D01*
X-004492Y-015781D01*
X-004506Y-015711D01*
X-004545Y-015652D01*
X-004563Y-015640D01*
Y-015415D01*
X-004306Y-015158D01*
X-004258Y-015173D01*
X-004250Y-015217D01*
X-004210Y-015276D01*
X-004150Y-015316D01*
X-004080Y-015330D01*
X-004010Y-015316D01*
X-003950Y-015276D01*
X-003911Y-015217D01*
X-003897Y-015146D01*
X-003901Y-015125D01*
X-003454Y-014678D01*
X-001322D01*
X-001310Y-014696D01*
X-001292Y-014708D01*
Y-014931D01*
X-001292Y-014931D01*
X-001284Y-014974D01*
X-001260Y-015011D01*
X-000855Y-015416D01*
X-000859Y-015436D01*
X-000845Y-015507D01*
X-000805Y-015566D01*
X-000745Y-015606D01*
X-000675Y-015620D01*
X-000605Y-015606D01*
X-000545Y-015566D01*
X-000506Y-015507D01*
X-000492Y-015436D01*
X-000506Y-015366D01*
X-000545Y-015307D01*
X-000605Y-015267D01*
X-000675Y-015253D01*
X-000696Y-015257D01*
X-001068Y-014885D01*
Y-014708D01*
X-001050Y-014696D01*
X-001011Y-014637D01*
X-001005Y-014608D01*
X001431D01*
X001612Y-014790D01*
Y-014907D01*
X001595Y-014919D01*
X001555Y-014978D01*
X001541Y-015048D01*
X001555Y-015119D01*
X001595Y-015178D01*
X001654Y-015218D01*
X001725Y-015232D01*
X001795Y-015218D01*
X001854Y-015178D01*
X001894Y-015119D01*
X001908Y-015048D01*
X001894Y-014978D01*
X001854Y-014919D01*
X001837Y-014907D01*
Y-014744D01*
X001837Y-014744D01*
X001828Y-014701D01*
X001804Y-014664D01*
X001804Y-014664D01*
X001589Y-014450D01*
Y-014413D01*
X001746Y-014256D01*
X001767Y-014260D01*
X001838Y-014246D01*
X001897Y-014206D01*
X001937Y-014147D01*
X001951Y-014076D01*
X001937Y-014006D01*
X001897Y-013947D01*
X001838Y-013907D01*
X001767Y-013893D01*
X001697Y-013907D01*
X001637Y-013947D01*
X001598Y-014006D01*
X001584Y-014076D01*
X001588Y-014097D01*
X001398Y-014287D01*
X001374Y-014323D01*
X001365Y-014366D01*
X001276Y-014384D01*
X-001110D01*
X-001110Y-014384D01*
X-001142Y-014390D01*
X-001180Y-014383D01*
X-001250Y-014397D01*
X-001310Y-014437D01*
X-001322Y-014454D01*
X-003500D01*
X-003500Y-014454D01*
X-003543Y-014463D01*
X-003566Y-014418D01*
X-001884Y-012736D01*
X-001034D01*
X-000825Y-012946D01*
D02*
G37*
%LPC*%
G36*
X013143Y-007111D02*
X013073Y-007125D01*
X013013Y-007165D01*
X012973Y-007224D01*
X012960Y-007295D01*
X012961Y-007303D01*
X012520Y-007745D01*
X009469D01*
X009456Y-007725D01*
X009396Y-007686D01*
X009326Y-007672D01*
X009256Y-007686D01*
X009196Y-007725D01*
X009184Y-007745D01*
X007049D01*
X007002Y-007754D01*
X006962Y-007781D01*
X005053Y-009690D01*
X005045Y-009688D01*
X004975Y-009702D01*
X004915Y-009742D01*
X004875Y-009801D01*
X004861Y-009871D01*
X004875Y-009942D01*
X004915Y-010001D01*
X004975Y-010041D01*
X005045Y-010055D01*
X005115Y-010041D01*
X005175Y-010001D01*
X005214Y-009942D01*
X005228Y-009871D01*
X005227Y-009863D01*
X007100Y-007990D01*
X009203D01*
X009256Y-008025D01*
X009326Y-008039D01*
X009396Y-008025D01*
X009449Y-007990D01*
X012570D01*
X012617Y-007980D01*
X012657Y-007954D01*
X012657Y-007954D01*
X012657Y-007954D01*
X013134Y-007476D01*
X013143Y-007478D01*
X013213Y-007464D01*
X013273Y-007424D01*
X013313Y-007365D01*
X013327Y-007295D01*
X013313Y-007224D01*
X013273Y-007165D01*
X013213Y-007125D01*
X013143Y-007111D01*
D02*
G37*
G36*
X014196Y-007567D02*
X013894D01*
Y-007869D01*
X013937Y-007863D01*
X014023Y-007827D01*
X014097Y-007770D01*
X014154Y-007696D01*
X014190Y-007610D01*
X014196Y-007567D01*
D02*
G37*
G36*
X-008302Y-005583D02*
X-008372Y-005597D01*
X-008431Y-005637D01*
X-008471Y-005697D01*
X-008485Y-005767D01*
X-008471Y-005837D01*
X-008431Y-005897D01*
X-008424Y-005902D01*
Y-007094D01*
X-008632Y-007302D01*
X-010659D01*
X-010699Y-007262D01*
X-010697Y-007253D01*
X-010711Y-007183D01*
X-010751Y-007123D01*
X-010810Y-007084D01*
X-010880Y-007070D01*
X-010951Y-007084D01*
X-011010Y-007123D01*
X-011050Y-007183D01*
X-011064Y-007253D01*
X-011050Y-007323D01*
X-011010Y-007383D01*
X-010951Y-007423D01*
X-010880Y-007437D01*
X-010872Y-007435D01*
X-010796Y-007511D01*
X-010756Y-007537D01*
X-010709Y-007547D01*
X-008581D01*
X-008534Y-007537D01*
X-008495Y-007511D01*
X-008495Y-007511D01*
X-008495Y-007511D01*
X-008215Y-007231D01*
X-008189Y-007192D01*
X-008179Y-007145D01*
X-008179Y-007145D01*
X-008179Y-007145D01*
Y-007145D01*
Y-005902D01*
X-008172Y-005897D01*
X-008132Y-005837D01*
X-008118Y-005767D01*
X-008132Y-005697D01*
X-008172Y-005637D01*
X-008231Y-005597D01*
X-008302Y-005583D01*
D02*
G37*
G36*
X-013607Y-005574D02*
X-013677Y-005588D01*
X-013737Y-005627D01*
X-013776Y-005687D01*
X-013790Y-005757D01*
X-013776Y-005827D01*
X-013737Y-005887D01*
X-013677Y-005927D01*
X-013607Y-005941D01*
X-013598Y-005939D01*
X-013428Y-006109D01*
X-013388Y-006136D01*
X-013388Y-006136D01*
X-013388Y-006136D01*
D01*
X-013388Y-006136D01*
X-013388Y-006136D01*
X-013341Y-006145D01*
X-012511D01*
X-012506Y-006153D01*
X-012447Y-006192D01*
X-012377Y-006206D01*
X-012306Y-006192D01*
X-012247Y-006153D01*
X-012207Y-006093D01*
X-012193Y-006023D01*
X-012207Y-005953D01*
X-012247Y-005893D01*
X-012306Y-005853D01*
X-012377Y-005839D01*
X-012447Y-005853D01*
X-012506Y-005893D01*
X-012511Y-005901D01*
X-013290D01*
X-013425Y-005766D01*
X-013423Y-005757D01*
X-013437Y-005687D01*
X-013477Y-005627D01*
X-013537Y-005588D01*
X-013607Y-005574D01*
D02*
G37*
G36*
X013794Y-007165D02*
X013751Y-007171D01*
X013665Y-007207D01*
X013591Y-007264D01*
X013534Y-007338D01*
X013498Y-007424D01*
X013492Y-007467D01*
X013794D01*
Y-007165D01*
D02*
G37*
G36*
X013894D02*
Y-007467D01*
X014196D01*
X014190Y-007424D01*
X014154Y-007338D01*
X014097Y-007264D01*
X014023Y-007207D01*
X013937Y-007171D01*
X013894Y-007165D01*
D02*
G37*
G36*
X013794Y-007567D02*
X013492D01*
X013498Y-007610D01*
X013534Y-007696D01*
X013591Y-007770D01*
X013665Y-007827D01*
X013751Y-007863D01*
X013794Y-007869D01*
Y-007567D01*
D02*
G37*
G36*
X010945Y-012227D02*
X010815D01*
X010635Y-012407D01*
Y-012837D01*
X010945D01*
Y-012227D01*
D02*
G37*
G36*
X011175D02*
X011045D01*
Y-012837D01*
X011355D01*
Y-012407D01*
X011175Y-012227D01*
D02*
G37*
G36*
X010945Y-012937D02*
X010635D01*
Y-013367D01*
X010815Y-013547D01*
X010945D01*
Y-012937D01*
D02*
G37*
G36*
X011355D02*
X011045D01*
Y-013547D01*
X011175D01*
X011355Y-013367D01*
Y-012937D01*
D02*
G37*
G36*
X006295Y-010554D02*
X006225Y-010568D01*
X006165Y-010608D01*
X006125Y-010667D01*
X006111Y-010737D01*
X006125Y-010808D01*
X006165Y-010867D01*
X006225Y-010907D01*
X006295Y-010921D01*
X006303Y-010919D01*
X006615Y-011231D01*
Y-012193D01*
X006596Y-012223D01*
X006582Y-012293D01*
X006596Y-012363D01*
X006635Y-012423D01*
X006695Y-012462D01*
X006765Y-012476D01*
X006835Y-012462D01*
X006895Y-012423D01*
X006935Y-012363D01*
X006949Y-012293D01*
X006935Y-012223D01*
X006895Y-012163D01*
X006860Y-012140D01*
Y-011180D01*
X006851Y-011134D01*
X006824Y-011094D01*
X006477Y-010746D01*
X006478Y-010737D01*
X006464Y-010667D01*
X006425Y-010608D01*
X006365Y-010568D01*
X006295Y-010554D01*
D02*
G37*
G36*
X-011599Y-006883D02*
X-011669Y-006897D01*
X-011729Y-006936D01*
X-011769Y-006996D01*
X-011782Y-007066D01*
X-011769Y-007136D01*
X-011729Y-007196D01*
X-011721Y-007201D01*
Y-007650D01*
X-011729Y-007655D01*
X-011769Y-007714D01*
X-011782Y-007785D01*
X-011769Y-007855D01*
X-011729Y-007914D01*
X-011669Y-007954D01*
X-011599Y-007968D01*
X-011529Y-007954D01*
X-011469Y-007914D01*
X-011429Y-007855D01*
X-011415Y-007785D01*
X-011429Y-007714D01*
X-011469Y-007655D01*
X-011477Y-007650D01*
Y-007201D01*
X-011469Y-007196D01*
X-011429Y-007136D01*
X-011415Y-007066D01*
X-011429Y-006996D01*
X-011469Y-006936D01*
X-011529Y-006897D01*
X-011599Y-006883D01*
D02*
G37*
G36*
X006462Y-007601D02*
X006392Y-007615D01*
X006332Y-007655D01*
X006312Y-007686D01*
X001901D01*
X001854Y-007695D01*
X001815Y-007722D01*
X001550Y-007987D01*
X001541Y-007985D01*
X001471Y-007999D01*
X001411Y-008039D01*
X001371Y-008098D01*
X001357Y-008169D01*
X001371Y-008239D01*
X001379Y-008250D01*
X001351Y-008291D01*
X001295Y-008280D01*
X001225Y-008294D01*
X001165Y-008334D01*
X001125Y-008394D01*
X001111Y-008464D01*
X001125Y-008534D01*
X001165Y-008594D01*
X001225Y-008633D01*
X001295Y-008647D01*
X001365Y-008633D01*
X001425Y-008594D01*
X001429Y-008586D01*
X001787D01*
X001834Y-008577D01*
X001873Y-008550D01*
X001873Y-008550D01*
X001873Y-008550D01*
X002241Y-008183D01*
X006052D01*
X006057Y-008190D01*
X006116Y-008230D01*
X006186Y-008244D01*
X006257Y-008230D01*
X006316Y-008190D01*
X006356Y-008131D01*
X006370Y-008060D01*
X006356Y-007990D01*
X006355Y-007989D01*
X006390Y-007953D01*
X006392Y-007954D01*
X006462Y-007968D01*
X006532Y-007954D01*
X006592Y-007914D01*
X006632Y-007855D01*
X006646Y-007785D01*
X006632Y-007714D01*
X006592Y-007655D01*
X006532Y-007615D01*
X006462Y-007601D01*
D02*
G37*
G36*
X006557Y-010180D02*
X006487Y-010194D01*
X006427Y-010234D01*
X006423Y-010241D01*
X006085D01*
X006038Y-010251D01*
X005998Y-010277D01*
X004786Y-011490D01*
X004759Y-011529D01*
X004750Y-011576D01*
Y-012279D01*
X004742Y-012284D01*
X004703Y-012344D01*
X004689Y-012414D01*
X004703Y-012484D01*
X004742Y-012544D01*
X004802Y-012583D01*
X004872Y-012597D01*
X004942Y-012583D01*
X005002Y-012544D01*
X005042Y-012484D01*
X005056Y-012414D01*
X005042Y-012344D01*
X005002Y-012284D01*
X004995Y-012279D01*
Y-011627D01*
X006135Y-010486D01*
X006423D01*
X006427Y-010494D01*
X006487Y-010533D01*
X006557Y-010547D01*
X006628Y-010533D01*
X006687Y-010494D01*
X006727Y-010434D01*
X006741Y-010364D01*
X006727Y-010294D01*
X006687Y-010234D01*
X006628Y-010194D01*
X006557Y-010180D01*
D02*
G37*
G36*
X000242Y-002896D02*
X000171Y-002910D01*
X000112Y-002950D01*
X000072Y-003010D01*
X000058Y-003080D01*
X000072Y-003150D01*
X000112Y-003210D01*
X000119Y-003215D01*
Y-008870D01*
X000112Y-008875D01*
X000072Y-008935D01*
X000058Y-009005D01*
X000072Y-009075D01*
X000112Y-009135D01*
X000171Y-009175D01*
X000242Y-009189D01*
X000312Y-009175D01*
X000371Y-009135D01*
X000411Y-009075D01*
X000425Y-009005D01*
X000411Y-008935D01*
X000371Y-008875D01*
X000364Y-008870D01*
Y-003215D01*
X000371Y-003210D01*
X000411Y-003150D01*
X000425Y-003080D01*
X000411Y-003010D01*
X000371Y-002950D01*
X000312Y-002910D01*
X000242Y-002896D01*
D02*
G37*
G36*
X012302Y-001995D02*
X012165Y-002005D01*
X011982Y-002049D01*
X011809Y-002121D01*
X011649Y-002219D01*
X011506Y-002341D01*
X011385Y-002484D01*
X011287Y-002643D01*
X011215Y-002817D01*
X011171Y-002999D01*
X011160Y-003136D01*
X012302D01*
Y-001995D01*
D02*
G37*
G36*
X012402D02*
Y-003136D01*
X013543D01*
X013533Y-002999D01*
X013489Y-002817D01*
X013417Y-002643D01*
X013319Y-002484D01*
X013197Y-002341D01*
X013055Y-002219D01*
X012895Y-002121D01*
X012721Y-002049D01*
X012539Y-002005D01*
X012402Y-001995D01*
D02*
G37*
G36*
X001515Y-002885D02*
X001210D01*
Y-003190D01*
X001515D01*
Y-002885D01*
D02*
G37*
G36*
X001921D02*
X001615D01*
Y-003190D01*
X001921D01*
Y-002885D01*
D02*
G37*
G36*
X-012303Y-001987D02*
Y-003128D01*
X-011161D01*
X-011172Y-002991D01*
X-011216Y-002809D01*
X-011288Y-002636D01*
X-011386Y-002476D01*
X-011507Y-002333D01*
X-011650Y-002211D01*
X-011810Y-002113D01*
X-011983Y-002041D01*
X-012166Y-001998D01*
X-012303Y-001987D01*
D02*
G37*
G36*
X006321Y-000904D02*
X006251Y-000918D01*
X006191Y-000957D01*
X006151Y-001017D01*
X006137Y-001087D01*
X006151Y-001157D01*
X006191Y-001217D01*
X006251Y-001257D01*
X006321Y-001271D01*
X006391Y-001257D01*
X006451Y-001217D01*
X006490Y-001157D01*
X006504Y-001087D01*
X006490Y-001017D01*
X006451Y-000957D01*
X006391Y-000918D01*
X006321Y-000904D01*
D02*
G37*
G36*
X007560Y006834D02*
X007490Y006820D01*
X007430Y006780D01*
X007390Y006720D01*
X007376Y006650D01*
X007390Y006580D01*
X007430Y006520D01*
X007438Y006515D01*
Y002881D01*
X003919Y-000638D01*
X003910Y-000636D01*
X003840Y-000650D01*
X003780Y-000690D01*
X003740Y-000750D01*
X003726Y-000820D01*
X003740Y-000890D01*
X003780Y-000950D01*
X003840Y-000990D01*
X003910Y-001004D01*
X003980Y-000990D01*
X004040Y-000950D01*
X004080Y-000890D01*
X004094Y-000820D01*
X004092Y-000811D01*
X007647Y002743D01*
X007662Y002767D01*
X007673Y002783D01*
X007682Y002830D01*
Y006515D01*
X007690Y006520D01*
X007730Y006580D01*
X007744Y006650D01*
X007730Y006720D01*
X007690Y006780D01*
X007630Y006820D01*
X007560Y006834D01*
D02*
G37*
G36*
X010465Y-002311D02*
X010394Y-002325D01*
X010335Y-002365D01*
X010295Y-002424D01*
X010281Y-002495D01*
X010295Y-002565D01*
X010335Y-002624D01*
X010394Y-002664D01*
X010465Y-002678D01*
X010535Y-002664D01*
X010594Y-002624D01*
X010634Y-002565D01*
X010648Y-002495D01*
X010634Y-002424D01*
X010594Y-002365D01*
X010535Y-002325D01*
X010465Y-002311D01*
D02*
G37*
G36*
X-012403Y-001987D02*
X-012540Y-001998D01*
X-012722Y-002041D01*
X-012896Y-002113D01*
X-013056Y-002211D01*
X-013198Y-002333D01*
X-013271Y-002418D01*
X-013316Y-002396D01*
X-013315Y-002391D01*
X-013329Y-002321D01*
X-013369Y-002261D01*
X-013428Y-002221D01*
X-013499Y-002207D01*
X-013569Y-002221D01*
X-013628Y-002261D01*
X-013668Y-002321D01*
X-013682Y-002391D01*
X-013680Y-002400D01*
X-013782Y-002501D01*
X-013808Y-002541D01*
X-013818Y-002588D01*
Y-003867D01*
X-013818Y-003867D01*
X-013818D01*
X-013808Y-003914D01*
X-013782Y-003954D01*
X-012837Y-004899D01*
X-012813Y-004915D01*
X-012797Y-004925D01*
X-012751Y-004935D01*
X-012019D01*
X-012014Y-004942D01*
X-011955Y-004982D01*
X-011884Y-004996D01*
X-011814Y-004982D01*
X-011755Y-004942D01*
X-011715Y-004882D01*
X-011701Y-004812D01*
X-011715Y-004742D01*
X-011755Y-004682D01*
X-011814Y-004643D01*
X-011884Y-004629D01*
X-011955Y-004643D01*
X-012014Y-004682D01*
X-012019Y-004690D01*
X-012700D01*
X-013573Y-003817D01*
Y-003414D01*
X-013523Y-003409D01*
X-013490Y-003548D01*
X-013418Y-003721D01*
X-013320Y-003881D01*
X-013198Y-004024D01*
X-013056Y-004146D01*
X-012896Y-004244D01*
X-012722Y-004315D01*
X-012540Y-004359D01*
X-012403Y-004370D01*
Y-003179D01*
Y-001987D01*
D02*
G37*
G36*
X001921Y-003290D02*
X001615D01*
Y-003595D01*
X001921D01*
Y-003290D01*
D02*
G37*
G36*
X012302Y-003236D02*
X011160D01*
X011171Y-003373D01*
X011215Y-003556D01*
X011287Y-003729D01*
X011385Y-003889D01*
X011506Y-004032D01*
X011649Y-004154D01*
X011809Y-004252D01*
X011982Y-004323D01*
X012165Y-004367D01*
X012302Y-004378D01*
Y-003236D01*
D02*
G37*
G36*
X013543D02*
X012402D01*
Y-004378D01*
X012539Y-004367D01*
X012721Y-004323D01*
X012895Y-004252D01*
X013055Y-004154D01*
X013197Y-004032D01*
X013319Y-003889D01*
X013417Y-003729D01*
X013489Y-003556D01*
X013533Y-003373D01*
X013543Y-003236D01*
D02*
G37*
G36*
X002565Y-002882D02*
X002473Y-002894D01*
X002386Y-002930D01*
X002312Y-002987D01*
X002255Y-003061D01*
X002219Y-003147D01*
X002207Y-003240D01*
X002219Y-003333D01*
X002255Y-003419D01*
X002312Y-003493D01*
X002386Y-003550D01*
X002473Y-003586D01*
X002565Y-003598D01*
X002658Y-003586D01*
X002715Y-003563D01*
X004756Y-005604D01*
X004795Y-005630D01*
X004842Y-005639D01*
X005185D01*
X005190Y-005647D01*
X005250Y-005687D01*
X005320Y-005701D01*
X005390Y-005687D01*
X005450Y-005647D01*
X005490Y-005587D01*
X005504Y-005517D01*
X005490Y-005447D01*
X005450Y-005387D01*
X005390Y-005347D01*
X005320Y-005333D01*
X005250Y-005347D01*
X005190Y-005387D01*
X005185Y-005395D01*
X004893D01*
X002888Y-003390D01*
X002911Y-003333D01*
X002924Y-003240D01*
X002911Y-003147D01*
X002876Y-003061D01*
X002819Y-002987D01*
X002744Y-002930D01*
X002658Y-002894D01*
X002565Y-002882D01*
D02*
G37*
G36*
X-007095Y010836D02*
X-007174Y010826D01*
X-007247Y010796D01*
X-007309Y010748D01*
X-007357Y010685D01*
X-007388Y010612D01*
X-007398Y010534D01*
X-007388Y010455D01*
X-007357Y010382D01*
X-007309Y010320D01*
X-007304Y010316D01*
Y009330D01*
X-007288Y009248D01*
X-007288Y009248D01*
X-007288Y009248D01*
X-007242Y009179D01*
X007058Y-005121D01*
X007128Y-005168D01*
X007128Y-005168D01*
X007128Y-005168D01*
D01*
X007128Y-005168D01*
X007128Y-005168D01*
X007210Y-005184D01*
X011731D01*
X011793Y-005232D01*
X011866Y-005262D01*
X011944Y-005272D01*
X012023Y-005262D01*
X012096Y-005232D01*
X012158Y-005184D01*
X012206Y-005121D01*
X012237Y-005048D01*
X012247Y-004970D01*
X012237Y-004891D01*
X012206Y-004818D01*
X012158Y-004756D01*
X012096Y-004708D01*
X012023Y-004677D01*
X011944Y-004667D01*
X011866Y-004677D01*
X011793Y-004708D01*
X011731Y-004756D01*
X007298D01*
X-006876Y009419D01*
Y010326D01*
X-006833Y010382D01*
X-006803Y010455D01*
X-006793Y010534D01*
X-006803Y010612D01*
X-006833Y010685D01*
X-006881Y010748D01*
X-006944Y010796D01*
X-007017Y010826D01*
X-007095Y010836D01*
D02*
G37*
G36*
X-011161Y-003228D02*
X-012303D01*
Y-004370D01*
X-012166Y-004359D01*
X-011983Y-004315D01*
X-011810Y-004244D01*
X-011650Y-004146D01*
X-011507Y-004024D01*
X-011386Y-003881D01*
X-011288Y-003721D01*
X-011216Y-003548D01*
X-011172Y-003365D01*
X-011161Y-003228D01*
D02*
G37*
G36*
X004565Y-002882D02*
X004473Y-002894D01*
X004386Y-002930D01*
X004312Y-002987D01*
X004255Y-003061D01*
X004219Y-003147D01*
X004207Y-003240D01*
X004219Y-003333D01*
X004255Y-003419D01*
X004312Y-003493D01*
X004386Y-003550D01*
X004473Y-003586D01*
X004565Y-003598D01*
X004658Y-003586D01*
X004744Y-003550D01*
X004819Y-003493D01*
X004876Y-003419D01*
X004911Y-003333D01*
X004924Y-003240D01*
X004911Y-003147D01*
X004876Y-003061D01*
X004819Y-002987D01*
X004744Y-002930D01*
X004658Y-002894D01*
X004565Y-002882D01*
D02*
G37*
G36*
X001515Y-003290D02*
X001210D01*
Y-003595D01*
X001515D01*
Y-003290D01*
D02*
G37*
G36*
X-005300Y-002916D02*
X-005370Y-002930D01*
X-005430Y-002970D01*
X-005469Y-003029D01*
X-005483Y-003100D01*
X-005469Y-003170D01*
X-005430Y-003229D01*
X-005370Y-003269D01*
X-005300Y-003283D01*
X-005230Y-003269D01*
X-005170Y-003229D01*
X-005165Y-003222D01*
X-004947D01*
X-004328Y-003841D01*
X-004330Y-003849D01*
X-004316Y-003920D01*
X-004276Y-003979D01*
X-004217Y-004019D01*
X-004146Y-004033D01*
X-004076Y-004019D01*
X-004017Y-003979D01*
X-003977Y-003920D01*
X-003963Y-003849D01*
X-003977Y-003779D01*
X-004017Y-003720D01*
X-004076Y-003680D01*
X-004146Y-003666D01*
X-004155Y-003668D01*
X-004810Y-003013D01*
X-004849Y-002987D01*
X-004896Y-002977D01*
X-005165D01*
X-005170Y-002970D01*
X-005230Y-002930D01*
X-005300Y-002916D01*
D02*
G37*
G36*
X003565Y-002882D02*
X003473Y-002894D01*
X003386Y-002930D01*
X003312Y-002987D01*
X003255Y-003061D01*
X003219Y-003147D01*
X003207Y-003240D01*
X003219Y-003333D01*
X003255Y-003419D01*
X003312Y-003493D01*
X003386Y-003550D01*
X003473Y-003586D01*
X003565Y-003598D01*
X003658Y-003586D01*
X003744Y-003550D01*
X003819Y-003493D01*
X003876Y-003419D01*
X003911Y-003333D01*
X003924Y-003240D01*
X003911Y-003147D01*
X003876Y-003061D01*
X003819Y-002987D01*
X003744Y-002930D01*
X003658Y-002894D01*
X003565Y-002882D01*
D02*
G37*
G36*
X-000688Y-017614D02*
X-000993D01*
Y-018510D01*
X-000688D01*
Y-017614D01*
D02*
G37*
G36*
X-000282D02*
X-000588D01*
Y-018510D01*
X-000282D01*
Y-017614D01*
D02*
G37*
G36*
X009365Y-018559D02*
X009063D01*
X009069Y-018602D01*
X009104Y-018688D01*
X009161Y-018763D01*
X009236Y-018819D01*
X009322Y-018855D01*
X009365Y-018861D01*
Y-018559D01*
D02*
G37*
G36*
X009767D02*
X009465D01*
Y-018861D01*
X009508Y-018855D01*
X009594Y-018819D01*
X009668Y-018763D01*
X009725Y-018688D01*
X009761Y-018602D01*
X009767Y-018559D01*
D02*
G37*
G36*
X001312Y-017614D02*
X001007D01*
Y-018510D01*
X001312D01*
Y-017614D01*
D02*
G37*
G36*
X009465Y-018157D02*
Y-018459D01*
X009767D01*
X009761Y-018416D01*
X009725Y-018330D01*
X009668Y-018256D01*
X009594Y-018199D01*
X009508Y-018163D01*
X009465Y-018157D01*
D02*
G37*
G36*
X004927Y-017356D02*
X004842Y-017367D01*
X004762Y-017400D01*
X004694Y-017452D01*
X004642Y-017520D01*
X004609Y-017599D01*
X004598Y-017684D01*
X004609Y-017769D01*
X004642Y-017849D01*
X004694Y-017917D01*
X004762Y-017969D01*
X004842Y-018002D01*
X004927Y-018013D01*
X005012Y-018002D01*
X005091Y-017969D01*
X005159Y-017917D01*
X005211Y-017849D01*
X005244Y-017769D01*
X005255Y-017684D01*
X005244Y-017599D01*
X005211Y-017520D01*
X005159Y-017452D01*
X005091Y-017400D01*
X005012Y-017367D01*
X004927Y-017356D01*
D02*
G37*
G36*
X001718Y-017614D02*
X001412D01*
Y-018510D01*
X001718D01*
Y-017614D01*
D02*
G37*
G36*
X009365Y-018157D02*
X009322Y-018163D01*
X009236Y-018199D01*
X009161Y-018256D01*
X009104Y-018330D01*
X009069Y-018416D01*
X009063Y-018459D01*
X009365D01*
Y-018157D01*
D02*
G37*
G36*
X-007390Y-018571D02*
Y-018872D01*
X-007088D01*
X-007093Y-018830D01*
X-007129Y-018743D01*
X-007186Y-018669D01*
X-007260Y-018612D01*
X-007347Y-018576D01*
X-007390Y-018571D01*
D02*
G37*
G36*
X-003037Y-019035D02*
X-003279D01*
X-003275Y-019063D01*
X-003246Y-019135D01*
X-003198Y-019197D01*
X-003136Y-019244D01*
X-003064Y-019274D01*
X-003037Y-019278D01*
Y-019035D01*
D02*
G37*
G36*
X-002695D02*
X-002937D01*
Y-019278D01*
X-002909Y-019274D01*
X-002837Y-019244D01*
X-002775Y-019197D01*
X-002728Y-019135D01*
X-002698Y-019063D01*
X-002695Y-019035D01*
D02*
G37*
G36*
X-004955Y-018687D02*
X-005033Y-018697D01*
X-005105Y-018727D01*
X-005167Y-018774D01*
X-005214Y-018836D01*
X-005244Y-018908D01*
X-005254Y-018985D01*
X-005244Y-019063D01*
X-005214Y-019135D01*
X-005167Y-019197D01*
X-005105Y-019244D01*
X-005033Y-019274D01*
X-004955Y-019284D01*
X-004878Y-019274D01*
X-004806Y-019244D01*
X-004744Y-019197D01*
X-004697Y-019135D01*
X-004667Y-019063D01*
X-004656Y-018985D01*
X-004667Y-018908D01*
X-004697Y-018836D01*
X-004744Y-018774D01*
X-004806Y-018727D01*
X-004878Y-018697D01*
X-004955Y-018687D01*
D02*
G37*
G36*
X-003971D02*
X-004048Y-018697D01*
X-004120Y-018727D01*
X-004182Y-018774D01*
X-004230Y-018836D01*
X-004260Y-018908D01*
X-004270Y-018985D01*
X-004260Y-019063D01*
X-004230Y-019135D01*
X-004182Y-019197D01*
X-004120Y-019244D01*
X-004048Y-019274D01*
X-003971Y-019284D01*
X-003894Y-019274D01*
X-003822Y-019244D01*
X-003760Y-019197D01*
X-003712Y-019135D01*
X-003682Y-019063D01*
X-003672Y-018985D01*
X-003682Y-018908D01*
X-003712Y-018836D01*
X-003760Y-018774D01*
X-003822Y-018727D01*
X-003894Y-018697D01*
X-003971Y-018687D01*
D02*
G37*
G36*
X-003037Y-018693D02*
X-003064Y-018697D01*
X-003136Y-018727D01*
X-003198Y-018774D01*
X-003246Y-018836D01*
X-003275Y-018908D01*
X-003279Y-018935D01*
X-003037D01*
Y-018693D01*
D02*
G37*
G36*
X-010390Y-018571D02*
Y-018872D01*
X-010088D01*
X-010093Y-018830D01*
X-010129Y-018743D01*
X-010186Y-018669D01*
X-010260Y-018612D01*
X-010347Y-018576D01*
X-010390Y-018571D01*
D02*
G37*
G36*
X-007490D02*
X-007532Y-018576D01*
X-007619Y-018612D01*
X-007693Y-018669D01*
X-007750Y-018743D01*
X-007786Y-018830D01*
X-007791Y-018872D01*
X-007490D01*
Y-018571D01*
D02*
G37*
G36*
X-002937Y-018693D02*
Y-018935D01*
X-002695D01*
X-002698Y-018908D01*
X-002728Y-018836D01*
X-002775Y-018774D01*
X-002837Y-018727D01*
X-002909Y-018697D01*
X-002937Y-018693D01*
D02*
G37*
G36*
X-010490Y-018571D02*
X-010532Y-018576D01*
X-010619Y-018612D01*
X-010693Y-018669D01*
X-010750Y-018743D01*
X-010786Y-018830D01*
X-010791Y-018872D01*
X-010490D01*
Y-018571D01*
D02*
G37*
G36*
X006659Y-017356D02*
X006574Y-017367D01*
X006495Y-017400D01*
X006427Y-017452D01*
X006374Y-017520D01*
X006342Y-017599D01*
X006330Y-017684D01*
X006342Y-017769D01*
X006374Y-017849D01*
X006427Y-017917D01*
X006495Y-017969D01*
X006574Y-018002D01*
X006659Y-018013D01*
X006744Y-018002D01*
X006823Y-017969D01*
X006891Y-017917D01*
X006943Y-017849D01*
X006976Y-017769D01*
X006987Y-017684D01*
X006976Y-017599D01*
X006943Y-017520D01*
X006891Y-017452D01*
X006823Y-017400D01*
X006744Y-017367D01*
X006659Y-017356D01*
D02*
G37*
G36*
X004318Y-014773D02*
X004275Y-014779D01*
X004188Y-014815D01*
X004114Y-014872D01*
X004057Y-014946D01*
X004021Y-015032D01*
X004016Y-015075D01*
X004318D01*
Y-014773D01*
D02*
G37*
G36*
X004418D02*
Y-015075D01*
X004719D01*
X004714Y-015032D01*
X004678Y-014946D01*
X004621Y-014872D01*
X004547Y-014815D01*
X004460Y-014779D01*
X004418Y-014773D01*
D02*
G37*
G36*
X-010923Y-014882D02*
X-011229D01*
X-011223Y-014926D01*
X-011187Y-015014D01*
X-011129Y-015089D01*
X-011054Y-015146D01*
X-010967Y-015183D01*
X-010923Y-015188D01*
Y-014882D01*
D02*
G37*
G36*
X-010516D02*
X-010823D01*
Y-015188D01*
X-010779Y-015183D01*
X-010691Y-015146D01*
X-010616Y-015089D01*
X-010558Y-015014D01*
X-010522Y-014926D01*
X-010516Y-014882D01*
D02*
G37*
G36*
X009110Y-013861D02*
Y-015002D01*
X010252D01*
X010241Y-014865D01*
X010198Y-014683D01*
X010126Y-014510D01*
X010028Y-014350D01*
X009906Y-014207D01*
X009763Y-014085D01*
X009603Y-013987D01*
X009430Y-013915D01*
X009248Y-013872D01*
X009110Y-013861D01*
D02*
G37*
G36*
X-010923Y-014475D02*
X-010967Y-014481D01*
X-011054Y-014517D01*
X-011129Y-014575D01*
X-011187Y-014650D01*
X-011223Y-014738D01*
X-011229Y-014782D01*
X-010923D01*
Y-014475D01*
D02*
G37*
G36*
X-010823D02*
Y-014782D01*
X-010516D01*
X-010522Y-014738D01*
X-010558Y-014650D01*
X-010616Y-014575D01*
X-010691Y-014517D01*
X-010779Y-014481D01*
X-010823Y-014475D01*
D02*
G37*
G36*
X-009112Y-013831D02*
X-009249Y-013842D01*
X-009431Y-013886D01*
X-009604Y-013958D01*
X-009764Y-014056D01*
X-009907Y-014177D01*
X-010029Y-014320D01*
X-010127Y-014480D01*
X-010199Y-014653D01*
X-010242Y-014836D01*
X-010253Y-014973D01*
X-009112D01*
Y-013831D01*
D02*
G37*
G36*
X-009012D02*
Y-014973D01*
X-007870D01*
X-007881Y-014836D01*
X-007924Y-014653D01*
X-007996Y-014480D01*
X-008094Y-014320D01*
X-008216Y-014177D01*
X-008359Y-014056D01*
X-008519Y-013958D01*
X-008692Y-013886D01*
X-008875Y-013842D01*
X-009012Y-013831D01*
D02*
G37*
G36*
X-011873Y-014469D02*
X-011967Y-014481D01*
X-012054Y-014517D01*
X-012129Y-014575D01*
X-012187Y-014650D01*
X-012223Y-014738D01*
X-012236Y-014832D01*
X-012223Y-014926D01*
X-012187Y-015014D01*
X-012129Y-015089D01*
X-012054Y-015146D01*
X-011967Y-015183D01*
X-011873Y-015195D01*
X-011779Y-015183D01*
X-011691Y-015146D01*
X-011616Y-015089D01*
X-011558Y-015014D01*
X-011522Y-014926D01*
X-011509Y-014832D01*
X-011522Y-014738D01*
X-011558Y-014650D01*
X-011616Y-014575D01*
X-011691Y-014517D01*
X-011779Y-014481D01*
X-011873Y-014469D01*
D02*
G37*
G36*
X010945Y-015497D02*
X010635D01*
Y-015927D01*
X010815Y-016107D01*
X010945D01*
Y-015497D01*
D02*
G37*
G36*
X011355D02*
X011045D01*
Y-016107D01*
X011175D01*
X011355Y-015927D01*
Y-015497D01*
D02*
G37*
G36*
X-009112Y-015073D02*
X-010253D01*
X-010242Y-015210D01*
X-010199Y-015392D01*
X-010127Y-015566D01*
X-010029Y-015726D01*
X-009907Y-015868D01*
X-009764Y-015990D01*
X-009604Y-016088D01*
X-009431Y-016160D01*
X-009249Y-016204D01*
X-009112Y-016215D01*
Y-015073D01*
D02*
G37*
G36*
X-007870D02*
X-009012D01*
Y-016215D01*
X-008875Y-016204D01*
X-008692Y-016160D01*
X-008519Y-016088D01*
X-008359Y-015990D01*
X-008216Y-015868D01*
X-008094Y-015726D01*
X-007996Y-015566D01*
X-007924Y-015392D01*
X-007881Y-015210D01*
X-007870Y-015073D01*
D02*
G37*
G36*
X006368Y-014767D02*
X006275Y-014779D01*
X006188Y-014815D01*
X006114Y-014872D01*
X006057Y-014946D01*
X006021Y-015032D01*
X006009Y-015125D01*
X006021Y-015218D01*
X006045Y-015275D01*
X005803Y-015517D01*
X005612D01*
X005608Y-015509D01*
X005548Y-015469D01*
X005545Y-015436D01*
X005547Y-015436D01*
X005621Y-015379D01*
X005678Y-015304D01*
X005714Y-015218D01*
X005726Y-015125D01*
X005714Y-015032D01*
X005678Y-014946D01*
X005621Y-014872D01*
X005547Y-014815D01*
X005460Y-014779D01*
X005368Y-014767D01*
X005275Y-014779D01*
X005188Y-014815D01*
X005114Y-014872D01*
X005057Y-014946D01*
X005021Y-015032D01*
X005009Y-015125D01*
X005021Y-015218D01*
X005057Y-015304D01*
X005114Y-015379D01*
X005188Y-015436D01*
X005275Y-015471D01*
X005318Y-015477D01*
X005339Y-015523D01*
X005308Y-015569D01*
X005294Y-015639D01*
X005308Y-015709D01*
X005348Y-015769D01*
X005408Y-015809D01*
X005478Y-015823D01*
X005548Y-015809D01*
X005608Y-015769D01*
X005612Y-015761D01*
X005854D01*
X005901Y-015752D01*
X005940Y-015726D01*
X005940Y-015726D01*
X005940Y-015726D01*
X006218Y-015448D01*
X006275Y-015471D01*
X006368Y-015484D01*
X006460Y-015471D01*
X006547Y-015436D01*
X006621Y-015379D01*
X006678Y-015304D01*
X006714Y-015218D01*
X006726Y-015125D01*
X006714Y-015032D01*
X006678Y-014946D01*
X006621Y-014872D01*
X006547Y-014815D01*
X006460Y-014779D01*
X006368Y-014767D01*
D02*
G37*
G36*
X010945Y-014787D02*
X010815D01*
X010635Y-014967D01*
Y-015397D01*
X010945D01*
Y-014787D01*
D02*
G37*
G36*
X011175D02*
X011045D01*
Y-015397D01*
X011355D01*
Y-014967D01*
X011175Y-014787D01*
D02*
G37*
G36*
X004318Y-015175D02*
X004016D01*
X004021Y-015218D01*
X004057Y-015304D01*
X004114Y-015379D01*
X004188Y-015436D01*
X004275Y-015471D01*
X004318Y-015477D01*
Y-015175D01*
D02*
G37*
G36*
X004719D02*
X004418D01*
Y-015477D01*
X004460Y-015471D01*
X004547Y-015436D01*
X004621Y-015379D01*
X004678Y-015304D01*
X004714Y-015218D01*
X004719Y-015175D01*
D02*
G37*
G36*
X013543Y014831D02*
X012402D01*
Y013689D01*
X012539Y013700D01*
X012721Y013744D01*
X012895Y013815D01*
X013055Y013913D01*
X013197Y014035D01*
X013319Y014178D01*
X013417Y014338D01*
X013489Y014511D01*
X013533Y014694D01*
X013543Y014831D01*
D02*
G37*
G36*
X-012403Y016072D02*
X-012540Y016062D01*
X-012722Y016018D01*
X-012896Y015946D01*
X-013056Y015848D01*
X-013198Y015726D01*
X-013320Y015583D01*
X-013418Y015423D01*
X-013490Y015250D01*
X-013534Y015068D01*
X-013545Y014931D01*
X-012403D01*
Y016072D01*
D02*
G37*
G36*
Y014831D02*
X-013545D01*
X-013534Y014694D01*
X-013490Y014511D01*
X-013418Y014338D01*
X-013320Y014178D01*
X-013198Y014035D01*
X-013056Y013913D01*
X-012896Y013815D01*
X-012722Y013744D01*
X-012540Y013700D01*
X-012403Y013689D01*
Y014831D01*
D02*
G37*
G36*
X-011161D02*
X-012303D01*
Y013689D01*
X-012166Y013700D01*
X-011983Y013744D01*
X-011810Y013815D01*
X-011650Y013913D01*
X-011507Y014035D01*
X-011386Y014178D01*
X-011288Y014338D01*
X-011216Y014511D01*
X-011172Y014694D01*
X-011161Y014831D01*
D02*
G37*
G36*
X-012303Y016072D02*
Y014931D01*
X-011161D01*
X-011172Y015068D01*
X-011216Y015250D01*
X-011288Y015423D01*
X-011386Y015583D01*
X-011507Y015726D01*
X-011650Y015848D01*
X-011810Y015946D01*
X-011983Y016018D01*
X-012166Y016062D01*
X-012303Y016072D01*
D02*
G37*
G36*
X010123Y017036D02*
X009326D01*
Y016239D01*
X009442Y016250D01*
X009602Y016299D01*
X009749Y016378D01*
X009878Y016483D01*
X009984Y016613D01*
X010063Y016760D01*
X010112Y016919D01*
X010123Y017036D01*
D02*
G37*
G36*
X009226Y017932D02*
X009110Y017921D01*
X008951Y017872D01*
X008803Y017794D01*
X008674Y017688D01*
X008568Y017559D01*
X008490Y017411D01*
X008441Y017252D01*
X008430Y017136D01*
X009226D01*
Y017932D01*
D02*
G37*
G36*
X012402Y016072D02*
Y014931D01*
X013543D01*
X013533Y015068D01*
X013489Y015250D01*
X013417Y015423D01*
X013319Y015583D01*
X013197Y015726D01*
X013055Y015848D01*
X012895Y015946D01*
X012721Y016018D01*
X012539Y016062D01*
X012402Y016072D01*
D02*
G37*
G36*
X009226Y017036D02*
X008430D01*
X008441Y016919D01*
X008490Y016760D01*
X008568Y016613D01*
X008674Y016483D01*
X008803Y016378D01*
X008951Y016299D01*
X009110Y016250D01*
X009226Y016239D01*
Y017036D01*
D02*
G37*
G36*
X008812Y013358D02*
X008714Y013339D01*
X008632Y013284D01*
X008576Y013201D01*
X008557Y013103D01*
X008576Y013006D01*
X008632Y012923D01*
X008714Y012868D01*
X008812Y012848D01*
X008909Y012868D01*
X008992Y012923D01*
X009047Y013006D01*
X009067Y013103D01*
X009047Y013201D01*
X008992Y013284D01*
X008909Y013339D01*
X008812Y013358D01*
D02*
G37*
G36*
X007530Y010040D02*
X007460Y010026D01*
X007400Y009986D01*
X007360Y009926D01*
X007346Y009856D01*
X007360Y009786D01*
X007400Y009726D01*
X007460Y009687D01*
X007530Y009673D01*
X007600Y009687D01*
X007660Y009726D01*
X007672Y009744D01*
X009854D01*
X009870Y009720D01*
X009930Y009680D01*
X010000Y009666D01*
X010070Y009680D01*
X010130Y009720D01*
X010170Y009780D01*
X010184Y009850D01*
X010170Y009920D01*
X010130Y009980D01*
X010070Y010020D01*
X010000Y010034D01*
X009930Y010020D01*
X009870Y009980D01*
X009863Y009968D01*
X007672D01*
X007660Y009986D01*
X007600Y010026D01*
X007530Y010040D01*
D02*
G37*
G36*
X007520Y011044D02*
X007450Y011030D01*
X007390Y010990D01*
X007350Y010930D01*
X007336Y010860D01*
X007350Y010790D01*
X007390Y010730D01*
X007450Y010690D01*
X007520Y010676D01*
X007590Y010690D01*
X007650Y010730D01*
X007655Y010738D01*
X008169D01*
X008618Y010289D01*
X008616Y010280D01*
X008630Y010210D01*
X008670Y010150D01*
X008730Y010110D01*
X008800Y010096D01*
X008870Y010110D01*
X008930Y010150D01*
X008970Y010210D01*
X008984Y010280D01*
X008970Y010350D01*
X008930Y010410D01*
X008870Y010450D01*
X008800Y010464D01*
X008791Y010462D01*
X008307Y010947D01*
X008267Y010973D01*
X008220Y010982D01*
X007655D01*
X007650Y010990D01*
X007590Y011030D01*
X007520Y011044D01*
D02*
G37*
G36*
X009362Y007957D02*
Y007695D01*
X009624D01*
X009620Y007727D01*
X009588Y007804D01*
X009537Y007870D01*
X009471Y007921D01*
X009394Y007952D01*
X009362Y007957D01*
D02*
G37*
G36*
X008812Y009362D02*
X008714Y009343D01*
X008632Y009287D01*
X008576Y009205D01*
X008557Y009107D01*
X008576Y009010D01*
X008632Y008927D01*
X008714Y008872D01*
X008812Y008852D01*
X008909Y008872D01*
X008992Y008927D01*
X009047Y009010D01*
X009067Y009107D01*
X009047Y009205D01*
X008992Y009287D01*
X008909Y009343D01*
X008812Y009362D01*
D02*
G37*
G36*
X-010911Y011469D02*
X-011029Y011454D01*
X-011140Y011408D01*
X-011234Y011335D01*
X-011307Y011241D01*
X-011353Y011130D01*
X-011368Y011012D01*
X-011353Y010893D01*
X-011307Y010783D01*
X-011234Y010688D01*
X-011140Y010615D01*
X-011029Y010570D01*
X-010911Y010554D01*
X-010792Y010570D01*
X-010682Y010615D01*
X-010587Y010688D01*
X-010514Y010783D01*
X-010469Y010893D01*
X-010453Y011012D01*
X-010469Y011130D01*
X-010514Y011241D01*
X-010587Y011335D01*
X-010682Y011408D01*
X-010792Y011454D01*
X-010911Y011469D01*
D02*
G37*
G36*
X-012929Y011463D02*
X-012998Y011454D01*
X-013108Y011408D01*
X-013203Y011335D01*
X-013276Y011241D01*
X-013321Y011130D01*
X-013330Y011062D01*
X-012929D01*
Y011463D01*
D02*
G37*
G36*
X-012829D02*
Y011062D01*
X-012428D01*
X-012437Y011130D01*
X-012483Y011241D01*
X-012556Y011335D01*
X-012650Y011408D01*
X-012761Y011454D01*
X-012829Y011463D01*
D02*
G37*
G36*
X-012929Y010962D02*
X-013330D01*
X-013321Y010893D01*
X-013276Y010783D01*
X-013203Y010688D01*
X-013108Y010615D01*
X-012998Y010570D01*
X-012929Y010561D01*
Y010962D01*
D02*
G37*
G36*
X-012428D02*
X-012829D01*
Y010561D01*
X-012761Y010570D01*
X-012650Y010615D01*
X-012556Y010688D01*
X-012483Y010783D01*
X-012437Y010893D01*
X-012428Y010962D01*
D02*
G37*
G36*
X000301Y027534D02*
X000230Y027520D01*
X000171Y027481D01*
X000131Y027421D01*
X000117Y027351D01*
X000119Y027342D01*
X-000031Y027192D01*
X-000500D01*
X-000547Y027183D01*
X-000587Y027157D01*
X-001337Y026407D01*
X-001363Y026367D01*
X-001372Y026320D01*
Y017210D01*
X-001372Y017210D01*
X-001372D01*
X-001363Y017163D01*
X-001337Y017123D01*
X003025Y012762D01*
Y-000013D01*
X003018Y-000018D01*
X002978Y-000077D01*
X002964Y-000147D01*
X002978Y-000218D01*
X003018Y-000277D01*
X003077Y-000317D01*
X003147Y-000331D01*
X003218Y-000317D01*
X003277Y-000277D01*
X003317Y-000218D01*
X003331Y-000147D01*
X003317Y-000077D01*
X003277Y-000018D01*
X003270Y-000013D01*
Y012813D01*
X003260Y012859D01*
X003234Y012899D01*
X-001128Y017261D01*
Y026269D01*
X-000449Y026948D01*
X000020D01*
X000067Y026957D01*
X000106Y026983D01*
X000292Y027169D01*
X000301Y027167D01*
X000371Y027181D01*
X000430Y027221D01*
X000470Y027281D01*
X000484Y027351D01*
X000470Y027421D01*
X000430Y027481D01*
X000371Y027520D01*
X000301Y027534D01*
D02*
G37*
G36*
X-009061Y031824D02*
X-009248Y031810D01*
X-009431Y031766D01*
X-009604Y031694D01*
X-009764Y031596D01*
X-009907Y031474D01*
X-010029Y031331D01*
X-010127Y031172D01*
X-010198Y030998D01*
X-010242Y030816D01*
X-010257Y030629D01*
X-010242Y030442D01*
X-010198Y030259D01*
X-010127Y030086D01*
X-010029Y029926D01*
X-009907Y029783D01*
X-009764Y029662D01*
X-009604Y029563D01*
X-009431Y029492D01*
X-009248Y029448D01*
X-009061Y029433D01*
X-008874Y029448D01*
X-008692Y029492D01*
X-008519Y029563D01*
X-008359Y029662D01*
X-008216Y029783D01*
X-008094Y029926D01*
X-007996Y030086D01*
X-007924Y030259D01*
X-007881Y030442D01*
X-007866Y030629D01*
X-007881Y030816D01*
X-007924Y030998D01*
X-007996Y031172D01*
X-008094Y031331D01*
X-008216Y031474D01*
X-008359Y031596D01*
X-008519Y031694D01*
X-008692Y031766D01*
X-008874Y031810D01*
X-009061Y031824D01*
D02*
G37*
G36*
X001352Y026120D02*
X001352Y026120D01*
X001162D01*
X001162Y026120D01*
X001119Y026112D01*
X001082Y026088D01*
X001082Y026088D01*
X000770Y025775D01*
X-000749D01*
X-000761Y025793D01*
X-000820Y025833D01*
X-000890Y025847D01*
X-000961Y025833D01*
X-001020Y025793D01*
X-001060Y025733D01*
X-001074Y025663D01*
X-001060Y025593D01*
X-001020Y025533D01*
X-000961Y025494D01*
X-000890Y025480D01*
X-000820Y025494D01*
X-000761Y025533D01*
X-000749Y025551D01*
X000817D01*
X000817Y025551D01*
X000860Y025560D01*
X000896Y025584D01*
X001039Y025727D01*
X001087Y025712D01*
X001087Y025708D01*
X001127Y025648D01*
X001145Y025637D01*
Y025174D01*
X001144Y025173D01*
X001135Y025126D01*
X001144Y025079D01*
X001171Y025039D01*
X002112Y024097D01*
X002111Y024089D01*
X002125Y024018D01*
X002164Y023959D01*
X002224Y023919D01*
X002294Y023905D01*
X002364Y023919D01*
X002424Y023959D01*
X002464Y024018D01*
X002478Y024089D01*
X002464Y024159D01*
X002424Y024218D01*
X002364Y024258D01*
X002294Y024272D01*
X002285Y024270D01*
X001369Y025187D01*
Y025637D01*
X001387Y025648D01*
X001427Y025708D01*
X001427Y025712D01*
X001475Y025727D01*
X001768Y025434D01*
X001768Y025434D01*
X001804Y025410D01*
X001804Y025410D01*
X001804Y025410D01*
D01*
X001804Y025410D01*
X001804Y025410D01*
X001847Y025401D01*
X001847Y025401D01*
X007859D01*
Y023353D01*
X-000426D01*
X-000431Y023361D01*
X-000490Y023400D01*
X-000560Y023414D01*
X-000631Y023400D01*
X-000690Y023361D01*
X-000730Y023301D01*
X-000744Y023231D01*
X-000730Y023161D01*
X-000690Y023101D01*
X-000631Y023061D01*
X-000560Y023047D01*
X-000490Y023061D01*
X-000431Y023101D01*
X-000426Y023108D01*
X007859D01*
Y022732D01*
X004959Y019831D01*
X004909Y019766D01*
X004878Y019691D01*
X004867Y019610D01*
X004867Y019610D01*
Y010210D01*
X004867Y010210D01*
X004878Y010129D01*
X004909Y010054D01*
X004959Y009989D01*
X006949Y007999D01*
X006949Y007999D01*
X006949D01*
X006949Y007999D01*
X006949D01*
X006949Y007999D01*
Y007999D01*
Y007999D01*
D01*
D01*
X006949D01*
Y007999D01*
X007014Y007949D01*
X007089Y007918D01*
X007130Y007913D01*
X007170Y007907D01*
X007170Y007907D01*
X008059D01*
X008081Y007862D01*
X008036Y007804D01*
X008004Y007727D01*
X008000Y007695D01*
X008624D01*
X008620Y007727D01*
X008588Y007804D01*
X008537Y007870D01*
X008550Y007907D01*
X008812D01*
X008893Y007918D01*
X008968Y007949D01*
X009033Y007999D01*
X009083Y008064D01*
X009114Y008139D01*
X009124Y008220D01*
X009114Y008301D01*
X009083Y008376D01*
X009033Y008441D01*
X008968Y008491D01*
X008893Y008522D01*
X008812Y008533D01*
X007300D01*
X005493Y010340D01*
Y019480D01*
X008393Y022381D01*
X008393Y022381D01*
X008431Y022431D01*
X008443Y022446D01*
X008454Y022474D01*
X008474Y022521D01*
X008479Y022562D01*
X008485Y022602D01*
X008485Y022602D01*
Y025513D01*
X008474Y025594D01*
X008443Y025670D01*
X008393Y025734D01*
X008328Y025784D01*
X008253Y025815D01*
X008172Y025826D01*
X008091Y025815D01*
X008016Y025784D01*
X007951Y025734D01*
X007901Y025670D01*
X007883Y025625D01*
X001894D01*
X001432Y026088D01*
X001395Y026112D01*
X001352Y026120D01*
D02*
G37*
G36*
X-012431Y027089D02*
X-013141D01*
Y026379D01*
X-012431D01*
Y027089D01*
D02*
G37*
G36*
X009061Y031824D02*
X008874Y031810D01*
X008691Y031766D01*
X008518Y031694D01*
X008358Y031596D01*
X008215Y031474D01*
X008093Y031331D01*
X007995Y031172D01*
X007924Y030998D01*
X007880Y030816D01*
X007865Y030629D01*
X007880Y030442D01*
X007924Y030259D01*
X007995Y030086D01*
X008093Y029926D01*
X008215Y029783D01*
X008358Y029662D01*
X008518Y029563D01*
X008691Y029492D01*
X008874Y029448D01*
X009061Y029433D01*
X009248Y029448D01*
X009430Y029492D01*
X009603Y029563D01*
X009763Y029662D01*
X009906Y029783D01*
X010028Y029926D01*
X010126Y030086D01*
X010198Y030259D01*
X010241Y030442D01*
X010256Y030629D01*
X010241Y030816D01*
X010198Y030998D01*
X010126Y031172D01*
X010028Y031331D01*
X009906Y031474D01*
X009763Y031596D01*
X009603Y031694D01*
X009430Y031766D01*
X009248Y031810D01*
X009061Y031824D01*
D02*
G37*
G36*
X-004650Y034064D02*
X-004955D01*
Y033168D01*
X-004650D01*
Y034064D01*
D02*
G37*
G36*
X-004245D02*
X-004550D01*
Y033168D01*
X-004245D01*
Y034064D01*
D02*
G37*
G36*
X-006650D02*
X-006955D01*
Y033168D01*
X-006650D01*
Y034064D01*
D02*
G37*
G36*
X-006245D02*
X-006550D01*
Y033168D01*
X-006245D01*
Y034064D01*
D02*
G37*
G36*
X-012736Y026086D02*
Y025784D01*
X-012434D01*
X-012440Y025827D01*
X-012476Y025913D01*
X-012533Y025988D01*
X-012607Y026044D01*
X-012693Y026080D01*
X-012736Y026086D01*
D02*
G37*
G36*
X-012993Y021177D02*
X-013453D01*
X-013442Y021094D01*
X-013390Y020969D01*
X-013308Y020862D01*
X-013201Y020780D01*
X-013076Y020728D01*
X-012993Y020717D01*
Y021177D01*
D02*
G37*
G36*
X-012432D02*
X-012893D01*
Y020717D01*
X-012809Y020728D01*
X-012684Y020780D01*
X-012577Y020862D01*
X-012495Y020969D01*
X-012443Y021094D01*
X-012432Y021177D01*
D02*
G37*
G36*
X009326Y017932D02*
Y017136D01*
X010123D01*
X010112Y017252D01*
X010063Y017411D01*
X009984Y017559D01*
X009878Y017688D01*
X009749Y017794D01*
X009602Y017872D01*
X009442Y017921D01*
X009326Y017932D01*
D02*
G37*
G36*
X-012430Y019740D02*
X-013455D01*
Y018715D01*
X-012430D01*
Y019740D01*
D02*
G37*
G36*
X-012993Y021738D02*
X-013076Y021727D01*
X-013201Y021675D01*
X-013308Y021593D01*
X-013390Y021486D01*
X-013442Y021361D01*
X-013453Y021277D01*
X-012993D01*
Y021738D01*
D02*
G37*
G36*
X-012434Y025684D02*
X-012736D01*
Y025382D01*
X-012693Y025388D01*
X-012607Y025424D01*
X-012533Y025481D01*
X-012476Y025555D01*
X-012440Y025641D01*
X-012434Y025684D01*
D02*
G37*
G36*
X-012836Y026086D02*
X-012879Y026080D01*
X-012965Y026044D01*
X-013039Y025988D01*
X-013096Y025913D01*
X-013132Y025827D01*
X-013138Y025784D01*
X-012836D01*
Y026086D01*
D02*
G37*
G36*
X-012893Y021738D02*
Y021277D01*
X-012432D01*
X-012443Y021361D01*
X-012495Y021486D01*
X-012577Y021593D01*
X-012684Y021675D01*
X-012809Y021727D01*
X-012893Y021738D01*
D02*
G37*
G36*
X-012836Y025684D02*
X-013138D01*
X-013132Y025641D01*
X-013096Y025555D01*
X-013039Y025481D01*
X-012965Y025424D01*
X-012879Y025388D01*
X-012836Y025382D01*
Y025684D01*
D02*
G37*
G36*
X009262Y007957D02*
X009229Y007952D01*
X009153Y007921D01*
X009086Y007870D01*
X009036Y007804D01*
X009004Y007727D01*
X009000Y007695D01*
X009262D01*
Y007957D01*
D02*
G37*
G36*
X009362Y004988D02*
Y004726D01*
X009624D01*
X009620Y004759D01*
X009588Y004835D01*
X009537Y004901D01*
X009471Y004952D01*
X009394Y004984D01*
X009362Y004988D01*
D02*
G37*
G36*
X-007170Y007168D02*
X-007880D01*
Y006457D01*
X-007343D01*
X-006332Y005447D01*
Y004858D01*
X-006378Y004839D01*
X-007202Y005663D01*
X-007179Y005720D01*
X-007167Y005813D01*
X-007179Y005905D01*
X-007215Y005992D01*
X-007272Y006066D01*
X-007346Y006123D01*
X-007432Y006159D01*
X-007525Y006171D01*
X-007618Y006159D01*
X-007704Y006123D01*
X-007778Y006066D01*
X-007835Y005992D01*
X-007871Y005905D01*
X-007883Y005813D01*
X-007871Y005720D01*
X-007835Y005633D01*
X-007778Y005559D01*
X-007704Y005502D01*
X-007618Y005466D01*
X-007525Y005454D01*
X-007432Y005466D01*
X-007375Y005490D01*
X-006512Y004627D01*
Y004023D01*
X-006558Y004004D01*
X-007207Y004652D01*
X-007179Y004720D01*
X-007167Y004812D01*
X-007179Y004905D01*
X-007215Y004992D01*
X-007272Y005066D01*
X-007346Y005123D01*
X-007432Y005159D01*
X-007525Y005171D01*
X-007618Y005159D01*
X-007704Y005123D01*
X-007778Y005066D01*
X-007835Y004992D01*
X-007871Y004905D01*
X-007883Y004812D01*
X-007871Y004720D01*
X-007835Y004633D01*
X-007778Y004559D01*
X-007704Y004502D01*
X-007618Y004466D01*
X-007525Y004454D01*
X-007432Y004466D01*
X-007386Y004486D01*
X-006692Y003792D01*
Y003223D01*
X-006738Y003204D01*
X-007201Y003666D01*
X-007179Y003720D01*
X-007167Y003812D01*
X-007179Y003905D01*
X-007215Y003992D01*
X-007272Y004066D01*
X-007346Y004123D01*
X-007432Y004159D01*
X-007525Y004171D01*
X-007618Y004159D01*
X-007704Y004123D01*
X-007778Y004066D01*
X-007835Y003992D01*
X-007871Y003905D01*
X-007883Y003812D01*
X-007871Y003720D01*
X-007835Y003633D01*
X-007778Y003559D01*
X-007704Y003502D01*
X-007618Y003466D01*
X-007525Y003454D01*
X-007432Y003466D01*
X-007372Y003491D01*
X-006872Y002992D01*
Y002370D01*
X-006918Y002351D01*
X-007210Y002643D01*
X-007179Y002720D01*
X-007167Y002812D01*
X-007179Y002905D01*
X-007215Y002992D01*
X-007272Y003066D01*
X-007346Y003123D01*
X-007432Y003159D01*
X-007525Y003171D01*
X-007618Y003159D01*
X-007704Y003123D01*
X-007778Y003066D01*
X-007835Y002992D01*
X-007871Y002905D01*
X-007883Y002812D01*
X-007871Y002720D01*
X-007835Y002633D01*
X-007778Y002559D01*
X-007704Y002502D01*
X-007618Y002466D01*
X-007525Y002454D01*
X-007432Y002466D01*
X-007395Y002482D01*
X-007052Y002139D01*
Y001408D01*
X-007098Y001389D01*
X-007270Y001561D01*
X-007215Y001633D01*
X-007179Y001720D01*
X-007167Y001813D01*
X-007179Y001905D01*
X-007215Y001992D01*
X-007272Y002066D01*
X-007346Y002123D01*
X-007432Y002159D01*
X-007525Y002171D01*
X-007618Y002159D01*
X-007704Y002123D01*
X-007778Y002066D01*
X-007835Y001992D01*
X-007871Y001905D01*
X-007883Y001813D01*
X-007871Y001720D01*
X-007835Y001633D01*
X-007778Y001559D01*
X-007704Y001502D01*
X-007618Y001466D01*
X-007525Y001454D01*
X-007511Y001456D01*
X-007232Y001177D01*
Y001092D01*
X-007277Y001070D01*
X-007346Y001123D01*
X-007432Y001159D01*
X-007525Y001171D01*
X-007618Y001159D01*
X-007704Y001123D01*
X-007778Y001066D01*
X-007835Y000992D01*
X-007871Y000905D01*
X-007883Y000812D01*
X-007871Y000720D01*
X-007835Y000633D01*
X-007778Y000559D01*
X-007704Y000502D01*
X-007647Y000479D01*
Y-000388D01*
X-007647Y-000388D01*
X-007647D01*
X-007638Y-000434D01*
X-007612Y-000474D01*
X-005616Y-002470D01*
X-005576Y-002496D01*
X-005529Y-002505D01*
X-004404D01*
X-003080Y-003829D01*
X-003082Y-003838D01*
X-003068Y-003908D01*
X-003028Y-003968D01*
X-002968Y-004007D01*
X-002898Y-004021D01*
X-002828Y-004007D01*
X-002768Y-003968D01*
X-002723D01*
X-002663Y-004007D01*
X-002593Y-004021D01*
X-002523Y-004007D01*
X-002463Y-003968D01*
X-002418D01*
X-002358Y-004007D01*
X-002288Y-004021D01*
X-002218Y-004007D01*
X-002158Y-003968D01*
X-002113D01*
X-002053Y-004007D01*
X-001983Y-004021D01*
X-001913Y-004007D01*
X-001853Y-003968D01*
X-001807D01*
X-001748Y-004007D01*
X-001678Y-004021D01*
X-001607Y-004007D01*
X-001548Y-003968D01*
X-001502D01*
X-001443Y-004007D01*
X-001373Y-004021D01*
X-001302Y-004007D01*
X-001243Y-003968D01*
X-001197D01*
X-001138Y-004007D01*
X-001067Y-004021D01*
X-000997Y-004007D01*
X-000938Y-003968D01*
X-000898Y-003908D01*
X-000884Y-003838D01*
X-000898Y-003768D01*
X-000938Y-003708D01*
X-000997Y-003668D01*
X-001041Y-003660D01*
X-001046Y-003652D01*
X-003481Y-001217D01*
X-003521Y-001190D01*
X-003568Y-001181D01*
X-005031D01*
X-006087Y-000125D01*
Y005497D01*
X-006097Y005544D01*
X-006123Y005584D01*
X-007170Y006630D01*
Y007168D01*
D02*
G37*
G36*
X008362Y004988D02*
Y004726D01*
X008624D01*
X008620Y004759D01*
X008588Y004835D01*
X008537Y004901D01*
X008471Y004952D01*
X008394Y004984D01*
X008362Y004988D01*
D02*
G37*
G36*
X009262D02*
X009229Y004984D01*
X009153Y004952D01*
X009086Y004901D01*
X009036Y004835D01*
X009004Y004759D01*
X009000Y004726D01*
X009262D01*
Y004988D01*
D02*
G37*
G36*
X008812Y005495D02*
X008729Y005484D01*
X008652Y005452D01*
X008587Y005401D01*
X008536Y005335D01*
X008504Y005259D01*
X008493Y005176D01*
X008504Y005094D01*
X008536Y005017D01*
X008587Y004951D01*
X008652Y004900D01*
X008729Y004868D01*
X008812Y004858D01*
X008894Y004868D01*
X008971Y004900D01*
X009037Y004951D01*
X009088Y005017D01*
X009120Y005094D01*
X009130Y005176D01*
X009120Y005259D01*
X009088Y005335D01*
X009037Y005401D01*
X008971Y005452D01*
X008894Y005484D01*
X008812Y005495D01*
D02*
G37*
G36*
X009262Y005626D02*
X009000D01*
X009004Y005594D01*
X009036Y005517D01*
X009086Y005451D01*
X009153Y005400D01*
X009229Y005368D01*
X009262Y005364D01*
Y005626D01*
D02*
G37*
G36*
X009624D02*
X009362D01*
Y005364D01*
X009394Y005368D01*
X009471Y005400D01*
X009537Y005451D01*
X009588Y005517D01*
X009620Y005594D01*
X009624Y005626D01*
D02*
G37*
G36*
X008262D02*
X008000D01*
X008004Y005594D01*
X008036Y005517D01*
X008087Y005451D01*
X008152Y005400D01*
X008229Y005368D01*
X008262Y005364D01*
Y005626D01*
D02*
G37*
G36*
X008624D02*
X008362D01*
Y005364D01*
X008394Y005368D01*
X008471Y005400D01*
X008537Y005451D01*
X008588Y005517D01*
X008620Y005594D01*
X008624Y005626D01*
D02*
G37*
G36*
X008262Y004988D02*
X008229Y004984D01*
X008152Y004952D01*
X008087Y004901D01*
X008036Y004835D01*
X008004Y004759D01*
X008000Y004726D01*
X008262D01*
Y004988D01*
D02*
G37*
G36*
X-004750Y002381D02*
X-004866Y002370D01*
X-005026Y002321D01*
X-005173Y002242D01*
X-005302Y002137D01*
X-005408Y002007D01*
X-005487Y001860D01*
X-005535Y001701D01*
X-005547Y001584D01*
X-004750D01*
Y002381D01*
D02*
G37*
G36*
X-004650D02*
Y001584D01*
X-003853D01*
X-003865Y001701D01*
X-003913Y001860D01*
X-003992Y002007D01*
X-004098Y002137D01*
X-004227Y002242D01*
X-004374Y002321D01*
X-004534Y002370D01*
X-004650Y002381D01*
D02*
G37*
G36*
X-004750Y001484D02*
X-005547D01*
X-005535Y001368D01*
X-005487Y001209D01*
X-005408Y001061D01*
X-005302Y000932D01*
X-005173Y000826D01*
X-005026Y000748D01*
X-004866Y000699D01*
X-004750Y000688D01*
Y001484D01*
D02*
G37*
G36*
X-003853D02*
X-004650D01*
Y000688D01*
X-004534Y000699D01*
X-004374Y000748D01*
X-004227Y000826D01*
X-004098Y000932D01*
X-003992Y001061D01*
X-003913Y001209D01*
X-003865Y001368D01*
X-003853Y001484D01*
D02*
G37*
G36*
X013420Y004485D02*
X012524D01*
Y004180D01*
X013420D01*
Y004485D01*
D02*
G37*
G36*
X009262Y004626D02*
X009000D01*
X009004Y004594D01*
X009036Y004517D01*
X009086Y004451D01*
X009153Y004400D01*
X009229Y004368D01*
X009262Y004364D01*
Y004626D01*
D02*
G37*
G36*
X009624D02*
X009362D01*
Y004364D01*
X009394Y004368D01*
X009471Y004400D01*
X009537Y004451D01*
X009588Y004517D01*
X009620Y004594D01*
X009624Y004626D01*
D02*
G37*
G36*
X008262D02*
X008000D01*
X008004Y004594D01*
X008036Y004517D01*
X008087Y004451D01*
X008152Y004400D01*
X008229Y004368D01*
X008262Y004364D01*
Y004626D01*
D02*
G37*
G36*
X008624D02*
X008362D01*
Y004364D01*
X008394Y004368D01*
X008471Y004400D01*
X008537Y004451D01*
X008588Y004517D01*
X008620Y004594D01*
X008624Y004626D01*
D02*
G37*
G36*
X009262Y006957D02*
X009229Y006952D01*
X009153Y006921D01*
X009086Y006870D01*
X009036Y006804D01*
X009004Y006727D01*
X009000Y006695D01*
X009262D01*
Y006957D01*
D02*
G37*
G36*
X009362D02*
Y006695D01*
X009624D01*
X009620Y006727D01*
X009588Y006804D01*
X009537Y006870D01*
X009471Y006921D01*
X009394Y006952D01*
X009362Y006957D01*
D02*
G37*
G36*
X008262D02*
X008229Y006952D01*
X008152Y006921D01*
X008087Y006870D01*
X008036Y006804D01*
X008004Y006727D01*
X008000Y006695D01*
X008262D01*
Y006957D01*
D02*
G37*
G36*
X008362D02*
Y006695D01*
X008624D01*
X008620Y006727D01*
X008588Y006804D01*
X008537Y006870D01*
X008471Y006921D01*
X008394Y006952D01*
X008362Y006957D01*
D02*
G37*
G36*
X008812Y007463D02*
X008729Y007452D01*
X008652Y007421D01*
X008587Y007370D01*
X008536Y007304D01*
X008504Y007227D01*
X008493Y007145D01*
X008504Y007062D01*
X008536Y006985D01*
X008587Y006919D01*
X008652Y006869D01*
X008729Y006837D01*
X008812Y006826D01*
X008894Y006837D01*
X008971Y006869D01*
X009037Y006919D01*
X009088Y006985D01*
X009120Y007062D01*
X009130Y007145D01*
X009120Y007227D01*
X009088Y007304D01*
X009037Y007370D01*
X008971Y007421D01*
X008894Y007452D01*
X008812Y007463D01*
D02*
G37*
G36*
X009262Y007595D02*
X009000D01*
X009004Y007562D01*
X009036Y007485D01*
X009086Y007419D01*
X009153Y007369D01*
X009229Y007337D01*
X009262Y007333D01*
Y007595D01*
D02*
G37*
G36*
X009624D02*
X009362D01*
Y007333D01*
X009394Y007337D01*
X009471Y007369D01*
X009537Y007419D01*
X009588Y007485D01*
X009620Y007562D01*
X009624Y007595D01*
D02*
G37*
G36*
X008262D02*
X008000D01*
X008004Y007562D01*
X008036Y007485D01*
X008087Y007419D01*
X008152Y007369D01*
X008229Y007337D01*
X008262Y007333D01*
Y007595D01*
D02*
G37*
G36*
X008624D02*
X008362D01*
Y007333D01*
X008394Y007337D01*
X008471Y007369D01*
X008537Y007419D01*
X008588Y007485D01*
X008620Y007562D01*
X008624Y007595D01*
D02*
G37*
G36*
X009624Y006595D02*
X009362D01*
Y006333D01*
X009394Y006337D01*
X009471Y006369D01*
X009537Y006419D01*
X009588Y006485D01*
X009620Y006562D01*
X009624Y006595D01*
D02*
G37*
G36*
X009262Y005988D02*
X009229Y005984D01*
X009153Y005952D01*
X009086Y005901D01*
X009036Y005835D01*
X009004Y005759D01*
X009000Y005726D01*
X009262D01*
Y005988D01*
D02*
G37*
G36*
X009362D02*
Y005726D01*
X009624D01*
X009620Y005759D01*
X009588Y005835D01*
X009537Y005901D01*
X009471Y005952D01*
X009394Y005984D01*
X009362Y005988D01*
D02*
G37*
G36*
X008262D02*
X008229Y005984D01*
X008152Y005952D01*
X008087Y005901D01*
X008036Y005835D01*
X008004Y005759D01*
X008000Y005726D01*
X008262D01*
Y005988D01*
D02*
G37*
G36*
X008362D02*
Y005726D01*
X008624D01*
X008620Y005759D01*
X008588Y005835D01*
X008537Y005901D01*
X008471Y005952D01*
X008394Y005984D01*
X008362Y005988D01*
D02*
G37*
G36*
X013420Y006080D02*
X012524D01*
Y005775D01*
X013420D01*
Y006080D01*
D02*
G37*
G36*
X008624Y006595D02*
X008362D01*
Y006333D01*
X008394Y006337D01*
X008471Y006369D01*
X008537Y006419D01*
X008588Y006485D01*
X008620Y006562D01*
X008624Y006595D01*
D02*
G37*
G36*
X009262D02*
X009000D01*
X009004Y006562D01*
X009036Y006485D01*
X009086Y006419D01*
X009153Y006369D01*
X009229Y006337D01*
X009262Y006333D01*
Y006595D01*
D02*
G37*
G36*
X013420Y006485D02*
X012524D01*
Y006180D01*
X013420D01*
Y006485D01*
D02*
G37*
G36*
X008262Y006595D02*
X008000D01*
X008004Y006562D01*
X008036Y006485D01*
X008087Y006419D01*
X008152Y006369D01*
X008229Y006337D01*
X008262Y006333D01*
Y006595D01*
D02*
G37*
%LPD*%
D12*
X-006600Y034114D02*
D03*
X-004600D02*
D03*
X001362Y-018560D02*
D03*
X-000638D02*
D03*
D21*
X013470Y004130D02*
D03*
Y006130D02*
D03*
D30*
X013844Y-004517D02*
D03*
X-007525Y006812D02*
D03*
X009415Y-017509D02*
D03*
X-012786Y026734D02*
D03*
D31*
X001565Y-003240D02*
D03*
X007368Y-015125D02*
D03*
X-012440Y-018922D02*
D03*
D67*
X013390Y-002252D02*
X013640Y-002002D01*
X012801Y-001663D02*
X013390Y-002252D01*
X014307Y-003169D01*
X003520Y032250D02*
X010001D01*
X010780Y031471D01*
Y025422D02*
Y031471D01*
X009917Y024559D02*
X010780Y025422D01*
X009917Y022904D02*
Y024559D01*
Y022904D02*
X010740Y022081D01*
Y014190D02*
Y022081D01*
Y014190D02*
X011000Y013930D01*
Y004592D02*
Y013930D01*
Y004592D02*
X013640Y001952D01*
Y-002002D02*
Y001952D01*
X003445Y032430D02*
X010075D01*
X010960Y031545D01*
Y025347D02*
Y031545D01*
X010097Y024484D02*
X010960Y025347D01*
X010097Y022979D02*
Y024484D01*
Y022979D02*
X010920Y022155D01*
Y014288D02*
Y022155D01*
X010150Y032610D02*
X011140Y031620D01*
X010277Y024409D02*
X011140Y025273D01*
X010277Y023053D02*
X011100Y022230D01*
Y014362D02*
Y022230D01*
X010277Y023053D02*
Y024409D01*
X010920Y014288D02*
X011180Y014027D01*
Y004751D02*
Y014027D01*
X011100Y014362D02*
X011360Y014102D01*
X011140Y025273D02*
Y031620D01*
X011180Y004751D02*
X013307Y002625D01*
X003371Y032610D02*
X010150D01*
X011360Y004889D02*
Y014102D01*
X006080Y-005460D02*
X006762D01*
X006770Y-005468D01*
X001937Y-013196D02*
Y-013149D01*
Y-012977D01*
X001527Y-012765D02*
X001726D01*
X001937Y-012977D01*
X001236Y-012991D02*
X001301D01*
X001527Y-012765D01*
X001144Y-012899D02*
X001236Y-012991D01*
X-005618Y-018688D02*
Y-015714D01*
X-010956Y-019406D02*
X-006336D01*
X-005618Y-018688D01*
X-011440Y-018922D02*
X-010956Y-019406D01*
X006321Y-001087D02*
X006335Y-001073D01*
X006329Y-005708D02*
X007010D01*
X003421Y-009734D02*
Y-008739D01*
X001586Y-013005D02*
X001626D01*
X-005295Y-016479D02*
Y-015621D01*
X010850Y-000990D02*
Y-000970D01*
X010205Y-001573D02*
X011042D01*
X011323Y-001293D01*
X012406D01*
X012766Y-001653D01*
X012801D01*
X011337Y-001533D02*
X012307D01*
X010797Y-002073D02*
X011337Y-001533D01*
X010197Y-002073D02*
X010797D01*
X008220Y010860D02*
X008800Y010280D01*
X007520Y010860D02*
X008220D01*
X-000560Y023231D02*
X008153D01*
X-006210Y-000175D02*
Y005497D01*
X-005082Y-001303D02*
X-003568D01*
X-005157Y-001483D02*
X-003693D01*
X-006390Y-000250D02*
Y004677D01*
X-005231Y-001663D02*
X-003818D01*
X-006570Y-000325D02*
Y003842D01*
X-005306Y-001843D02*
X-003943D01*
X-006750Y-000399D02*
Y003042D01*
X-005380Y-002023D02*
X-004068D01*
X-006930Y-000474D02*
Y002190D01*
X-005455Y-002203D02*
X-004194D01*
X-006210Y-000175D02*
X-005082Y-001303D01*
X-006390Y-000250D02*
X-005157Y-001483D01*
X-006570Y-000325D02*
X-005231Y-001663D01*
X-006750Y-000399D02*
X-005306Y-001843D01*
X-006930Y-000474D02*
X-005380Y-002023D01*
X-007110Y-000548D02*
X-005455Y-002203D01*
X-007110Y-000548D02*
Y001228D01*
X-005529Y-002383D02*
X-004353D01*
X-007525Y-000388D02*
X-005529Y-002383D01*
X-007525Y-000388D02*
Y000790D01*
X-004194Y-002203D02*
X-002593Y-003804D01*
X-004068Y-002023D02*
X-002288Y-003804D01*
Y-003838D02*
Y-003804D01*
X-002593Y-003838D02*
Y-003804D01*
X-003943Y-001843D02*
X-001983Y-003804D01*
Y-003838D02*
Y-003804D01*
X-001133Y-003757D02*
Y-003738D01*
X-003568Y-001303D02*
X-001133Y-003738D01*
X-007525Y006812D02*
X-006210Y005497D01*
X-003693Y-001483D02*
X-001438Y-003738D01*
Y-003755D02*
Y-003738D01*
X-007525Y005813D02*
X-006390Y004677D01*
X-007525Y004798D02*
X-006570Y003842D01*
X-003818Y-001663D02*
X-001678Y-003804D01*
Y-003838D02*
Y-003804D01*
X-007540Y001658D02*
X-007110Y001228D01*
X-007540Y001658D02*
X-007525Y001673D01*
X-004353Y-002383D02*
X-002898Y-003838D01*
X-000276Y-003603D02*
Y-002630D01*
X-000372Y-003698D02*
X-000276Y-003603D01*
X-000372Y-009543D02*
Y-003698D01*
X-011599Y-007785D02*
Y-007066D01*
X004872Y-012414D02*
Y-011576D01*
X006085Y-010364D01*
X006557D01*
X007525Y-013474D02*
X007801Y-013749D01*
Y-015836D02*
Y-013749D01*
Y-015836D02*
X008293Y-016328D01*
X009405D01*
X010881Y-017804D01*
Y-018928D02*
Y-017804D01*
X003789Y-013310D02*
Y-012798D01*
X001590Y-010599D02*
X003789Y-012798D01*
X001590Y-010599D02*
Y-010157D01*
X004072Y-013149D02*
X010282D01*
X001257Y025126D02*
X002294Y024089D01*
X001758Y-009143D02*
X003007D01*
X001265Y-009636D02*
X001758Y-009143D01*
X001265Y-010393D02*
Y-009636D01*
X003637Y-010068D02*
X003765Y-009940D01*
X003234Y-010068D02*
X003637D01*
X-011136Y-001215D02*
Y001674D01*
Y-001215D02*
X-008366Y-003985D01*
X-011136Y001674D02*
X-010959Y001851D01*
X000655Y-010255D02*
Y-010058D01*
Y-010255D02*
X003549Y-013149D01*
X003507Y-013591D02*
X003789Y-013310D01*
X-005890Y-018373D02*
Y-015799D01*
X-005070Y-014521D02*
Y-011120D01*
X-011737Y-011426D02*
X-005310D01*
X-002730Y-012406D02*
X-002693D01*
X-004833Y-011456D02*
X-003494Y-012795D01*
X013126Y000229D02*
X013307Y000410D01*
X012069Y000229D02*
X013126D01*
X012570Y-007867D02*
X013143Y-007295D01*
X-008302Y-007145D02*
Y-005767D01*
X-008581Y-007424D02*
X-008302Y-007145D01*
X-010709Y-007424D02*
X-008581D01*
X-010880Y-007253D02*
X-010709Y-007424D01*
X-006884Y-004724D02*
X-006412D01*
X-006254Y-004881D01*
X-008366Y-003985D02*
X-007042D01*
X-006845Y-004547D02*
X-006323D01*
X-006091Y-004779D01*
X005045Y-009871D02*
X007049Y-007867D01*
X000242Y-009005D02*
Y-003080D01*
X014307Y-006702D02*
Y-003169D01*
X013793Y-006466D02*
X013844Y-006517D01*
X002653Y-006466D02*
X013793D01*
X012975Y-006272D02*
X013730Y-005517D01*
X012335Y-006026D02*
X013844Y-004517D01*
X004835Y-006026D02*
X012335D01*
X-000552Y-009618D02*
Y-007272D01*
Y-009618D02*
X-000260Y-009909D01*
X-003543Y-004281D02*
X-000552Y-007272D01*
X-000260Y-010216D02*
Y-009909D01*
X-000372Y-009543D02*
X000015Y-009930D01*
X-013695Y-003867D02*
Y-002588D01*
Y-003867D02*
X-012751Y-004812D01*
X006295Y-010737D02*
X006738Y-011180D01*
Y-012283D02*
Y-011180D01*
X-002219Y-008090D02*
X-002032Y-007903D01*
X-000792D01*
X-002219Y-010659D02*
Y-008090D01*
X002863Y-006272D02*
X012975D01*
X002486Y-006633D02*
X002653Y-006466D01*
X002663Y-006072D02*
X002863Y-006272D01*
X002131Y-006072D02*
X002663D01*
X013730Y-005517D02*
X013844D01*
X001226Y-010354D02*
X001265Y-010393D01*
X003007Y-009143D02*
X003119Y-009255D01*
Y-009954D02*
Y-009255D01*
Y-009954D02*
X003234Y-010068D01*
X-002760Y-011200D02*
X-002219Y-010659D01*
X-003134Y-011200D02*
X-002760D01*
X002879Y-010186D02*
Y-009478D01*
X-001373Y-003838D02*
Y-003804D01*
X005478Y-015639D02*
X005854D01*
X006368Y-015125D01*
X-003134Y-011200D02*
Y-008306D01*
X-003843Y-007598D02*
X-003134Y-008306D01*
X-003843Y-007598D02*
Y-007155D01*
X001295Y-008464D02*
X001787D01*
X-012751Y-004812D02*
X-011884D01*
X-013607Y-005757D02*
X-013341Y-006023D01*
X-012377D01*
X-013695Y-002588D02*
X-013499Y-002391D01*
X-007800Y-002283D02*
X-007790Y-002273D01*
Y-001933D02*
Y-001889D01*
Y-001933D02*
X-007514Y-002209D01*
Y-002627D02*
Y-002209D01*
Y-002627D02*
X-007368Y-002773D01*
X-006512D01*
X-007555Y-002953D02*
X-006586D01*
X-007800Y-002708D02*
X-007555Y-002953D01*
X-007800Y-002708D02*
Y-002283D01*
X-009945Y-001948D02*
X-008548Y-003346D01*
X-012459Y-018903D02*
X-012440Y-018922D01*
X-012459Y-018903D02*
Y-012149D01*
X-011737Y-011426D01*
X-005300Y-003100D02*
X-004896D01*
X-004146Y-003849D01*
X014021Y-006987D02*
X014307Y-006702D01*
X005559Y-006744D02*
X013413D01*
X013657Y-006987D01*
X014021D01*
X-009886Y-008424D02*
X-008105D01*
X-006512Y-002773D02*
X-005004Y-004281D01*
X-003543D01*
X-006586Y-002953D02*
X-004943Y-004596D01*
X-003567D01*
X012801Y-001663D02*
Y-001653D01*
X-008105Y-008424D02*
X-005516Y-011013D01*
X-006254Y-009935D02*
Y-004881D01*
Y-009935D02*
X-005070Y-011120D01*
X-006091Y-009806D02*
Y-004779D01*
Y-009806D02*
X-004833Y-011064D01*
Y-011434D02*
Y-011064D01*
X-000848Y-013749D02*
X-000393Y-013294D01*
X-006440Y-018922D02*
X-005890Y-018373D01*
X-005368Y-014819D02*
X-005070Y-014521D01*
X001541Y-008169D02*
X001901Y-007808D01*
X001787Y-008464D02*
X002190Y-008060D01*
X006186D01*
X001901Y-007808D02*
X006439D01*
X006462Y-007785D01*
X011360Y004889D02*
X013384Y002865D01*
X013588D02*
X013807Y002646D01*
X013384Y002865D02*
X013588D01*
X001912Y-013196D02*
X001937D01*
X-007840Y028590D02*
Y029460D01*
X-007525Y003817D02*
X-006750Y003042D01*
X-001630Y027100D02*
X003520Y032250D01*
X-005530Y027100D02*
X-001630D01*
X-007840Y028590D02*
X-006790Y027540D01*
X-001699D01*
X003371Y032610D01*
X-007550Y002810D02*
X-006930Y002190D01*
X-001665Y027320D02*
X003445Y032430D01*
X-005744Y027320D02*
X-001665D01*
X007049Y-007867D02*
X012570D01*
X010850Y-000990D02*
X012069Y000229D01*
X003147Y-000147D02*
Y012813D01*
X-001250Y017210D02*
X003147Y012813D01*
X-001250Y017210D02*
Y026320D01*
X-000500Y027070D01*
X000020D01*
X000301Y027351D01*
X-000276Y-002630D02*
X-000016Y-002370D01*
X003910Y-002360D02*
X003920Y-002370D01*
X003910Y-000820D02*
X007560Y002830D01*
Y006650D01*
X-000016Y-002370D02*
X003920D01*
X002565Y-003240D02*
X004842Y-005517D01*
X005320D01*
D68*
X-000841Y-012301D02*
X-000605Y-012538D01*
X000783D01*
X-002072Y-012301D02*
X-000841D01*
X000783Y-012538D02*
X001144Y-012899D01*
X-005140Y-015369D02*
X-002072Y-012301D01*
X-005283Y-015369D02*
X-005140D01*
X-005618Y-015703D02*
X-005283Y-015369D01*
X-005618Y-015714D02*
Y-015703D01*
X-002009Y-012464D02*
X-000913D01*
X-000673Y-012704D01*
X000609D01*
X001360Y-013231D02*
X001586Y-013005D01*
X000609Y-012704D02*
X001137Y-013231D01*
X-005074Y-015529D02*
X-002009Y-012464D01*
X001137Y-013231D02*
X001360D01*
X-005203Y-015529D02*
X-005074D01*
X-005295Y-015621D02*
X-005203Y-015529D01*
X-004390Y028463D02*
Y030415D01*
X-003887D01*
X-006475D02*
X-004390D01*
Y028463D02*
X-004197Y028270D01*
X-000890Y025663D02*
X000817D01*
X001162Y026008D01*
X001352D01*
X001847Y025513D01*
X008172D01*
X-007027Y030968D02*
X-006475Y030415D01*
X-007000Y029889D02*
X-006475Y030415D01*
X-004322Y031355D02*
X-003817Y030850D01*
Y030485D02*
Y030850D01*
X-003887Y030415D02*
X-003817Y030485D01*
X001257Y025126D02*
Y025778D01*
X009320Y-007849D02*
X009326Y-007855D01*
X-001180Y-014931D02*
X-000675Y-015436D01*
X-001180Y-014931D02*
Y-014566D01*
X001725Y-015048D02*
Y-014744D01*
X001477Y-014496D02*
X001725Y-014744D01*
X002735Y-013431D02*
X002900Y-013266D01*
X001070Y-013431D02*
X002735D01*
X000990Y-013591D02*
X003507D01*
X000692Y-013294D02*
X000990Y-013591D01*
X000505Y-012866D02*
X001070Y-013431D01*
X-000745Y-012866D02*
X000505D01*
X-000988Y-012624D02*
X-000745Y-012866D01*
X-001930Y-012624D02*
X-000988D01*
X-004675Y-015369D02*
X-001930Y-012624D01*
X-002139Y-012141D02*
X-000775D01*
X-002268Y-011981D02*
X-000695D01*
X-000848Y-011821D02*
X-000613Y-011586D01*
X-002360Y-011821D02*
X-000848D01*
X-001113Y-011661D02*
X-001025Y-011574D01*
X-002426Y-011661D02*
X-001113D01*
X-005206Y-015209D02*
X-002139Y-012141D01*
X-002599Y-011834D02*
X-002426Y-011661D01*
X-002532Y-011994D02*
X-002360Y-011821D01*
X-002693Y-012406D02*
X-002268Y-011981D01*
X-000695D02*
X-000468Y-012208D01*
X-000775Y-012141D02*
X-000538Y-012378D01*
X-004675Y-015781D02*
Y-015369D01*
X-004080Y-015146D02*
X-003500Y-014566D01*
X-001180D01*
X-003143Y-012919D02*
Y-012494D01*
X-005272Y-015049D02*
X-003143Y-012919D01*
X-005353Y-015209D02*
X-005206D01*
X-006402Y-015049D02*
X-005272D01*
X-005890Y-015746D02*
X-005353Y-015209D01*
X-005890Y-015799D02*
Y-015746D01*
X-006806Y-014645D02*
X-006402Y-015049D01*
X-000393Y-013294D02*
X000692D01*
X-001180Y-014566D02*
X-001110Y-014496D01*
X-002643Y-011994D02*
X-002532D01*
X-003456Y-011834D02*
X-002599D01*
X-002665Y-011674D02*
X-002295Y-011304D01*
X-003389Y-011674D02*
X-002665D01*
X-003143Y-012494D02*
X-002643Y-011994D01*
X-005441Y-009621D02*
X-003389Y-011674D01*
X-005441Y-009621D02*
Y-004565D01*
X-005601Y-009689D02*
X-003456Y-011834D01*
X-002295Y-011304D02*
Y-011119D01*
X-000155Y-012094D02*
X001177D01*
X001590Y-011681D01*
X-000189Y-012368D02*
X001009D01*
X001291Y-012651D01*
X-000199Y-012378D02*
X-000189Y-012368D01*
X-000538Y-012378D02*
X-000199D01*
X-000269Y-012208D02*
X-000155Y-012094D01*
X-000468Y-012208D02*
X-000269D01*
X-010890Y001270D02*
X-010440Y000820D01*
X-010477Y001187D02*
Y001261D01*
X-003367Y-011469D02*
X-002754D01*
X-010861Y-000584D02*
Y000463D01*
Y-000584D02*
X-007833Y-003612D01*
X-006847D01*
X-007766Y-003452D02*
X-006780D01*
X-007700Y-003292D02*
X-006714D01*
X-007634Y-003132D02*
X-006648D01*
X-010631Y-000588D02*
X-007766Y-003452D01*
X-010851Y000847D02*
X-010631Y000627D01*
Y-000588D02*
Y000627D01*
X-010890Y001270D02*
X-010880Y001280D01*
X-010440Y-000552D02*
X-007700Y-003292D01*
X-010440Y-000552D02*
Y000820D01*
X-010272Y-000494D02*
X-007634Y-003132D01*
X-010477Y001261D02*
X-010272Y001056D01*
Y-000494D02*
Y001056D01*
X-005281Y-009555D02*
X-003367Y-011469D01*
X-006648Y-003132D02*
X-005281Y-004498D01*
Y-009555D02*
Y-004498D01*
X-006714Y-003292D02*
X-005441Y-004565D01*
X-006780Y-003452D02*
X-005601Y-004631D01*
Y-009689D02*
Y-004631D01*
X-006847Y-003612D02*
X-005851Y-004607D01*
Y-006545D02*
Y-004607D01*
X-001110Y-014496D02*
X001477D01*
Y-014366D02*
X001767Y-014076D01*
X001477Y-014496D02*
Y-014366D01*
X-004150Y028548D02*
Y029667D01*
Y028548D02*
X-003967Y028365D01*
Y028175D02*
Y028365D01*
X-004102Y028040D02*
X-003967Y028175D01*
X-004570Y028040D02*
X-004102D01*
X-006130Y027880D02*
X-004035D01*
X-003690Y028225D02*
Y029550D01*
X-004035Y027880D02*
X-003690Y028225D01*
X-004660Y028130D02*
X-004570Y028040D01*
D70*
X005180Y019610D02*
X008172Y022602D01*
X005180Y010210D02*
Y019610D01*
Y010210D02*
X007170Y008220D01*
X008172Y022602D02*
Y025513D01*
X007170Y008220D02*
X008812D01*
D71*
X-010713Y-003582D02*
Y-002174D01*
X-009488Y010371D02*
X-009069Y010790D01*
Y019259D01*
X001125Y029453D01*
X001962D01*
X-011509Y-001378D02*
X-010713Y-002174D01*
X-011509Y-001378D02*
Y004480D01*
X008647Y-017509D02*
X009415D01*
X007368Y-016230D02*
X008647Y-017509D01*
X011711Y-019258D02*
X011866Y-019104D01*
X004809Y-016230D02*
X007368D01*
Y-015125D01*
X010419Y-019258D02*
X011711D01*
X010225Y-019064D02*
X010419Y-019258D01*
X010225Y-019064D02*
Y-018319D01*
X009415Y-017509D02*
X010225Y-018319D01*
X011866Y-019104D02*
Y-012460D01*
X-007090Y009330D02*
Y010549D01*
Y009330D02*
X007210Y-004970D01*
X011944D01*
D73*
X-013863Y008377D02*
Y017177D01*
Y007245D02*
Y008377D01*
X-011629Y005012D02*
X-011198D01*
X-010024Y003838D01*
Y-000432D02*
Y003838D01*
X-006431Y-002578D02*
X-004971Y-004038D01*
X-013863Y007245D02*
X-011629Y005012D01*
X-010024Y-000432D02*
X-009020Y-001436D01*
X-005096Y-005288D02*
X-004739Y-004930D01*
X-005096Y-009189D02*
X-004581Y-009704D01*
X-005096Y-009189D02*
Y-005288D01*
X-009020Y-001436D02*
X-007882D01*
X-007250Y-002578D02*
X-006431D01*
X-007319Y-002509D02*
X-007250Y-002578D01*
X-007319Y-002509D02*
Y-001999D01*
X-007882Y-001436D02*
X-007319Y-001999D01*
X-004971Y-004038D02*
X-004722D01*
D82*
X-007042Y-004360D02*
D03*
D93*
X-004700Y001534D02*
D03*
X009276Y017086D02*
D03*
D94*
X004565Y-003240D02*
D03*
X003565D02*
D03*
X002565D02*
D03*
X004368Y-015125D02*
D03*
X005368D02*
D03*
X006368D02*
D03*
X013844Y-005517D02*
D03*
Y-006517D02*
D03*
Y-007517D02*
D03*
X-007525Y004812D02*
D03*
Y005813D02*
D03*
Y003812D02*
D03*
Y002812D02*
D03*
Y001813D02*
D03*
Y000812D02*
D03*
X009415Y-018509D02*
D03*
X-010440Y-018922D02*
D03*
X-011440D02*
D03*
X-009440D02*
D03*
X-008440D02*
D03*
X-007440D02*
D03*
X-006440D02*
D03*
X-012786Y025734D02*
D03*
D95*
X-009061Y030629D02*
D03*
X009061D02*
D03*
X012352Y-003186D02*
D03*
X009060Y-015052D02*
D03*
X-009062Y-015023D02*
D03*
X-012353Y014881D02*
D03*
Y-003178D02*
D03*
X012352Y014881D02*
D03*
D96*
X-012879Y011012D02*
D03*
X-010911D02*
D03*
D97*
X004927Y-017684D02*
D03*
X006659D02*
D03*
D98*
X-011873Y-014832D02*
D03*
X-010873D02*
D03*
D99*
X-012943Y021228D02*
D03*
D100*
Y019227D02*
D03*
D101*
X-003971Y-018985D02*
D03*
X-004955D02*
D03*
X-002987D02*
D03*
D102*
X012775Y-012887D02*
D03*
Y-015447D02*
D03*
X010995Y-012887D02*
D03*
Y-015447D02*
D03*
D103*
X008812Y005176D02*
D03*
X009312Y004676D02*
D03*
X008312Y005676D02*
D03*
Y004676D02*
D03*
X009312Y005676D02*
D03*
Y007645D02*
D03*
X008312Y006645D02*
D03*
Y007645D02*
D03*
X009312Y006645D02*
D03*
X008812Y007145D02*
D03*
D104*
X006770Y-005468D02*
D03*
X006080Y-005460D02*
D03*
X001236Y-012991D02*
D03*
X001937Y-013149D02*
D03*
X006321Y-001087D02*
D03*
X007010Y-005708D02*
D03*
X006321Y-005700D02*
D03*
X003421Y-008739D02*
D03*
Y-009734D02*
D03*
X001626Y-013005D02*
D03*
X-005295Y-016479D02*
D03*
X010850Y-000970D02*
D03*
X010465Y-002495D02*
D03*
X012307Y-001533D02*
D03*
X002879Y015050D02*
D03*
X003620Y012420D02*
D03*
X008800Y010280D02*
D03*
X007520Y010860D02*
D03*
X007530Y009856D02*
D03*
X-004150Y029667D02*
D03*
X-007000Y029860D02*
D03*
X-004197Y028270D02*
D03*
X-003817Y030485D02*
D03*
X-007050Y030968D02*
D03*
X-004322Y031355D02*
D03*
X-005035Y029535D02*
D03*
Y030185D02*
D03*
X-005685Y029535D02*
D03*
Y030185D02*
D03*
X-005350Y029860D02*
D03*
X-013855Y017185D02*
D03*
X-006807Y-001901D02*
D03*
X000301Y027351D02*
D03*
X-011599Y-007066D02*
D03*
Y-007785D02*
D03*
X-000393Y021606D02*
D03*
X000462Y021373D02*
D03*
X-000630Y022463D02*
D03*
X000482Y021993D02*
D03*
X-000318Y021056D02*
D03*
X-000278Y022116D02*
D03*
X006765Y-012293D02*
D03*
X004872Y-012414D02*
D03*
X006557Y-010364D02*
D03*
X007525Y-013474D02*
D03*
X005820Y-012456D02*
D03*
X-000658Y009961D02*
D03*
X-007042Y-004724D02*
D03*
Y-004350D02*
D03*
X003870Y-011494D02*
D03*
X003517Y-011816D02*
D03*
X002487Y-010826D02*
D03*
X-002643Y002009D02*
D03*
X-010448Y005496D02*
D03*
X-011723Y009019D02*
D03*
X-010363Y011944D02*
D03*
X-009483Y012931D02*
D03*
X-010068Y008641D02*
D03*
X-009243Y-012826D02*
D03*
X012277Y-007366D02*
D03*
X008470Y-007339D02*
D03*
X-002585Y015301D02*
D03*
X003142Y015646D02*
D03*
X001970Y016686D02*
D03*
X002570Y014170D02*
D03*
X-000515Y030243D02*
D03*
X002487D02*
D03*
X005180Y026368D02*
D03*
X002960Y026713D02*
D03*
X004870Y023893D02*
D03*
X005470Y023838D02*
D03*
X004725Y024586D02*
D03*
X-000743Y001951D02*
D03*
X-004580Y005244D02*
D03*
X-003598Y004026D02*
D03*
X-002598Y007829D02*
D03*
X-003543Y009866D02*
D03*
X-003980Y011229D02*
D03*
X-000360Y011091D02*
D03*
X000385Y008669D02*
D03*
X003260Y018708D02*
D03*
X001197Y019058D02*
D03*
X-000370Y019938D02*
D03*
X-001943Y025231D02*
D03*
X-000107Y027451D02*
D03*
X-000308Y026711D02*
D03*
X002365Y024861D02*
D03*
X-000888Y024321D02*
D03*
X-000890Y025663D02*
D03*
X004072Y-013149D02*
D03*
X-000560Y023231D02*
D03*
X001257Y025778D02*
D03*
X002294Y024089D02*
D03*
X009326Y-007855D02*
D03*
X010291Y-013140D02*
D03*
X-001270Y-017114D02*
D03*
X-001763Y-016651D02*
D03*
X-001613Y-015929D02*
D03*
X-001793Y-017241D02*
D03*
X002900Y-013266D02*
D03*
X-005310Y-011426D02*
D03*
X-002848Y-014316D02*
D03*
X-002410Y-015119D02*
D03*
X-003318Y-015289D02*
D03*
X-003835Y-015406D02*
D03*
X-003840Y-016064D02*
D03*
X-001160Y-015521D02*
D03*
X-000765Y-014819D02*
D03*
X-001585Y-015336D02*
D03*
X002495Y-012784D02*
D03*
X002457Y-014229D02*
D03*
X002455Y-014731D02*
D03*
X001865Y-015364D02*
D03*
X000917Y-015419D02*
D03*
X001547Y-016156D02*
D03*
X002102Y-016814D02*
D03*
X001290Y-017266D02*
D03*
X001435Y-016689D02*
D03*
X-000768Y-016754D02*
D03*
X-000580Y-016129D02*
D03*
X-000440Y-017219D02*
D03*
X-000915Y-016454D02*
D03*
X-003513Y-016706D02*
D03*
X-001750Y-014256D02*
D03*
X-002225Y-013754D02*
D03*
X-002730Y-012406D02*
D03*
X-001543Y-012854D02*
D03*
X-001960Y-013039D02*
D03*
X-001025Y-011574D02*
D03*
X-001540Y-013254D02*
D03*
X-003494Y-012795D02*
D03*
X000353Y-013941D02*
D03*
X013307Y000410D02*
D03*
X013143Y-007295D02*
D03*
X-010880Y-007253D02*
D03*
X-008302Y-005767D02*
D03*
X005045Y-009871D02*
D03*
X-010959Y001851D02*
D03*
X-007042Y-003985D02*
D03*
X-003784Y-006072D02*
D03*
X-004158Y-005422D02*
D03*
X-004729Y-008444D02*
D03*
X012801Y-001653D02*
D03*
X005559Y-006744D02*
D03*
X014149Y-002568D02*
D03*
X009815Y-000172D02*
D03*
X014169Y-001417D02*
D03*
X014208Y002973D02*
D03*
X013307Y002625D02*
D03*
X013807Y002646D02*
D03*
X010197Y-002073D02*
D03*
X010205Y-001573D02*
D03*
X004835Y-006026D02*
D03*
X003273Y-001968D02*
D03*
X-000792Y-004950D02*
D03*
X-000802Y-004300D02*
D03*
X002614Y-003946D02*
D03*
X-003695Y000601D02*
D03*
X-004188Y-000334D02*
D03*
X-005395Y003470D02*
D03*
X000301Y000404D02*
D03*
X011935Y-019133D02*
D03*
X-007680Y009596D02*
D03*
X010305Y-013799D02*
D03*
X008499Y-013434D02*
D03*
X-003567Y-004596D02*
D03*
X006295Y-010737D02*
D03*
X002486Y-006633D02*
D03*
X002131Y-006072D02*
D03*
X003765Y-009940D02*
D03*
X002879Y-009478D02*
D03*
X-003134Y-011200D02*
D03*
X000242Y-009005D02*
D03*
X006186Y-008060D02*
D03*
X006462Y-007785D02*
D03*
X-010477Y-005718D02*
D03*
Y-006269D02*
D03*
X-011028D02*
D03*
Y-005718D02*
D03*
X-009178Y-003688D02*
D03*
X-009907D02*
D03*
X-009778Y-005295D02*
D03*
X-010497Y-007184D02*
D03*
X-010034Y-005039D02*
D03*
X-013607Y-005757D02*
D03*
X-012377Y-006023D02*
D03*
X002597Y-019212D02*
D03*
X002480Y-013174D02*
D03*
X-001993Y-019113D02*
D03*
X-001343Y-018188D02*
D03*
X-001983Y-018375D02*
D03*
X-001430Y-018891D02*
D03*
X-002790Y-017349D02*
D03*
X002190Y-018060D02*
D03*
X002289Y-017470D02*
D03*
X005940Y-013611D02*
D03*
X007486Y-010432D02*
D03*
X010881Y-018928D02*
D03*
X002879Y-010186D02*
D03*
X-007570Y008770D02*
D03*
X-009069Y005139D02*
D03*
X011541Y-005570D02*
D03*
X010232Y-007627D02*
D03*
X004543Y-001564D02*
D03*
X-000516Y-003503D02*
D03*
X-005328Y005935D02*
D03*
X-004562Y-006072D02*
D03*
X-008070Y-012216D02*
D03*
X-007514Y-013917D02*
D03*
X003937Y-011084D02*
D03*
X-002239Y-017795D02*
D03*
X002358Y-016038D02*
D03*
X002200Y-018848D02*
D03*
X-010251Y-017499D02*
D03*
X-012219Y-016574D02*
D03*
X004809Y-016230D02*
D03*
X-009327Y006815D02*
D03*
X-009424Y003406D02*
D03*
X-010373Y007290D02*
D03*
X-007140Y007860D02*
D03*
X-009562Y001881D02*
D03*
X-009434Y-003297D02*
D03*
X-010162D02*
D03*
X-010880Y001280D02*
D03*
X-010477Y001261D02*
D03*
X-010851Y000847D02*
D03*
X002633Y-005541D02*
D03*
X-004394Y-008730D02*
D03*
X-004749Y-007785D02*
D03*
X-008705Y-000570D02*
D03*
X-004060Y003207D02*
D03*
X-001373Y-003838D02*
D03*
X-002288D02*
D03*
X-001067D02*
D03*
X-001983D02*
D03*
X-002593D02*
D03*
X-002898D02*
D03*
X-001678D02*
D03*
X005478Y-015639D02*
D03*
X-010861Y000463D02*
D03*
X-007790Y-002273D02*
D03*
X-011884Y-004812D02*
D03*
X-009886Y-008424D02*
D03*
X-005516Y-011013D02*
D03*
X-007790Y-001889D02*
D03*
X001295Y-008464D02*
D03*
X001541Y-008169D02*
D03*
X000015Y-009930D02*
D03*
X-000260Y-010216D02*
D03*
X-000792Y-007903D02*
D03*
X-013499Y-002391D02*
D03*
X-004739Y-004930D02*
D03*
X-004581Y-009704D02*
D03*
X-013863Y008377D02*
D03*
X-004146Y-003849D02*
D03*
X-008548Y-003346D02*
D03*
X-009945Y-001948D02*
D03*
X000655Y-010058D02*
D03*
X003549Y-013149D02*
D03*
X-001323Y-009163D02*
D03*
X-000890Y-008493D02*
D03*
X-003981Y-009950D02*
D03*
X004041Y-007568D02*
D03*
X004336Y-007106D02*
D03*
X-003784Y-010570D02*
D03*
X010860Y000250D02*
D03*
X012820Y-011367D02*
D03*
X011915Y-011741D02*
D03*
X-005831Y-006545D02*
D03*
X-003843Y-007155D02*
D03*
X-006806Y-014645D02*
D03*
X-008253Y-017204D02*
D03*
X-005435Y-012519D02*
D03*
X-005378Y-013589D02*
D03*
X-005848Y-014211D02*
D03*
X-006166Y-016869D02*
D03*
X-006697Y-017421D02*
D03*
X000242Y-003080D02*
D03*
X000340Y-000167D02*
D03*
X000517Y000916D02*
D03*
X002495Y-001400D02*
D03*
X004690Y000542D02*
D03*
X009927Y-016289D02*
D03*
X-005300Y-003100D02*
D03*
X000586Y-001919D02*
D03*
X-003587Y-003769D02*
D03*
X-005310Y-000226D02*
D03*
X000881Y-003070D02*
D03*
X007670Y-004620D02*
D03*
X-010693Y002727D02*
D03*
X008086Y-008149D02*
D03*
X-004722Y-004038D02*
D03*
X002702Y-018611D02*
D03*
X002860Y-017854D02*
D03*
X000687Y-014266D02*
D03*
Y-013617D02*
D03*
X-002760Y-011444D02*
D03*
X-002295Y-011119D02*
D03*
X-000613Y-011586D02*
D03*
X-000369Y-011968D02*
D03*
X-000175Y-011651D02*
D03*
X001590Y-011681D02*
D03*
X000038Y-013617D02*
D03*
X001541Y-010108D02*
D03*
X001265Y-010393D02*
D03*
X-000848Y-013749D02*
D03*
X-004080Y-015146D02*
D03*
X-001180Y-014566D02*
D03*
X000038Y-014266D02*
D03*
X001291Y-012651D02*
D03*
X-005368Y-014819D02*
D03*
X-004675Y-015781D02*
D03*
X001725Y-015048D02*
D03*
X-000675Y-015436D02*
D03*
X002460Y-013821D02*
D03*
X001767Y-014076D02*
D03*
X-007840Y029460D02*
D03*
X-003690Y029550D02*
D03*
X-005778Y027286D02*
D03*
X-005530Y027080D02*
D03*
X-004660Y028130D02*
D03*
X-006130Y027880D02*
D03*
X003147Y-000147D02*
D03*
X003910Y-002360D02*
D03*
Y-000820D02*
D03*
X007560Y006650D02*
D03*
X005320Y-005517D02*
D03*
X-004188Y026086D02*
D03*
X-003639Y023220D02*
D03*
X-004189Y030779D02*
D03*
D105*
X008812Y008220D02*
D03*
X001962Y029453D02*
D03*
X-009488Y010371D02*
D03*
X-011353Y004637D02*
D03*
X-010703Y-003582D02*
D03*
X008172Y025513D02*
D03*
X011856Y-012460D02*
D03*
X011944Y-004970D02*
D03*
X-007095Y010534D02*
D03*
D106*
X000787Y024479D02*
D03*
Y024006D02*
D03*
X000314Y024479D02*
D03*
Y024006D02*
D03*
D107*
X008812Y013103D02*
D03*
Y009107D02*
D03*
D108*
X013863Y-007135D02*
D03*
M02*
