M48
;Layer_Color=9474304
;FILE_FORMAT=2:4
INCH
;TYPE=PLATED
T1F00S00C0.0120
T2F00S00C0.0130
T3F00S00C0.0240
T4F00S00C0.0300
T5F00S00C0.0315
T6F00S00C0.0335
T7F00S00C0.0354
T8F00S00C0.0380
T9F00S00C0.0394
T10F00S00C0.0400
T11F00S00C0.0512
T12F00S00C0.1260
;TYPE=NON_PLATED
T13F00S00C0.0394
%
T01
X010881Y-018928
X011935Y-019133
X009927Y-016289
X010305Y-013799
X010291Y-013140
X008499Y-013434
X007525Y-013474
X005940Y-013611
X004072Y-013149
X003549
X002900Y-013266
X002480Y-013174
X002495Y-012784
X001937Y-013149
X001626Y-013005
X001236Y-012991
X000687Y-013617
Y-014266
X000038
X000353Y-013941
X000038Y-013617
X-000848Y-013749
X-001180Y-014566
X-000765Y-014819
X-000675Y-015436
X-001160Y-015521
X-001585Y-015336
X-001613Y-015929
X-001763Y-016651
X-001793Y-017241
X-001270Y-017114
X-000768Y-016754
X-000915Y-016454
X-000580Y-016129
X-000440Y-017219
X001290Y-017266
X001435Y-016689
X001547Y-016156
X002358Y-016038
X002102Y-016814
X002289Y-017470
X002190Y-018060
X002200Y-018848
X002702Y-018611
X002597Y-019212
X002860Y-017854
X001865Y-015364
X001725Y-015048
X001767Y-014076
X002457Y-014229
X002460Y-013821
X002455Y-014731
X000917Y-015419
X-002410Y-015119
X-003318Y-015289
X-003835Y-015406
X-004080Y-015146
X-003840Y-016064
X-003513Y-016706
X-002790Y-017349
X-002239Y-017795
X-001983Y-018375
X-001993Y-019113
X-001430Y-018891
X-001343Y-018188
X-001750Y-014256
X-002225Y-013754
X-001960Y-013039
X-001543Y-012854
X-001540Y-013254
X-002848Y-014316
X-003494Y-012795
X-005378Y-013589
X-005848Y-014211
X-005368Y-014819
X-006806Y-014645
X-007514Y-013917
X-006166Y-016869
X-006697Y-017421
X-005295Y-016479
X-004675Y-015781
X004809Y-016230
X005478Y-015639
X-008253Y-017204
X-010251Y-017499
X-012219Y-016574
X-009243Y-012826
X-008070Y-012216
X-009886Y-008424
X-010497Y-007184
X-010880Y-007253
X-011599Y-007066
Y-007785
X-011028Y-006269
X-010477
Y-005718
X-011028
X-012377Y-006023
X-013607Y-005757
X-011884Y-004812
X-010034Y-005039
X-009778Y-005295
X-009907Y-003688
X-010162Y-003297
X-009434
X-009178Y-003688
X-008548Y-003346
X-007790Y-002273
Y-001889
X-009945Y-001948
X-008705Y-000570
X-010861Y000463
X-010851Y000847
X-010880Y001280
X-010477Y001261
X-010959Y001851
X-010693Y002727
X-009562Y001881
X-013499Y-002391
X-008302Y-005767
X-007042Y-004724
Y-004350
Y-003985
X-006807Y-001901
X-005300Y-003100
X-004722Y-004038
X-004146Y-003849
X-003587Y-003769
X-002898Y-003838
X-002593
X-002288
X-001983
X-001678
X-001373
X-001067
X-000802Y-004300
X-000792Y-004950
X-000516Y-003503
X000242Y-003080
X000881Y-003070
X000586Y-001919
X000340Y-000167
X000301Y000404
X000517Y000916
X-000743Y001951
X-002643Y002009
X-003695Y000601
X-004188Y-000334
X-005310Y-000226
X-004739Y-004930
X-004158Y-005422
X-003784Y-006072
X-004562
X-005831Y-006545
X-004749Y-007785
X-004729Y-008444
X-004394Y-008730
X-004581Y-009704
X-003981Y-009950
X-003784Y-010570
X-003134Y-011200
X-002760Y-011444
X-002295Y-011119
X-002730Y-012406
X-001025Y-011574
X-000613Y-011586
X-000175Y-011651
X-000369Y-011968
X-000260Y-010216
X000015Y-009930
X000655Y-010058
X001541Y-010108
X001265Y-010393
X001590Y-011681
X001291Y-012651
X002487Y-010826
X002879Y-010186
Y-009478
X003421Y-009734
X003765Y-009940
X003937Y-011084
X003870Y-011494
X003517Y-011816
X004872Y-012414
X005820Y-012456
X006765Y-012293
X006295Y-010737
X006557Y-010364
X007486Y-010432
X005045Y-009871
X003421Y-008739
X004041Y-007568
X004336Y-007106
X004835Y-006026
X005320Y-005517
X006080Y-005460
X006321Y-005700
X006770Y-005468
X007010Y-005708
X007670Y-004620
X005559Y-006744
X006462Y-007785
X006186Y-008060
X001541Y-008169
X001295Y-008464
X000242Y-009005
X-000890Y-008493
X-000792Y-007903
X-001323Y-009163
X-003843Y-007155
X-003567Y-004596
X002614Y-003946
X002633Y-005541
X002131Y-006072
X002486Y-006633
X002495Y-001400
X003273Y-001968
X003910Y-002360
X004543Y-001564
X003910Y-000820
X003147Y-000147
X004690Y000542
X006321Y-001087
X-005516Y-011013
X-005310Y-011426
X-005435Y-012519
X008086Y-008149
X008470Y-007339
X009326Y-007855
X010232Y-007627
X012277Y-007366
X013143Y-007295
X011541Y-005570
X010465Y-002495
X010197Y-002073
X010205Y-001573
X010850Y-000970
X010860Y000250
X009815Y-000172
X012307Y-001533
X012801Y-001653
X014169Y-001417
X014149Y-002568
X013307Y000410
Y002625
X013807Y002646
X012820Y-011367
X011915Y-011741
X014208Y002973
X008800Y010280
X007530Y009856
X007520Y010860
X007560Y006650
X000385Y008669
X-000658Y009961
X-000360Y011091
X-003980Y011229
X-003543Y009866
X-002598Y007829
X-004580Y005244
X-005328Y005935
X-005395Y003470
X-004060Y003207
X-003598Y004026
X-007140Y007860
X-007570Y008770
X-002585Y015301
X002879Y015050
X003142Y015646
X002570Y014170
X003620Y012420
X001970Y016686
X-009483Y012931
X-010363Y011944
X-010068Y008641
X-010373Y007290
X-009327Y006815
X-009069Y005139
X-010448Y005496
X-009424Y003406
X-011723Y009019
X-013863Y008377
X-007680Y009596
X-013855Y017185
X-007840Y029460
X-007000Y029860
X-007050Y030968
X-005685Y030185
Y029535
X-005035
X-005350Y029860
X-005035Y030185
X-004150Y029667
X-003690Y029550
X-003817Y030485
X-004189Y030779
X-004322Y031355
X-004197Y028270
X-004660Y028130
X-006130Y027880
X-005778Y027286
X-005530Y027080
X-004188Y026086
X-001943Y025231
X-000890Y025663
X-000888Y024321
X-000560Y023231
X-000630Y022463
X-000278Y022116
X-000393Y021606
X-000318Y021056
X000462Y021373
X000482Y021993
X-000370Y019938
X001197Y019058
X003260Y018708
X002294Y024089
X002365Y024861
X001257Y025778
X-000308Y026711
X-000107Y027451
X000301Y027351
X002960Y026713
X005180Y026368
X004725Y024586
X004870Y023893
X005470Y023838
X002487Y030243
X-000515
X-003639Y023220
T02
X000314Y024006
X000787
Y024479
X000314
T03
X-010703Y-003582
X011944Y-004970
X011856Y-012460
X008812Y008220
X-007095Y010534
X-009488Y010371
X-011353Y004637
X001962Y029453
X008172Y025513
T04
X-011873Y-014832
X-010873
T05
X-004955Y-018985
X-003971
X-002987
T06
X008312Y004676
X008812Y005176
X009312Y004676
Y005676
Y006645
Y007645
X008312
Y006645
Y005676
X008812Y007145
T07
X009415Y-018509
Y-017509
X007368Y-015125
X006368
X005368
X004368
X-006440Y-018922
X-007440
X-008440
X-009440
X-010440
X-011440
X-012440
X-007525Y000812
Y001813
Y002812
X001565Y-003240
X002565
X003565
X004565
X013844Y-004517
Y-005517
Y-006517
Y-007517
X-007525Y003812
Y004812
Y005813
Y006812
X-012786Y025734
Y026734
T08
X008812Y009107
Y013103
T09
X-012879Y011012
X-010911
T10
X010995Y-015447
X012775
Y-012887
X010995
T11
X-012943Y019227
Y021228
T12
X009060Y-015052
X-009062Y-015023
X-012353Y-003178
X-004700Y001534
X012352Y-003186
Y014881
X009276Y017086
X-012353Y014881
X-009061Y030629
X009061
T13
X004927Y-017684
X006659
M30
