%FSLAX25Y25*%
%MOIN*%
G70*
G01*
G75*
G04 Layer_Color=8388736*
%ADD10R,0.03740X0.03150*%
%ADD11R,0.04134X0.05906*%
%ADD12R,0.02362X0.04134*%
%ADD13R,0.03543X0.02953*%
%ADD14R,0.07087X0.29528*%
%ADD15O,0.01378X0.03150*%
%ADD16O,0.03150X0.01378*%
%ADD17R,0.09843X0.09843*%
%ADD18R,0.01969X0.12205*%
%ADD19R,0.07874X0.09843*%
%ADD20R,0.07874X0.12992*%
%ADD21R,0.02362X0.05512*%
%ADD22R,0.04331X0.05709*%
%ADD23R,0.00984X0.07087*%
%ADD24O,0.06890X0.02165*%
%ADD25O,0.02165X0.06890*%
%ADD26R,0.02953X0.03543*%
%ADD27R,0.03150X0.03740*%
%ADD28R,0.04331X0.07480*%
%ADD29R,0.05709X0.04331*%
%ADD30R,0.04134X0.07087*%
%ADD31R,0.03937X0.09055*%
%ADD32R,0.05512X0.02362*%
%ADD33R,0.04331X0.07480*%
%ADD34O,0.03150X0.01181*%
%ADD35O,0.01181X0.03150*%
%ADD36R,0.02362X0.02362*%
%ADD37R,0.03937X0.01181*%
%ADD38R,0.02756X0.01181*%
%ADD39R,0.07087X0.04724*%
%ADD40R,0.06102X0.02362*%
%ADD41R,0.05906X0.11024*%
%ADD42R,0.03150X0.01969*%
%ADD43R,0.04134X0.08661*%
%ADD44R,0.05906X0.17716*%
%ADD45R,0.05906X0.16142*%
%ADD46O,0.01772X0.08268*%
%ADD47O,0.02362X0.13583*%
%ADD48R,0.18898X0.20315*%
%ADD49R,0.01969X0.02362*%
%ADD50R,0.05315X0.02362*%
%ADD51R,0.08465X0.09843*%
%ADD52C,0.01200*%
%ADD53C,0.02000*%
%ADD54C,0.01200*%
%ADD55C,0.03000*%
%ADD56C,0.00800*%
%ADD57C,0.01000*%
%ADD58C,0.04000*%
%ADD59C,0.01500*%
%ADD60R,0.07569X0.07569*%
%ADD61R,0.03937X0.04715*%
%ADD62R,0.07776X0.02559*%
%ADD63R,0.16929X0.07087*%
%ADD64R,0.04134X0.11614*%
%ADD65R,0.01705X0.00581*%
%ADD66R,0.01705X0.01280*%
%ADD67R,0.00239X0.00358*%
%ADD68R,0.00342X0.00386*%
%ADD69R,0.00342X0.00386*%
%ADD70R,0.00239X0.00358*%
%ADD71R,0.00280X0.00186*%
%ADD72R,0.00441X0.00236*%
%ADD73R,0.00248X0.00441*%
%ADD74R,0.00262X0.00395*%
%ADD75R,0.00286X0.00429*%
%ADD76R,0.02142X0.00344*%
%ADD77R,0.04702X0.00344*%
%ADD78C,0.04724*%
%ADD79C,0.05906*%
%ADD80R,0.05906X0.05906*%
%ADD81C,0.05315*%
%ADD82C,0.06000*%
%ADD83C,0.07874*%
%ADD84C,0.19685*%
%ADD85R,0.05906X0.05906*%
%ADD86C,0.09055*%
%ADD87R,0.09055X0.09055*%
%ADD88C,0.02400*%
%ADD89C,0.04800*%
%ADD90C,0.00984*%
%ADD91C,0.00400*%
%ADD92C,0.02362*%
%ADD93C,0.00787*%
%ADD94C,0.00700*%
%ADD95C,0.01969*%
%ADD96C,0.00492*%
%ADD97C,0.00591*%
%ADD98R,0.02165X0.06299*%
%ADD99R,0.02165X0.10236*%
%ADD100R,0.04540X0.03950*%
%ADD101R,0.04934X0.06706*%
%ADD102R,0.03162X0.04934*%
%ADD103R,0.04343X0.03753*%
%ADD104R,0.07887X0.30328*%
%ADD105O,0.02158X0.03930*%
%ADD106O,0.03930X0.02158*%
%ADD107R,0.10642X0.10642*%
%ADD108R,0.02749X0.12985*%
%ADD109R,0.08674X0.10642*%
%ADD110R,0.08674X0.13792*%
%ADD111R,0.03162X0.06312*%
%ADD112R,0.05131X0.06509*%
%ADD113R,0.01564X0.07667*%
%ADD114O,0.07470X0.02745*%
%ADD115O,0.02745X0.07470*%
%ADD116R,0.03753X0.04343*%
%ADD117R,0.03950X0.04540*%
%ADD118R,0.05131X0.08280*%
%ADD119R,0.06509X0.05131*%
%ADD120R,0.04934X0.07887*%
%ADD121R,0.04737X0.09855*%
%ADD122R,0.06312X0.03162*%
%ADD123R,0.05131X0.08280*%
%ADD124O,0.03950X0.01981*%
%ADD125O,0.01981X0.03950*%
%ADD126R,0.03162X0.03162*%
%ADD127R,0.04737X0.01981*%
%ADD128R,0.03136X0.01561*%
%ADD129R,0.07887X0.05524*%
%ADD130R,0.06902X0.03162*%
%ADD131R,0.06706X0.11824*%
%ADD132R,0.03950X0.02769*%
%ADD133R,0.04934X0.09461*%
%ADD134R,0.06706X0.18517*%
%ADD135R,0.06706X0.16942*%
%ADD136O,0.02572X0.09068*%
%ADD137O,0.03162X0.14383*%
%ADD138R,0.19698X0.21115*%
%ADD139R,0.02769X0.03162*%
%ADD140R,0.06115X0.03162*%
%ADD141R,0.09265X0.10642*%
%ADD142C,0.05524*%
%ADD143C,0.06706*%
%ADD144R,0.06706X0.06706*%
%ADD145C,0.06115*%
%ADD146C,0.06800*%
%ADD147C,0.08674*%
%ADD148C,0.20485*%
%ADD149R,0.06706X0.06706*%
%ADD150C,0.09855*%
%ADD151R,0.09855X0.09855*%
%ADD152C,0.03200*%
D100*
X1254331Y1502658D02*
D03*
Y1495571D02*
D03*
X1449803Y1208268D02*
D03*
Y1201181D02*
D03*
X1199409Y1247736D02*
D03*
Y1240650D02*
D03*
X1439862Y1201181D02*
D03*
Y1208268D02*
D03*
X1430020Y1201181D02*
D03*
Y1208268D02*
D03*
X1391535Y1245788D02*
D03*
Y1238701D02*
D03*
X1370079Y1271063D02*
D03*
Y1278150D02*
D03*
X1197933Y1305512D02*
D03*
Y1312598D02*
D03*
Y1320276D02*
D03*
Y1327362D02*
D03*
X1277953Y1257972D02*
D03*
Y1250886D02*
D03*
X1205315Y1240650D02*
D03*
Y1247736D02*
D03*
D101*
X1245374Y1516831D02*
D03*
X1237697D02*
D03*
X1245374Y1487303D02*
D03*
X1237697D02*
D03*
X1200492Y1411909D02*
D03*
X1192815D02*
D03*
X1200492Y1404035D02*
D03*
X1192815D02*
D03*
X1200492Y1396161D02*
D03*
X1192815D02*
D03*
X1200492Y1388287D02*
D03*
X1192815D02*
D03*
D102*
X1245276Y1495276D02*
D03*
X1237795D02*
D03*
Y1504921D02*
D03*
X1241535D02*
D03*
X1245276D02*
D03*
D103*
X1449803Y1185532D02*
D03*
Y1192421D02*
D03*
X1224606Y1456299D02*
D03*
Y1449409D02*
D03*
X1357776Y1299705D02*
D03*
Y1292815D02*
D03*
X1287598Y1294291D02*
D03*
Y1301181D02*
D03*
X1294783Y1273130D02*
D03*
Y1280020D02*
D03*
X1430020Y1185532D02*
D03*
Y1192421D02*
D03*
X1439862Y1185532D02*
D03*
Y1192421D02*
D03*
X1383957Y1252579D02*
D03*
Y1245689D02*
D03*
X1204823Y1305610D02*
D03*
Y1312500D02*
D03*
X1287795Y1250984D02*
D03*
Y1257874D02*
D03*
X1354331Y1229004D02*
D03*
Y1235894D02*
D03*
D104*
X1235138Y1307087D02*
D03*
X1257185D02*
D03*
D105*
X1222441Y1324803D02*
D03*
X1219882D02*
D03*
X1217323D02*
D03*
X1214764D02*
D03*
Y1309055D02*
D03*
X1217323D02*
D03*
X1219882D02*
D03*
X1222441D02*
D03*
D106*
X1210728Y1320768D02*
D03*
Y1318209D02*
D03*
Y1315650D02*
D03*
Y1313091D02*
D03*
X1226476D02*
D03*
Y1315650D02*
D03*
Y1318209D02*
D03*
Y1320768D02*
D03*
D107*
X1218602Y1316929D02*
D03*
D108*
X1377755Y1213799D02*
D03*
X1380905D02*
D03*
X1384055D02*
D03*
X1387204D02*
D03*
X1390354D02*
D03*
D109*
X1401574Y1190177D02*
D03*
X1366535D02*
D03*
D110*
Y1213405D02*
D03*
X1401574D02*
D03*
D111*
X1212598Y1245472D02*
D03*
X1220079D02*
D03*
X1216339Y1252953D02*
D03*
D112*
X1220276Y1261024D02*
D03*
X1212402D02*
D03*
D113*
X1336024Y1426378D02*
D03*
X1334055D02*
D03*
X1332087D02*
D03*
X1330118D02*
D03*
X1328150D02*
D03*
X1326181D02*
D03*
X1324213D02*
D03*
X1322244D02*
D03*
X1320276D02*
D03*
X1318307D02*
D03*
X1316339D02*
D03*
X1314370D02*
D03*
X1312402D02*
D03*
X1310433D02*
D03*
X1308465D02*
D03*
X1306496D02*
D03*
X1304527D02*
D03*
X1302559D02*
D03*
X1300591D02*
D03*
X1298622D02*
D03*
X1296653D02*
D03*
X1294685D02*
D03*
X1292717D02*
D03*
X1290748D02*
D03*
X1288780D02*
D03*
X1336024Y1410630D02*
D03*
X1334055D02*
D03*
X1332087D02*
D03*
X1330118D02*
D03*
X1328150D02*
D03*
X1326181D02*
D03*
X1324213D02*
D03*
X1322244D02*
D03*
X1320276D02*
D03*
X1318307D02*
D03*
X1316339D02*
D03*
X1314370D02*
D03*
X1312401D02*
D03*
X1310433D02*
D03*
X1308465D02*
D03*
X1306496D02*
D03*
X1304527D02*
D03*
X1302559D02*
D03*
X1300591D02*
D03*
X1298622D02*
D03*
X1296653D02*
D03*
X1294685D02*
D03*
X1292717D02*
D03*
X1290748D02*
D03*
X1288780D02*
D03*
D114*
X1304134Y1304134D02*
D03*
Y1300984D02*
D03*
Y1297835D02*
D03*
Y1294685D02*
D03*
Y1291535D02*
D03*
Y1288386D02*
D03*
Y1285236D02*
D03*
Y1282087D02*
D03*
Y1278937D02*
D03*
Y1275787D02*
D03*
Y1272638D02*
D03*
X1348425D02*
D03*
Y1275787D02*
D03*
Y1278937D02*
D03*
Y1282087D02*
D03*
Y1285236D02*
D03*
Y1288386D02*
D03*
Y1291535D02*
D03*
Y1294685D02*
D03*
Y1297835D02*
D03*
Y1300984D02*
D03*
Y1304134D02*
D03*
D115*
X1310532Y1266240D02*
D03*
X1313681D02*
D03*
X1316831D02*
D03*
X1319980D02*
D03*
X1323130D02*
D03*
X1326280D02*
D03*
X1329429D02*
D03*
X1332579D02*
D03*
X1335728D02*
D03*
X1338878D02*
D03*
X1342028D02*
D03*
Y1310532D02*
D03*
X1338878D02*
D03*
X1335728D02*
D03*
X1332579D02*
D03*
X1329429D02*
D03*
X1326280D02*
D03*
X1323130D02*
D03*
X1319980D02*
D03*
X1316831D02*
D03*
X1313681D02*
D03*
X1310532D02*
D03*
D116*
X1350886Y1332382D02*
D03*
X1343996D02*
D03*
X1327264D02*
D03*
X1334154D02*
D03*
X1322342Y1320866D02*
D03*
X1329232D02*
D03*
X1334646Y1256890D02*
D03*
X1327756D02*
D03*
X1433563Y1312992D02*
D03*
X1426673D02*
D03*
X1404921Y1238504D02*
D03*
X1398032D02*
D03*
X1194193Y1381398D02*
D03*
X1201083D02*
D03*
X1404035Y1317913D02*
D03*
X1397146D02*
D03*
X1231791Y1199803D02*
D03*
X1238681D02*
D03*
D117*
X1287303Y1286417D02*
D03*
X1294390D02*
D03*
X1231693Y1349409D02*
D03*
X1238780D02*
D03*
X1218898D02*
D03*
X1225984D02*
D03*
X1397835Y1251595D02*
D03*
X1404921D02*
D03*
X1404921Y1245689D02*
D03*
X1397835D02*
D03*
X1218996Y1297244D02*
D03*
X1226083D02*
D03*
X1231594Y1449311D02*
D03*
X1238681D02*
D03*
X1231693Y1456102D02*
D03*
X1238780D02*
D03*
X1235827Y1464567D02*
D03*
X1228740D02*
D03*
X1201181Y1361713D02*
D03*
X1194094D02*
D03*
X1201181Y1367618D02*
D03*
X1194094D02*
D03*
X1201181Y1373524D02*
D03*
X1194094D02*
D03*
D118*
X1334646Y1323524D02*
D03*
X1344488D02*
D03*
D119*
X1190059Y1324803D02*
D03*
Y1332677D02*
D03*
Y1306102D02*
D03*
Y1313976D02*
D03*
D120*
X1225591Y1332677D02*
D03*
X1213583D02*
D03*
X1345768Y1361024D02*
D03*
X1357776D02*
D03*
D121*
X1287303Y1240650D02*
D03*
X1278445D02*
D03*
D122*
X1232087Y1470669D02*
D03*
Y1478150D02*
D03*
X1224606Y1474409D02*
D03*
D123*
X1320358Y1222665D02*
D03*
Y1237232D02*
D03*
X1311303D02*
D03*
Y1222665D02*
D03*
D124*
X1345705Y1233886D02*
D03*
Y1231917D02*
D03*
Y1229949D02*
D03*
Y1227980D02*
D03*
Y1226012D02*
D03*
X1329957D02*
D03*
Y1227980D02*
D03*
Y1229949D02*
D03*
Y1231917D02*
D03*
Y1233886D02*
D03*
D125*
X1341768Y1222075D02*
D03*
X1339799D02*
D03*
X1337831D02*
D03*
X1335862D02*
D03*
X1333894D02*
D03*
Y1237823D02*
D03*
X1335862D02*
D03*
X1337831D02*
D03*
X1339799D02*
D03*
X1341768D02*
D03*
D126*
X1352362Y1216449D02*
D03*
X1356299D02*
D03*
X1335799Y1211949D02*
D03*
X1331862D02*
D03*
X1335862Y1215949D02*
D03*
X1339799D02*
D03*
X1339862Y1211949D02*
D03*
X1343799D02*
D03*
X1319799Y1213949D02*
D03*
X1315862D02*
D03*
X1311862Y1245949D02*
D03*
X1315799D02*
D03*
X1327862Y1207949D02*
D03*
X1331799D02*
D03*
X1327862Y1203949D02*
D03*
X1331799D02*
D03*
X1343799D02*
D03*
X1339862D02*
D03*
Y1207949D02*
D03*
X1343799D02*
D03*
X1356299Y1220449D02*
D03*
X1352362D02*
D03*
X1356299Y1224449D02*
D03*
X1352362D02*
D03*
X1356299Y1240449D02*
D03*
X1352362D02*
D03*
D127*
X1222638Y1367461D02*
D03*
Y1399272D02*
D03*
D128*
X1212205Y1396161D02*
D03*
Y1394193D02*
D03*
Y1392224D02*
D03*
Y1390256D02*
D03*
Y1388287D02*
D03*
Y1386319D02*
D03*
Y1384350D02*
D03*
Y1382382D02*
D03*
Y1380413D02*
D03*
Y1378445D02*
D03*
Y1376476D02*
D03*
Y1374508D02*
D03*
Y1372539D02*
D03*
Y1370571D02*
D03*
D129*
X1247441Y1267520D02*
D03*
Y1281693D02*
D03*
D130*
X1232185Y1276575D02*
D03*
Y1272638D02*
D03*
D131*
X1233563Y1330709D02*
D03*
X1244980D02*
D03*
D132*
X1263780Y1257874D02*
D03*
X1271653D02*
D03*
D133*
X1345402Y1188284D02*
D03*
X1333787D02*
D03*
D134*
X1329595Y1191268D02*
D03*
X1349594D02*
D03*
D135*
X1339594Y1192055D02*
D03*
D136*
X1412106Y1288406D02*
D03*
X1409547D02*
D03*
X1406988D02*
D03*
X1404429D02*
D03*
X1401870D02*
D03*
X1399311D02*
D03*
X1396752D02*
D03*
X1394193D02*
D03*
X1391634D02*
D03*
X1389075D02*
D03*
X1386516D02*
D03*
X1383957D02*
D03*
X1381398D02*
D03*
X1378839D02*
D03*
X1412106Y1261240D02*
D03*
X1409547D02*
D03*
X1406988D02*
D03*
X1404429D02*
D03*
X1401870D02*
D03*
X1399311D02*
D03*
X1396752D02*
D03*
X1394193D02*
D03*
X1391634D02*
D03*
X1389075D02*
D03*
X1386516D02*
D03*
X1383957D02*
D03*
X1381398D02*
D03*
X1378839D02*
D03*
D137*
X1431905Y1352083D02*
D03*
X1426906D02*
D03*
X1421906D02*
D03*
X1416905D02*
D03*
X1431905Y1328067D02*
D03*
X1426906D02*
D03*
X1421906D02*
D03*
X1416905D02*
D03*
D138*
X1395177Y1341043D02*
D03*
D139*
X1387677Y1326476D02*
D03*
X1392677D02*
D03*
X1397677D02*
D03*
X1402677Y1355610D02*
D03*
X1387677D02*
D03*
X1392677D02*
D03*
X1397677D02*
D03*
X1402677Y1326476D02*
D03*
D140*
X1345768Y1348228D02*
D03*
X1336122Y1344488D02*
D03*
Y1351968D02*
D03*
D141*
X1222441Y1492224D02*
D03*
Y1505807D02*
D03*
D142*
X1286417Y1186024D02*
D03*
X1276575D02*
D03*
X1296260D02*
D03*
D143*
X1369803Y1228563D02*
D03*
X1379803D02*
D03*
X1389803D02*
D03*
X1200945Y1491142D02*
D03*
X1190945Y1481142D02*
D03*
X1200945D02*
D03*
X1190945Y1471142D02*
D03*
X1200945D02*
D03*
X1190945Y1461142D02*
D03*
X1200945D02*
D03*
X1190945Y1451142D02*
D03*
X1200945D02*
D03*
X1190945Y1441142D02*
D03*
X1200945D02*
D03*
X1464567Y1321693D02*
D03*
Y1311693D02*
D03*
Y1301693D02*
D03*
X1299882Y1358268D02*
D03*
X1309882D02*
D03*
X1289882D02*
D03*
X1279882D02*
D03*
X1269882D02*
D03*
X1259882D02*
D03*
X1419291Y1191772D02*
D03*
X1221732Y1187638D02*
D03*
X1211732D02*
D03*
X1231732D02*
D03*
X1241732D02*
D03*
X1251732D02*
D03*
X1261732D02*
D03*
X1464567Y1484055D02*
D03*
Y1474055D02*
D03*
Y1464055D02*
D03*
Y1454055D02*
D03*
Y1444055D02*
D03*
D144*
X1399803Y1228563D02*
D03*
X1319882Y1358268D02*
D03*
X1201732Y1187638D02*
D03*
D145*
X1375394Y1201988D02*
D03*
X1392717D02*
D03*
D146*
X1207402Y1228543D02*
D03*
X1217402D02*
D03*
D147*
X1264370Y1515354D02*
D03*
Y1436614D02*
D03*
X1437205D02*
D03*
Y1515354D02*
D03*
Y1475984D02*
D03*
X1264370D02*
D03*
X1350787Y1562402D02*
D03*
Y1389567D02*
D03*
D148*
X1449646Y1345000D02*
D03*
X1416732Y1226339D02*
D03*
X1235512Y1226634D02*
D03*
X1202598Y1525669D02*
D03*
Y1345079D02*
D03*
X1449646Y1525669D02*
D03*
D149*
X1190945Y1491142D02*
D03*
X1464567Y1331693D02*
D03*
X1419291Y1201772D02*
D03*
X1464567Y1434055D02*
D03*
D150*
X1198661Y1554134D02*
D03*
D151*
X1218661D02*
D03*
D152*
X1259842Y1266339D02*
D03*
X1267717D02*
D03*
X1221358Y1319685D02*
D03*
Y1314173D02*
D03*
X1215847D02*
D03*
Y1319685D02*
D03*
M02*
