%FSLAX25Y25*%
%MOIN*%
G70*
G01*
G75*
G04 Layer_Color=8388736*
%ADD10R,0.02362X0.08661*%
%ADD11R,0.02362X0.08661*%
%ADD12R,0.02362X0.02362*%
%ADD13R,0.03543X0.02953*%
%ADD14R,0.02953X0.03543*%
%ADD15O,0.02165X0.06890*%
%ADD16O,0.06890X0.02165*%
%ADD17R,0.04134X0.05906*%
%ADD18R,0.02362X0.04134*%
%ADD19R,0.03937X0.09843*%
%ADD20O,0.08268X0.01772*%
%ADD21R,0.02756X0.03543*%
%ADD22R,0.03150X0.03740*%
%ADD23R,0.04331X0.07480*%
%ADD24O,0.03150X0.01181*%
%ADD25O,0.01181X0.03150*%
%ADD26R,0.05906X0.17716*%
%ADD27R,0.04331X0.07480*%
%ADD28C,0.01200*%
%ADD29C,0.01000*%
%ADD30C,0.02000*%
%ADD31C,0.19685*%
%ADD32C,0.04921*%
%ADD33R,0.04921X0.04921*%
%ADD34R,0.09055X0.09055*%
%ADD35C,0.09055*%
G04:AMPARAMS|DCode=36|XSize=196.85mil|YSize=137.8mil|CornerRadius=0mil|HoleSize=0mil|Usage=FLASHONLY|Rotation=270.000|XOffset=0mil|YOffset=0mil|HoleType=Round|Shape=Octagon|*
%AMOCTAGOND36*
4,1,8,-0.03445,-0.09843,0.03445,-0.09843,0.06890,-0.06398,0.06890,0.06398,0.03445,0.09843,-0.03445,0.09843,-0.06890,0.06398,-0.06890,-0.06398,-0.03445,-0.09843,0.0*
%
%ADD36OCTAGOND36*%

G04:AMPARAMS|DCode=37|XSize=196.85mil|YSize=137.8mil|CornerRadius=0mil|HoleSize=0mil|Usage=FLASHONLY|Rotation=0.000|XOffset=0mil|YOffset=0mil|HoleType=Round|Shape=Octagon|*
%AMOCTAGOND37*
4,1,8,0.09843,-0.03445,0.09843,0.03445,0.06398,0.06890,-0.06398,0.06890,-0.09843,0.03445,-0.09843,-0.03445,-0.06398,-0.06890,0.06398,-0.06890,0.09843,-0.03445,0.0*
%
%ADD37OCTAGOND37*%

%ADD38R,0.05906X0.05906*%
%ADD39C,0.05906*%
%ADD40C,0.06000*%
%ADD41C,0.13780*%
%ADD42C,0.02400*%
%ADD43C,0.00984*%
%ADD44C,0.00787*%
%ADD45C,0.02362*%
%ADD46C,0.00800*%
%ADD47C,0.00700*%
%ADD48C,0.00500*%
%ADD49C,0.00492*%
%ADD50C,0.00591*%
%ADD51R,0.03162X0.09461*%
%ADD52R,0.03162X0.09461*%
%ADD53R,0.03162X0.03162*%
%ADD54R,0.04343X0.03753*%
%ADD55R,0.03753X0.04343*%
%ADD56O,0.03165X0.07890*%
%ADD57O,0.07890X0.03165*%
%ADD58R,0.04934X0.06706*%
%ADD59R,0.03162X0.04934*%
%ADD60R,0.04737X0.10642*%
%ADD61O,0.09068X0.02572*%
%ADD62R,0.03556X0.04343*%
%ADD63R,0.03950X0.04540*%
%ADD64R,0.05131X0.08280*%
%ADD65O,0.03950X0.01981*%
%ADD66O,0.01981X0.03950*%
%ADD67R,0.06706X0.18517*%
%ADD68R,0.05131X0.08280*%
%ADD69C,0.20485*%
%ADD70C,0.05721*%
%ADD71R,0.05721X0.05721*%
%ADD72R,0.09855X0.09855*%
%ADD73C,0.09855*%
G04:AMPARAMS|DCode=74|XSize=204.85mil|YSize=145.79mil|CornerRadius=0mil|HoleSize=0mil|Usage=FLASHONLY|Rotation=270.000|XOffset=0mil|YOffset=0mil|HoleType=Round|Shape=Octagon|*
%AMOCTAGOND74*
4,1,8,-0.03645,-0.10243,0.03645,-0.10243,0.07290,-0.06598,0.07290,0.06598,0.03645,0.10243,-0.03645,0.10243,-0.07290,0.06598,-0.07290,-0.06598,-0.03645,-0.10243,0.0*
%
%ADD74OCTAGOND74*%

G04:AMPARAMS|DCode=75|XSize=204.85mil|YSize=145.79mil|CornerRadius=0mil|HoleSize=0mil|Usage=FLASHONLY|Rotation=0.000|XOffset=0mil|YOffset=0mil|HoleType=Round|Shape=Octagon|*
%AMOCTAGOND75*
4,1,8,0.10243,-0.03645,0.10243,0.03645,0.06598,0.07290,-0.06598,0.07290,-0.10243,0.03645,-0.10243,-0.03645,-0.06598,-0.07290,0.06598,-0.07290,0.10243,-0.03645,0.0*
%
%ADD75OCTAGOND75*%

%ADD76R,0.06706X0.06706*%
%ADD77C,0.06706*%
%ADD78C,0.06800*%
%ADD79C,0.14579*%
D51*
X498500Y749236D02*
D03*
X503500D02*
D03*
X508500D02*
D03*
X498500Y728764D02*
D03*
X503500D02*
D03*
X508500D02*
D03*
X493500Y749236D02*
D03*
D52*
Y728764D02*
D03*
D53*
X620532Y735500D02*
D03*
X624469D02*
D03*
X620532Y739500D02*
D03*
X624469D02*
D03*
X628469Y743500D02*
D03*
X624532D02*
D03*
X628532Y747500D02*
D03*
X632469D02*
D03*
X636469Y735500D02*
D03*
X632531D02*
D03*
Y743500D02*
D03*
X636469D02*
D03*
X632531Y739500D02*
D03*
X636469D02*
D03*
X648969Y756000D02*
D03*
X645031D02*
D03*
X648969Y752000D02*
D03*
X645031D02*
D03*
Y748000D02*
D03*
X648969D02*
D03*
Y772000D02*
D03*
X645031D02*
D03*
X604531Y777500D02*
D03*
X608468D02*
D03*
X612468Y745500D02*
D03*
X608532D02*
D03*
D54*
X647000Y760555D02*
D03*
Y767445D02*
D03*
X524000Y747945D02*
D03*
Y741055D02*
D03*
X544000Y828555D02*
D03*
Y835445D02*
D03*
X618000Y828055D02*
D03*
Y834945D02*
D03*
X586000Y751055D02*
D03*
Y757945D02*
D03*
D55*
X639555Y867000D02*
D03*
X646445D02*
D03*
X639555Y856500D02*
D03*
X646445D02*
D03*
X500445Y759000D02*
D03*
X493555D02*
D03*
X599445Y816500D02*
D03*
X592555D02*
D03*
X554555Y716500D02*
D03*
X561445D02*
D03*
X569555Y793500D02*
D03*
X576445D02*
D03*
X562445D02*
D03*
X555555D02*
D03*
X546555Y782500D02*
D03*
X553445D02*
D03*
D56*
X539524Y771374D02*
D03*
X542673D02*
D03*
X545823D02*
D03*
X548972D02*
D03*
X552122D02*
D03*
X555272D02*
D03*
X558421D02*
D03*
X561571D02*
D03*
X564720D02*
D03*
X567870D02*
D03*
X571020D02*
D03*
Y727083D02*
D03*
X567870D02*
D03*
X564720D02*
D03*
X561571D02*
D03*
X558421D02*
D03*
X555272D02*
D03*
X552122D02*
D03*
X548972D02*
D03*
X545823D02*
D03*
X542673D02*
D03*
X539524D02*
D03*
D57*
X577417Y764976D02*
D03*
Y761827D02*
D03*
Y758677D02*
D03*
Y755528D02*
D03*
Y752378D02*
D03*
Y749228D02*
D03*
Y746079D02*
D03*
Y742929D02*
D03*
Y739780D02*
D03*
Y736630D02*
D03*
Y733480D02*
D03*
X533126D02*
D03*
Y736630D02*
D03*
Y739780D02*
D03*
Y742929D02*
D03*
Y746079D02*
D03*
Y749228D02*
D03*
Y752378D02*
D03*
Y755528D02*
D03*
Y758677D02*
D03*
Y761827D02*
D03*
Y764976D02*
D03*
D58*
X503661Y776000D02*
D03*
X511339D02*
D03*
D59*
X503760Y787677D02*
D03*
X507500D02*
D03*
X511240D02*
D03*
Y797323D02*
D03*
X503760D02*
D03*
D60*
X504185Y814500D02*
D03*
X514815D02*
D03*
D61*
X555917Y844134D02*
D03*
Y841575D02*
D03*
Y839016D02*
D03*
Y836457D02*
D03*
Y833898D02*
D03*
Y831339D02*
D03*
Y828780D02*
D03*
Y826221D02*
D03*
Y823661D02*
D03*
Y821102D02*
D03*
Y818543D02*
D03*
Y815984D02*
D03*
Y813425D02*
D03*
Y810866D02*
D03*
X583083Y844134D02*
D03*
Y841575D02*
D03*
Y839016D02*
D03*
Y836457D02*
D03*
Y833898D02*
D03*
Y831339D02*
D03*
Y828780D02*
D03*
Y826221D02*
D03*
Y823661D02*
D03*
Y821102D02*
D03*
Y818543D02*
D03*
Y815984D02*
D03*
Y813425D02*
D03*
Y810866D02*
D03*
D62*
X599453Y828000D02*
D03*
X593547D02*
D03*
X610953D02*
D03*
X605047D02*
D03*
X629953Y856500D02*
D03*
X624047D02*
D03*
X629953Y867000D02*
D03*
X624047D02*
D03*
D63*
X610957Y822000D02*
D03*
X618043D02*
D03*
D64*
X613028Y754216D02*
D03*
Y768784D02*
D03*
X603972D02*
D03*
Y754216D02*
D03*
D65*
X638374Y765437D02*
D03*
Y763469D02*
D03*
Y761500D02*
D03*
Y759531D02*
D03*
Y757563D02*
D03*
X622626D02*
D03*
Y759531D02*
D03*
Y761500D02*
D03*
Y763469D02*
D03*
Y765437D02*
D03*
D66*
X634437Y753626D02*
D03*
X632469D02*
D03*
X630500D02*
D03*
X628532D02*
D03*
X626563D02*
D03*
Y769374D02*
D03*
X628532D02*
D03*
X630500D02*
D03*
X632469D02*
D03*
X634437D02*
D03*
D67*
X632500Y723500D02*
D03*
X642500D02*
D03*
X622500D02*
D03*
D68*
X560079Y783500D02*
D03*
X569921D02*
D03*
D69*
X478000Y724000D02*
D03*
X597000Y859000D02*
D03*
D70*
X479000Y835063D02*
D03*
Y789063D02*
D03*
D71*
Y842937D02*
D03*
Y796937D02*
D03*
D72*
X441000Y849000D02*
D03*
Y801000D02*
D03*
D73*
Y829000D02*
D03*
Y781000D02*
D03*
D74*
X464740Y749000D02*
D03*
X440528D02*
D03*
D75*
X452929Y729315D02*
D03*
D76*
X506000Y862000D02*
D03*
D77*
X516000D02*
D03*
X526000D02*
D03*
X536000D02*
D03*
D78*
X627957Y813579D02*
D03*
X635831Y823421D02*
D03*
X627957D02*
D03*
X635831Y813579D02*
D03*
D79*
X646500Y794799D02*
D03*
Y842201D02*
D03*
M02*
