M48
;Layer_Color=9474304
;FILE_FORMAT=2:5
INCH,LZ
;TYPE=PLATED
T1F00S00C0.01200
T2F00S00C0.02953
T3F00S00C0.03543
T4F00S00C0.03622
T5F00S00C0.05118
T6F00S00C0.09055
T7F00S00C0.09843
T8F00S00C0.11811
%
T01
X0435Y072
X045Y076
X048Y0775
X04935Y07645
X051Y076
X05135Y0749236
X0518Y0742
X0505Y0741
X05025Y07175
X0511696Y0719298
X053Y072
X0541Y0736
X0545
X0558Y0743
X05605Y0746
X05635Y0743
X0571Y07365
Y07335
X05835Y0743
X05955
X06Y0735
X0605Y074
Y073
X061Y0725
X0605Y072
X0595
Y073
X059Y0725
X0585Y072
X059Y0715
X06
X061
X0615Y072
Y073
Y074
X062Y0745
X061Y0735
X06Y0725
X05884Y0765
X05854
X0615Y0776
X053Y078
X064Y0775
X0645Y078
X06345Y07615
X0645Y074
X065Y0735
Y0725
Y0715
X064Y0785
X0635Y079
X065Y0815
Y082
X061Y08
X059Y079
X05745Y07985
X057Y0815
X05755Y0821
X057Y083
X0549Y0834
X0543Y0844
X0527Y08355
X0512
X0515Y083
X0504185Y0827815
X0505Y0845
X048Y086
Y0815
X049
X0495Y0795
X0525Y079
X0535Y08
X055Y0795
X056Y086
X0583271Y08595
X06015Y0834
X046Y082
X044Y0865
T02
X0479Y0789063
Y0796937
Y0835063
Y0842937
T03
X0506Y0862
X0516
X0526
X0536
T04
X0627957Y0813579
X0635831
Y0823421
X0627957
T05
X0441Y0781
Y0801
Y0829
Y0849
T06
X06465Y0794799
Y0842201
T07
X0452929Y0729315
X0440528Y0749
T08
X046474Y0749
X0478Y0724
X0597Y0859
M30
