%FSLAX25Y25*%
%MOIN*%
G70*
G01*
G75*
G04 Layer_Physical_Order=2*
G04 Layer_Color=16711680*
%ADD10R,0.02362X0.08661*%
%ADD11R,0.02362X0.08661*%
%ADD12R,0.02362X0.02362*%
%ADD13R,0.03543X0.02953*%
%ADD14R,0.02953X0.03543*%
%ADD15O,0.02165X0.06890*%
%ADD16O,0.06890X0.02165*%
%ADD17R,0.04134X0.05906*%
%ADD18R,0.02362X0.04134*%
%ADD19R,0.03937X0.09843*%
%ADD20O,0.08268X0.01772*%
%ADD21R,0.02756X0.03543*%
%ADD22R,0.03150X0.03740*%
%ADD23R,0.04331X0.07480*%
%ADD24O,0.03150X0.01181*%
%ADD25O,0.01181X0.03150*%
%ADD26R,0.05906X0.17716*%
%ADD27R,0.04331X0.07480*%
%ADD28C,0.01200*%
%ADD29C,0.01000*%
%ADD30C,0.02000*%
%ADD31C,0.19685*%
%ADD32C,0.04921*%
%ADD33R,0.04921X0.04921*%
%ADD34R,0.09055X0.09055*%
%ADD35C,0.09055*%
G04:AMPARAMS|DCode=36|XSize=196.85mil|YSize=137.8mil|CornerRadius=0mil|HoleSize=0mil|Usage=FLASHONLY|Rotation=270.000|XOffset=0mil|YOffset=0mil|HoleType=Round|Shape=Octagon|*
%AMOCTAGOND36*
4,1,8,-0.03445,-0.09843,0.03445,-0.09843,0.06890,-0.06398,0.06890,0.06398,0.03445,0.09843,-0.03445,0.09843,-0.06890,0.06398,-0.06890,-0.06398,-0.03445,-0.09843,0.0*
%
%ADD36OCTAGOND36*%

G04:AMPARAMS|DCode=37|XSize=196.85mil|YSize=137.8mil|CornerRadius=0mil|HoleSize=0mil|Usage=FLASHONLY|Rotation=0.000|XOffset=0mil|YOffset=0mil|HoleType=Round|Shape=Octagon|*
%AMOCTAGOND37*
4,1,8,0.09843,-0.03445,0.09843,0.03445,0.06398,0.06890,-0.06398,0.06890,-0.09843,0.03445,-0.09843,-0.03445,-0.06398,-0.06890,0.06398,-0.06890,0.09843,-0.03445,0.0*
%
%ADD37OCTAGOND37*%

%ADD38R,0.05906X0.05906*%
%ADD39C,0.05906*%
%ADD40C,0.06000*%
%ADD41C,0.13780*%
%ADD42C,0.02400*%
G36*
X655000Y712500D02*
X425000D01*
Y870000D01*
X655000D01*
Y712500D01*
D02*
G37*
%LPC*%
G36*
X610500Y736736D02*
Y735500D01*
X611736D01*
X611696Y735702D01*
X611298Y736298D01*
X610702Y736696D01*
X610500Y736736D01*
D02*
G37*
G36*
X609500D02*
X609298Y736696D01*
X608702Y736298D01*
X608304Y735702D01*
X608264Y735500D01*
X609500D01*
Y736736D01*
D02*
G37*
G36*
X650500D02*
Y735500D01*
X651736D01*
X651696Y735702D01*
X651298Y736298D01*
X650702Y736696D01*
X650500Y736736D01*
D02*
G37*
G36*
X649500D02*
X649298Y736696D01*
X648702Y736298D01*
X648304Y735702D01*
X648264Y735500D01*
X649500D01*
Y736736D01*
D02*
G37*
G36*
X651736Y734500D02*
X650500D01*
Y733264D01*
X650702Y733304D01*
X651298Y733702D01*
X651696Y734298D01*
X651736Y734500D01*
D02*
G37*
G36*
X649500D02*
X648264D01*
X648304Y734298D01*
X648702Y733702D01*
X649298Y733304D01*
X649500Y733264D01*
Y734500D01*
D02*
G37*
G36*
X600500Y736736D02*
Y735500D01*
X601736D01*
X601696Y735702D01*
X601298Y736298D01*
X600702Y736696D01*
X600500Y736736D01*
D02*
G37*
G36*
X599500D02*
X599298Y736696D01*
X598702Y736298D01*
X598304Y735702D01*
X598264Y735500D01*
X599500D01*
Y736736D01*
D02*
G37*
G36*
X604500Y739500D02*
X603264D01*
X603304Y739298D01*
X603702Y738702D01*
X604298Y738304D01*
X604500Y738264D01*
Y739500D01*
D02*
G37*
G36*
X440028Y748500D02*
X433038D01*
Y742302D01*
X436783Y738557D01*
X440028D01*
Y748500D01*
D02*
G37*
G36*
X646736Y739500D02*
X645500D01*
Y738264D01*
X645702Y738304D01*
X646298Y738702D01*
X646696Y739298D01*
X646736Y739500D01*
D02*
G37*
G36*
X468485Y759443D02*
X460995D01*
X457250Y755698D01*
Y742302D01*
X460995Y738557D01*
X468485D01*
X472230Y742302D01*
Y755698D01*
X468485Y759443D01*
D02*
G37*
G36*
X448017Y748500D02*
X441028D01*
Y738557D01*
X444273D01*
X448017Y742302D01*
Y748500D01*
D02*
G37*
G36*
X614500Y739500D02*
X613264D01*
X613304Y739298D01*
X613702Y738702D01*
X614298Y738304D01*
X614500Y738264D01*
Y739500D01*
D02*
G37*
G36*
X606736D02*
X605500D01*
Y738264D01*
X605702Y738304D01*
X606298Y738702D01*
X606696Y739298D01*
X606736Y739500D01*
D02*
G37*
G36*
X644500D02*
X643264D01*
X643304Y739298D01*
X643702Y738702D01*
X644298Y738304D01*
X644500Y738264D01*
Y739500D01*
D02*
G37*
G36*
X616736D02*
X615500D01*
Y738264D01*
X615702Y738304D01*
X616298Y738702D01*
X616696Y739298D01*
X616736Y739500D01*
D02*
G37*
G36*
X611736Y734500D02*
X610500D01*
Y733264D01*
X610702Y733304D01*
X611298Y733702D01*
X611696Y734298D01*
X611736Y734500D01*
D02*
G37*
G36*
X606736Y729500D02*
X605500D01*
Y728264D01*
X605702Y728304D01*
X606298Y728702D01*
X606696Y729298D01*
X606736Y729500D01*
D02*
G37*
G36*
X604500D02*
X603264D01*
X603304Y729298D01*
X603702Y728702D01*
X604298Y728304D01*
X604500Y728264D01*
Y729500D01*
D02*
G37*
G36*
X616736D02*
X615500D01*
Y728264D01*
X615702Y728304D01*
X616298Y728702D01*
X616696Y729298D01*
X616736Y729500D01*
D02*
G37*
G36*
X614500D02*
X613264D01*
X613304Y729298D01*
X613702Y728702D01*
X614298Y728304D01*
X614500Y728264D01*
Y729500D01*
D02*
G37*
G36*
X650500Y726736D02*
Y725500D01*
X651736D01*
X651696Y725702D01*
X651298Y726298D01*
X650702Y726696D01*
X650500Y726736D01*
D02*
G37*
G36*
X649500D02*
X649298Y726696D01*
X648702Y726298D01*
X648304Y725702D01*
X648264Y725500D01*
X649500D01*
Y726736D01*
D02*
G37*
G36*
X596736Y729500D02*
X595500D01*
Y728264D01*
X595702Y728304D01*
X596298Y728702D01*
X596696Y729298D01*
X596736Y729500D01*
D02*
G37*
G36*
X594500D02*
X593264D01*
X593304Y729298D01*
X593702Y728702D01*
X594298Y728304D01*
X594500Y728264D01*
Y729500D01*
D02*
G37*
G36*
Y731736D02*
X594298Y731696D01*
X593702Y731298D01*
X593304Y730702D01*
X593264Y730500D01*
X594500D01*
Y731736D01*
D02*
G37*
G36*
X599500Y734500D02*
X598264D01*
X598304Y734298D01*
X598702Y733702D01*
X599298Y733304D01*
X599500Y733264D01*
Y734500D01*
D02*
G37*
G36*
X615500Y731736D02*
Y730500D01*
X616736D01*
X616696Y730702D01*
X616298Y731298D01*
X615702Y731696D01*
X615500Y731736D01*
D02*
G37*
G36*
X609500Y734500D02*
X608264D01*
X608304Y734298D01*
X608702Y733702D01*
X609298Y733304D01*
X609500Y733264D01*
Y734500D01*
D02*
G37*
G36*
X601736D02*
X600500D01*
Y733264D01*
X600702Y733304D01*
X601298Y733702D01*
X601696Y734298D01*
X601736Y734500D01*
D02*
G37*
G36*
X604500Y731736D02*
X604298Y731696D01*
X603702Y731298D01*
X603304Y730702D01*
X603264Y730500D01*
X604500D01*
Y731736D01*
D02*
G37*
G36*
X595500D02*
Y730500D01*
X596736D01*
X596696Y730702D01*
X596298Y731298D01*
X595702Y731696D01*
X595500Y731736D01*
D02*
G37*
G36*
X614500D02*
X614298Y731696D01*
X613702Y731298D01*
X613304Y730702D01*
X613264Y730500D01*
X614500D01*
Y731736D01*
D02*
G37*
G36*
X605500D02*
Y730500D01*
X606736D01*
X606696Y730702D01*
X606298Y731298D01*
X605702Y731696D01*
X605500Y731736D01*
D02*
G37*
G36*
X588400Y766835D02*
X587698Y766696D01*
X587102Y766298D01*
X586698D01*
X586102Y766696D01*
X585400Y766835D01*
X584698Y766696D01*
X584102Y766298D01*
X583704Y765702D01*
X583565Y765000D01*
X583606Y764792D01*
X566207Y747393D01*
X565964Y747029D01*
X565878Y746600D01*
X565878Y746600D01*
Y735500D01*
X565878Y735500D01*
X565964Y735071D01*
X566207Y734707D01*
X568207Y732707D01*
X568207Y732707D01*
X568571Y732464D01*
X568571Y732464D01*
X568571Y732464D01*
D01*
X568571Y732464D01*
X568571Y732464D01*
X569000Y732378D01*
X569000Y732378D01*
X569585D01*
X569702Y732202D01*
X570298Y731804D01*
X571000Y731665D01*
X571702Y731804D01*
X572298Y732202D01*
X572696Y732798D01*
X572835Y733500D01*
X572696Y734202D01*
X572298Y734798D01*
Y735202D01*
X572696Y735798D01*
X572835Y736500D01*
X572696Y737202D01*
X572298Y737798D01*
X571702Y738196D01*
X571000Y738335D01*
X570298Y738196D01*
X570162Y738105D01*
X569722Y738341D01*
Y744483D01*
X588404Y763166D01*
X589102Y763304D01*
X589698Y763702D01*
X590096Y764298D01*
X590235Y765000D01*
X590096Y765702D01*
X589698Y766298D01*
X589102Y766696D01*
X588400Y766835D01*
D02*
G37*
G36*
X510500Y761736D02*
Y760500D01*
X511736D01*
X511696Y760702D01*
X511298Y761298D01*
X510702Y761696D01*
X510500Y761736D01*
D02*
G37*
G36*
X481736Y774500D02*
X480500D01*
Y773264D01*
X480702Y773304D01*
X481298Y773702D01*
X481696Y774298D01*
X481736Y774500D01*
D02*
G37*
G36*
X479500D02*
X478264D01*
X478304Y774298D01*
X478702Y773702D01*
X479298Y773304D01*
X479500Y773264D01*
Y774500D01*
D02*
G37*
G36*
X449500Y761736D02*
X449298Y761696D01*
X448702Y761298D01*
X448304Y760702D01*
X448264Y760500D01*
X449500D01*
Y761736D01*
D02*
G37*
G36*
X574500Y800335D02*
X573798Y800196D01*
X573202Y799798D01*
X572804Y799202D01*
X572665Y798500D01*
X572804Y797798D01*
X573202Y797202D01*
X573798Y796804D01*
X574500Y796665D01*
X575202Y796804D01*
X575298Y796869D01*
X598324D01*
X632869Y762324D01*
Y762298D01*
X632804Y762202D01*
X632665Y761500D01*
X632804Y760798D01*
X633202Y760202D01*
X633798Y759804D01*
X634500Y759665D01*
X635202Y759804D01*
X635798Y760202D01*
X636196Y760798D01*
X636335Y761500D01*
X636196Y762202D01*
X636131Y762298D01*
Y763000D01*
X636007Y763624D01*
X635653Y764153D01*
X600153Y799653D01*
X599624Y800007D01*
X599000Y800131D01*
X575298D01*
X575202Y800196D01*
X574500Y800335D01*
D02*
G37*
G36*
X509500Y761736D02*
X509298Y761696D01*
X508702Y761298D01*
X508304Y760702D01*
X508264Y760500D01*
X509500D01*
Y761736D01*
D02*
G37*
G36*
X450500D02*
Y760500D01*
X451736D01*
X451696Y760702D01*
X451298Y761298D01*
X450702Y761696D01*
X450500Y761736D01*
D02*
G37*
G36*
X639500Y774500D02*
X638264D01*
X638304Y774298D01*
X638702Y773702D01*
X639298Y773304D01*
X639500Y773264D01*
Y774500D01*
D02*
G37*
G36*
Y776736D02*
X639298Y776696D01*
X638702Y776298D01*
X638304Y775702D01*
X638264Y775500D01*
X639500D01*
Y776736D01*
D02*
G37*
G36*
X480500D02*
Y775500D01*
X481736D01*
X481696Y775702D01*
X481298Y776298D01*
X480702Y776696D01*
X480500Y776736D01*
D02*
G37*
G36*
X440500Y780500D02*
X435894D01*
X436004Y779661D01*
X436521Y778414D01*
X437343Y777343D01*
X438414Y776521D01*
X439661Y776004D01*
X440500Y775894D01*
Y780500D01*
D02*
G37*
G36*
X640500Y776736D02*
Y775500D01*
X641736D01*
X641696Y775702D01*
X641298Y776298D01*
X640702Y776696D01*
X640500Y776736D01*
D02*
G37*
G36*
X614500Y775500D02*
X613264D01*
X613304Y775298D01*
X613702Y774702D01*
X614298Y774304D01*
X614500Y774264D01*
Y775500D01*
D02*
G37*
G36*
X641736Y774500D02*
X640500D01*
Y773264D01*
X640702Y773304D01*
X641298Y773702D01*
X641696Y774298D01*
X641736Y774500D01*
D02*
G37*
G36*
X479500Y776736D02*
X479298Y776696D01*
X478702Y776298D01*
X478304Y775702D01*
X478264Y775500D01*
X479500D01*
Y776736D01*
D02*
G37*
G36*
X616736Y775500D02*
X615500D01*
Y774264D01*
X615702Y774304D01*
X616298Y774702D01*
X616696Y775298D01*
X616736Y775500D01*
D02*
G37*
G36*
X511736Y759500D02*
X510500D01*
Y758264D01*
X510702Y758304D01*
X511298Y758702D01*
X511696Y759298D01*
X511736Y759500D01*
D02*
G37*
G36*
X645500Y741736D02*
Y740500D01*
X646736D01*
X646696Y740702D01*
X646298Y741298D01*
X645702Y741696D01*
X645500Y741736D01*
D02*
G37*
G36*
X644500D02*
X644298Y741696D01*
X643702Y741298D01*
X643304Y740702D01*
X643264Y740500D01*
X644500D01*
Y741736D01*
D02*
G37*
G36*
X619500Y744500D02*
X618264D01*
X618304Y744298D01*
X618702Y743702D01*
X619298Y743304D01*
X619500Y743264D01*
Y744500D01*
D02*
G37*
G36*
X504185Y829650D02*
X503483Y829510D01*
X502887Y829113D01*
X502490Y828517D01*
X502350Y827815D01*
X502490Y827113D01*
X502554Y827017D01*
Y775861D01*
X492911Y766218D01*
X492798Y766196D01*
X492202Y765798D01*
X491804Y765202D01*
X491665Y764500D01*
X491804Y763798D01*
X492202Y763202D01*
X492798Y762804D01*
X493500Y762665D01*
X494202Y762804D01*
X494798Y763202D01*
X495196Y763798D01*
X495218Y763911D01*
X505339Y774031D01*
X505692Y774561D01*
X505816Y775185D01*
X505816Y775185D01*
X505816Y775185D01*
Y775185D01*
Y826184D01*
X508009D01*
X516369Y817824D01*
Y742798D01*
X516304Y742702D01*
X516196Y742158D01*
X515718Y742013D01*
X514723Y743007D01*
Y747889D01*
X514798Y747938D01*
X515196Y748534D01*
X515335Y749236D01*
X515196Y749938D01*
X514798Y750534D01*
X514202Y750932D01*
X513500Y751072D01*
X512798Y750932D01*
X512202Y750534D01*
X511804Y749938D01*
X511665Y749236D01*
X511804Y748534D01*
X512202Y747938D01*
X512277Y747889D01*
Y742500D01*
X512368Y742039D01*
X511927Y741803D01*
X511865Y741865D01*
X511468Y742130D01*
X511000Y742224D01*
X506347D01*
X506298Y742298D01*
X505702Y742696D01*
X505000Y742835D01*
X504298Y742696D01*
X503702Y742298D01*
X503304Y741702D01*
X503165Y741000D01*
X503304Y740298D01*
X503702Y739702D01*
X504298Y739304D01*
X505000Y739165D01*
X505702Y739304D01*
X506298Y739702D01*
X506347Y739777D01*
X510493D01*
X522635Y727635D01*
X523032Y727370D01*
X523500Y727277D01*
X547000D01*
X547468Y727370D01*
X547865Y727635D01*
X547865Y727635D01*
X547865Y727635D01*
X561365Y741135D01*
X561630Y741532D01*
X561630Y741532D01*
X561630Y741532D01*
X561660Y741682D01*
X561890Y741728D01*
X562277Y741410D01*
Y737461D01*
X551039Y726224D01*
X510000D01*
X509532Y726130D01*
X509135Y725865D01*
X502588Y719318D01*
X502500Y719335D01*
X501798Y719196D01*
X501202Y718798D01*
X500804Y718202D01*
X500665Y717500D01*
X500804Y716798D01*
X501202Y716202D01*
X501798Y715804D01*
X502500Y715665D01*
X503202Y715804D01*
X503798Y716202D01*
X504196Y716798D01*
X504335Y717500D01*
X504318Y717588D01*
X510507Y723776D01*
X551546D01*
X552014Y723870D01*
X552411Y724135D01*
X564365Y736089D01*
X564630Y736486D01*
X564723Y736954D01*
Y741653D01*
X564798Y741702D01*
X565196Y742298D01*
X565335Y743000D01*
X565196Y743702D01*
X564798Y744298D01*
X564202Y744696D01*
X563500Y744835D01*
X562798Y744696D01*
X562202Y744298D01*
X561724Y744442D01*
Y744653D01*
X561798Y744702D01*
X562196Y745298D01*
X562335Y746000D01*
X562196Y746702D01*
X561798Y747298D01*
X561202Y747696D01*
X560500Y747835D01*
X559798Y747696D01*
X559202Y747298D01*
X558804Y746702D01*
X558665Y746000D01*
X558804Y745298D01*
X558921Y745123D01*
X558643Y744707D01*
X558000Y744835D01*
X557298Y744696D01*
X556702Y744298D01*
X556304Y743702D01*
X556289Y743625D01*
X544987Y732324D01*
X525407D01*
X517849Y739882D01*
X518000Y740165D01*
X518702Y740304D01*
X519298Y740702D01*
X519696Y741298D01*
X519835Y742000D01*
X519696Y742702D01*
X519631Y742798D01*
Y818500D01*
X519507Y819124D01*
X519153Y819654D01*
X509839Y828969D01*
X509309Y829322D01*
X508685Y829446D01*
X504984D01*
X504887Y829510D01*
X504185Y829650D01*
D02*
G37*
G36*
X605500Y741736D02*
Y740500D01*
X606736D01*
X606696Y740702D01*
X606298Y741298D01*
X605702Y741696D01*
X605500Y741736D01*
D02*
G37*
G36*
X604500D02*
X604298Y741696D01*
X603702Y741298D01*
X603304Y740702D01*
X603264Y740500D01*
X604500D01*
Y741736D01*
D02*
G37*
G36*
X615500D02*
Y740500D01*
X616736D01*
X616696Y740702D01*
X616298Y741298D01*
X615702Y741696D01*
X615500Y741736D01*
D02*
G37*
G36*
X614500D02*
X614298Y741696D01*
X613702Y741298D01*
X613304Y740702D01*
X613264Y740500D01*
X614500D01*
Y741736D01*
D02*
G37*
G36*
X621736Y744500D02*
X620500D01*
Y743264D01*
X620702Y743304D01*
X621298Y743702D01*
X621696Y744298D01*
X621736Y744500D01*
D02*
G37*
G36*
X449500Y759500D02*
X448264D01*
X448304Y759298D01*
X448702Y758702D01*
X449298Y758304D01*
X449500Y758264D01*
Y759500D01*
D02*
G37*
G36*
X444273Y759443D02*
X441028D01*
Y749500D01*
X448017D01*
Y755698D01*
X444273Y759443D01*
D02*
G37*
G36*
X509500Y759500D02*
X508264D01*
X508304Y759298D01*
X508702Y758702D01*
X509298Y758304D01*
X509500Y758264D01*
Y759500D01*
D02*
G37*
G36*
X451736D02*
X450500D01*
Y758264D01*
X450702Y758304D01*
X451298Y758702D01*
X451696Y759298D01*
X451736Y759500D01*
D02*
G37*
G36*
X619500Y746736D02*
X619298Y746696D01*
X618702Y746298D01*
X618304Y745702D01*
X618264Y745500D01*
X619500D01*
Y746736D01*
D02*
G37*
G36*
X595500Y744835D02*
X594798Y744696D01*
X594202Y744298D01*
X594153Y744223D01*
X584847D01*
X584798Y744298D01*
X584202Y744696D01*
X583500Y744835D01*
X582798Y744696D01*
X582202Y744298D01*
X581804Y743702D01*
X581665Y743000D01*
X581804Y742298D01*
X582202Y741702D01*
X582798Y741304D01*
X583500Y741165D01*
X584202Y741304D01*
X584798Y741702D01*
X584847Y741777D01*
X594153D01*
X594202Y741702D01*
X594798Y741304D01*
X595500Y741165D01*
X596202Y741304D01*
X596798Y741702D01*
X597196Y742298D01*
X597335Y743000D01*
X597196Y743702D01*
X596798Y744298D01*
X596202Y744696D01*
X595500Y744835D01*
D02*
G37*
G36*
X440028Y759443D02*
X436783D01*
X433038Y755698D01*
Y749500D01*
X440028D01*
Y759443D01*
D02*
G37*
G36*
X620500Y746736D02*
Y745500D01*
X621736D01*
X621696Y745702D01*
X621298Y746298D01*
X620702Y746696D01*
X620500Y746736D01*
D02*
G37*
G36*
X610500Y726736D02*
Y725500D01*
X611736D01*
X611696Y725702D01*
X611298Y726298D01*
X610702Y726696D01*
X610500Y726736D01*
D02*
G37*
G36*
X513431Y718798D02*
X512196D01*
Y717562D01*
X512398Y717602D01*
X512993Y718000D01*
X513391Y718595D01*
X513431Y718798D01*
D02*
G37*
G36*
X511196D02*
X509960D01*
X510000Y718595D01*
X510398Y718000D01*
X510993Y717602D01*
X511196Y717562D01*
Y718798D01*
D02*
G37*
G36*
X436736Y719500D02*
X435500D01*
Y718264D01*
X435702Y718304D01*
X436298Y718702D01*
X436696Y719298D01*
X436736Y719500D01*
D02*
G37*
G36*
X434500D02*
X433264D01*
X433304Y719298D01*
X433702Y718702D01*
X434298Y718304D01*
X434500Y718264D01*
Y719500D01*
D02*
G37*
G36*
X610500Y716736D02*
Y715500D01*
X611736D01*
X611696Y715702D01*
X611298Y716298D01*
X610702Y716696D01*
X610500Y716736D01*
D02*
G37*
G36*
X609500D02*
X609298Y716696D01*
X608702Y716298D01*
X608304Y715702D01*
X608264Y715500D01*
X609500D01*
Y716736D01*
D02*
G37*
G36*
X650500D02*
Y715500D01*
X651736D01*
X651696Y715702D01*
X651298Y716298D01*
X650702Y716696D01*
X650500Y716736D01*
D02*
G37*
G36*
X649500D02*
X649298Y716696D01*
X648702Y716298D01*
X648304Y715702D01*
X648264Y715500D01*
X649500D01*
Y716736D01*
D02*
G37*
G36*
X529500Y719500D02*
X528264D01*
X528304Y719298D01*
X528702Y718702D01*
X529298Y718304D01*
X529500Y718264D01*
Y719500D01*
D02*
G37*
G36*
X604500D02*
X603264D01*
X603304Y719298D01*
X603702Y718702D01*
X604298Y718304D01*
X604500Y718264D01*
Y719500D01*
D02*
G37*
G36*
X596736D02*
X595500D01*
Y718264D01*
X595702Y718304D01*
X596298Y718702D01*
X596696Y719298D01*
X596736Y719500D01*
D02*
G37*
G36*
X614500D02*
X613264D01*
X613304Y719298D01*
X613702Y718702D01*
X614298Y718304D01*
X614500Y718264D01*
Y719500D01*
D02*
G37*
G36*
X606736D02*
X605500D01*
Y718264D01*
X605702Y718304D01*
X606298Y718702D01*
X606696Y719298D01*
X606736Y719500D01*
D02*
G37*
G36*
X584500D02*
X583264D01*
X583304Y719298D01*
X583702Y718702D01*
X584298Y718304D01*
X584500Y718264D01*
Y719500D01*
D02*
G37*
G36*
X531736D02*
X530500D01*
Y718264D01*
X530702Y718304D01*
X531298Y718702D01*
X531696Y719298D01*
X531736Y719500D01*
D02*
G37*
G36*
X594500D02*
X593264D01*
X593304Y719298D01*
X593702Y718702D01*
X594298Y718304D01*
X594500Y718264D01*
Y719500D01*
D02*
G37*
G36*
X586736D02*
X585500D01*
Y718264D01*
X585702Y718304D01*
X586298Y718702D01*
X586696Y719298D01*
X586736Y719500D01*
D02*
G37*
G36*
X600500Y716736D02*
Y715500D01*
X601736D01*
X601696Y715702D01*
X601298Y716298D01*
X600702Y716696D01*
X600500Y716736D01*
D02*
G37*
G36*
X611736Y714500D02*
X610500D01*
Y713264D01*
X610702Y713304D01*
X611298Y713702D01*
X611696Y714298D01*
X611736Y714500D01*
D02*
G37*
G36*
X609500D02*
X608264D01*
X608304Y714298D01*
X608702Y713702D01*
X609298Y713304D01*
X609500Y713264D01*
Y714500D01*
D02*
G37*
G36*
X651736D02*
X650500D01*
Y713264D01*
X650702Y713304D01*
X651298Y713702D01*
X651696Y714298D01*
X651736Y714500D01*
D02*
G37*
G36*
X649500D02*
X648264D01*
X648304Y714298D01*
X648702Y713702D01*
X649298Y713304D01*
X649500Y713264D01*
Y714500D01*
D02*
G37*
G36*
X591736D02*
X590500D01*
Y713264D01*
X590702Y713304D01*
X591298Y713702D01*
X591696Y714298D01*
X591736Y714500D01*
D02*
G37*
G36*
X589500D02*
X588264D01*
X588304Y714298D01*
X588702Y713702D01*
X589298Y713304D01*
X589500Y713264D01*
Y714500D01*
D02*
G37*
G36*
X601736D02*
X600500D01*
Y713264D01*
X600702Y713304D01*
X601298Y713702D01*
X601696Y714298D01*
X601736Y714500D01*
D02*
G37*
G36*
X599500D02*
X598264D01*
X598304Y714298D01*
X598702Y713702D01*
X599298Y713304D01*
X599500Y713264D01*
Y714500D01*
D02*
G37*
G36*
X477500Y723500D02*
X467564D01*
X467654Y722361D01*
X468038Y720763D01*
X468667Y719244D01*
X469526Y717843D01*
X470593Y716593D01*
X471843Y715526D01*
X473244Y714667D01*
X474763Y714038D01*
X476361Y713654D01*
X477500Y713564D01*
Y723500D01*
D02*
G37*
G36*
X589500Y716736D02*
X589298Y716696D01*
X588702Y716298D01*
X588304Y715702D01*
X588264Y715500D01*
X589500D01*
Y716736D01*
D02*
G37*
G36*
X646053Y723000D02*
X643000D01*
Y714042D01*
X646053D01*
Y723000D01*
D02*
G37*
G36*
X599500Y716736D02*
X599298Y716696D01*
X598702Y716298D01*
X598304Y715702D01*
X598264Y715500D01*
X599500D01*
Y716736D01*
D02*
G37*
G36*
X590500D02*
Y715500D01*
X591736D01*
X591696Y715702D01*
X591298Y716298D01*
X590702Y716696D01*
X590500Y716736D01*
D02*
G37*
G36*
X622000Y723000D02*
X618947D01*
Y714042D01*
X622000D01*
Y723000D01*
D02*
G37*
G36*
X488436Y723500D02*
X478500D01*
Y713564D01*
X479639Y713654D01*
X481237Y714038D01*
X482756Y714667D01*
X484157Y715526D01*
X485407Y716593D01*
X486474Y717843D01*
X487333Y719244D01*
X487962Y720763D01*
X488346Y722361D01*
X488436Y723500D01*
D02*
G37*
G36*
X642000Y723000D02*
X638947D01*
Y714042D01*
X642000D01*
Y723000D01*
D02*
G37*
G36*
X626053D02*
X623000D01*
Y714042D01*
X626053D01*
Y723000D01*
D02*
G37*
G36*
X651736Y724500D02*
X650500D01*
Y723264D01*
X650702Y723304D01*
X651298Y723702D01*
X651696Y724298D01*
X651736Y724500D01*
D02*
G37*
G36*
X649500D02*
X648264D01*
X648304Y724298D01*
X648702Y723702D01*
X649298Y723304D01*
X649500Y723264D01*
Y724500D01*
D02*
G37*
G36*
X626053Y732958D02*
X623000D01*
Y724000D01*
X626053D01*
Y732958D01*
D02*
G37*
G36*
X622000D02*
X618947D01*
Y724000D01*
X622000D01*
Y732958D01*
D02*
G37*
G36*
X601736Y724500D02*
X600500D01*
Y723264D01*
X600702Y723304D01*
X601298Y723702D01*
X601696Y724298D01*
X601736Y724500D01*
D02*
G37*
G36*
X599500D02*
X598264D01*
X598304Y724298D01*
X598702Y723702D01*
X599298Y723304D01*
X599500Y723264D01*
Y724500D01*
D02*
G37*
G36*
X611736D02*
X610500D01*
Y723264D01*
X610702Y723304D01*
X611298Y723702D01*
X611696Y724298D01*
X611736Y724500D01*
D02*
G37*
G36*
X609500D02*
X608264D01*
X608304Y724298D01*
X608702Y723702D01*
X609298Y723304D01*
X609500Y723264D01*
Y724500D01*
D02*
G37*
G36*
X642000Y732958D02*
X638947D01*
Y724000D01*
X642000D01*
Y732958D01*
D02*
G37*
G36*
X599500Y726736D02*
X599298Y726696D01*
X598702Y726298D01*
X598304Y725702D01*
X598264Y725500D01*
X599500D01*
Y726736D01*
D02*
G37*
G36*
X590500D02*
Y725500D01*
X591736D01*
X591696Y725702D01*
X591298Y726298D01*
X590702Y726696D01*
X590500Y726736D01*
D02*
G37*
G36*
X609500D02*
X609298Y726696D01*
X608702Y726298D01*
X608304Y725702D01*
X608264Y725500D01*
X609500D01*
Y726736D01*
D02*
G37*
G36*
X600500D02*
Y725500D01*
X601736D01*
X601696Y725702D01*
X601298Y726298D01*
X600702Y726696D01*
X600500Y726736D01*
D02*
G37*
G36*
X477500Y734436D02*
X476361Y734346D01*
X474763Y733962D01*
X473244Y733333D01*
X471843Y732474D01*
X470593Y731407D01*
X469526Y730157D01*
X468667Y728756D01*
X468038Y727237D01*
X467654Y725639D01*
X467564Y724500D01*
X477500D01*
Y734436D01*
D02*
G37*
G36*
X646053Y732958D02*
X643000D01*
Y724000D01*
X646053D01*
Y732958D01*
D02*
G37*
G36*
X589500Y726736D02*
X589298Y726696D01*
X588702Y726298D01*
X588304Y725702D01*
X588264Y725500D01*
X589500D01*
Y726736D01*
D02*
G37*
G36*
X478500Y734436D02*
Y724500D01*
X488436D01*
X488346Y725639D01*
X487962Y727237D01*
X487333Y728756D01*
X486474Y730157D01*
X485407Y731407D01*
X484157Y732474D01*
X482756Y733333D01*
X481237Y733962D01*
X479639Y734346D01*
X478500Y734436D01*
D02*
G37*
G36*
X591736Y724500D02*
X590500D01*
Y723264D01*
X590702Y723304D01*
X591298Y723702D01*
X591696Y724298D01*
X591736Y724500D01*
D02*
G37*
G36*
X529500Y721736D02*
X529298Y721696D01*
X528702Y721298D01*
X528304Y720702D01*
X528264Y720500D01*
X529500D01*
Y721736D01*
D02*
G37*
G36*
X435500D02*
Y720500D01*
X436736D01*
X436696Y720702D01*
X436298Y721298D01*
X435702Y721696D01*
X435500Y721736D01*
D02*
G37*
G36*
X584500D02*
X584298Y721696D01*
X583702Y721298D01*
X583304Y720702D01*
X583264Y720500D01*
X584500D01*
Y721736D01*
D02*
G37*
G36*
X530500D02*
Y720500D01*
X531736D01*
X531696Y720702D01*
X531298Y721298D01*
X530702Y721696D01*
X530500Y721736D01*
D02*
G37*
G36*
X511196Y721033D02*
X510993Y720993D01*
X510398Y720595D01*
X510000Y720000D01*
X509960Y719798D01*
X511196D01*
Y721033D01*
D02*
G37*
G36*
X616736Y719500D02*
X615500D01*
Y718264D01*
X615702Y718304D01*
X616298Y718702D01*
X616696Y719298D01*
X616736Y719500D01*
D02*
G37*
G36*
X434500Y721736D02*
X434298Y721696D01*
X433702Y721298D01*
X433304Y720702D01*
X433264Y720500D01*
X434500D01*
Y721736D01*
D02*
G37*
G36*
X512196Y721033D02*
Y719798D01*
X513431D01*
X513391Y720000D01*
X512993Y720595D01*
X512398Y720993D01*
X512196Y721033D01*
D02*
G37*
G36*
X585500Y721736D02*
Y720500D01*
X586736D01*
X586696Y720702D01*
X586298Y721298D01*
X585702Y721696D01*
X585500Y721736D01*
D02*
G37*
G36*
X615500D02*
Y720500D01*
X616736D01*
X616696Y720702D01*
X616298Y721298D01*
X615702Y721696D01*
X615500Y721736D01*
D02*
G37*
G36*
X614500D02*
X614298Y721696D01*
X613702Y721298D01*
X613304Y720702D01*
X613264Y720500D01*
X614500D01*
Y721736D01*
D02*
G37*
G36*
X589500Y724500D02*
X588264D01*
X588304Y724298D01*
X588702Y723702D01*
X589298Y723304D01*
X589500Y723264D01*
Y724500D01*
D02*
G37*
G36*
X459627Y736805D02*
X446232D01*
X442487Y733060D01*
Y725570D01*
X446232Y721825D01*
X459627D01*
X463372Y725570D01*
Y733060D01*
X459627Y736805D01*
D02*
G37*
G36*
X595500Y721736D02*
Y720500D01*
X596736D01*
X596696Y720702D01*
X596298Y721298D01*
X595702Y721696D01*
X595500Y721736D01*
D02*
G37*
G36*
X594500D02*
X594298Y721696D01*
X593702Y721298D01*
X593304Y720702D01*
X593264Y720500D01*
X594500D01*
Y721736D01*
D02*
G37*
G36*
X605500D02*
Y720500D01*
X606736D01*
X606696Y720702D01*
X606298Y721298D01*
X605702Y721696D01*
X605500Y721736D01*
D02*
G37*
G36*
X604500D02*
X604298Y721696D01*
X603702Y721298D01*
X603304Y720702D01*
X603264Y720500D01*
X604500D01*
Y721736D01*
D02*
G37*
G36*
X514500Y831736D02*
X514298Y831696D01*
X513702Y831298D01*
X513304Y830702D01*
X513264Y830500D01*
X514500D01*
Y831736D01*
D02*
G37*
G36*
X441500Y834106D02*
Y829500D01*
X446106D01*
X445996Y830339D01*
X445479Y831586D01*
X444657Y832657D01*
X443586Y833479D01*
X442339Y833996D01*
X441500Y834106D01*
D02*
G37*
G36*
X569500Y831736D02*
X569298Y831696D01*
X568702Y831298D01*
X568304Y830702D01*
X568264Y830500D01*
X569500D01*
Y831736D01*
D02*
G37*
G36*
X515500D02*
Y830500D01*
X516736D01*
X516696Y830702D01*
X516298Y831298D01*
X515702Y831696D01*
X515500Y831736D01*
D02*
G37*
G36*
X569500Y829500D02*
X568264D01*
X568304Y829298D01*
X568702Y828702D01*
X569298Y828304D01*
X569500Y828264D01*
Y829500D01*
D02*
G37*
G36*
X516736D02*
X515500D01*
Y828264D01*
X515702Y828304D01*
X516298Y828702D01*
X516696Y829298D01*
X516736Y829500D01*
D02*
G37*
G36*
X440500Y834106D02*
X439661Y833996D01*
X438414Y833479D01*
X437343Y832657D01*
X436521Y831586D01*
X436004Y830339D01*
X435894Y829500D01*
X440500D01*
Y834106D01*
D02*
G37*
G36*
X571736Y829500D02*
X570500D01*
Y828264D01*
X570702Y828304D01*
X571298Y828702D01*
X571696Y829298D01*
X571736Y829500D01*
D02*
G37*
G36*
X570500Y831736D02*
Y830500D01*
X571736D01*
X571696Y830702D01*
X571298Y831298D01*
X570702Y831696D01*
X570500Y831736D01*
D02*
G37*
G36*
X478500Y838084D02*
X478201Y838045D01*
X477457Y837736D01*
X476817Y837246D01*
X476327Y836607D01*
X476018Y835862D01*
X475979Y835563D01*
X478500D01*
Y838084D01*
D02*
G37*
G36*
X653977Y841701D02*
X647000D01*
Y834724D01*
X647968Y834819D01*
X649380Y835248D01*
X650681Y835943D01*
X651822Y836879D01*
X652758Y838020D01*
X653453Y839321D01*
X653881Y840732D01*
X653977Y841701D01*
D02*
G37*
G36*
X527000Y837335D02*
X526298Y837196D01*
X526202Y837131D01*
X512798D01*
X512702Y837196D01*
X512000Y837335D01*
X511298Y837196D01*
X510702Y836798D01*
X510304Y836202D01*
X510165Y835500D01*
X510304Y834798D01*
X510702Y834202D01*
X511298Y833804D01*
X512000Y833665D01*
X512702Y833804D01*
X512798Y833869D01*
X526202D01*
X526298Y833804D01*
X527000Y833665D01*
X527702Y833804D01*
X528298Y834202D01*
X528696Y834798D01*
X528835Y835500D01*
X528696Y836202D01*
X528298Y836798D01*
X527702Y837196D01*
X527000Y837335D01*
D02*
G37*
G36*
X479500Y838084D02*
Y835563D01*
X482021D01*
X481982Y835862D01*
X481673Y836607D01*
X481183Y837246D01*
X480544Y837736D01*
X479799Y838045D01*
X479500Y838084D01*
D02*
G37*
G36*
X482021Y834563D02*
X479500D01*
Y832042D01*
X479799Y832081D01*
X480544Y832390D01*
X481183Y832880D01*
X481673Y833519D01*
X481982Y834264D01*
X482021Y834563D01*
D02*
G37*
G36*
X478500D02*
X475979D01*
X476018Y834264D01*
X476327Y833519D01*
X476817Y832880D01*
X477457Y832390D01*
X478201Y832081D01*
X478500Y832042D01*
Y834563D01*
D02*
G37*
G36*
X646000Y841701D02*
X639023D01*
X639119Y840732D01*
X639547Y839321D01*
X640242Y838020D01*
X641178Y836879D01*
X642319Y835943D01*
X643620Y835248D01*
X645032Y834819D01*
X646000Y834724D01*
Y841701D01*
D02*
G37*
G36*
X601500Y835835D02*
X600798Y835696D01*
X600202Y835298D01*
X599804Y834702D01*
X599665Y834000D01*
X599682Y833912D01*
X587993Y822223D01*
X576847D01*
X576798Y822298D01*
X576202Y822696D01*
X575500Y822835D01*
X574798Y822696D01*
X574202Y822298D01*
X573804Y821702D01*
X573665Y821000D01*
X573804Y820298D01*
X574202Y819702D01*
X574798Y819304D01*
X575500Y819165D01*
X576202Y819304D01*
X576798Y819702D01*
X576847Y819777D01*
X588500D01*
X588968Y819870D01*
X589365Y820135D01*
X589365Y820135D01*
X589365Y820135D01*
X601412Y832182D01*
X601500Y832165D01*
X602202Y832304D01*
X602798Y832702D01*
X603196Y833298D01*
X603335Y834000D01*
X603196Y834702D01*
X602798Y835298D01*
X602202Y835696D01*
X601500Y835835D01*
D02*
G37*
G36*
X514500Y829500D02*
X513264D01*
X513304Y829298D01*
X513702Y828702D01*
X514298Y828304D01*
X514500Y828264D01*
Y829500D01*
D02*
G37*
G36*
X651736Y819500D02*
X650500D01*
Y818264D01*
X650702Y818304D01*
X651298Y818702D01*
X651696Y819298D01*
X651736Y819500D01*
D02*
G37*
G36*
X649500D02*
X648264D01*
X648304Y819298D01*
X648702Y818702D01*
X649298Y818304D01*
X649500Y818264D01*
Y819500D01*
D02*
G37*
G36*
X635331Y822921D02*
X632266D01*
X632323Y822482D01*
X632686Y821606D01*
X633263Y820854D01*
X634015Y820277D01*
X634891Y819914D01*
X635331Y819856D01*
Y822921D01*
D02*
G37*
G36*
X627957Y827052D02*
X627017Y826929D01*
X626141Y826566D01*
X625389Y825989D01*
X624812Y825237D01*
X624449Y824361D01*
X624326Y823421D01*
X624449Y822482D01*
X624812Y821606D01*
X625389Y820854D01*
X626141Y820277D01*
X627017Y819914D01*
X627957Y819790D01*
X628897Y819914D01*
X629772Y820277D01*
X630524Y820854D01*
X631101Y821606D01*
X631464Y822482D01*
X631588Y823421D01*
X631464Y824361D01*
X631101Y825237D01*
X630524Y825989D01*
X629772Y826566D01*
X628897Y826929D01*
X627957Y827052D01*
D02*
G37*
G36*
X650500Y816736D02*
Y815500D01*
X651736D01*
X651696Y815702D01*
X651298Y816298D01*
X650702Y816696D01*
X650500Y816736D01*
D02*
G37*
G36*
X649500D02*
X649298Y816696D01*
X648702Y816298D01*
X648304Y815702D01*
X648264Y815500D01*
X649500D01*
Y816736D01*
D02*
G37*
G36*
X461736Y819500D02*
X460500D01*
Y818264D01*
X460702Y818304D01*
X461298Y818702D01*
X461696Y819298D01*
X461736Y819500D01*
D02*
G37*
G36*
X459500D02*
X458264D01*
X458304Y819298D01*
X458702Y818702D01*
X459298Y818304D01*
X459500Y818264D01*
Y819500D01*
D02*
G37*
G36*
X639396Y822921D02*
X636331D01*
Y819856D01*
X636770Y819914D01*
X637646Y820277D01*
X638398Y820854D01*
X638975Y821606D01*
X639338Y822482D01*
X639396Y822921D01*
D02*
G37*
G36*
X446106Y828500D02*
X441500D01*
Y823894D01*
X442339Y824004D01*
X443586Y824521D01*
X444657Y825343D01*
X445479Y826414D01*
X445996Y827661D01*
X446106Y828500D01*
D02*
G37*
G36*
X440500D02*
X435894D01*
X436004Y827661D01*
X436521Y826414D01*
X437343Y825343D01*
X438414Y824521D01*
X439661Y824004D01*
X440500Y823894D01*
Y828500D01*
D02*
G37*
G36*
X636331Y826987D02*
Y823921D01*
X639396D01*
X639338Y824361D01*
X638975Y825237D01*
X638398Y825989D01*
X637646Y826566D01*
X636770Y826929D01*
X636331Y826987D01*
D02*
G37*
G36*
X635331D02*
X634891Y826929D01*
X634015Y826566D01*
X633263Y825989D01*
X632686Y825237D01*
X632323Y824361D01*
X632266Y823921D01*
X635331D01*
Y826987D01*
D02*
G37*
G36*
X460500Y821736D02*
Y820500D01*
X461736D01*
X461696Y820702D01*
X461298Y821298D01*
X460702Y821696D01*
X460500Y821736D01*
D02*
G37*
G36*
X459500D02*
X459298Y821696D01*
X458702Y821298D01*
X458304Y820702D01*
X458264Y820500D01*
X459500D01*
Y821736D01*
D02*
G37*
G36*
X650500D02*
Y820500D01*
X651736D01*
X651696Y820702D01*
X651298Y821298D01*
X650702Y821696D01*
X650500Y821736D01*
D02*
G37*
G36*
X649500D02*
X649298Y821696D01*
X648702Y821298D01*
X648304Y820702D01*
X648264Y820500D01*
X649500D01*
Y821736D01*
D02*
G37*
G36*
X482061Y845998D02*
X475939D01*
Y839876D01*
X482061D01*
Y845998D01*
D02*
G37*
G36*
X582771Y861236D02*
X582568Y861196D01*
X581973Y860798D01*
X581575Y860202D01*
X581535Y860000D01*
X582771D01*
Y861236D01*
D02*
G37*
G36*
X597500Y869436D02*
Y859500D01*
X607436D01*
X607346Y860639D01*
X606962Y862237D01*
X606333Y863756D01*
X605474Y865157D01*
X604407Y866407D01*
X603157Y867474D01*
X601756Y868333D01*
X600237Y868962D01*
X598639Y869346D01*
X597500Y869436D01*
D02*
G37*
G36*
X479500Y861736D02*
X479298Y861696D01*
X478702Y861298D01*
X478304Y860702D01*
X478264Y860500D01*
X479500D01*
Y861736D01*
D02*
G37*
G36*
X583771Y861236D02*
Y860000D01*
X585007D01*
X584966Y860202D01*
X584568Y860798D01*
X583973Y861196D01*
X583771Y861236D01*
D02*
G37*
G36*
X535500Y861500D02*
X532482D01*
X532539Y861073D01*
X532897Y860208D01*
X533466Y859466D01*
X534208Y858897D01*
X535073Y858539D01*
X535500Y858482D01*
Y861500D01*
D02*
G37*
G36*
X509553Y865553D02*
X502447D01*
Y858447D01*
X509553D01*
Y865553D01*
D02*
G37*
G36*
X596500Y869436D02*
X595361Y869346D01*
X593763Y868962D01*
X592244Y868333D01*
X590843Y867474D01*
X589593Y866407D01*
X588526Y865157D01*
X587667Y863756D01*
X587038Y862237D01*
X586654Y860639D01*
X586564Y859500D01*
X596500D01*
Y869436D01*
D02*
G37*
G36*
X539518Y861500D02*
X536500D01*
Y858482D01*
X536928Y858539D01*
X537792Y858897D01*
X538534Y859466D01*
X539103Y860208D01*
X539461Y861073D01*
X539518Y861500D01*
D02*
G37*
G36*
X480500Y861736D02*
Y860500D01*
X481736D01*
X481696Y860702D01*
X481298Y861298D01*
X480702Y861696D01*
X480500Y861736D01*
D02*
G37*
G36*
X441736Y864500D02*
X440500D01*
Y863264D01*
X440702Y863304D01*
X441298Y863702D01*
X441696Y864298D01*
X441736Y864500D01*
D02*
G37*
G36*
X439500D02*
X438264D01*
X438304Y864298D01*
X438702Y863702D01*
X439298Y863304D01*
X439500Y863264D01*
Y864500D01*
D02*
G37*
G36*
X440500Y866736D02*
Y865500D01*
X441736D01*
X441696Y865702D01*
X441298Y866298D01*
X440702Y866696D01*
X440500Y866736D01*
D02*
G37*
G36*
X439500D02*
X439298Y866696D01*
X438702Y866298D01*
X438304Y865702D01*
X438264Y865500D01*
X439500D01*
Y866736D01*
D02*
G37*
G36*
X560500Y861736D02*
Y860500D01*
X561736D01*
X561696Y860702D01*
X561298Y861298D01*
X560702Y861696D01*
X560500Y861736D01*
D02*
G37*
G36*
X559500D02*
X559298Y861696D01*
X558702Y861298D01*
X558304Y860702D01*
X558264Y860500D01*
X559500D01*
Y861736D01*
D02*
G37*
G36*
X536500Y865518D02*
Y862500D01*
X539518D01*
X539461Y862927D01*
X539103Y863792D01*
X538534Y864534D01*
X537792Y865103D01*
X536928Y865461D01*
X536500Y865518D01*
D02*
G37*
G36*
X535500D02*
X535073Y865461D01*
X534208Y865103D01*
X533466Y864534D01*
X532897Y863792D01*
X532539Y862927D01*
X532482Y862500D01*
X535500D01*
Y865518D01*
D02*
G37*
G36*
X526000Y865583D02*
X525072Y865461D01*
X524208Y865103D01*
X523466Y864534D01*
X522897Y863792D01*
X522539Y862927D01*
X522417Y862000D01*
X522539Y861073D01*
X522897Y860208D01*
X523466Y859466D01*
X524208Y858897D01*
X525072Y858539D01*
X526000Y858417D01*
X526928Y858539D01*
X527792Y858897D01*
X528534Y859466D01*
X529103Y860208D01*
X529461Y861073D01*
X529583Y862000D01*
X529461Y862927D01*
X529103Y863792D01*
X528534Y864534D01*
X527792Y865103D01*
X526928Y865461D01*
X526000Y865583D01*
D02*
G37*
G36*
X446128Y854128D02*
X435872D01*
Y843872D01*
X446128D01*
Y854128D01*
D02*
G37*
G36*
X506736Y844500D02*
X505500D01*
Y843264D01*
X505702Y843304D01*
X506298Y843702D01*
X506696Y844298D01*
X506736Y844500D01*
D02*
G37*
G36*
X505500Y846736D02*
Y845500D01*
X506736D01*
X506696Y845702D01*
X506298Y846298D01*
X505702Y846696D01*
X505500Y846736D01*
D02*
G37*
G36*
X504500D02*
X504298Y846696D01*
X503702Y846298D01*
X503304Y845702D01*
X503264Y845500D01*
X504500D01*
Y846736D01*
D02*
G37*
G36*
X646000Y849677D02*
X645032Y849582D01*
X643620Y849154D01*
X642319Y848458D01*
X641178Y847523D01*
X640242Y846382D01*
X639547Y845081D01*
X639119Y843669D01*
X639023Y842701D01*
X646000D01*
Y849677D01*
D02*
G37*
G36*
X543000Y845835D02*
X542298Y845696D01*
X541702Y845298D01*
X541600Y845144D01*
X541532Y845130D01*
X541135Y844865D01*
X540135Y843865D01*
X539870Y843468D01*
X539777Y843000D01*
Y737347D01*
X539702Y737298D01*
X539304Y736702D01*
X539165Y736000D01*
X539304Y735298D01*
X539702Y734702D01*
X540298Y734304D01*
X541000Y734165D01*
X541702Y734304D01*
X542298Y734702D01*
X542696Y735298D01*
X542750Y735571D01*
X543250D01*
X543304Y735298D01*
X543702Y734702D01*
X544298Y734304D01*
X545000Y734165D01*
X545702Y734304D01*
X546298Y734702D01*
X546696Y735298D01*
X546835Y736000D01*
X546696Y736702D01*
X546298Y737298D01*
X546223Y737347D01*
Y831493D01*
X546889Y832159D01*
X547702Y832702D01*
X548298Y832304D01*
X549000Y832165D01*
X549702Y832304D01*
X550298Y832702D01*
X550696Y833298D01*
X550835Y834000D01*
X550696Y834702D01*
X550298Y835298D01*
X549702Y835696D01*
X549000Y835835D01*
X548298Y835696D01*
X547702Y835298D01*
X547653Y835223D01*
X547000D01*
X546532Y835130D01*
X546135Y834865D01*
X544135Y832865D01*
X543870Y832468D01*
X543777Y832000D01*
Y737347D01*
X543702Y737298D01*
X543304Y736702D01*
X543250Y736429D01*
X542750D01*
X542696Y736702D01*
X542298Y737298D01*
X542224Y737347D01*
Y841925D01*
X542610Y842242D01*
X543000Y842165D01*
X543702Y842304D01*
X544298Y842702D01*
X544696Y843298D01*
X544835Y844000D01*
X544696Y844702D01*
X544298Y845298D01*
X543702Y845696D01*
X543000Y845835D01*
D02*
G37*
G36*
X504500Y844500D02*
X503264D01*
X503304Y844298D01*
X503702Y843702D01*
X504298Y843304D01*
X504500Y843264D01*
Y844500D01*
D02*
G37*
G36*
X647000Y849677D02*
Y842701D01*
X653977D01*
X653881Y843669D01*
X653453Y845081D01*
X652758Y846382D01*
X651822Y847523D01*
X650681Y848458D01*
X649380Y849154D01*
X647968Y849582D01*
X647000Y849677D01*
D02*
G37*
G36*
X596500Y858500D02*
X586564D01*
X586654Y857361D01*
X587038Y855763D01*
X587667Y854245D01*
X588526Y852843D01*
X589593Y851593D01*
X590843Y850526D01*
X592244Y849667D01*
X593763Y849038D01*
X595361Y848654D01*
X596500Y848565D01*
Y858500D01*
D02*
G37*
G36*
X559500Y859500D02*
X558264D01*
X558304Y859298D01*
X558702Y858702D01*
X559298Y858304D01*
X559500Y858264D01*
Y859500D01*
D02*
G37*
G36*
X481736D02*
X480500D01*
Y858264D01*
X480702Y858304D01*
X481298Y858702D01*
X481696Y859298D01*
X481736Y859500D01*
D02*
G37*
G36*
X516000Y865583D02*
X515072Y865461D01*
X514208Y865103D01*
X513466Y864534D01*
X512897Y863792D01*
X512539Y862927D01*
X512417Y862000D01*
X512539Y861073D01*
X512897Y860208D01*
X513466Y859466D01*
X514208Y858897D01*
X515072Y858539D01*
X516000Y858417D01*
X516927Y858539D01*
X517792Y858897D01*
X518534Y859466D01*
X519103Y860208D01*
X519461Y861073D01*
X519583Y862000D01*
X519461Y862927D01*
X519103Y863792D01*
X518534Y864534D01*
X517792Y865103D01*
X516927Y865461D01*
X516000Y865583D01*
D02*
G37*
G36*
X561736Y859500D02*
X560500D01*
Y858264D01*
X560702Y858304D01*
X561298Y858702D01*
X561696Y859298D01*
X561736Y859500D01*
D02*
G37*
G36*
X582771Y859000D02*
X581535D01*
X581575Y858798D01*
X581973Y858202D01*
X582568Y857804D01*
X582771Y857764D01*
Y859000D01*
D02*
G37*
G36*
X607436Y858500D02*
X597500D01*
Y848565D01*
X598639Y848654D01*
X600237Y849038D01*
X601756Y849667D01*
X603157Y850526D01*
X604407Y851593D01*
X605474Y852843D01*
X606333Y854245D01*
X606962Y855763D01*
X607346Y857361D01*
X607436Y858500D01*
D02*
G37*
G36*
X479500Y859500D02*
X478264D01*
X478304Y859298D01*
X478702Y858702D01*
X479298Y858304D01*
X479500Y858264D01*
Y859500D01*
D02*
G37*
G36*
X585007Y859000D02*
X583771D01*
Y857764D01*
X583973Y857804D01*
X584568Y858202D01*
X584966Y858798D01*
X585007Y859000D01*
D02*
G37*
G36*
X589500Y789500D02*
X588264D01*
X588304Y789298D01*
X588702Y788702D01*
X589298Y788304D01*
X589500Y788264D01*
Y789500D01*
D02*
G37*
G36*
X526736D02*
X525500D01*
Y788264D01*
X525702Y788304D01*
X526298Y788702D01*
X526696Y789298D01*
X526736Y789500D01*
D02*
G37*
G36*
X634500D02*
X633264D01*
X633304Y789298D01*
X633702Y788702D01*
X634298Y788304D01*
X634500Y788264D01*
Y789500D01*
D02*
G37*
G36*
X591736D02*
X590500D01*
Y788264D01*
X590702Y788304D01*
X591298Y788702D01*
X591696Y789298D01*
X591736Y789500D01*
D02*
G37*
G36*
X646000Y794299D02*
X639023D01*
X639119Y793331D01*
X639547Y791919D01*
X640242Y790618D01*
X641178Y789477D01*
X642319Y788542D01*
X643620Y787846D01*
X645032Y787418D01*
X646000Y787323D01*
Y794299D01*
D02*
G37*
G36*
X482021Y788563D02*
X479500D01*
Y786042D01*
X479799Y786081D01*
X480544Y786389D01*
X481183Y786880D01*
X481673Y787520D01*
X481982Y788264D01*
X482021Y788563D01*
D02*
G37*
G36*
X524500Y789500D02*
X523264D01*
X523304Y789298D01*
X523702Y788702D01*
X524298Y788304D01*
X524500Y788264D01*
Y789500D01*
D02*
G37*
G36*
X653977Y794299D02*
X647000D01*
Y787323D01*
X647968Y787418D01*
X649380Y787846D01*
X650681Y788542D01*
X651822Y789477D01*
X652758Y790618D01*
X653453Y791919D01*
X653881Y793331D01*
X653977Y794299D01*
D02*
G37*
G36*
X636736Y789500D02*
X635500D01*
Y788264D01*
X635702Y788304D01*
X636298Y788702D01*
X636696Y789298D01*
X636736Y789500D01*
D02*
G37*
G36*
X590500Y791736D02*
Y790500D01*
X591736D01*
X591696Y790702D01*
X591298Y791298D01*
X590702Y791696D01*
X590500Y791736D01*
D02*
G37*
G36*
X589500D02*
X589298Y791696D01*
X588702Y791298D01*
X588304Y790702D01*
X588264Y790500D01*
X589500D01*
Y791736D01*
D02*
G37*
G36*
X635500D02*
Y790500D01*
X636736D01*
X636696Y790702D01*
X636298Y791298D01*
X635702Y791696D01*
X635500Y791736D01*
D02*
G37*
G36*
X634500D02*
X634298Y791696D01*
X633702Y791298D01*
X633304Y790702D01*
X633264Y790500D01*
X634500D01*
Y791736D01*
D02*
G37*
G36*
X479500Y792084D02*
Y789563D01*
X482021D01*
X481982Y789862D01*
X481673Y790606D01*
X481183Y791246D01*
X480544Y791736D01*
X479799Y792045D01*
X479500Y792084D01*
D02*
G37*
G36*
X478500D02*
X478201Y792045D01*
X477457Y791736D01*
X476817Y791246D01*
X476327Y790606D01*
X476018Y789862D01*
X475979Y789563D01*
X478500D01*
Y792084D01*
D02*
G37*
G36*
X525500Y791736D02*
Y790500D01*
X526736D01*
X526696Y790702D01*
X526298Y791298D01*
X525702Y791696D01*
X525500Y791736D01*
D02*
G37*
G36*
X524500D02*
X524298Y791696D01*
X523702Y791298D01*
X523304Y790702D01*
X523264Y790500D01*
X524500D01*
Y791736D01*
D02*
G37*
G36*
X478500Y788563D02*
X475979D01*
X476018Y788264D01*
X476327Y787520D01*
X476817Y786880D01*
X477457Y786389D01*
X478201Y786081D01*
X478500Y786042D01*
Y788563D01*
D02*
G37*
G36*
X644500Y779500D02*
X643264D01*
X643304Y779298D01*
X643702Y778702D01*
X644298Y778304D01*
X644500Y778264D01*
Y779500D01*
D02*
G37*
G36*
X531736D02*
X530500D01*
Y778264D01*
X530702Y778304D01*
X531298Y778702D01*
X531696Y779298D01*
X531736Y779500D01*
D02*
G37*
G36*
X529500Y781736D02*
X529298Y781696D01*
X528702Y781298D01*
X528304Y780702D01*
X528264Y780500D01*
X529500D01*
Y781736D01*
D02*
G37*
G36*
X646736Y779500D02*
X645500D01*
Y778264D01*
X645702Y778304D01*
X646298Y778702D01*
X646696Y779298D01*
X646736Y779500D01*
D02*
G37*
G36*
X614500Y777736D02*
X614298Y777696D01*
X613702Y777298D01*
X613304Y776702D01*
X613264Y776500D01*
X614500D01*
Y777736D01*
D02*
G37*
G36*
X446106Y780500D02*
X441500D01*
Y775894D01*
X442339Y776004D01*
X443586Y776521D01*
X444657Y777343D01*
X445479Y778414D01*
X445996Y779661D01*
X446106Y780500D01*
D02*
G37*
G36*
X529500Y779500D02*
X528264D01*
X528304Y779298D01*
X528702Y778702D01*
X529298Y778304D01*
X529500Y778264D01*
Y779500D01*
D02*
G37*
G36*
X615500Y777736D02*
Y776500D01*
X616736D01*
X616696Y776702D01*
X616298Y777298D01*
X615702Y777696D01*
X615500Y777736D01*
D02*
G37*
G36*
X530500Y781736D02*
Y780500D01*
X531736D01*
X531696Y780702D01*
X531298Y781298D01*
X530702Y781696D01*
X530500Y781736D01*
D02*
G37*
G36*
X641736Y784500D02*
X640500D01*
Y783264D01*
X640702Y783304D01*
X641298Y783702D01*
X641696Y784298D01*
X641736Y784500D01*
D02*
G37*
G36*
X639500D02*
X638264D01*
X638304Y784298D01*
X638702Y783702D01*
X639298Y783304D01*
X639500Y783264D01*
Y784500D01*
D02*
G37*
G36*
X640500Y786736D02*
Y785500D01*
X641736D01*
X641696Y785702D01*
X641298Y786298D01*
X640702Y786696D01*
X640500Y786736D01*
D02*
G37*
G36*
X639500D02*
X639298Y786696D01*
X638702Y786298D01*
X638304Y785702D01*
X638264Y785500D01*
X639500D01*
Y786736D01*
D02*
G37*
G36*
X645500Y781736D02*
Y780500D01*
X646736D01*
X646696Y780702D01*
X646298Y781298D01*
X645702Y781696D01*
X645500Y781736D01*
D02*
G37*
G36*
X644500D02*
X644298Y781696D01*
X643702Y781298D01*
X643304Y780702D01*
X643264Y780500D01*
X644500D01*
Y781736D01*
D02*
G37*
G36*
X441500Y786106D02*
Y781500D01*
X446106D01*
X445996Y782339D01*
X445479Y783586D01*
X444657Y784657D01*
X443586Y785479D01*
X442339Y785996D01*
X441500Y786106D01*
D02*
G37*
G36*
X440500D02*
X439661Y785996D01*
X438414Y785479D01*
X437343Y784657D01*
X436521Y783586D01*
X436004Y782339D01*
X435894Y781500D01*
X440500D01*
Y786106D01*
D02*
G37*
G36*
X494500Y794500D02*
X493264D01*
X493304Y794298D01*
X493702Y793702D01*
X494298Y793304D01*
X494500Y793264D01*
Y794500D01*
D02*
G37*
G36*
X489500Y814500D02*
X488264D01*
X488304Y814298D01*
X488702Y813702D01*
X489298Y813304D01*
X489500Y813264D01*
Y814500D01*
D02*
G37*
G36*
X481736D02*
X480500D01*
Y813264D01*
X480702Y813304D01*
X481298Y813702D01*
X481696Y814298D01*
X481736Y814500D01*
D02*
G37*
G36*
X569500D02*
X568264D01*
X568304Y814298D01*
X568702Y813702D01*
X569298Y813304D01*
X569500Y813264D01*
Y814500D01*
D02*
G37*
G36*
X491736D02*
X490500D01*
Y813264D01*
X490702Y813304D01*
X491298Y813702D01*
X491696Y814298D01*
X491736Y814500D01*
D02*
G37*
G36*
X627957Y817210D02*
X627017Y817086D01*
X626141Y816723D01*
X625389Y816146D01*
X624812Y815394D01*
X624449Y814519D01*
X624326Y813579D01*
X624449Y812639D01*
X624812Y811763D01*
X625389Y811011D01*
X626141Y810434D01*
X627017Y810071D01*
X627957Y809948D01*
X628897Y810071D01*
X629772Y810434D01*
X630524Y811011D01*
X631101Y811763D01*
X631464Y812639D01*
X631588Y813579D01*
X631464Y814519D01*
X631101Y815394D01*
X630524Y816146D01*
X629772Y816723D01*
X628897Y817086D01*
X627957Y817210D01*
D02*
G37*
G36*
X610500Y801736D02*
Y800500D01*
X611736D01*
X611696Y800702D01*
X611298Y801298D01*
X610702Y801696D01*
X610500Y801736D01*
D02*
G37*
G36*
X479500Y814500D02*
X478264D01*
X478304Y814298D01*
X478702Y813702D01*
X479298Y813304D01*
X479500Y813264D01*
Y814500D01*
D02*
G37*
G36*
X635831Y817210D02*
X634891Y817086D01*
X634015Y816723D01*
X633263Y816146D01*
X632686Y815394D01*
X632323Y814519D01*
X632200Y813579D01*
X632323Y812639D01*
X632686Y811763D01*
X633263Y811011D01*
X634015Y810434D01*
X634891Y810071D01*
X635831Y809948D01*
X636770Y810071D01*
X637646Y810434D01*
X638398Y811011D01*
X638975Y811763D01*
X639338Y812639D01*
X639462Y813579D01*
X639338Y814519D01*
X638975Y815394D01*
X638398Y816146D01*
X637646Y816723D01*
X636770Y817086D01*
X635831Y817210D01*
D02*
G37*
G36*
X571736Y814500D02*
X570500D01*
Y813264D01*
X570702Y813304D01*
X571298Y813702D01*
X571696Y814298D01*
X571736Y814500D01*
D02*
G37*
G36*
X490500Y816736D02*
Y815500D01*
X491736D01*
X491696Y815702D01*
X491298Y816298D01*
X490702Y816696D01*
X490500Y816736D01*
D02*
G37*
G36*
X489500D02*
X489298Y816696D01*
X488702Y816298D01*
X488304Y815702D01*
X488264Y815500D01*
X489500D01*
Y816736D01*
D02*
G37*
G36*
X570500D02*
Y815500D01*
X571736D01*
X571696Y815702D01*
X571298Y816298D01*
X570702Y816696D01*
X570500Y816736D01*
D02*
G37*
G36*
X569500D02*
X569298Y816696D01*
X568702Y816298D01*
X568304Y815702D01*
X568264Y815500D01*
X569500D01*
Y816736D01*
D02*
G37*
G36*
X651736Y814500D02*
X650500D01*
Y813264D01*
X650702Y813304D01*
X651298Y813702D01*
X651696Y814298D01*
X651736Y814500D01*
D02*
G37*
G36*
X649500D02*
X648264D01*
X648304Y814298D01*
X648702Y813702D01*
X649298Y813304D01*
X649500Y813264D01*
Y814500D01*
D02*
G37*
G36*
X480500Y816736D02*
Y815500D01*
X481736D01*
X481696Y815702D01*
X481298Y816298D01*
X480702Y816696D01*
X480500Y816736D01*
D02*
G37*
G36*
X479500D02*
X479298Y816696D01*
X478702Y816298D01*
X478304Y815702D01*
X478264Y815500D01*
X479500D01*
Y816736D01*
D02*
G37*
G36*
X609500Y801736D02*
X609298Y801696D01*
X608702Y801298D01*
X608304Y800702D01*
X608264Y800500D01*
X609500D01*
Y801736D01*
D02*
G37*
G36*
X647000Y802276D02*
Y795299D01*
X653977D01*
X653881Y796268D01*
X653453Y797679D01*
X652758Y798980D01*
X651822Y800121D01*
X650681Y801057D01*
X649380Y801752D01*
X647968Y802181D01*
X647000Y802276D01*
D02*
G37*
G36*
X646000D02*
X645032Y802181D01*
X643620Y801752D01*
X642319Y801057D01*
X641178Y800121D01*
X640242Y798980D01*
X639547Y797679D01*
X639119Y796268D01*
X639023Y795299D01*
X646000D01*
Y802276D01*
D02*
G37*
G36*
X495500Y796736D02*
Y795500D01*
X496736D01*
X496696Y795702D01*
X496298Y796298D01*
X495702Y796696D01*
X495500Y796736D01*
D02*
G37*
G36*
X494500D02*
X494298Y796696D01*
X493702Y796298D01*
X493304Y795702D01*
X493264Y795500D01*
X494500D01*
Y796736D01*
D02*
G37*
G36*
X549500Y794500D02*
X548264D01*
X548304Y794298D01*
X548702Y793702D01*
X549298Y793304D01*
X549500Y793264D01*
Y794500D01*
D02*
G37*
G36*
X496736D02*
X495500D01*
Y793264D01*
X495702Y793304D01*
X496298Y793702D01*
X496696Y794298D01*
X496736Y794500D01*
D02*
G37*
G36*
X482061Y799998D02*
X475939D01*
Y793876D01*
X482061D01*
Y799998D01*
D02*
G37*
G36*
X551736Y794500D02*
X550500D01*
Y793264D01*
X550702Y793304D01*
X551298Y793702D01*
X551696Y794298D01*
X551736Y794500D01*
D02*
G37*
G36*
X549500Y796736D02*
X549298Y796696D01*
X548702Y796298D01*
X548304Y795702D01*
X548264Y795500D01*
X549500D01*
Y796736D01*
D02*
G37*
G36*
X611736Y799500D02*
X610500D01*
Y798264D01*
X610702Y798304D01*
X611298Y798702D01*
X611696Y799298D01*
X611736Y799500D01*
D02*
G37*
G36*
X609500D02*
X608264D01*
X608304Y799298D01*
X608702Y798702D01*
X609298Y798304D01*
X609500Y798264D01*
Y799500D01*
D02*
G37*
G36*
X535500Y801736D02*
Y800500D01*
X536736D01*
X536696Y800702D01*
X536298Y801298D01*
X535702Y801696D01*
X535500Y801736D01*
D02*
G37*
G36*
X534500D02*
X534298Y801696D01*
X533702Y801298D01*
X533304Y800702D01*
X533264Y800500D01*
X534500D01*
Y801736D01*
D02*
G37*
G36*
X446128Y806128D02*
X435872D01*
Y795872D01*
X446128D01*
Y806128D01*
D02*
G37*
G36*
X550500Y796736D02*
Y795500D01*
X551736D01*
X551696Y795702D01*
X551298Y796298D01*
X550702Y796696D01*
X550500Y796736D01*
D02*
G37*
G36*
X536736Y799500D02*
X535500D01*
Y798264D01*
X535702Y798304D01*
X536298Y798702D01*
X536696Y799298D01*
X536736Y799500D01*
D02*
G37*
G36*
X534500D02*
X533264D01*
X533304Y799298D01*
X533702Y798702D01*
X534298Y798304D01*
X534500Y798264D01*
Y799500D01*
D02*
G37*
%LPD*%
D26*
X622500Y723500D02*
D03*
X642500D02*
D03*
D28*
X513236Y749236D02*
X513500D01*
Y742500D02*
Y749236D01*
X502500Y717500D02*
X510000Y725000D01*
X513500Y742500D02*
X524900Y731100D01*
X588500Y821000D02*
X601500Y834000D01*
X575500Y821000D02*
X588500D01*
X542000Y844000D02*
X543000D01*
X583500Y743000D02*
X595500D01*
X563500Y736954D02*
Y743000D01*
X557394D02*
X558000D01*
X545494Y731100D02*
X557394Y743000D01*
X524900Y731100D02*
X545494D01*
X541000Y736000D02*
Y843000D01*
X542000Y844000D01*
X545000Y736000D02*
Y832000D01*
X547000Y834000D01*
X549000D01*
X547000Y728500D02*
X560500Y742000D01*
Y746000D01*
X505000Y741000D02*
X511000D01*
X523500Y728500D01*
X547000D01*
X510000Y725000D02*
X551546D01*
X563500Y736954D01*
D29*
X567000Y746600D02*
X585400Y765000D01*
X588400Y764747D02*
Y765000D01*
X568600Y744947D02*
X588400Y764747D01*
X569600Y736500D02*
X571000D01*
X570600Y733900D02*
X571000Y733500D01*
X568600Y737500D02*
X569600Y736500D01*
X567000Y735500D02*
Y746600D01*
Y735500D02*
X569000Y733500D01*
X571000D01*
X568600Y737500D02*
Y744947D01*
D30*
X493500Y764500D02*
X504185Y775185D01*
X512000Y835500D02*
X527000D01*
X504185Y775185D02*
Y827815D01*
X508685D01*
X518000Y818500D01*
Y742000D02*
Y818500D01*
X574500Y798500D02*
X599000D01*
X634500Y761500D02*
Y763000D01*
X599000Y798500D02*
X634500Y763000D01*
D31*
X478000Y724000D02*
D03*
X597000Y859000D02*
D03*
D32*
X479000Y835063D02*
D03*
Y789063D02*
D03*
D33*
Y842937D02*
D03*
Y796937D02*
D03*
D34*
X441000Y849000D02*
D03*
Y801000D02*
D03*
D35*
Y829000D02*
D03*
Y781000D02*
D03*
D36*
X464740Y749000D02*
D03*
X440528D02*
D03*
D37*
X452929Y729315D02*
D03*
D38*
X506000Y862000D02*
D03*
D39*
X516000D02*
D03*
X526000D02*
D03*
X536000D02*
D03*
D40*
X627957Y813579D02*
D03*
X635831Y823421D02*
D03*
X627957D02*
D03*
X635831Y813579D02*
D03*
D41*
X646500Y794799D02*
D03*
Y842201D02*
D03*
D42*
X513500Y749236D02*
D03*
X601500Y834000D02*
D03*
X575500Y821000D02*
D03*
X543000Y844000D02*
D03*
X549000Y834000D02*
D03*
X583500Y743000D02*
D03*
X595500D02*
D03*
X585400Y765000D02*
D03*
X588400D02*
D03*
X571000Y736500D02*
D03*
Y733500D02*
D03*
X560500Y746000D02*
D03*
X505000Y741000D02*
D03*
X563500Y743000D02*
D03*
X502500Y717500D02*
D03*
X558000Y743000D02*
D03*
X541000Y736000D02*
D03*
X545000D02*
D03*
X512000Y835500D02*
D03*
X527000D02*
D03*
X504185Y827815D02*
D03*
X493500Y764500D02*
D03*
X518000Y742000D02*
D03*
X574500Y798500D02*
D03*
X634500Y761500D02*
D03*
X610000Y800000D02*
D03*
X590000Y790000D02*
D03*
X650000Y735000D02*
D03*
Y725000D02*
D03*
X645000Y740000D02*
D03*
X610000Y725000D02*
D03*
X600000Y735000D02*
D03*
X605000Y740000D02*
D03*
Y730000D02*
D03*
Y720000D02*
D03*
X595000D02*
D03*
Y730000D02*
D03*
X590000Y725000D02*
D03*
X585000Y720000D02*
D03*
X615000Y740000D02*
D03*
Y730000D02*
D03*
Y720000D02*
D03*
X610000Y715000D02*
D03*
X600000D02*
D03*
X590000D02*
D03*
X620000Y745000D02*
D03*
X640000Y775000D02*
D03*
Y785000D02*
D03*
X635000Y790000D02*
D03*
X650000Y715000D02*
D03*
X550000Y795000D02*
D03*
X535000Y800000D02*
D03*
X530000Y780000D02*
D03*
X480000Y775000D02*
D03*
X511696Y719298D02*
D03*
X530000Y720000D02*
D03*
X510000Y760000D02*
D03*
X480000Y815000D02*
D03*
X490000D02*
D03*
X560000Y860000D02*
D03*
X583271Y859500D02*
D03*
X570000Y830000D02*
D03*
Y815000D02*
D03*
X495000Y795000D02*
D03*
X480000Y860000D02*
D03*
X525000Y790000D02*
D03*
X650000Y820000D02*
D03*
Y815000D02*
D03*
X505000Y845000D02*
D03*
X515000Y830000D02*
D03*
X450000Y760000D02*
D03*
X435000Y720000D02*
D03*
X460000Y820000D02*
D03*
X440000Y865000D02*
D03*
X600000Y725000D02*
D03*
X610000Y735000D02*
D03*
X645000Y780000D02*
D03*
X615000Y776000D02*
D03*
M02*
