%FSLAX25Y25*%
%MOIN*%
G70*
G01*
G75*
G04 Layer_Physical_Order=3*
G04 Layer_Color=128*
%ADD10R,0.12992X0.12992*%
%ADD11O,0.02756X0.00984*%
%ADD12O,0.00984X0.02756*%
%ADD13R,0.02953X0.03543*%
%ADD14R,0.02362X0.02362*%
%ADD15R,0.04134X0.05906*%
%ADD16R,0.02362X0.02362*%
%ADD17R,0.04724X0.02362*%
%ADD18C,0.00600*%
%ADD19C,0.01000*%
%ADD20C,0.00800*%
%ADD21C,0.02000*%
%ADD22R,0.01575X0.00192*%
%ADD23R,0.00353X0.00189*%
%ADD24C,0.03937*%
%ADD25R,0.03937X0.03937*%
%ADD26R,0.03937X0.03937*%
%ADD27C,0.02400*%
%ADD28C,0.04000*%
%ADD29R,0.13000X0.57500*%
%ADD30C,0.04362*%
G04:AMPARAMS|DCode=31|XSize=47.622mil|YSize=47.622mil|CornerRadius=0mil|HoleSize=0mil|Usage=FLASHONLY|Rotation=0.000|XOffset=0mil|YOffset=0mil|HoleType=Round|Shape=Relief|Width=10mil|Gap=4mil|Entries=4|*
%AMTHD31*
7,0,0,0.04762,0.03962,0.01000,45*
%
%ADD31THD31*%
%ADD32C,0.03200*%
G04:AMPARAMS|DCode=33|XSize=36mil|YSize=36mil|CornerRadius=0mil|HoleSize=0mil|Usage=FLASHONLY|Rotation=0.000|XOffset=0mil|YOffset=0mil|HoleType=Round|Shape=Relief|Width=10mil|Gap=4mil|Entries=4|*
%AMTHD33*
7,0,0,0.03600,0.02800,0.01000,45*
%
%ADD33THD33*%
D28*
X804000Y367500D02*
X867500D01*
Y425000D01*
X804000D02*
X867500D01*
X804000Y367500D02*
Y425000D01*
D29*
X861000Y396250D02*
D03*
D30*
X808000Y411000D02*
D03*
Y406000D02*
D03*
Y401000D02*
D03*
Y396000D02*
D03*
Y391000D02*
D03*
Y372000D02*
D03*
X849500D02*
D03*
X844500D02*
D03*
D31*
X808000Y386000D02*
D03*
Y377000D02*
D03*
D32*
X815000Y388000D02*
D03*
Y392500D02*
D03*
X815500Y395500D02*
D03*
X817000Y403900D02*
D03*
X815000Y401400D02*
D03*
X848500Y416000D02*
D03*
X829500Y417500D02*
D03*
D33*
X813998Y404998D02*
D03*
X835000Y399000D02*
D03*
X844500Y413000D02*
D03*
X848800Y403600D02*
D03*
X852000Y406400D02*
D03*
X849600Y409900D02*
D03*
X850000Y390500D02*
D03*
Y378500D02*
D03*
X833000Y395000D02*
D03*
X851000Y419800D02*
D03*
X825000Y421000D02*
D03*
X835000D02*
D03*
X842000Y378000D02*
D03*
X834000Y377500D02*
D03*
X818000Y381000D02*
D03*
X808000Y417000D02*
D03*
M02*
