M48
;Layer_Color=9474304
;FILE_FORMAT=2:5
INCH,LZ
;TYPE=PLATED
T1F00S00C0.01200
T2F00S00C0.02362
%
T01
X0818Y0381
X0815Y0388
Y03925
X08155Y03955
X0815Y04014
X0817Y04039
X0813998Y0404998
X0808Y0417
X0825Y0421
X08295Y04175
X0835Y0421
X0851Y04198
X08485Y0416
X08445Y0413
X08496Y04099
X0852Y04064
X08488Y04036
X085Y03905
Y03785
X0842Y0378
X0834Y03775
X0833Y0395
X0835Y0399
T02
X0808Y0372
Y0377
Y0386
Y0391
Y0396
Y0401
Y0406
Y0411
X08445Y0372
X08495
M30
