%FSLAX25Y25*%
%MOIN*%
G70*
G01*
G75*
G04 Layer_Color=32896*
%ADD10R,0.12992X0.12992*%
%ADD11O,0.02756X0.00984*%
%ADD12O,0.00984X0.02756*%
%ADD13R,0.02953X0.03543*%
%ADD14R,0.02362X0.02362*%
%ADD15R,0.04134X0.05906*%
%ADD16R,0.02362X0.02362*%
%ADD17R,0.04724X0.02362*%
%ADD18C,0.00600*%
%ADD19C,0.01000*%
%ADD20C,0.00800*%
%ADD21C,0.02000*%
%ADD22R,0.01575X0.00192*%
%ADD23R,0.00353X0.00189*%
%ADD24C,0.03937*%
%ADD25R,0.03937X0.03937*%
%ADD26R,0.03937X0.03937*%
%ADD27C,0.02400*%
%ADD28C,0.04000*%
%ADD29R,0.13000X0.57500*%
%ADD30C,0.04362*%
G04:AMPARAMS|DCode=31|XSize=47.622mil|YSize=47.622mil|CornerRadius=0mil|HoleSize=0mil|Usage=FLASHONLY|Rotation=0.000|XOffset=0mil|YOffset=0mil|HoleType=Round|Shape=Relief|Width=10mil|Gap=4mil|Entries=4|*
%AMTHD31*
7,0,0,0.04762,0.03962,0.01000,45*
%
%ADD31THD31*%
%ADD32C,0.03200*%
G04:AMPARAMS|DCode=33|XSize=36mil|YSize=36mil|CornerRadius=0mil|HoleSize=0mil|Usage=FLASHONLY|Rotation=0.000|XOffset=0mil|YOffset=0mil|HoleType=Round|Shape=Relief|Width=10mil|Gap=4mil|Entries=4|*
%AMTHD33*
7,0,0,0.03600,0.02800,0.01000,45*
%
%ADD33THD33*%
%ADD34R,0.10000X0.04000*%
%ADD35O,0.01181X0.03150*%
%ADD36O,0.03150X0.01181*%
%ADD37R,0.07480X0.04331*%
%ADD38R,0.00503X0.00180*%
%ADD39R,0.00237X0.00346*%
%ADD40R,0.00628X0.00256*%
%ADD41R,0.00542X0.00559*%
%ADD42R,0.00369X0.00562*%
%ADD43C,0.00984*%
%ADD44C,0.00787*%
%ADD45R,0.08992X0.08992*%
%ADD46R,0.13792X0.13792*%
%ADD47O,0.03256X0.01484*%
%ADD48O,0.01484X0.03256*%
%ADD49R,0.03753X0.04343*%
%ADD50R,0.03162X0.03162*%
%ADD51R,0.04934X0.06706*%
%ADD52R,0.03162X0.03162*%
%ADD53R,0.05524X0.03162*%
%ADD54C,0.04737*%
%ADD55R,0.04737X0.04737*%
%ADD56R,0.04737X0.04737*%
%ADD57R,0.10800X0.04800*%
%ADD58O,0.01981X0.03950*%
%ADD59O,0.03950X0.01981*%
%ADD60R,0.08280X0.05131*%
%ADD61C,0.00492*%
G36*
X836690Y422200D02*
X835430D01*
X835473Y422137D01*
X835516Y422087D01*
X835536Y422063D01*
X835551Y422048D01*
X835559Y422036D01*
X835563Y422032D01*
X835582Y422013D01*
X835602Y421993D01*
X835653Y421946D01*
X835715Y421892D01*
X835773Y421837D01*
X835832Y421786D01*
X835879Y421747D01*
X835898Y421732D01*
X835914Y421720D01*
X835922Y421712D01*
X835926Y421708D01*
X835988Y421654D01*
X836043Y421607D01*
X836097Y421560D01*
X836144Y421517D01*
X836187Y421474D01*
X836226Y421439D01*
X836265Y421404D01*
X836296Y421373D01*
X836323Y421346D01*
X836347Y421322D01*
X836382Y421287D01*
X836401Y421264D01*
X836409Y421256D01*
X836460Y421194D01*
X836507Y421139D01*
X836542Y421084D01*
X836569Y421037D01*
X836592Y420998D01*
X836608Y420971D01*
X836616Y420952D01*
X836620Y420944D01*
X836643Y420889D01*
X836659Y420835D01*
X836670Y420784D01*
X836678Y420737D01*
X836682Y420698D01*
X836686Y420667D01*
Y420647D01*
Y420640D01*
X836682Y420585D01*
X836678Y420531D01*
X836651Y420433D01*
X836616Y420347D01*
X836577Y420273D01*
X836538Y420215D01*
X836518Y420191D01*
X836503Y420168D01*
X836487Y420152D01*
X836475Y420141D01*
X836472Y420137D01*
X836468Y420133D01*
X836425Y420098D01*
X836382Y420062D01*
X836335Y420035D01*
X836284Y420012D01*
X836187Y419977D01*
X836093Y419953D01*
X836050Y419942D01*
X836011Y419938D01*
X835976Y419934D01*
X835945Y419930D01*
X835918Y419926D01*
X835883D01*
X835816Y419930D01*
X835754Y419934D01*
X835637Y419957D01*
X835586Y419969D01*
X835536Y419984D01*
X835493Y420004D01*
X835454Y420020D01*
X835419Y420039D01*
X835387Y420055D01*
X835360Y420074D01*
X835337Y420086D01*
X835321Y420098D01*
X835309Y420109D01*
X835302Y420113D01*
X835298Y420117D01*
X835259Y420156D01*
X835227Y420195D01*
X835169Y420285D01*
X835126Y420374D01*
X835095Y420464D01*
X835071Y420542D01*
X835068Y420577D01*
X835060Y420609D01*
X835056Y420632D01*
X835052Y420651D01*
Y420663D01*
Y420667D01*
X835376Y420702D01*
X835384Y420616D01*
X835399Y420542D01*
X835419Y420480D01*
X835446Y420425D01*
X835469Y420382D01*
X835493Y420351D01*
X835508Y420335D01*
X835512Y420328D01*
X835567Y420281D01*
X835625Y420246D01*
X835688Y420222D01*
X835746Y420203D01*
X835797Y420195D01*
X835836Y420191D01*
X835851Y420187D01*
X835875D01*
X835953Y420191D01*
X836023Y420207D01*
X836082Y420226D01*
X836132Y420250D01*
X836171Y420277D01*
X836203Y420296D01*
X836218Y420312D01*
X836226Y420316D01*
X836273Y420367D01*
X836304Y420421D01*
X836327Y420472D01*
X836347Y420523D01*
X836355Y420566D01*
X836359Y420601D01*
X836362Y420624D01*
Y420628D01*
Y420632D01*
X836355Y420698D01*
X836339Y420768D01*
X836316Y420831D01*
X836288Y420889D01*
X836261Y420940D01*
X836238Y420979D01*
X836230Y420995D01*
X836222Y421006D01*
X836214Y421010D01*
Y421014D01*
X836183Y421053D01*
X836148Y421096D01*
X836109Y421139D01*
X836062Y421182D01*
X835968Y421272D01*
X835875Y421361D01*
X835789Y421435D01*
X835750Y421470D01*
X835715Y421498D01*
X835688Y421525D01*
X835668Y421541D01*
X835653Y421552D01*
X835649Y421556D01*
X835555Y421638D01*
X835469Y421712D01*
X835399Y421778D01*
X835341Y421833D01*
X835294Y421880D01*
X835263Y421915D01*
X835243Y421938D01*
X835235Y421942D01*
Y421946D01*
X835185Y422009D01*
X835146Y422067D01*
X835107Y422126D01*
X835079Y422176D01*
X835056Y422223D01*
X835040Y422254D01*
X835032Y422278D01*
X835029Y422282D01*
Y422286D01*
X835017Y422325D01*
X835005Y422364D01*
X835001Y422399D01*
X834997Y422430D01*
X834993Y422457D01*
Y422480D01*
Y422496D01*
Y422500D01*
X836690D01*
Y422200D01*
D02*
G37*
G36*
X859840Y419907D02*
X859497D01*
X858803Y421767D01*
X858775Y421845D01*
X858748Y421923D01*
X858725Y421993D01*
X858705Y422055D01*
X858689Y422110D01*
X858678Y422153D01*
X858674Y422168D01*
X858670Y422180D01*
X858666Y422184D01*
Y422188D01*
X858623Y422040D01*
X858600Y421970D01*
X858576Y421903D01*
X858557Y421849D01*
X858545Y421806D01*
X858537Y421790D01*
X858533Y421778D01*
X858530Y421771D01*
Y421767D01*
X857867Y419907D01*
X857496D01*
X858491Y422469D01*
X858838D01*
X859840Y419907D01*
D02*
G37*
G36*
X852792Y419895D02*
X852448D01*
X852051Y421545D01*
X852023Y421658D01*
X851996Y421763D01*
X851976Y421860D01*
X851957Y421942D01*
X851949Y421977D01*
X851941Y422009D01*
X851937Y422036D01*
X851930Y422059D01*
X851926Y422079D01*
Y422090D01*
X851922Y422098D01*
Y422102D01*
X851895Y421942D01*
X851863Y421782D01*
X851828Y421626D01*
X851813Y421556D01*
X851797Y421490D01*
X851781Y421427D01*
X851770Y421369D01*
X851754Y421318D01*
X851746Y421275D01*
X851735Y421240D01*
X851731Y421217D01*
X851723Y421197D01*
Y421194D01*
X851356Y419895D01*
X850947D01*
X850459Y421626D01*
X850455Y421642D01*
X850452Y421665D01*
X850444Y421697D01*
X850436Y421728D01*
X850416Y421806D01*
X850397Y421888D01*
X850374Y421970D01*
X850366Y422005D01*
X850358Y422036D01*
X850350Y422063D01*
X850346Y422083D01*
X850342Y422098D01*
Y422102D01*
X850323Y422005D01*
X850307Y421911D01*
X850288Y421821D01*
X850272Y421743D01*
X850257Y421677D01*
X850249Y421650D01*
X850245Y421623D01*
X850241Y421607D01*
X850237Y421591D01*
X850233Y421584D01*
Y421580D01*
X849847Y419895D01*
X849500D01*
X850171Y422457D01*
X850526D01*
X851064Y420507D01*
X851076Y420456D01*
X851091Y420406D01*
X851103Y420359D01*
X851115Y420308D01*
X851126Y420269D01*
X851134Y420234D01*
X851142Y420215D01*
Y420207D01*
X851146Y420219D01*
X851150Y420234D01*
X851161Y420277D01*
X851173Y420324D01*
X851189Y420378D01*
X851200Y420425D01*
X851212Y420468D01*
X851216Y420484D01*
X851220Y420495D01*
X851224Y420503D01*
Y420507D01*
X851762Y422457D01*
X852094D01*
X852792Y419895D01*
D02*
G37*
G36*
X832146Y422539D02*
X832201Y422535D01*
X832299Y422516D01*
X832388Y422484D01*
X832462Y422453D01*
X832521Y422422D01*
X832544Y422406D01*
X832568Y422391D01*
X832583Y422379D01*
X832595Y422371D01*
X832599Y422364D01*
X832603D01*
X832673Y422289D01*
X832732Y422211D01*
X832778Y422126D01*
X832813Y422048D01*
X832837Y421974D01*
X832845Y421942D01*
X832852Y421915D01*
X832856Y421896D01*
X832860Y421880D01*
X832864Y421868D01*
Y421864D01*
X832556Y421821D01*
X832540Y421903D01*
X832517Y421977D01*
X832490Y422036D01*
X832462Y422087D01*
X832439Y422126D01*
X832416Y422149D01*
X832400Y422168D01*
X832396Y422172D01*
X832349Y422211D01*
X832299Y422239D01*
X832244Y422258D01*
X832197Y422270D01*
X832154Y422278D01*
X832119Y422286D01*
X832088D01*
X832045Y422282D01*
X832006Y422278D01*
X831936Y422258D01*
X831870Y422231D01*
X831819Y422200D01*
X831776Y422172D01*
X831745Y422145D01*
X831725Y422126D01*
X831717Y422118D01*
X831694Y422083D01*
X831671Y422044D01*
X831636Y421962D01*
X831612Y421868D01*
X831597Y421778D01*
X831585Y421700D01*
X831581Y421665D01*
Y421634D01*
X831577Y421607D01*
Y421587D01*
Y421576D01*
Y421572D01*
Y421505D01*
X831585Y421443D01*
X831589Y421385D01*
X831600Y421330D01*
X831612Y421283D01*
X831624Y421236D01*
X831636Y421197D01*
X831651Y421162D01*
X831663Y421131D01*
X831675Y421104D01*
X831686Y421080D01*
X831698Y421061D01*
X831710Y421049D01*
X831714Y421037D01*
X831721Y421030D01*
X831749Y420998D01*
X831780Y420971D01*
X831846Y420932D01*
X831909Y420901D01*
X831971Y420878D01*
X832026Y420866D01*
X832069Y420862D01*
X832084Y420858D01*
X832108D01*
X832162Y420862D01*
X832217Y420874D01*
X832260Y420889D01*
X832299Y420905D01*
X832330Y420924D01*
X832353Y420940D01*
X832369Y420952D01*
X832373Y420956D01*
X832412Y420995D01*
X832443Y421037D01*
X832470Y421084D01*
X832494Y421131D01*
X832509Y421174D01*
X832521Y421205D01*
X832525Y421229D01*
X832529Y421233D01*
Y421236D01*
X832833Y421190D01*
X832806Y421092D01*
X832771Y421002D01*
X832732Y420928D01*
X832689Y420866D01*
X832650Y420819D01*
X832618Y420784D01*
X832595Y420764D01*
X832591Y420757D01*
X832587D01*
X832513Y420706D01*
X832431Y420667D01*
X832345Y420640D01*
X832267Y420620D01*
X832197Y420609D01*
X832170Y420605D01*
X832143D01*
X832123Y420601D01*
X832092D01*
X832006Y420605D01*
X831924Y420616D01*
X831846Y420636D01*
X831784Y420655D01*
X831729Y420679D01*
X831686Y420694D01*
X831671Y420702D01*
X831659Y420710D01*
X831655Y420714D01*
X831651D01*
X831581Y420761D01*
X831519Y420815D01*
X831468Y420870D01*
X831425Y420924D01*
X831394Y420975D01*
X831370Y421014D01*
X831363Y421030D01*
X831355Y421041D01*
X831351Y421049D01*
Y421053D01*
X831320Y421139D01*
X831296Y421233D01*
X831277Y421318D01*
X831265Y421400D01*
X831257Y421474D01*
Y421502D01*
X831253Y421529D01*
Y421548D01*
Y421568D01*
Y421576D01*
Y421580D01*
X831257Y421665D01*
X831265Y421743D01*
X831273Y421821D01*
X831289Y421888D01*
X831308Y421954D01*
X831328Y422013D01*
X831347Y422067D01*
X831370Y422114D01*
X831390Y422157D01*
X831409Y422192D01*
X831429Y422223D01*
X831448Y422250D01*
X831464Y422270D01*
X831472Y422286D01*
X831480Y422293D01*
X831483Y422297D01*
X831530Y422340D01*
X831577Y422379D01*
X831624Y422410D01*
X831675Y422438D01*
X831725Y422461D01*
X831776Y422484D01*
X831874Y422512D01*
X831920Y422523D01*
X831959Y422531D01*
X831998Y422535D01*
X832030Y422539D01*
X832057Y422543D01*
X832092D01*
X832146Y422539D01*
D02*
G37*
G36*
X840200Y419926D02*
X839993D01*
X839958Y419988D01*
X839915Y420051D01*
X839869Y420109D01*
X839822Y420164D01*
X839779Y420207D01*
X839744Y420242D01*
X839720Y420265D01*
X839716Y420269D01*
X839713Y420273D01*
X839638Y420335D01*
X839560Y420394D01*
X839482Y420445D01*
X839412Y420488D01*
X839350Y420523D01*
X839322Y420534D01*
X839299Y420546D01*
X839283Y420558D01*
X839268Y420566D01*
X839260Y420570D01*
X839256D01*
Y420878D01*
X839311Y420854D01*
X839369Y420827D01*
X839424Y420803D01*
X839475Y420776D01*
X839517Y420753D01*
X839553Y420733D01*
X839576Y420718D01*
X839580Y420714D01*
X839584D01*
X839650Y420675D01*
X839709Y420632D01*
X839759Y420597D01*
X839802Y420562D01*
X839837Y420534D01*
X839865Y420515D01*
X839880Y420499D01*
X839884Y420495D01*
Y422500D01*
X840200D01*
Y419926D01*
D02*
G37*
G36*
X841939Y422535D02*
X842029Y422519D01*
X842107Y422496D01*
X842177Y422469D01*
X842228Y422441D01*
X842271Y422418D01*
X842283Y422406D01*
X842294Y422402D01*
X842298Y422395D01*
X842302D01*
X842368Y422332D01*
X842423Y422262D01*
X842470Y422192D01*
X842509Y422122D01*
X842540Y422059D01*
X842552Y422036D01*
X842563Y422013D01*
X842571Y421993D01*
X842575Y421977D01*
X842579Y421970D01*
Y421966D01*
X842595Y421911D01*
X842610Y421856D01*
X842634Y421736D01*
X842649Y421615D01*
X842661Y421498D01*
X842665Y421443D01*
X842669Y421392D01*
Y421349D01*
X842673Y421311D01*
Y421279D01*
Y421256D01*
Y421240D01*
Y421236D01*
X842669Y421100D01*
Y421041D01*
X842665Y420983D01*
X842661Y420928D01*
X842653Y420878D01*
X842649Y420835D01*
X842645Y420792D01*
X842638Y420757D01*
X842634Y420722D01*
X842630Y420694D01*
X842622Y420675D01*
X842618Y420655D01*
Y420644D01*
X842614Y420636D01*
Y420632D01*
X842591Y420550D01*
X842563Y420476D01*
X842536Y420410D01*
X842513Y420355D01*
X842489Y420312D01*
X842470Y420277D01*
X842458Y420258D01*
X842454Y420250D01*
X842415Y420195D01*
X842372Y420148D01*
X842329Y420105D01*
X842290Y420070D01*
X842251Y420047D01*
X842224Y420027D01*
X842205Y420016D01*
X842197Y420012D01*
X842138Y419984D01*
X842076Y419961D01*
X842013Y419945D01*
X841959Y419938D01*
X841912Y419930D01*
X841873Y419926D01*
X841838D01*
X841737Y419934D01*
X841647Y419949D01*
X841565Y419973D01*
X841499Y420000D01*
X841444Y420031D01*
X841405Y420055D01*
X841389Y420062D01*
X841378Y420070D01*
X841374Y420078D01*
X841370D01*
X841304Y420141D01*
X841249Y420207D01*
X841202Y420277D01*
X841163Y420347D01*
X841132Y420410D01*
X841120Y420437D01*
X841113Y420460D01*
X841105Y420480D01*
X841097Y420495D01*
X841093Y420503D01*
Y420507D01*
X841078Y420562D01*
X841062Y420616D01*
X841042Y420737D01*
X841027Y420858D01*
X841015Y420975D01*
X841011Y421030D01*
X841007Y421080D01*
Y421123D01*
X841003Y421162D01*
Y421194D01*
Y421217D01*
Y421233D01*
Y421236D01*
X841007Y421365D01*
X841015Y421490D01*
X841027Y421599D01*
X841042Y421704D01*
X841062Y421798D01*
X841081Y421884D01*
X841105Y421962D01*
X841128Y422028D01*
X841152Y422090D01*
X841175Y422141D01*
X841195Y422184D01*
X841214Y422219D01*
X841230Y422247D01*
X841241Y422266D01*
X841249Y422278D01*
X841253Y422282D01*
X841296Y422328D01*
X841339Y422367D01*
X841386Y422402D01*
X841436Y422434D01*
X841483Y422457D01*
X841534Y422480D01*
X841627Y422512D01*
X841670Y422519D01*
X841709Y422527D01*
X841744Y422535D01*
X841776Y422539D01*
X841803Y422543D01*
X841838D01*
X841939Y422535D01*
D02*
G37*
G36*
X864188Y419895D02*
X863982D01*
X863947Y419957D01*
X863904Y420020D01*
X863857Y420078D01*
X863810Y420133D01*
X863767Y420176D01*
X863732Y420211D01*
X863709Y420234D01*
X863705Y420238D01*
X863701Y420242D01*
X863627Y420304D01*
X863549Y420363D01*
X863471Y420413D01*
X863401Y420456D01*
X863338Y420492D01*
X863311Y420503D01*
X863288Y420515D01*
X863272Y420527D01*
X863256Y420534D01*
X863249Y420538D01*
X863245D01*
Y420846D01*
X863299Y420823D01*
X863358Y420796D01*
X863412Y420772D01*
X863463Y420745D01*
X863506Y420722D01*
X863541Y420702D01*
X863564Y420686D01*
X863568Y420683D01*
X863572D01*
X863639Y420644D01*
X863697Y420601D01*
X863748Y420566D01*
X863791Y420531D01*
X863826Y420503D01*
X863853Y420484D01*
X863869Y420468D01*
X863873Y420464D01*
Y422469D01*
X864188D01*
Y419895D01*
D02*
G37*
G36*
X861205D02*
X860998D01*
X860963Y419957D01*
X860920Y420020D01*
X860874Y420078D01*
X860827Y420133D01*
X860784Y420176D01*
X860749Y420211D01*
X860725Y420234D01*
X860721Y420238D01*
X860717Y420242D01*
X860643Y420304D01*
X860565Y420363D01*
X860487Y420413D01*
X860417Y420456D01*
X860355Y420492D01*
X860328Y420503D01*
X860304Y420515D01*
X860289Y420527D01*
X860273Y420534D01*
X860265Y420538D01*
X860261D01*
Y420846D01*
X860316Y420823D01*
X860374Y420796D01*
X860429Y420772D01*
X860480Y420745D01*
X860522Y420722D01*
X860558Y420702D01*
X860581Y420686D01*
X860585Y420683D01*
X860589D01*
X860655Y420644D01*
X860714Y420601D01*
X860764Y420566D01*
X860807Y420531D01*
X860842Y420503D01*
X860870Y420484D01*
X860885Y420468D01*
X860889Y420464D01*
Y422469D01*
X861205D01*
Y419895D01*
D02*
G37*
G36*
X862543Y422110D02*
X862184D01*
Y422469D01*
X862543D01*
Y422110D01*
D02*
G37*
G36*
X837961Y422535D02*
X838051Y422519D01*
X838129Y422496D01*
X838199Y422469D01*
X838250Y422441D01*
X838293Y422418D01*
X838305Y422406D01*
X838316Y422402D01*
X838320Y422395D01*
X838324D01*
X838390Y422332D01*
X838445Y422262D01*
X838492Y422192D01*
X838531Y422122D01*
X838562Y422059D01*
X838574Y422036D01*
X838585Y422013D01*
X838593Y421993D01*
X838597Y421977D01*
X838601Y421970D01*
Y421966D01*
X838617Y421911D01*
X838632Y421856D01*
X838656Y421736D01*
X838671Y421615D01*
X838683Y421498D01*
X838687Y421443D01*
X838691Y421392D01*
Y421349D01*
X838695Y421311D01*
Y421279D01*
Y421256D01*
Y421240D01*
Y421236D01*
X838691Y421100D01*
Y421041D01*
X838687Y420983D01*
X838683Y420928D01*
X838675Y420878D01*
X838671Y420835D01*
X838667Y420792D01*
X838659Y420757D01*
X838656Y420722D01*
X838652Y420694D01*
X838644Y420675D01*
X838640Y420655D01*
Y420644D01*
X838636Y420636D01*
Y420632D01*
X838613Y420550D01*
X838585Y420476D01*
X838558Y420410D01*
X838535Y420355D01*
X838511Y420312D01*
X838492Y420277D01*
X838480Y420258D01*
X838476Y420250D01*
X838437Y420195D01*
X838394Y420148D01*
X838351Y420105D01*
X838312Y420070D01*
X838273Y420047D01*
X838246Y420027D01*
X838227Y420016D01*
X838219Y420012D01*
X838160Y419984D01*
X838098Y419961D01*
X838035Y419945D01*
X837981Y419938D01*
X837934Y419930D01*
X837895Y419926D01*
X837860D01*
X837759Y419934D01*
X837669Y419949D01*
X837587Y419973D01*
X837521Y420000D01*
X837466Y420031D01*
X837427Y420055D01*
X837411Y420062D01*
X837400Y420070D01*
X837396Y420078D01*
X837392D01*
X837326Y420141D01*
X837271Y420207D01*
X837224Y420277D01*
X837185Y420347D01*
X837154Y420410D01*
X837142Y420437D01*
X837135Y420460D01*
X837127Y420480D01*
X837119Y420495D01*
X837115Y420503D01*
Y420507D01*
X837099Y420562D01*
X837084Y420616D01*
X837064Y420737D01*
X837049Y420858D01*
X837037Y420975D01*
X837033Y421030D01*
X837029Y421080D01*
Y421123D01*
X837025Y421162D01*
Y421194D01*
Y421217D01*
Y421233D01*
Y421236D01*
X837029Y421365D01*
X837037Y421490D01*
X837049Y421599D01*
X837064Y421704D01*
X837084Y421798D01*
X837103Y421884D01*
X837127Y421962D01*
X837150Y422028D01*
X837174Y422090D01*
X837197Y422141D01*
X837216Y422184D01*
X837236Y422219D01*
X837252Y422247D01*
X837263Y422266D01*
X837271Y422278D01*
X837275Y422282D01*
X837318Y422328D01*
X837361Y422367D01*
X837408Y422402D01*
X837458Y422434D01*
X837505Y422457D01*
X837556Y422480D01*
X837649Y422512D01*
X837692Y422519D01*
X837731Y422527D01*
X837766Y422535D01*
X837798Y422539D01*
X837825Y422543D01*
X837860D01*
X837961Y422535D01*
D02*
G37*
G36*
X829846D02*
X829963Y422519D01*
X830068Y422492D01*
X830157Y422465D01*
X830200Y422449D01*
X830235Y422438D01*
X830267Y422422D01*
X830294Y422410D01*
X830317Y422402D01*
X830333Y422395D01*
X830341Y422387D01*
X830345D01*
X830446Y422321D01*
X830536Y422247D01*
X830614Y422168D01*
X830676Y422094D01*
X830723Y422028D01*
X830742Y421997D01*
X830762Y421974D01*
X830774Y421950D01*
X830781Y421935D01*
X830789Y421927D01*
Y421923D01*
X830844Y421806D01*
X830883Y421685D01*
X830910Y421568D01*
X830930Y421459D01*
X830937Y421408D01*
X830941Y421365D01*
X830945Y421326D01*
Y421291D01*
X830949Y421264D01*
Y421240D01*
Y421229D01*
Y421225D01*
X830941Y421084D01*
X830926Y420956D01*
X830902Y420839D01*
X830887Y420788D01*
X830875Y420737D01*
X830859Y420694D01*
X830844Y420655D01*
X830832Y420620D01*
X830820Y420593D01*
X830813Y420570D01*
X830805Y420554D01*
X830797Y420542D01*
Y420538D01*
X830735Y420429D01*
X830668Y420335D01*
X830594Y420254D01*
X830524Y420187D01*
X830462Y420137D01*
X830434Y420113D01*
X830411Y420098D01*
X830392Y420082D01*
X830376Y420074D01*
X830368Y420066D01*
X830364D01*
X830310Y420035D01*
X830255Y420008D01*
X830146Y419969D01*
X830037Y419938D01*
X829939Y419914D01*
X829892Y419910D01*
X829853Y419903D01*
X829814Y419899D01*
X829783D01*
X829760Y419895D01*
X829725D01*
X829627Y419899D01*
X829530Y419910D01*
X829440Y419930D01*
X829358Y419949D01*
X829280Y419981D01*
X829206Y420008D01*
X829140Y420043D01*
X829077Y420074D01*
X829023Y420109D01*
X828976Y420144D01*
X828937Y420172D01*
X828902Y420199D01*
X828874Y420222D01*
X828855Y420242D01*
X828843Y420254D01*
X828839Y420258D01*
X828781Y420328D01*
X828726Y420402D01*
X828683Y420484D01*
X828644Y420566D01*
X828609Y420647D01*
X828582Y420729D01*
X828562Y420811D01*
X828543Y420889D01*
X828527Y420967D01*
X828520Y421034D01*
X828512Y421096D01*
X828504Y421151D01*
Y421194D01*
X828500Y421229D01*
Y421248D01*
Y421256D01*
X828508Y421381D01*
X828523Y421498D01*
X828547Y421607D01*
X828559Y421654D01*
X828574Y421700D01*
X828586Y421743D01*
X828598Y421782D01*
X828609Y421814D01*
X828621Y421841D01*
X828633Y421864D01*
X828636Y421880D01*
X828644Y421892D01*
Y421896D01*
X828707Y422001D01*
X828773Y422098D01*
X828847Y422176D01*
X828917Y422247D01*
X828980Y422301D01*
X829007Y422321D01*
X829030Y422340D01*
X829050Y422352D01*
X829066Y422364D01*
X829073Y422367D01*
X829077Y422371D01*
X829132Y422402D01*
X829186Y422426D01*
X829300Y422469D01*
X829409Y422500D01*
X829506Y422519D01*
X829553Y422527D01*
X829596Y422535D01*
X829631Y422539D01*
X829662D01*
X829690Y422543D01*
X829725D01*
X829846Y422535D01*
D02*
G37*
G36*
X809888Y420644D02*
X809572D01*
Y422500D01*
X809888D01*
Y420644D01*
D02*
G37*
G36*
X816846Y422313D02*
X816877Y422348D01*
X816912Y422383D01*
X816943Y422410D01*
X816978Y422434D01*
X817006Y422453D01*
X817029Y422469D01*
X817045Y422477D01*
X817049Y422480D01*
X817095Y422500D01*
X817146Y422516D01*
X817193Y422527D01*
X817236Y422535D01*
X817275Y422539D01*
X817302Y422543D01*
X817330D01*
X817408Y422539D01*
X817486Y422523D01*
X817552Y422504D01*
X817614Y422480D01*
X817665Y422461D01*
X817704Y422441D01*
X817719Y422434D01*
X817731Y422426D01*
X817735Y422422D01*
X817739D01*
X817809Y422371D01*
X817868Y422317D01*
X817918Y422258D01*
X817961Y422204D01*
X817992Y422153D01*
X818016Y422114D01*
X818024Y422098D01*
X818032Y422087D01*
X818035Y422079D01*
Y422075D01*
X818071Y421985D01*
X818098Y421896D01*
X818113Y421810D01*
X818129Y421732D01*
X818137Y421662D01*
Y421634D01*
X818141Y421607D01*
Y421587D01*
Y421572D01*
Y421564D01*
Y421560D01*
X818137Y421463D01*
X818125Y421373D01*
X818110Y421291D01*
X818094Y421217D01*
X818078Y421158D01*
X818071Y421131D01*
X818063Y421112D01*
X818055Y421096D01*
X818051Y421084D01*
X818047Y421076D01*
Y421073D01*
X818008Y420991D01*
X817965Y420924D01*
X817918Y420862D01*
X817875Y420815D01*
X817833Y420776D01*
X817801Y420749D01*
X817778Y420729D01*
X817774Y420725D01*
X817770D01*
X817700Y420683D01*
X817630Y420651D01*
X817560Y420632D01*
X817493Y420616D01*
X817439Y420609D01*
X817392Y420601D01*
X817353D01*
X817287Y420605D01*
X817228Y420612D01*
X817177Y420624D01*
X817131Y420636D01*
X817095Y420651D01*
X817068Y420663D01*
X817053Y420671D01*
X817045Y420675D01*
X816998Y420702D01*
X816955Y420737D01*
X816916Y420772D01*
X816885Y420807D01*
X816858Y420839D01*
X816834Y420862D01*
X816823Y420878D01*
X816819Y420885D01*
Y420644D01*
X816530D01*
Y423210D01*
X816846D01*
Y422313D01*
D02*
G37*
G36*
X809292Y419938D02*
X808948D01*
X808551Y421587D01*
X808523Y421700D01*
X808496Y421806D01*
X808477Y421903D01*
X808457Y421985D01*
X808449Y422020D01*
X808441Y422051D01*
X808438Y422079D01*
X808430Y422102D01*
X808426Y422122D01*
Y422133D01*
X808422Y422141D01*
Y422145D01*
X808395Y421985D01*
X808363Y421825D01*
X808328Y421669D01*
X808313Y421599D01*
X808297Y421533D01*
X808282Y421470D01*
X808270Y421412D01*
X808254Y421361D01*
X808246Y421318D01*
X808235Y421283D01*
X808231Y421260D01*
X808223Y421240D01*
Y421236D01*
X807856Y419938D01*
X807447D01*
X806959Y421669D01*
X806956Y421685D01*
X806952Y421708D01*
X806944Y421739D01*
X806936Y421771D01*
X806917Y421849D01*
X806897Y421931D01*
X806874Y422013D01*
X806866Y422048D01*
X806858Y422079D01*
X806850Y422106D01*
X806846Y422126D01*
X806842Y422141D01*
Y422145D01*
X806823Y422048D01*
X806807Y421954D01*
X806788Y421864D01*
X806772Y421786D01*
X806757Y421720D01*
X806749Y421693D01*
X806745Y421665D01*
X806741Y421650D01*
X806737Y421634D01*
X806733Y421626D01*
Y421623D01*
X806347Y419938D01*
X806000D01*
X806671Y422500D01*
X807026D01*
X807564Y420550D01*
X807576Y420499D01*
X807591Y420449D01*
X807603Y420402D01*
X807615Y420351D01*
X807626Y420312D01*
X807634Y420277D01*
X807642Y420258D01*
Y420250D01*
X807646Y420261D01*
X807650Y420277D01*
X807661Y420320D01*
X807673Y420367D01*
X807689Y420421D01*
X807700Y420468D01*
X807712Y420511D01*
X807716Y420527D01*
X807720Y420538D01*
X807724Y420546D01*
Y420550D01*
X808262Y422500D01*
X808593D01*
X809292Y419938D01*
D02*
G37*
G36*
X853509Y419895D02*
X853170D01*
Y422457D01*
X853509D01*
Y419895D01*
D02*
G37*
G36*
X855112Y422453D02*
X855190Y422449D01*
X855260Y422441D01*
X855319Y422434D01*
X855369Y422426D01*
X855405Y422422D01*
X855428Y422414D01*
X855436D01*
X855502Y422395D01*
X855561Y422375D01*
X855611Y422356D01*
X855654Y422336D01*
X855689Y422317D01*
X855717Y422301D01*
X855736Y422293D01*
X855740Y422289D01*
X855787Y422254D01*
X855830Y422215D01*
X855873Y422176D01*
X855904Y422141D01*
X855935Y422106D01*
X855954Y422079D01*
X855970Y422063D01*
X855974Y422055D01*
X856013Y421997D01*
X856048Y421935D01*
X856079Y421872D01*
X856103Y421814D01*
X856122Y421759D01*
X856138Y421720D01*
X856142Y421704D01*
X856146Y421693D01*
X856149Y421685D01*
Y421681D01*
X856173Y421595D01*
X856188Y421505D01*
X856204Y421416D01*
X856212Y421338D01*
X856216Y421268D01*
Y421236D01*
X856220Y421213D01*
Y421190D01*
Y421174D01*
Y421166D01*
Y421162D01*
X856216Y421037D01*
X856204Y420924D01*
X856188Y420823D01*
X856177Y420776D01*
X856169Y420733D01*
X856161Y420694D01*
X856149Y420659D01*
X856142Y420628D01*
X856134Y420605D01*
X856126Y420585D01*
X856122Y420570D01*
X856118Y420562D01*
Y420558D01*
X856075Y420460D01*
X856029Y420374D01*
X855978Y420300D01*
X855927Y420238D01*
X855884Y420187D01*
X855849Y420148D01*
X855822Y420125D01*
X855818Y420117D01*
X855814D01*
X855752Y420070D01*
X855689Y420031D01*
X855627Y420000D01*
X855568Y419977D01*
X855518Y419957D01*
X855475Y419945D01*
X855459Y419938D01*
X855451D01*
X855444Y419934D01*
X855440D01*
X855377Y419922D01*
X855303Y419910D01*
X855225Y419903D01*
X855155Y419899D01*
X855089Y419895D01*
X854106D01*
Y422457D01*
X855026D01*
X855112Y422453D01*
D02*
G37*
G36*
X818765Y423249D02*
X818812Y423241D01*
X818858Y423229D01*
X818893Y423214D01*
X818925Y423202D01*
X818948Y423190D01*
X818964Y423182D01*
X818968Y423179D01*
X819007Y423147D01*
X819046Y423112D01*
X819077Y423073D01*
X819108Y423038D01*
X819131Y423003D01*
X819147Y422976D01*
X819159Y422960D01*
X819162Y422952D01*
X819174Y422929D01*
X819190Y422902D01*
X819217Y422835D01*
X819244Y422769D01*
X819276Y422699D01*
X819299Y422633D01*
X819311Y422605D01*
X819318Y422582D01*
X819326Y422558D01*
X819334Y422543D01*
X819338Y422535D01*
Y422531D01*
X820040Y420644D01*
X819728D01*
X819330Y421728D01*
X819303Y421806D01*
X819279Y421880D01*
X819256Y421950D01*
X819237Y422013D01*
X819221Y422063D01*
X819213Y422106D01*
X819205Y422122D01*
Y422133D01*
X819201Y422137D01*
Y422141D01*
X819178Y422059D01*
X819155Y421981D01*
X819131Y421907D01*
X819112Y421845D01*
X819092Y421790D01*
X819077Y421747D01*
X819073Y421732D01*
X819069Y421720D01*
X819065Y421716D01*
Y421712D01*
X818679Y420644D01*
X818344D01*
X819049Y422504D01*
X819038Y422539D01*
X819026Y422562D01*
X819022Y422578D01*
X819018Y422582D01*
X818995Y422644D01*
X818975Y422699D01*
X818960Y422738D01*
X818948Y422769D01*
X818936Y422792D01*
X818929Y422804D01*
X818925Y422812D01*
Y422816D01*
X818890Y422859D01*
X818854Y422890D01*
X818843Y422902D01*
X818831Y422909D01*
X818823Y422917D01*
X818819D01*
X818796Y422929D01*
X818769Y422937D01*
X818714Y422949D01*
X818687D01*
X818671Y422952D01*
X818652D01*
X818589Y422949D01*
X818535Y422937D01*
X818507Y422929D01*
X818488Y422925D01*
X818476Y422921D01*
X818472D01*
X818507Y423214D01*
X818585Y423237D01*
X818620Y423245D01*
X818652Y423249D01*
X818675D01*
X818694Y423253D01*
X818710D01*
X818765Y423249D01*
D02*
G37*
G36*
X815263Y422539D02*
X815352Y422527D01*
X815438Y422512D01*
X815508Y422492D01*
X815571Y422477D01*
X815594Y422469D01*
X815613Y422461D01*
X815629Y422453D01*
X815641Y422449D01*
X815649Y422445D01*
X815652D01*
X815730Y422402D01*
X815801Y422360D01*
X815859Y422313D01*
X815906Y422266D01*
X815945Y422227D01*
X815968Y422196D01*
X815988Y422172D01*
X815992Y422165D01*
X816031Y422098D01*
X816058Y422028D01*
X816082Y421962D01*
X816093Y421903D01*
X816101Y421853D01*
X816109Y421814D01*
Y421798D01*
Y421786D01*
Y421782D01*
Y421778D01*
X816105Y421704D01*
X816093Y421634D01*
X816074Y421572D01*
X816054Y421521D01*
X816035Y421474D01*
X816015Y421443D01*
X816004Y421424D01*
X816000Y421416D01*
X815957Y421361D01*
X815906Y421311D01*
X815851Y421264D01*
X815797Y421225D01*
X815746Y421197D01*
X815707Y421174D01*
X815691Y421166D01*
X815684Y421158D01*
X815676Y421154D01*
X815672D01*
X815641Y421143D01*
X815602Y421127D01*
X815563Y421112D01*
X815516Y421100D01*
X815422Y421073D01*
X815329Y421045D01*
X815243Y421026D01*
X815204Y421014D01*
X815169Y421006D01*
X815142Y420998D01*
X815122Y420995D01*
X815106Y420991D01*
X815103D01*
X815028Y420971D01*
X814962Y420956D01*
X814904Y420940D01*
X814849Y420921D01*
X814802Y420905D01*
X814763Y420893D01*
X814728Y420878D01*
X814697Y420862D01*
X814670Y420850D01*
X814646Y420843D01*
X814631Y420831D01*
X814619Y420823D01*
X814600Y420811D01*
X814596Y420807D01*
X814564Y420772D01*
X814541Y420737D01*
X814522Y420698D01*
X814510Y420663D01*
X814502Y420632D01*
X814498Y420605D01*
Y420589D01*
Y420581D01*
X814506Y420523D01*
X814522Y420472D01*
X814541Y420425D01*
X814568Y420386D01*
X814592Y420351D01*
X814615Y420328D01*
X814631Y420312D01*
X814635Y420308D01*
X814662Y420289D01*
X814693Y420269D01*
X814763Y420242D01*
X814837Y420222D01*
X814911Y420211D01*
X814978Y420199D01*
X815009D01*
X815032Y420195D01*
X815083D01*
X815188Y420199D01*
X815278Y420215D01*
X815356Y420234D01*
X815419Y420258D01*
X815465Y420281D01*
X815500Y420300D01*
X815520Y420316D01*
X815528Y420320D01*
X815578Y420371D01*
X815621Y420429D01*
X815652Y420488D01*
X815676Y420546D01*
X815691Y420601D01*
X815699Y420644D01*
X815703Y420659D01*
X815707Y420671D01*
Y420679D01*
Y420683D01*
X816031Y420659D01*
X816023Y420577D01*
X816007Y420503D01*
X815984Y420433D01*
X815961Y420374D01*
X815941Y420328D01*
X815922Y420289D01*
X815906Y420265D01*
X815902Y420258D01*
X815855Y420195D01*
X815801Y420141D01*
X815746Y420094D01*
X815691Y420055D01*
X815641Y420027D01*
X815602Y420004D01*
X815586Y419996D01*
X815574Y419992D01*
X815571Y419988D01*
X815567D01*
X815485Y419957D01*
X815399Y419934D01*
X815313Y419918D01*
X815235Y419907D01*
X815169Y419899D01*
X815142D01*
X815114Y419895D01*
X815067D01*
X814974Y419899D01*
X814884Y419910D01*
X814806Y419922D01*
X814736Y419938D01*
X814681Y419957D01*
X814658Y419965D01*
X814639Y419969D01*
X814619Y419977D01*
X814607Y419981D01*
X814603Y419984D01*
X814600D01*
X814525Y420020D01*
X814459Y420062D01*
X814404Y420105D01*
X814362Y420144D01*
X814326Y420183D01*
X814299Y420215D01*
X814284Y420234D01*
X814280Y420238D01*
Y420242D01*
X814245Y420304D01*
X814217Y420371D01*
X814198Y420429D01*
X814186Y420488D01*
X814178Y420534D01*
X814170Y420570D01*
Y420585D01*
Y420597D01*
Y420601D01*
Y420605D01*
X814174Y420667D01*
X814186Y420729D01*
X814198Y420784D01*
X814217Y420831D01*
X814233Y420870D01*
X814245Y420897D01*
X814256Y420917D01*
X814260Y420924D01*
X814299Y420975D01*
X814342Y421022D01*
X814385Y421061D01*
X814432Y421096D01*
X814471Y421123D01*
X814502Y421143D01*
X814525Y421158D01*
X814529Y421162D01*
X814533D01*
X814561Y421178D01*
X814596Y421190D01*
X814670Y421217D01*
X814752Y421244D01*
X814834Y421272D01*
X814908Y421291D01*
X814939Y421299D01*
X814966Y421307D01*
X814989Y421314D01*
X815009Y421318D01*
X815021Y421322D01*
X815025D01*
X815087Y421338D01*
X815145Y421353D01*
X815200Y421365D01*
X815247Y421377D01*
X815286Y421388D01*
X815325Y421400D01*
X815356Y421408D01*
X815387Y421416D01*
X815411Y421424D01*
X815430Y421431D01*
X815461Y421439D01*
X815477Y421443D01*
X815481Y421447D01*
X815536Y421470D01*
X815586Y421498D01*
X815625Y421521D01*
X815656Y421545D01*
X815680Y421568D01*
X815699Y421584D01*
X815707Y421595D01*
X815711Y421599D01*
X815734Y421634D01*
X815750Y421669D01*
X815766Y421704D01*
X815773Y421739D01*
X815777Y421767D01*
X815781Y421790D01*
Y421806D01*
Y421810D01*
X815777Y421853D01*
X815769Y421892D01*
X815758Y421931D01*
X815746Y421962D01*
X815730Y421989D01*
X815719Y422009D01*
X815711Y422024D01*
X815707Y422028D01*
X815676Y422063D01*
X815641Y422094D01*
X815606Y422122D01*
X815567Y422145D01*
X815536Y422165D01*
X815508Y422176D01*
X815493Y422184D01*
X815485Y422188D01*
X815426Y422207D01*
X815368Y422219D01*
X815313Y422231D01*
X815259Y422235D01*
X815216Y422239D01*
X815177Y422243D01*
X815145D01*
X815067Y422239D01*
X814993Y422231D01*
X814923Y422219D01*
X814869Y422204D01*
X814818Y422192D01*
X814783Y422180D01*
X814759Y422172D01*
X814756Y422168D01*
X814752D01*
X814693Y422137D01*
X814639Y422106D01*
X814596Y422071D01*
X814561Y422040D01*
X814529Y422013D01*
X814510Y421989D01*
X814498Y421974D01*
X814494Y421970D01*
X814467Y421919D01*
X814443Y421868D01*
X814428Y421814D01*
X814412Y421763D01*
X814404Y421716D01*
X814397Y421681D01*
X814393Y421658D01*
Y421654D01*
Y421650D01*
X814073Y421677D01*
X814081Y421771D01*
X814096Y421856D01*
X814120Y421938D01*
X814143Y422005D01*
X814167Y422063D01*
X814178Y422087D01*
X814190Y422106D01*
X814198Y422122D01*
X814206Y422133D01*
X814209Y422137D01*
Y422141D01*
X814264Y422211D01*
X814326Y422274D01*
X814385Y422325D01*
X814447Y422367D01*
X814498Y422402D01*
X814541Y422426D01*
X814557Y422434D01*
X814568Y422441D01*
X814576Y422445D01*
X814580D01*
X814674Y422477D01*
X814771Y422500D01*
X814869Y422519D01*
X814958Y422531D01*
X815001Y422535D01*
X815040Y422539D01*
X815075D01*
X815103Y422543D01*
X815161D01*
X815263Y422539D01*
D02*
G37*
G36*
X833706Y422519D02*
X833745Y422516D01*
X833781Y422508D01*
X833816Y422504D01*
X833839Y422500D01*
X833855Y422496D01*
X833862D01*
X833820Y422219D01*
X833761Y422227D01*
X833738D01*
X833718Y422231D01*
X833679D01*
X833632Y422227D01*
X833597Y422219D01*
X833578Y422215D01*
X833570Y422211D01*
X833547Y422192D01*
X833531Y422172D01*
X833523Y422157D01*
X833519Y422149D01*
X833515Y422129D01*
X833512Y422106D01*
X833508Y422048D01*
X833504Y422020D01*
Y421997D01*
Y421981D01*
Y421977D01*
Y420889D01*
X833820D01*
Y420644D01*
X833504D01*
Y419996D01*
X833188Y420187D01*
Y420644D01*
X832954D01*
Y420889D01*
X833188D01*
Y421958D01*
Y422009D01*
Y422055D01*
X833192Y422098D01*
Y422137D01*
X833196Y422172D01*
X833200Y422200D01*
X833207Y422250D01*
X833211Y422289D01*
X833219Y422313D01*
X833223Y422328D01*
Y422332D01*
X833239Y422364D01*
X833262Y422391D01*
X833281Y422414D01*
X833305Y422434D01*
X833324Y422449D01*
X833340Y422461D01*
X833352Y422469D01*
X833356Y422473D01*
X833395Y422488D01*
X833437Y422500D01*
X833484Y422512D01*
X833527Y422516D01*
X833566Y422519D01*
X833597Y422523D01*
X833625D01*
X833706Y422519D01*
D02*
G37*
G36*
X809888Y419938D02*
X809572D01*
Y420296D01*
X809888D01*
Y419938D01*
D02*
G37*
G36*
X811905Y422539D02*
X811963Y422531D01*
X812018Y422519D01*
X812068Y422500D01*
X812111Y422480D01*
X812154Y422457D01*
X812193Y422430D01*
X812228Y422406D01*
X812259Y422379D01*
X812287Y422356D01*
X812310Y422332D01*
X812326Y422313D01*
X812341Y422293D01*
X812353Y422282D01*
X812357Y422274D01*
X812361Y422270D01*
Y422500D01*
X812653D01*
Y419938D01*
X812337D01*
Y420858D01*
X812306Y420819D01*
X812271Y420780D01*
X812232Y420749D01*
X812201Y420725D01*
X812170Y420702D01*
X812146Y420686D01*
X812131Y420679D01*
X812123Y420675D01*
X812072Y420651D01*
X812022Y420632D01*
X811971Y420620D01*
X811928Y420609D01*
X811885Y420605D01*
X811854Y420601D01*
X811827D01*
X811745Y420605D01*
X811667Y420620D01*
X811596Y420640D01*
X811534Y420659D01*
X811483Y420683D01*
X811444Y420702D01*
X811421Y420718D01*
X811417Y420722D01*
X811413D01*
X811347Y420772D01*
X811292Y420827D01*
X811246Y420885D01*
X811207Y420944D01*
X811175Y420995D01*
X811156Y421034D01*
X811148Y421049D01*
X811140Y421061D01*
X811136Y421069D01*
Y421073D01*
X811105Y421158D01*
X811086Y421248D01*
X811070Y421330D01*
X811058Y421408D01*
X811051Y421474D01*
Y421505D01*
X811047Y421529D01*
Y421548D01*
Y421564D01*
Y421572D01*
Y421576D01*
X811051Y421681D01*
X811062Y421775D01*
X811078Y421860D01*
X811097Y421935D01*
X811117Y421997D01*
X811125Y422024D01*
X811132Y422044D01*
X811140Y422059D01*
X811144Y422071D01*
X811148Y422079D01*
Y422083D01*
X811191Y422161D01*
X811234Y422227D01*
X811285Y422286D01*
X811327Y422332D01*
X811370Y422371D01*
X811401Y422399D01*
X811425Y422418D01*
X811429Y422422D01*
X811433D01*
X811503Y422461D01*
X811577Y422492D01*
X811643Y422512D01*
X811710Y422527D01*
X811760Y422535D01*
X811803Y422539D01*
X811819Y422543D01*
X811842D01*
X811905Y422539D01*
D02*
G37*
G36*
X810676Y419938D02*
X810360D01*
Y422500D01*
X810676D01*
Y419938D01*
D02*
G37*
%LPC*%
G36*
X855030Y422157D02*
X854445D01*
Y420195D01*
X854980D01*
X855085Y420199D01*
X855175Y420203D01*
X855249Y420211D01*
X855311Y420222D01*
X855358Y420234D01*
X855389Y420242D01*
X855408Y420246D01*
X855416Y420250D01*
X855483Y420285D01*
X855545Y420328D01*
X855600Y420374D01*
X855646Y420425D01*
X855685Y420468D01*
X855713Y420507D01*
X855724Y420523D01*
X855728Y420534D01*
X855736Y420538D01*
Y420542D01*
X855760Y420585D01*
X855779Y420632D01*
X855814Y420729D01*
X855838Y420831D01*
X855853Y420932D01*
X855857Y420975D01*
X855861Y421018D01*
X855865Y421057D01*
X855869Y421092D01*
Y421119D01*
Y421139D01*
Y421154D01*
Y421158D01*
X855865Y421264D01*
X855857Y421357D01*
X855845Y421443D01*
X855834Y421517D01*
X855822Y421576D01*
X855814Y421599D01*
X855810Y421619D01*
X855806Y421634D01*
X855802Y421646D01*
X855799Y421650D01*
Y421654D01*
X855771Y421724D01*
X855740Y421790D01*
X855709Y421845D01*
X855682Y421892D01*
X855654Y421927D01*
X855631Y421954D01*
X855615Y421974D01*
X855611Y421977D01*
X855576Y422009D01*
X855541Y422036D01*
X855502Y422055D01*
X855463Y422075D01*
X855432Y422090D01*
X855405Y422102D01*
X855389Y422106D01*
X855381Y422110D01*
X855323Y422126D01*
X855260Y422137D01*
X855194Y422145D01*
X855132Y422149D01*
X855073Y422153D01*
X855030Y422157D01*
D02*
G37*
G36*
X817330Y422286D02*
X817310D01*
X817271Y422282D01*
X817236Y422278D01*
X817170Y422258D01*
X817107Y422231D01*
X817056Y422200D01*
X817017Y422168D01*
X816986Y422141D01*
X816967Y422122D01*
X816959Y422114D01*
X816936Y422079D01*
X816912Y422040D01*
X816877Y421958D01*
X816854Y421872D01*
X816838Y421782D01*
X816826Y421704D01*
X816823Y421673D01*
Y421642D01*
X816819Y421619D01*
Y421599D01*
Y421587D01*
Y421584D01*
Y421517D01*
X816826Y421459D01*
X816834Y421400D01*
X816842Y421346D01*
X816854Y421299D01*
X816865Y421252D01*
X816881Y421213D01*
X816897Y421174D01*
X816908Y421143D01*
X816924Y421115D01*
X816936Y421092D01*
X816947Y421073D01*
X816955Y421057D01*
X816963Y421045D01*
X816971Y421041D01*
Y421037D01*
X816998Y421002D01*
X817029Y420975D01*
X817060Y420948D01*
X817092Y420928D01*
X817150Y420893D01*
X817205Y420870D01*
X817255Y420858D01*
X817290Y420850D01*
X817306Y420846D01*
X817361D01*
X817396Y420854D01*
X817462Y420874D01*
X817521Y420905D01*
X817571Y420936D01*
X817614Y420967D01*
X817642Y420998D01*
X817661Y421018D01*
X817669Y421022D01*
Y421026D01*
X817696Y421061D01*
X817719Y421100D01*
X817755Y421182D01*
X817782Y421272D01*
X817797Y421357D01*
X817809Y421435D01*
X817813Y421470D01*
Y421502D01*
X817817Y421525D01*
Y421545D01*
Y421556D01*
Y421560D01*
Y421626D01*
X817809Y421689D01*
X817801Y421747D01*
X817794Y421802D01*
X817782Y421853D01*
X817770Y421896D01*
X817755Y421938D01*
X817743Y421974D01*
X817727Y422005D01*
X817712Y422032D01*
X817700Y422055D01*
X817688Y422075D01*
X817680Y422090D01*
X817673Y422102D01*
X817665Y422106D01*
Y422110D01*
X817638Y422141D01*
X817606Y422168D01*
X817548Y422211D01*
X817489Y422243D01*
X817431Y422262D01*
X817384Y422278D01*
X817345Y422282D01*
X817330Y422286D01*
D02*
G37*
G36*
X811893D02*
X811873D01*
X811834Y422282D01*
X811799Y422278D01*
X811729Y422258D01*
X811671Y422231D01*
X811620Y422196D01*
X811577Y422165D01*
X811546Y422137D01*
X811526Y422118D01*
X811518Y422110D01*
X811491Y422075D01*
X811468Y422036D01*
X811433Y421954D01*
X811405Y421864D01*
X811390Y421778D01*
X811378Y421697D01*
X811374Y421665D01*
Y421634D01*
X811370Y421611D01*
Y421591D01*
Y421580D01*
Y421576D01*
Y421509D01*
X811378Y421447D01*
X811382Y421388D01*
X811394Y421334D01*
X811401Y421287D01*
X811413Y421240D01*
X811429Y421201D01*
X811440Y421166D01*
X811452Y421135D01*
X811468Y421108D01*
X811479Y421084D01*
X811487Y421065D01*
X811499Y421053D01*
X811503Y421041D01*
X811511Y421034D01*
X811538Y421002D01*
X811565Y420975D01*
X811624Y420936D01*
X811682Y420905D01*
X811737Y420882D01*
X811784Y420870D01*
X811823Y420866D01*
X811838Y420862D01*
X811897D01*
X811936Y420870D01*
X812006Y420889D01*
X812068Y420921D01*
X812119Y420952D01*
X812162Y420983D01*
X812193Y421014D01*
X812213Y421034D01*
X812220Y421037D01*
Y421041D01*
X812248Y421076D01*
X812271Y421115D01*
X812306Y421205D01*
X812334Y421299D01*
X812349Y421388D01*
X812361Y421474D01*
X812365Y421509D01*
Y421541D01*
X812369Y421568D01*
Y421587D01*
Y421599D01*
Y421603D01*
Y421665D01*
X812361Y421724D01*
X812357Y421778D01*
X812345Y421829D01*
X812334Y421876D01*
X812322Y421919D01*
X812310Y421958D01*
X812298Y421989D01*
X812283Y422020D01*
X812271Y422048D01*
X812259Y422067D01*
X812248Y422087D01*
X812236Y422098D01*
X812232Y422110D01*
X812224Y422114D01*
Y422118D01*
X812197Y422149D01*
X812170Y422172D01*
X812107Y422215D01*
X812049Y422243D01*
X811994Y422266D01*
X811948Y422278D01*
X811909Y422282D01*
X811893Y422286D01*
D02*
G37*
G36*
X841858D02*
X841838D01*
X841799Y422282D01*
X841760Y422278D01*
X841690Y422254D01*
X841627Y422219D01*
X841573Y422180D01*
X841530Y422145D01*
X841499Y422110D01*
X841479Y422087D01*
X841471Y422083D01*
Y422079D01*
X841448Y422036D01*
X841425Y421981D01*
X841405Y421923D01*
X841389Y421860D01*
X841362Y421720D01*
X841347Y421580D01*
X841339Y421513D01*
X841335Y421447D01*
X841331Y421388D01*
Y421338D01*
X841327Y421295D01*
Y421264D01*
Y421244D01*
Y421236D01*
Y421123D01*
X841335Y421018D01*
X841343Y420924D01*
X841350Y420839D01*
X841366Y420757D01*
X841378Y420686D01*
X841393Y420624D01*
X841409Y420570D01*
X841421Y420523D01*
X841436Y420480D01*
X841452Y420449D01*
X841464Y420421D01*
X841471Y420402D01*
X841479Y420386D01*
X841487Y420378D01*
Y420374D01*
X841510Y420343D01*
X841538Y420312D01*
X841596Y420265D01*
X841655Y420234D01*
X841709Y420211D01*
X841760Y420195D01*
X841799Y420191D01*
X841815Y420187D01*
X841834D01*
X841873Y420191D01*
X841912Y420195D01*
X841982Y420219D01*
X842045Y420254D01*
X842099Y420293D01*
X842142Y420332D01*
X842173Y420367D01*
X842193Y420390D01*
X842201Y420394D01*
Y420398D01*
X842228Y420441D01*
X842251Y420492D01*
X842271Y420550D01*
X842286Y420616D01*
X842314Y420753D01*
X842329Y420893D01*
X842337Y420963D01*
X842341Y421026D01*
X842345Y421084D01*
Y421135D01*
X842349Y421178D01*
Y421209D01*
Y421229D01*
Y421236D01*
Y421349D01*
X842341Y421455D01*
X842337Y421548D01*
X842325Y421634D01*
X842314Y421712D01*
X842302Y421782D01*
X842290Y421841D01*
X842275Y421896D01*
X842259Y421938D01*
X842247Y421977D01*
X842236Y422013D01*
X842224Y422036D01*
X842216Y422055D01*
X842208Y422067D01*
X842201Y422075D01*
Y422079D01*
X842173Y422114D01*
X842142Y422145D01*
X842111Y422176D01*
X842080Y422200D01*
X842021Y422235D01*
X841963Y422258D01*
X841912Y422274D01*
X841873Y422282D01*
X841858Y422286D01*
D02*
G37*
G36*
X829756Y422254D02*
X829721D01*
X829650Y422250D01*
X829588Y422243D01*
X829526Y422231D01*
X829467Y422211D01*
X829409Y422192D01*
X829358Y422168D01*
X829311Y422145D01*
X829268Y422122D01*
X829229Y422098D01*
X829194Y422071D01*
X829167Y422051D01*
X829144Y422032D01*
X829124Y422013D01*
X829108Y422001D01*
X829101Y421993D01*
X829097Y421989D01*
X829054Y421938D01*
X829015Y421880D01*
X828984Y421821D01*
X828956Y421763D01*
X828933Y421700D01*
X828909Y421642D01*
X828882Y421525D01*
X828870Y421470D01*
X828863Y421420D01*
X828859Y421377D01*
X828855Y421338D01*
X828851Y421303D01*
Y421279D01*
Y421264D01*
Y421260D01*
X828855Y421154D01*
X828863Y421057D01*
X828874Y420971D01*
X828890Y420889D01*
X828909Y420811D01*
X828933Y420745D01*
X828956Y420686D01*
X828980Y420632D01*
X829003Y420585D01*
X829027Y420546D01*
X829050Y420511D01*
X829069Y420484D01*
X829085Y420464D01*
X829097Y420449D01*
X829105Y420441D01*
X829108Y420437D01*
X829159Y420394D01*
X829210Y420355D01*
X829261Y420320D01*
X829315Y420293D01*
X829366Y420269D01*
X829416Y420250D01*
X829514Y420219D01*
X829557Y420207D01*
X829596Y420199D01*
X829635Y420195D01*
X829666Y420191D01*
X829690Y420187D01*
X829725D01*
X829818Y420191D01*
X829904Y420207D01*
X829982Y420226D01*
X830048Y420250D01*
X830103Y420277D01*
X830146Y420296D01*
X830161Y420304D01*
X830173Y420312D01*
X830177Y420316D01*
X830181D01*
X830251Y420367D01*
X830313Y420425D01*
X830368Y420488D01*
X830411Y420546D01*
X830446Y420597D01*
X830470Y420640D01*
X830477Y420655D01*
X830485Y420667D01*
X830489Y420675D01*
Y420679D01*
X830524Y420768D01*
X830551Y420862D01*
X830571Y420956D01*
X830587Y421037D01*
X830594Y421112D01*
Y421147D01*
X830598Y421174D01*
Y421194D01*
Y421209D01*
Y421221D01*
Y421225D01*
X830594Y421314D01*
X830587Y421400D01*
X830575Y421478D01*
X830559Y421552D01*
X830540Y421623D01*
X830520Y421685D01*
X830497Y421739D01*
X830473Y421794D01*
X830450Y421837D01*
X830427Y421876D01*
X830407Y421911D01*
X830388Y421938D01*
X830372Y421962D01*
X830360Y421977D01*
X830352Y421985D01*
X830349Y421989D01*
X830302Y422036D01*
X830251Y422075D01*
X830200Y422110D01*
X830146Y422141D01*
X830095Y422168D01*
X830040Y422188D01*
X829943Y422219D01*
X829896Y422231D01*
X829853Y422239D01*
X829818Y422247D01*
X829783Y422250D01*
X829756Y422254D01*
D02*
G37*
G36*
X837879Y422286D02*
X837860D01*
X837821Y422282D01*
X837782Y422278D01*
X837712Y422254D01*
X837649Y422219D01*
X837595Y422180D01*
X837552Y422145D01*
X837521Y422110D01*
X837501Y422087D01*
X837493Y422083D01*
Y422079D01*
X837470Y422036D01*
X837447Y421981D01*
X837427Y421923D01*
X837411Y421860D01*
X837384Y421720D01*
X837369Y421580D01*
X837361Y421513D01*
X837357Y421447D01*
X837353Y421388D01*
Y421338D01*
X837349Y421295D01*
Y421264D01*
Y421244D01*
Y421236D01*
Y421123D01*
X837357Y421018D01*
X837365Y420924D01*
X837372Y420839D01*
X837388Y420757D01*
X837400Y420686D01*
X837415Y420624D01*
X837431Y420570D01*
X837443Y420523D01*
X837458Y420480D01*
X837474Y420449D01*
X837486Y420421D01*
X837493Y420402D01*
X837501Y420386D01*
X837509Y420378D01*
Y420374D01*
X837532Y420343D01*
X837560Y420312D01*
X837618Y420265D01*
X837677Y420234D01*
X837731Y420211D01*
X837782Y420195D01*
X837821Y420191D01*
X837837Y420187D01*
X837856D01*
X837895Y420191D01*
X837934Y420195D01*
X838004Y420219D01*
X838067Y420254D01*
X838121Y420293D01*
X838164Y420332D01*
X838195Y420367D01*
X838215Y420390D01*
X838223Y420394D01*
Y420398D01*
X838250Y420441D01*
X838273Y420492D01*
X838293Y420550D01*
X838309Y420616D01*
X838336Y420753D01*
X838351Y420893D01*
X838359Y420963D01*
X838363Y421026D01*
X838367Y421084D01*
Y421135D01*
X838371Y421178D01*
Y421209D01*
Y421229D01*
Y421236D01*
Y421349D01*
X838363Y421455D01*
X838359Y421548D01*
X838348Y421634D01*
X838336Y421712D01*
X838324Y421782D01*
X838312Y421841D01*
X838297Y421896D01*
X838281Y421938D01*
X838270Y421977D01*
X838258Y422013D01*
X838246Y422036D01*
X838238Y422055D01*
X838231Y422067D01*
X838223Y422075D01*
Y422079D01*
X838195Y422114D01*
X838164Y422145D01*
X838133Y422176D01*
X838102Y422200D01*
X838043Y422235D01*
X837985Y422258D01*
X837934Y422274D01*
X837895Y422282D01*
X837879Y422286D01*
D02*
G37*
%LPD*%
D19*
X811500Y372000D02*
X813500D01*
X812500Y371000D02*
Y373000D01*
D43*
X814500Y383500D02*
G03*
X814500Y383500I-492J0D01*
G01*
D44*
X821606Y370622D02*
X822394D01*
X821606Y373378D02*
X822394D01*
X821606Y370622D02*
Y373378D01*
X817732Y394102D02*
Y396268D01*
X819898D01*
X832102D02*
X834268D01*
Y394102D02*
Y396268D01*
Y379732D02*
Y381898D01*
X832102Y379732D02*
X834268D01*
X817732D02*
X819898D01*
X817732D02*
Y381898D01*
D61*
X827500Y411000D02*
X829000Y409500D01*
X828000Y408500D02*
X830000Y410500D01*
X830500Y410000D02*
X831500Y409000D01*
X828500Y408000D02*
X830500Y410000D01*
X828500Y408000D02*
X829500Y407000D01*
X831500Y409000D01*
X830000Y406500D02*
X832000Y408500D01*
X831000Y407500D02*
X832500Y406000D01*
M02*
