%FSLAX25Y25*%
%MOIN*%
G70*
G01*
G75*
G04 Layer_Color=8388736*
%ADD10R,0.12992X0.12992*%
%ADD11O,0.02756X0.00984*%
%ADD12O,0.00984X0.02756*%
%ADD13R,0.02953X0.03543*%
%ADD14R,0.02362X0.02362*%
%ADD15R,0.04134X0.05906*%
%ADD16R,0.02362X0.02362*%
%ADD17R,0.04724X0.02362*%
%ADD18C,0.00600*%
%ADD19C,0.01000*%
%ADD20C,0.00800*%
%ADD21C,0.02000*%
%ADD22R,0.01575X0.00192*%
%ADD23R,0.00353X0.00189*%
%ADD24C,0.03937*%
%ADD25R,0.03937X0.03937*%
%ADD26R,0.03937X0.03937*%
%ADD27C,0.02400*%
%ADD28C,0.04000*%
%ADD29R,0.13000X0.57500*%
%ADD30C,0.04362*%
G04:AMPARAMS|DCode=31|XSize=47.622mil|YSize=47.622mil|CornerRadius=0mil|HoleSize=0mil|Usage=FLASHONLY|Rotation=0.000|XOffset=0mil|YOffset=0mil|HoleType=Round|Shape=Relief|Width=10mil|Gap=4mil|Entries=4|*
%AMTHD31*
7,0,0,0.04762,0.03962,0.01000,45*
%
%ADD31THD31*%
%ADD32C,0.03200*%
G04:AMPARAMS|DCode=33|XSize=36mil|YSize=36mil|CornerRadius=0mil|HoleSize=0mil|Usage=FLASHONLY|Rotation=0.000|XOffset=0mil|YOffset=0mil|HoleType=Round|Shape=Relief|Width=10mil|Gap=4mil|Entries=4|*
%AMTHD33*
7,0,0,0.03600,0.02800,0.01000,45*
%
%ADD33THD33*%
%ADD34R,0.10000X0.04000*%
%ADD35O,0.01181X0.03150*%
%ADD36O,0.03150X0.01181*%
%ADD37R,0.07480X0.04331*%
%ADD38R,0.00503X0.00180*%
%ADD39R,0.00237X0.00346*%
%ADD40R,0.00628X0.00256*%
%ADD41R,0.00542X0.00559*%
%ADD42R,0.00369X0.00562*%
%ADD43C,0.00984*%
%ADD44C,0.00787*%
%ADD45R,0.08992X0.08992*%
%ADD46R,0.13792X0.13792*%
%ADD47O,0.03256X0.01484*%
%ADD48O,0.01484X0.03256*%
%ADD49R,0.03753X0.04343*%
%ADD50R,0.03162X0.03162*%
%ADD51R,0.04934X0.06706*%
%ADD52R,0.03162X0.03162*%
%ADD53R,0.05524X0.03162*%
%ADD54C,0.04737*%
%ADD55R,0.04737X0.04737*%
%ADD56R,0.04737X0.04737*%
D46*
X830000Y398000D02*
D03*
D47*
X839843Y404890D02*
D03*
Y402921D02*
D03*
Y400953D02*
D03*
Y398984D02*
D03*
Y397016D02*
D03*
Y395047D02*
D03*
Y393079D02*
D03*
Y391110D02*
D03*
X820158D02*
D03*
Y393079D02*
D03*
Y395047D02*
D03*
Y397016D02*
D03*
Y398984D02*
D03*
Y400953D02*
D03*
Y402921D02*
D03*
Y404890D02*
D03*
D48*
X836890Y388158D02*
D03*
X834921D02*
D03*
X832953D02*
D03*
X830984D02*
D03*
X829016D02*
D03*
X827047D02*
D03*
X825079D02*
D03*
X823110D02*
D03*
Y407842D02*
D03*
X825079D02*
D03*
X827047D02*
D03*
X829016D02*
D03*
X830984D02*
D03*
X832953D02*
D03*
X834921D02*
D03*
X836890D02*
D03*
D49*
X830555Y372000D02*
D03*
X837445D02*
D03*
D50*
X814500Y413969D02*
D03*
Y410032D02*
D03*
X838100Y381968D02*
D03*
Y378031D02*
D03*
D51*
X816161Y372000D02*
D03*
X823839D02*
D03*
D52*
X810968Y422000D02*
D03*
X807032D02*
D03*
X823032Y413000D02*
D03*
X826968D02*
D03*
X822031Y382000D02*
D03*
X825968D02*
D03*
X835968Y413000D02*
D03*
X832032D02*
D03*
X833969Y382000D02*
D03*
X830031D02*
D03*
D53*
X817098Y418228D02*
D03*
X841902D02*
D03*
Y421772D02*
D03*
X817098D02*
D03*
D54*
X808000Y411000D02*
D03*
Y406000D02*
D03*
Y401000D02*
D03*
Y396000D02*
D03*
Y391000D02*
D03*
Y377000D02*
D03*
X844500Y372000D02*
D03*
D55*
X808000Y386000D02*
D03*
Y372000D02*
D03*
D56*
X849500D02*
D03*
M02*
