%FSLAX25Y25*%
%MOIN*%
G70*
G01*
G75*
G04 Layer_Color=8421504*
%ADD10R,0.03504X0.00906*%
%ADD11R,0.03740X0.03150*%
%ADD12R,0.05512X0.02362*%
%ADD13R,0.02362X0.02362*%
%ADD14R,0.05906X0.04134*%
%ADD15R,0.05315X0.02362*%
%ADD16R,0.02953X0.03543*%
%ADD17R,0.07087X0.04134*%
%ADD18R,0.03150X0.01969*%
%ADD19R,0.08465X0.09843*%
%ADD20R,0.01969X0.02362*%
%ADD21R,0.18898X0.20315*%
%ADD22O,0.02362X0.13583*%
%ADD23O,0.01772X0.08268*%
%ADD24R,0.05906X0.16142*%
%ADD25R,0.05906X0.17716*%
%ADD26R,0.04134X0.08661*%
%ADD27R,0.01969X0.03150*%
%ADD28R,0.05906X0.11024*%
%ADD29R,0.06102X0.02362*%
%ADD30R,0.07087X0.04724*%
%ADD31R,0.03937X0.01181*%
%ADD32R,0.02756X0.01181*%
%ADD33R,0.03150X0.03740*%
%ADD34R,0.03543X0.02953*%
%ADD35R,0.04134X0.07087*%
%ADD36R,0.05709X0.04331*%
%ADD37R,0.04331X0.07480*%
%ADD38O,0.02165X0.06890*%
%ADD39O,0.06890X0.02165*%
%ADD40R,0.00984X0.07087*%
%ADD41R,0.04331X0.05709*%
%ADD42R,0.02362X0.05512*%
%ADD43R,0.07874X0.12992*%
%ADD44R,0.07874X0.09843*%
%ADD45R,0.01969X0.12205*%
%ADD46R,0.09843X0.09843*%
%ADD47O,0.03150X0.01378*%
%ADD48O,0.01378X0.03150*%
%ADD49R,0.07087X0.29528*%
%ADD50R,0.02362X0.04134*%
%ADD51R,0.04134X0.05906*%
%ADD52R,0.13189X0.09646*%
%ADD53R,0.35827X0.42323*%
%ADD54R,0.16339X0.03937*%
%ADD55R,0.01100X0.01100*%
%ADD56R,0.01400X0.01400*%
%ADD57R,0.02362X0.02362*%
%ADD58O,0.00984X0.03150*%
%ADD59O,0.03150X0.00984*%
%ADD60R,0.04724X0.07087*%
%ADD61R,0.17126X0.18504*%
%ADD62R,0.09252X0.10236*%
%ADD63O,0.08858X0.02362*%
%ADD64R,0.05906X0.05906*%
%ADD65R,0.05906X0.05906*%
%ADD66R,0.09646X0.13189*%
%ADD67R,0.02953X0.01181*%
%ADD68C,0.04000*%
%ADD69C,0.01500*%
%ADD70C,0.00800*%
%ADD71C,0.01000*%
%ADD72C,0.01200*%
%ADD73C,0.03000*%
%ADD74C,0.02000*%
%ADD75C,0.05800*%
%ADD76C,0.08000*%
%ADD77C,0.05000*%
%ADD78R,0.00653X0.00435*%
%ADD79R,0.02142X0.00344*%
%ADD80R,0.04702X0.00344*%
%ADD81R,0.00286X0.00429*%
%ADD82R,0.00262X0.00395*%
%ADD83R,0.00248X0.00441*%
%ADD84R,0.00441X0.00236*%
%ADD85R,0.00280X0.00186*%
%ADD86R,0.06299X0.06988*%
%ADD87R,0.07776X0.02559*%
%ADD88R,0.03937X0.04715*%
%ADD89R,0.07569X0.07569*%
%ADD90R,0.04134X0.11614*%
%ADD91R,0.39400X0.69575*%
%ADD92R,0.41550X0.14150*%
%ADD93R,0.00906X0.00533*%
%ADD94R,0.00872X0.01705*%
G04:AMPARAMS|DCode=95|XSize=120mil|YSize=60mil|CornerRadius=0mil|HoleSize=0mil|Usage=FLASHONLY|Rotation=90.000|XOffset=0mil|YOffset=0mil|HoleType=Round|Shape=Octagon|*
%AMOCTAGOND95*
4,1,8,0.01500,0.06000,-0.01500,0.06000,-0.03000,0.04500,-0.03000,-0.04500,-0.01500,-0.06000,0.01500,-0.06000,0.03000,-0.04500,0.03000,0.04500,0.01500,0.06000,0.0*
%
%ADD95OCTAGOND95*%

%ADD96C,0.04724*%
%ADD97C,0.05906*%
%ADD98R,0.09055X0.09055*%
%ADD99C,0.09055*%
%ADD100C,0.22638*%
%ADD101C,0.06000*%
%ADD102C,0.05315*%
%ADD103C,0.07874*%
%ADD104C,0.20669*%
%ADD105C,0.02400*%
%ADD106C,0.05000*%
%ADD107C,0.04800*%
%ADD108C,0.02598*%
%ADD109R,0.00613X0.00499*%
%ADD110C,0.00984*%
%ADD111C,0.02362*%
%ADD112C,0.00400*%
%ADD113C,0.00787*%
%ADD114C,0.00591*%
%ADD115C,0.00700*%
%ADD116C,0.00492*%
%ADD117R,0.06299X0.02165*%
%ADD118R,0.02165X0.10236*%
%ADD119R,0.02165X0.06299*%
%ADD120R,0.01378X0.03150*%
%ADD121R,0.01280X0.03051*%
%ADD122R,0.02362X0.01772*%
%ADD123R,0.01772X0.02362*%
D10*
X1383445Y1517765D02*
D03*
Y1519340D02*
D03*
Y1525639D02*
D03*
Y1522490D02*
D03*
Y1524064D02*
D03*
Y1520915D02*
D03*
Y1511466D02*
D03*
Y1513041D02*
D03*
Y1516190D02*
D03*
Y1514616D02*
D03*
X1365689D02*
D03*
Y1516190D02*
D03*
Y1513041D02*
D03*
Y1511466D02*
D03*
Y1520915D02*
D03*
Y1524064D02*
D03*
Y1522490D02*
D03*
Y1525639D02*
D03*
Y1519340D02*
D03*
Y1517765D02*
D03*
D11*
X1395669Y1507283D02*
D03*
Y1514370D02*
D03*
X1197835Y1327362D02*
D03*
Y1320276D02*
D03*
X1203740Y1367717D02*
D03*
Y1360630D02*
D03*
X1186024Y1352953D02*
D03*
Y1345866D02*
D03*
X1449803Y1201181D02*
D03*
Y1208268D02*
D03*
X1205315Y1247736D02*
D03*
Y1240650D02*
D03*
X1370079Y1278150D02*
D03*
Y1271063D02*
D03*
X1430020Y1208268D02*
D03*
Y1201181D02*
D03*
X1439862Y1208268D02*
D03*
Y1201181D02*
D03*
X1199409Y1240650D02*
D03*
Y1247736D02*
D03*
X1254331Y1495571D02*
D03*
Y1502658D02*
D03*
X1360236Y1326378D02*
D03*
Y1319291D02*
D03*
Y1339173D02*
D03*
Y1332087D02*
D03*
X1343504Y1349803D02*
D03*
Y1356890D02*
D03*
X1373032Y1240551D02*
D03*
Y1247638D02*
D03*
X1420276Y1494685D02*
D03*
Y1487598D02*
D03*
D12*
X1349881Y1357087D02*
D03*
Y1349606D02*
D03*
X1357362Y1353347D02*
D03*
X1194685Y1360433D02*
D03*
Y1367913D02*
D03*
X1187205Y1364173D02*
D03*
X1233465Y1357087D02*
D03*
Y1349606D02*
D03*
X1240945Y1353347D02*
D03*
X1234449Y1470472D02*
D03*
X1241929Y1474213D02*
D03*
Y1466732D02*
D03*
D13*
X1295276Y1252953D02*
D03*
X1291339D02*
D03*
X1326691Y1217429D02*
D03*
X1330628D02*
D03*
X1324306Y1212425D02*
D03*
X1320370D02*
D03*
X1299440Y1239358D02*
D03*
X1295503D02*
D03*
X1325787Y1207677D02*
D03*
X1321850D02*
D03*
X1343423Y1229437D02*
D03*
X1347360D02*
D03*
Y1233108D02*
D03*
X1343423D02*
D03*
X1314195Y1249006D02*
D03*
X1318132D02*
D03*
X1312008Y1234252D02*
D03*
X1315945D02*
D03*
X1294519Y1209830D02*
D03*
X1298456D02*
D03*
X1316848Y1225500D02*
D03*
X1320785D02*
D03*
X1314195Y1245068D02*
D03*
X1318132D02*
D03*
D14*
X1284449Y1241240D02*
D03*
Y1248917D02*
D03*
D15*
X1314075Y1378740D02*
D03*
Y1371260D02*
D03*
X1323720Y1375000D02*
D03*
D16*
X1200098Y1426673D02*
D03*
X1193209D02*
D03*
X1200098Y1418799D02*
D03*
X1193209D02*
D03*
X1200098Y1410925D02*
D03*
X1193209D02*
D03*
X1200098Y1403051D02*
D03*
X1193209D02*
D03*
X1238681Y1199803D02*
D03*
X1231791D02*
D03*
X1460138Y1412402D02*
D03*
X1467028D02*
D03*
X1201083Y1396161D02*
D03*
X1194193D02*
D03*
X1459153Y1358268D02*
D03*
X1466043D02*
D03*
X1327756Y1256890D02*
D03*
X1334646D02*
D03*
X1329232Y1320866D02*
D03*
X1322342D02*
D03*
X1334154Y1332382D02*
D03*
X1327264D02*
D03*
X1343996D02*
D03*
X1350886D02*
D03*
D17*
X1271653Y1245965D02*
D03*
Y1257972D02*
D03*
X1303150Y1370965D02*
D03*
Y1382972D02*
D03*
X1425190Y1416257D02*
D03*
Y1428265D02*
D03*
X1436652Y1415994D02*
D03*
Y1428002D02*
D03*
X1440945Y1454417D02*
D03*
Y1466425D02*
D03*
D18*
X1251968Y1547244D02*
D03*
X1244094D02*
D03*
D19*
X1189961Y1436122D02*
D03*
Y1449705D02*
D03*
X1203740D02*
D03*
Y1436122D02*
D03*
X1226041Y1530590D02*
D03*
Y1517008D02*
D03*
D20*
X1464193Y1419488D02*
D03*
X1459193Y1448622D02*
D03*
X1454193D02*
D03*
X1449193D02*
D03*
X1464193D02*
D03*
X1459193Y1419488D02*
D03*
X1454193D02*
D03*
X1449193D02*
D03*
D21*
X1456693Y1434055D02*
D03*
D22*
X1449193Y1370866D02*
D03*
X1454193D02*
D03*
X1459193D02*
D03*
X1464193D02*
D03*
X1449193Y1394882D02*
D03*
X1454193D02*
D03*
X1459193D02*
D03*
X1464193D02*
D03*
D23*
X1378839Y1261240D02*
D03*
X1381398D02*
D03*
X1383957D02*
D03*
X1386516D02*
D03*
X1389075D02*
D03*
X1391634D02*
D03*
X1394193D02*
D03*
X1396752D02*
D03*
X1399311D02*
D03*
X1401870D02*
D03*
X1404429D02*
D03*
X1406988D02*
D03*
X1409547D02*
D03*
X1412106D02*
D03*
X1378839Y1288406D02*
D03*
X1381398D02*
D03*
X1383957D02*
D03*
X1386516D02*
D03*
X1389075D02*
D03*
X1391634D02*
D03*
X1394193D02*
D03*
X1396752D02*
D03*
X1399311D02*
D03*
X1401870D02*
D03*
X1404429D02*
D03*
X1406988D02*
D03*
X1409547D02*
D03*
X1412106D02*
D03*
D24*
X1329752Y1192055D02*
D03*
D25*
X1339752Y1191268D02*
D03*
X1319752D02*
D03*
D26*
X1323945Y1188284D02*
D03*
X1335559D02*
D03*
D27*
X1263780Y1257874D02*
D03*
Y1265748D02*
D03*
D28*
X1244980Y1330709D02*
D03*
X1233563D02*
D03*
D29*
X1232185Y1272638D02*
D03*
Y1276575D02*
D03*
D30*
X1247441Y1281693D02*
D03*
Y1267520D02*
D03*
D31*
X1222638Y1414035D02*
D03*
Y1382224D02*
D03*
D32*
X1212205Y1385335D02*
D03*
Y1387303D02*
D03*
Y1389272D02*
D03*
Y1391240D02*
D03*
Y1393209D02*
D03*
Y1395177D02*
D03*
Y1397146D02*
D03*
Y1399114D02*
D03*
Y1401083D02*
D03*
Y1403051D02*
D03*
Y1405020D02*
D03*
Y1406988D02*
D03*
Y1408957D02*
D03*
Y1410925D02*
D03*
D33*
X1194094Y1388287D02*
D03*
X1201181D02*
D03*
X1194094Y1382382D02*
D03*
X1201181D02*
D03*
X1194094Y1376476D02*
D03*
X1201181D02*
D03*
X1234646Y1461614D02*
D03*
X1241732D02*
D03*
X1238780Y1455709D02*
D03*
X1231693D02*
D03*
X1238780Y1448819D02*
D03*
X1231693D02*
D03*
X1226083Y1297244D02*
D03*
X1218996D02*
D03*
X1398032Y1238189D02*
D03*
X1405118D02*
D03*
X1397835Y1245689D02*
D03*
X1404921D02*
D03*
X1404921Y1251595D02*
D03*
X1397835D02*
D03*
X1225984Y1349409D02*
D03*
X1218898D02*
D03*
X1255512D02*
D03*
X1248425D02*
D03*
X1294390Y1286417D02*
D03*
X1287303D02*
D03*
X1343898Y1342520D02*
D03*
X1350984D02*
D03*
X1238780Y1441929D02*
D03*
X1231693D02*
D03*
X1373425Y1498032D02*
D03*
X1380512D02*
D03*
X1387205D02*
D03*
X1394291D02*
D03*
D34*
X1204823Y1312500D02*
D03*
Y1305610D02*
D03*
X1389764Y1253445D02*
D03*
Y1246555D02*
D03*
X1392717Y1239665D02*
D03*
Y1232776D02*
D03*
X1439961Y1185532D02*
D03*
Y1192421D02*
D03*
X1430020Y1185532D02*
D03*
Y1192421D02*
D03*
X1294783Y1280020D02*
D03*
Y1273130D02*
D03*
X1287598Y1301181D02*
D03*
Y1294291D02*
D03*
X1357776Y1292815D02*
D03*
Y1299705D02*
D03*
X1224705Y1448819D02*
D03*
Y1455709D02*
D03*
X1449803Y1192421D02*
D03*
Y1185532D02*
D03*
D35*
X1214075Y1332677D02*
D03*
X1226083D02*
D03*
D36*
X1190059Y1313976D02*
D03*
Y1306102D02*
D03*
Y1332677D02*
D03*
Y1324803D02*
D03*
D37*
X1344488Y1323524D02*
D03*
X1334646D02*
D03*
D38*
X1310532Y1310532D02*
D03*
X1313681D02*
D03*
X1316831D02*
D03*
X1319980D02*
D03*
X1323130D02*
D03*
X1326280D02*
D03*
X1329429D02*
D03*
X1332579D02*
D03*
X1335728D02*
D03*
X1338878D02*
D03*
X1342028D02*
D03*
Y1266240D02*
D03*
X1338878D02*
D03*
X1335728D02*
D03*
X1332579D02*
D03*
X1329429D02*
D03*
X1326280D02*
D03*
X1323130D02*
D03*
X1319980D02*
D03*
X1316831D02*
D03*
X1313681D02*
D03*
X1310532D02*
D03*
D39*
X1348425Y1304134D02*
D03*
Y1300984D02*
D03*
Y1297835D02*
D03*
Y1294685D02*
D03*
Y1291535D02*
D03*
Y1288386D02*
D03*
Y1285236D02*
D03*
Y1282087D02*
D03*
Y1278937D02*
D03*
Y1275787D02*
D03*
Y1272638D02*
D03*
X1304134D02*
D03*
Y1275787D02*
D03*
Y1278937D02*
D03*
Y1282087D02*
D03*
Y1285236D02*
D03*
Y1288386D02*
D03*
Y1291535D02*
D03*
Y1294685D02*
D03*
Y1297835D02*
D03*
Y1300984D02*
D03*
Y1304134D02*
D03*
D40*
X1286811Y1410630D02*
D03*
X1288780D02*
D03*
X1290748D02*
D03*
X1292717D02*
D03*
X1294685D02*
D03*
X1296653D02*
D03*
X1298622D02*
D03*
X1300591D02*
D03*
X1302559D02*
D03*
X1304527D02*
D03*
X1306496D02*
D03*
X1308465D02*
D03*
X1310433D02*
D03*
X1312402D02*
D03*
X1314370D02*
D03*
X1316339D02*
D03*
X1318307D02*
D03*
X1320276D02*
D03*
X1322244D02*
D03*
X1324213D02*
D03*
X1326181D02*
D03*
X1328150D02*
D03*
X1330118D02*
D03*
X1332087D02*
D03*
X1334055D02*
D03*
X1286811Y1426378D02*
D03*
X1288780D02*
D03*
X1290748D02*
D03*
X1292717D02*
D03*
X1294685D02*
D03*
X1296653D02*
D03*
X1298622D02*
D03*
X1300591D02*
D03*
X1302559D02*
D03*
X1304527D02*
D03*
X1306496D02*
D03*
X1308465D02*
D03*
X1310433D02*
D03*
X1312402D02*
D03*
X1314370D02*
D03*
X1316339D02*
D03*
X1318307D02*
D03*
X1320276D02*
D03*
X1322244D02*
D03*
X1324213D02*
D03*
X1326181D02*
D03*
X1328150D02*
D03*
X1330118D02*
D03*
X1332087D02*
D03*
X1334055D02*
D03*
D41*
X1212402Y1261024D02*
D03*
X1220276D02*
D03*
D42*
X1216339Y1252953D02*
D03*
X1220079Y1245472D02*
D03*
X1212598D02*
D03*
D43*
X1401574Y1211437D02*
D03*
X1366535D02*
D03*
D44*
Y1188209D02*
D03*
X1401574D02*
D03*
D45*
X1390354Y1211831D02*
D03*
X1387204D02*
D03*
X1384055D02*
D03*
X1380905D02*
D03*
X1377755D02*
D03*
D46*
X1218602Y1316929D02*
D03*
D47*
X1226476Y1320768D02*
D03*
Y1318209D02*
D03*
Y1315650D02*
D03*
Y1313091D02*
D03*
X1210728D02*
D03*
Y1315650D02*
D03*
Y1318209D02*
D03*
Y1320768D02*
D03*
D48*
X1222441Y1309055D02*
D03*
X1219882D02*
D03*
X1214764D02*
D03*
Y1324803D02*
D03*
X1217323D02*
D03*
X1219882D02*
D03*
X1222441D02*
D03*
X1217323Y1309055D02*
D03*
D49*
X1257185Y1307087D02*
D03*
X1235138D02*
D03*
D50*
X1245276Y1504921D02*
D03*
X1241535D02*
D03*
X1237795D02*
D03*
Y1495276D02*
D03*
X1245276D02*
D03*
D51*
X1237697Y1487303D02*
D03*
X1245374D02*
D03*
X1237697Y1516831D02*
D03*
X1245374D02*
D03*
X1395508Y1462878D02*
D03*
X1387831D02*
D03*
D52*
X1359646Y1375098D02*
D03*
X1339173D02*
D03*
X1401940Y1451020D02*
D03*
X1381468D02*
D03*
D53*
X1416535Y1340551D02*
D03*
D54*
X1376968Y1327165D02*
D03*
Y1333858D02*
D03*
Y1340551D02*
D03*
Y1347244D02*
D03*
Y1353937D02*
D03*
D55*
X1327659Y1214592D02*
D03*
X1329659Y1212592D02*
D03*
Y1214592D02*
D03*
D56*
X1327509Y1212442D02*
D03*
D57*
X1329709Y1207677D02*
D03*
Y1203740D02*
D03*
X1339567Y1226378D02*
D03*
Y1222441D02*
D03*
D58*
X1333591Y1245125D02*
D03*
X1331622D02*
D03*
X1329653D02*
D03*
X1327685D02*
D03*
X1325716D02*
D03*
Y1229771D02*
D03*
X1327685D02*
D03*
X1329653D02*
D03*
X1331622D02*
D03*
X1333591D02*
D03*
D59*
X1321976Y1241385D02*
D03*
Y1239417D02*
D03*
Y1237448D02*
D03*
Y1235480D02*
D03*
Y1233511D02*
D03*
X1337331D02*
D03*
Y1235480D02*
D03*
Y1237448D02*
D03*
Y1239417D02*
D03*
Y1241385D02*
D03*
D60*
X1302196Y1232468D02*
D03*
Y1216720D02*
D03*
X1292747D02*
D03*
Y1232468D02*
D03*
D61*
X1362659Y1415587D02*
D03*
X1405375D02*
D03*
D62*
X1400591Y1480315D02*
D03*
D63*
X1390354Y1487815D02*
D03*
Y1482815D02*
D03*
Y1477815D02*
D03*
Y1472815D02*
D03*
X1410827Y1487815D02*
D03*
Y1482815D02*
D03*
Y1477815D02*
D03*
Y1472815D02*
D03*
D64*
X1396653Y1537402D02*
D03*
Y1524606D02*
D03*
X1407480D02*
D03*
Y1537402D02*
D03*
X1349409Y1525591D02*
D03*
X1338583Y1536417D02*
D03*
D65*
Y1525591D02*
D03*
X1349409Y1536417D02*
D03*
D66*
X1425031Y1446004D02*
D03*
Y1466476D02*
D03*
D67*
X1428248Y1256496D02*
D03*
Y1251378D02*
D03*
X1420177D02*
D03*
Y1253937D02*
D03*
Y1256496D02*
D03*
D122*
X1329751Y1240681D02*
D03*
X1329767Y1234199D02*
D03*
D123*
X1332917Y1237447D02*
D03*
X1326618D02*
D03*
M02*
