M48
;Layer_Color=9474304
;FILE_FORMAT=2:5
INCH,LZ
;TYPE=PLATED
T1F00S00C0.01200
T2F00S00C0.02400
T3F00S00C0.03000
T4F00S00C0.03150
T5F00S00C0.03543
T6F00S00C0.05118
T7F00S00C0.05906
T8F00S00C0.12598
;TYPE=NON_PLATED
T9F00S00C0.03937
%
T01
X1434941Y1187579
X1445472Y1185532
X1411122Y124252
X1401378Y1242126
X1385532Y1240748
X1381102Y1222461
X1374213Y1214567
X1357382Y1210335
X1352331Y1208449
X1357331Y1203449
Y1193449
X1358957Y1188583
X1357331Y1183449
X1317331
X1322331Y1188449
Y1198449
X1317331Y1203449
X1322331Y1208449
X1327331Y1213449
X1312331Y1208449
Y1198449
X130374Y1198917
X1312331Y1188449
X1317331Y1193449
X1341831Y1229949
X1342187Y124701
X1338487Y1246952
X1353248Y1245965
X132372Y1249508
X1304035Y1248473
X1300098Y1248425
X1304331Y1244783
X1294094Y1237697
X1296555Y1234252
X1291535
X1250984Y1237697
X125502Y1199213
X1260236Y1204331
X1223622Y120187
X1201673Y1213386
X1248917Y125561
X1227165Y1284842
X1221161Y130502
X1217323Y1304331
X1210138Y1306201
Y1299016
X1215847Y1314173
X1221358
Y1319685
X1215847
X1202362Y1316634
X1190059Y1319291
X118435Y1333661
X1207185Y1328051
X1225787Y1326476
X1228347Y1323917
X1227059Y1339983
X1224508Y1343898
X1231791
X1234348Y1339983
X1228308Y1354298
X122185Y1360433
X1216135Y1366732
X1217618Y1370571
X1217323Y1374902
X1221358Y1374705
X1216535Y138061
X1234115Y136483
X1239468Y1393799
X1235039Y1399902
X1249705Y1394587
X124311Y1319193
X1255709Y1329626
Y1333366
Y1337008
X1271986Y1337439
X1274107Y133956
X1276229Y1341681
X1280709Y1341535
Y1347638
X1285236Y1347933
X1285236Y1338976
X1290158Y1336516
X1290453Y1330906
X1280512Y1316142
X1278642Y1300394
X1279331Y1287697
X1287697Y1305315
X132628Y1297835
X1328543Y1286811
X1332972Y1285532
X133563Y1288681
X1339075Y1292224
X1341535Y1295177
X1341535Y1275787
X133878Y1272933
X1331496Y1276378
X1326476Y1278248
X1322441Y1257185
X1305217Y1258465
X1303095Y1256343
X1302559Y1261614
X1298587Y1262168
X1294783Y1264862
X1297441Y125128
X1338629Y1250736
X1363583Y1251968
X1365748Y1267815
X1363091Y1272047
X136378Y1277461
X1360335Y1279528
X1354921Y1282087
Y1275
X1348917Y1269094
X1360335Y1289468
X1376575Y127815
X1389075Y1269488
X1400984Y1272539
X1393504Y1254035
X1388583Y1252067
X1387992Y129626
X1390748Y1299016
X1397146Y130935
X1393012Y1322539
X1387598Y1321555
X1374536Y1320739
X1368406Y1317126
X1355807Y1319488
X1347441Y1316142
X1350984Y1310532
X1354626Y1342913
X1329528Y1351968
X1322342Y1350886
X1316142Y1348228
X1316043Y1339272
X1312894Y1341043
X1319291
X1322342Y1339075
X1306201Y1371653
X1283071Y1369488
X1255217Y1370472
X1324835Y1397079
X1326601Y1400124
X1328642Y1402461
X1367488Y1402234
X1369609Y1400113
X1371731Y1397991
X1371555Y136122
X1387697Y1359941
X1392913Y1363484
X1267717Y1266339
X1259842
X1417815Y1255512
X1428445Y1300591
X1415875Y1317745
X1410221Y1328067
X1416142Y1340059
X1409366Y1352083
X1407185Y1360433
X1429823Y1363878
X1417126Y1377854
X143878Y1325984
X1455807Y1430413
X1351083Y1419437
Y1416437
X1318854Y1416732
X1322604Y1435897
X1328083Y1440091
X1312402Y1436024
X1307776Y1432677
X1301575Y1434449
X1274311Y145315
X1255118Y1447835
X1258366Y1463681
X1308661Y1482972
X1369488Y1513091
X123937Y1477756
X1218406Y1479134
X1215945Y1475787
X120876Y1453051
X1220079Y1440354
X1223079
X1235433Y1428248
X1243701Y1418898
X1241339Y1406988
X123189Y1410925
T02
X1219094Y1341043
X1445571Y1327165
X1444685Y1252264
X1255315Y1480118
X1212598Y1423228
T03
X1207402Y1228543
X1217402
T04
X1276575Y1186024
X1286417
X129626
T05
X1419291Y1191772
Y1201772
X1399803Y1228563
X1389803
X1379803
X1369803
X1261732Y1187638
X1251732
X1241732
X1231732
X1221732
X1211732
X1201732
X1259882Y1358268
X1269882
X1279882
X1289882
X1299882
X1309882
X1319882
X1464567Y1331693
Y1321693
Y1311693
Y1301693
Y1434055
Y1444055
Y1454055
Y1464055
Y1474055
Y1484055
X1200945Y1481142
Y1491142
X1190945
Y1481142
Y1471142
X1200945
Y1461142
X1190945
Y1451142
X1200945
Y1441142
X1190945
T06
X1198661Y1554134
X1218661
T07
X1350787Y1389567
X1437205Y1436614
Y1475984
Y1515354
X1350787Y1562402
X126437Y1515354
Y1475984
Y1436614
T08
X1416732Y1226339
X1235512Y1226634
X1202598Y1345079
X1449646Y1345
Y1525669
X1202598
T09
X1375394Y1201988
X1392717
M30
